<svg width="16" height="16" viewBox="0 0 16 16" fill="none" xmlns="http://www.w3.org/2000/svg">
<path d="M12.5 1.5H3.5C2.39543 1.5 1.5 2.39543 1.5 3.5V12.5C1.5 13.6046 2.39543 14.5 3.5 14.5H12.5C13.6046 14.5 14.5 13.6046 14.5 12.5V3.5C14.5 2.39543 13.6046 1.5 12.5 1.5Z" stroke="#555761" stroke-linecap="round" stroke-linejoin="round"/>
<circle cx="6.0804" cy="6.01595" r="1.99837" stroke="#555761" stroke-width="1.5"/>
<circle cx="10.823" cy="5.10599" r="1.33842" stroke="#555761"/>
<rect x="3.01978" y="10.6819" width="1" height="2.29433" fill="#555761"/>
<rect x="3.26978" y="10.9319" width="0.5" height="1.79433" stroke="#555761" stroke-opacity="0.75" stroke-width="0.5"/>
<rect x="4.93799" y="10.6819" width="1" height="2.29434" fill="#555761"/>
<rect x="5.18799" y="10.9319" width="0.5" height="1.79434" stroke="#555761" stroke-opacity="0.75" stroke-width="0.5"/>
<mask id="path-8-inside-1_1150_2" fill="white">
<path d="M8.2356 10.6908H9.2356V12.9851H8.2356V10.6908Z"/>
</mask>
<path d="M8.2356 10.6908H9.2356V12.9851H8.2356V10.6908Z" fill="#555761"/>
<path d="M8.2356 10.6908V9.69077H7.2356V10.6908H8.2356ZM9.2356 10.6908H10.2356V9.69077H9.2356V10.6908ZM9.2356 12.9851V13.9851H10.2356V12.9851H9.2356ZM8.2356 12.9851H7.2356V13.9851H8.2356V12.9851ZM8.2356 11.6908H9.2356V9.69077H8.2356V11.6908ZM8.2356 10.6908V12.9851H10.2356V10.6908H8.2356ZM9.2356 11.9851H8.2356V13.9851H9.2356V11.9851ZM9.2356 12.9851V10.6908H7.2356V12.9851H9.2356Z" fill="#555761" fill-opacity="0.75" mask="url(#path-8-inside-1_1150_2)"/>
<rect x="10.1206" y="10.7057" width="1" height="2.29434" fill="#555761"/>
<rect x="10.3706" y="10.9557" width="0.5" height="1.79434" stroke="#555761" stroke-opacity="0.75" stroke-width="0.5"/>
<rect x="12.0056" y="10.7057" width="1" height="2.27944" fill="#555761"/>
<rect x="12.2556" y="10.9557" width="0.5" height="1.77944" stroke="#555761" stroke-opacity="0.75" stroke-width="0.5"/>
<path fill-rule="evenodd" clip-rule="evenodd" d="M2.00006 8.80842H6.34046L8.42607 6.40878H14.0062V10C14.0062 10.2428 14.0052 10.3708 14.0044 10.4708C14.0032 10.6169 14.0026 10.7032 14.0062 11H2.00006L2.00002 10.6642C1.99998 10.4571 1.99996 10.3536 2.00028 10C2.00074 9.5 2.00006 8.80842 2.00006 8.80842ZM10.4508 8.54172C10.4508 8.94659 10.1226 9.27479 9.71774 9.27479C9.31288 9.27479 8.98468 8.94659 8.98468 8.54172C8.98468 8.13686 9.31288 7.80865 9.71774 7.80865C10.1226 7.80865 10.4508 8.13686 10.4508 8.54172ZM11.8596 9.27479C12.2645 9.27479 12.5927 8.94659 12.5927 8.54172C12.5927 8.13686 12.2645 7.80865 11.8596 7.80865C11.4547 7.80865 11.1265 8.13686 11.1265 8.54172C11.1265 8.94659 11.4547 9.27479 11.8596 9.27479Z" fill="#555761"/>
<path d="M2 9H7L9 7H14V2H2V9Z" fill="#555761" fill-opacity="0.25"/>
<rect x="8" y="7" width="5" height="3" fill="#555761" fill-opacity="0.75"/>
</svg>
