<svg width="16" height="16" viewBox="0 0 16 16" fill="none" xmlns="http://www.w3.org/2000/svg">
<path d="M1.00001 4.99996C1.00001 3.6382 3.00001 3.6382 3.00001 4.99996C3.00001 6.70055 2.99999 9.50003 3 11C3.00001 12.2894 1.00001 12.2894 1 11C0.999994 9.71057 1 6.36173 1.00001 4.99996Z" fill="#555761"/>
<path d="M13 5.02713C13 3.66536 15 3.66536 15 5.02713C15 6.72771 15 9.52719 15 11.0272C15 12.3166 13 12.3166 13 11.0272C13 9.73773 13 6.3889 13 5.02713Z" fill="#555761"/>
<circle opacity="0.3" cx="4.99435" cy="7.97284" r="1" fill="#555761" fill-opacity="0.9318"/>
<circle opacity="0.3" cx="7.98834" cy="7.97284" r="1" fill="#555761" fill-opacity="0.9318"/>
<circle opacity="0.3" cx="10.9942" cy="8" r="1" fill="#555761" fill-opacity="0.9318"/>
</svg>
