<svg width="35" height="20" viewBox="0 0 35 20" fill="none" xmlns="http://www.w3.org/2000/svg">
<path d="M25.5213 19.4978H25.7455L25.8946 19.3305L33.0335 11.3191L33.3329 10.9831L33.0302 10.6501L23.9749 0.689538L23.8263 0.526133L23.6055 0.525879L2.9805 0.502137L1.85597 0.500842L2.6083 1.33665L11.3093 11.0031L4.62 18.6691L3.89685 19.4978H4.99674H25.5213Z" stroke="black" stroke-opacity="0.02"/>
<g filter="url(#filter0_i)">
<path d="M25.0759 17.9982H7.31979L13.3368 10.9982L5.31979 1.99823H23.0759L31.3198 10.9982L25.0759 17.9982Z" fill="url(#paint0_linear)"/>
</g>
<path d="M25.0759 18.4982H25.2999L25.449 18.3311L31.6929 11.3311L31.9938 10.9938L31.6885 10.6605L23.4446 1.6605L23.296 1.49823H23.0759H5.31979H4.2048L4.94644 2.3308L12.6724 11.0041L6.94062 17.6723L6.23068 18.4982H7.31979H25.0759Z" stroke="url(#paint1_linear)"/>
<defs>
<filter id="filter0_i" x="2.08981" y="-1.00177" width="30.5779" height="20" filterUnits="userSpaceOnUse" color-interpolation-filters="sRGB">
<feFlood flood-opacity="0" result="BackgroundImageFix"/>
<feBlend mode="normal" in="SourceGraphic" in2="BackgroundImageFix" result="shape"/>
<feColorMatrix in="SourceAlpha" type="matrix" values="0 0 0 0 0 0 0 0 0 0 0 0 0 0 0 0 0 0 127 0" result="hardAlpha"/>
<feOffset dx="-1" dy="-2"/>
<feGaussianBlur stdDeviation="2"/>
<feComposite in2="hardAlpha" operator="arithmetic" k2="-1" k3="1"/>
<feColorMatrix type="matrix" values="0 0 0 0 1 0 0 0 0 1 0 0 0 0 0 0 0 0 0.5 0"/>
<feBlend mode="normal" in2="shape" result="effect1_innerShadow"/>
</filter>
<linearGradient id="paint0_linear" x1="19.8399" y1="1.99823" x2="19.8399" y2="17.9982" gradientUnits="userSpaceOnUse">
<stop stop-color="#D98B8B"/>
<stop offset="0.53125" stop-color="#A82323"/>
<stop offset="0.552083" stop-color="#8D0000"/>
<stop offset="1" stop-color="#FF0000"/>
</linearGradient>
<linearGradient id="paint1_linear" x1="18.0556" y1="1.99823" x2="22.1656" y2="17.9982" gradientUnits="userSpaceOnUse">
<stop stop-color="#F5DAF1"/>
<stop offset="0.0364583" stop-color="#FFC8C8"/>
<stop offset="0.6875" stop-color="#F25C53"/>
<stop offset="0.802083" stop-color="#FFA41D"/>
</linearGradient>
</defs>
</svg>
