<svg width="108" height="160" viewBox="0 0 108 160" fill="none" xmlns="http://www.w3.org/2000/svg">
<path opacity="0.7" d="M34.3596 24.6665L33.6346 25.4957H34.736H49.0895H49.3177L49.4672 25.3233L56.3777 17.3569L56.6619 17.0293L56.3777 16.7016L49.4672 8.73523L49.3177 8.56287H49.0895H34.736H33.6346L34.3596 9.39199L41.0375 17.0293L34.3596 24.6665Z" stroke="black"/>
<g filter="url(#filter0_i_1137_90)">
<path d="M48.5654 23.9335H37.1028L43.0683 17.0293L36.9483 10.1251H48.561L54.6756 17.0293L48.5654 23.9335Z" fill="url(#paint0_linear_1137_90)" fill-opacity="0.75"/>
</g>
<path d="M36.7244 23.6066L36.0099 24.4335H37.1028H48.5654H48.7906L48.9398 24.2648L55.05 17.3606L55.3433 17.0292L55.0499 16.6978L48.9353 9.79356L48.7861 9.62506H48.561H36.9483H35.837L36.5742 10.4567L42.4039 17.0335L36.7244 23.6066Z" stroke="url(#paint1_linear_1137_90)" stroke-opacity="0.5"/>
<path opacity="0.7" d="M53.6236 24.6037L52.8986 25.4328H54H68.3536H68.5817L68.7313 25.2604L75.6417 17.294L75.9259 16.9664L75.6417 16.6388L68.7313 8.67236L68.5817 8.5H68.3536H54H52.8986L53.6236 9.32912L60.3015 16.9664L53.6236 24.6037Z" stroke="black"/>
<g filter="url(#filter1_i_1137_90)">
<path d="M67.8294 23.8706H56.3668L62.3323 16.9664L56.2124 10.0622H67.825L73.9396 16.9664L67.8294 23.8706Z" fill="url(#paint2_linear_1137_90)" fill-opacity="0.75"/>
</g>
<path d="M55.9885 23.5437L55.274 24.3706H56.3668H67.8294H68.0546L68.2038 24.202L74.314 17.2978L74.6074 16.9663L74.3139 16.6349L68.1994 9.7307L68.0501 9.56219H67.825H56.2124H55.101L55.8382 10.3939L61.6679 16.9706L55.9885 23.5437Z" stroke="url(#paint3_linear_1137_90)" stroke-opacity="0.5"/>
<path opacity="0.7" d="M72.6236 24.6037L71.8986 25.4328H73H87.3536H87.5817L87.7313 25.2604L94.6417 17.294L94.9259 16.9664L94.6417 16.6388L87.7313 8.67236L87.5817 8.5H87.3536H73H71.8986L72.6236 9.32912L79.3015 16.9664L72.6236 24.6037Z" stroke="black"/>
<g filter="url(#filter2_i_1137_90)">
<path d="M86.8294 23.8706H75.3668L81.3323 16.9664L75.2124 10.0622H86.825L92.9396 16.9664L86.8294 23.8706Z" fill="url(#paint4_linear_1137_90)" fill-opacity="0.75"/>
</g>
<path d="M74.9885 23.5437L74.274 24.3706H75.3668H86.8294H87.0546L87.2038 24.202L93.314 17.2978L93.6074 16.9663L93.3139 16.6349L87.1994 9.7307L87.0501 9.56219H86.825H75.2124H74.101L74.8382 10.3939L80.6679 16.9706L74.9885 23.5437Z" stroke="url(#paint5_linear_1137_90)" stroke-opacity="0.5"/>
<path opacity="0.7" d="M10.5166 24.6779L9.84343 25.4957H10.9026H30.2653H30.4982L30.648 25.3174L37.3827 17.306L37.6559 16.9811L37.3795 16.6588L28.8369 6.69824L28.6875 6.52402L28.458 6.52374L9.00061 6.5L7.91834 6.49868L8.61887 7.32364L16.8364 17.0008L10.5166 24.6779Z" stroke="black"/>
<g filter="url(#filter3_i_1137_90)">
<path d="M29.845 23.9961H13.0942L18.7705 16.9961L11.2074 7.99609H27.9583L35.7355 16.9961L29.845 23.9961Z" fill="url(#paint6_linear_1137_90)" fill-opacity="0.75"/>
</g>
<path d="M12.7058 23.6812L12.045 24.4961H13.0942H29.845H30.0778L30.2276 24.318L36.118 17.318L36.3926 16.9918L36.1138 16.6692L28.3366 7.66918L28.187 7.49609H27.9583H11.2074H10.1341L10.8246 8.31777L18.1222 17.0018L12.7058 23.6812Z" stroke="url(#paint7_linear_1137_90)" stroke-opacity="0.5"/>
<path opacity="0.7" d="M34.3596 56.6665L33.6346 57.4957H34.736H49.0895H49.3177L49.4672 57.3233L56.3777 49.3569L56.6619 49.0293L56.3777 48.7016L49.4672 40.7352L49.3177 40.5629H49.0895H34.736H33.6346L34.3596 41.392L41.0375 49.0293L34.3596 56.6665Z" stroke="black"/>
<g filter="url(#filter4_i_1137_90)">
<path d="M48.5654 55.9335H37.1028L43.0683 49.0293L36.9483 42.1251H48.561L54.6756 49.0293L48.5654 55.9335Z" fill="url(#paint8_linear_1137_90)" fill-opacity="0.75"/>
</g>
<path d="M36.7244 55.6066L36.0099 56.4335H37.1028H48.5654H48.7906L48.9398 56.2648L55.05 49.3606L55.3433 49.0292L55.0499 48.6978L48.9353 41.7936L48.7861 41.6251H48.561H36.9483H35.837L36.5742 42.4567L42.4039 49.0335L36.7244 55.6066Z" stroke="url(#paint9_linear_1137_90)" stroke-opacity="0.5"/>
<path opacity="0.7" d="M53.6236 56.6037L52.8986 57.4328H54H68.3536H68.5817L68.7313 57.2604L75.6417 49.294L75.9259 48.9664L75.6417 48.6388L68.7313 40.6724L68.5817 40.5H68.3536H54H52.8986L53.6236 41.3291L60.3015 48.9664L53.6236 56.6037Z" stroke="black"/>
<g filter="url(#filter5_i_1137_90)">
<path d="M67.8294 55.8706H56.3668L62.3323 48.9664L56.2124 42.0622H67.825L73.9396 48.9664L67.8294 55.8706Z" fill="url(#paint10_linear_1137_90)" fill-opacity="0.75"/>
</g>
<path d="M55.9885 55.5437L55.274 56.3706H56.3668H67.8294H68.0546L68.2038 56.202L74.314 49.2978L74.6074 48.9663L74.3139 48.6349L68.1994 41.7307L68.0501 41.5622H67.825H56.2124H55.101L55.8382 42.3939L61.6679 48.9706L55.9885 55.5437Z" stroke="url(#paint11_linear_1137_90)" stroke-opacity="0.5"/>
<path opacity="0.7" d="M72.6236 56.6037L71.8986 57.4328H73H87.3536H87.5817L87.7313 57.2604L94.6417 49.294L94.9259 48.9664L94.6417 48.6388L87.7313 40.6724L87.5817 40.5H87.3536H73H71.8986L72.6236 41.3291L79.3015 48.9664L72.6236 56.6037Z" stroke="black"/>
<g filter="url(#filter6_i_1137_90)">
<path d="M86.8294 55.8706H75.3668L81.3323 48.9664L75.2124 42.0622H86.825L92.9396 48.9664L86.8294 55.8706Z" fill="url(#paint12_linear_1137_90)" fill-opacity="0.75"/>
</g>
<path d="M74.9885 55.5437L74.274 56.3706H75.3668H86.8294H87.0546L87.2038 56.202L93.314 49.2978L93.6074 48.9663L93.3139 48.6349L87.1994 41.7307L87.0501 41.5622H86.825H75.2124H74.101L74.8382 42.3939L80.6679 48.9706L74.9885 55.5437Z" stroke="url(#paint13_linear_1137_90)" stroke-opacity="0.5"/>
<path opacity="0.7" d="M10.5166 56.6779L9.84343 57.4957H10.9026H30.2653H30.4982L30.648 57.3174L37.3827 49.306L37.6559 48.9811L37.3795 48.6588L28.8369 38.6982L28.6875 38.524L28.458 38.5237L9.00061 38.5L7.91834 38.4987L8.61887 39.3236L16.8364 49.0008L10.5166 56.6779Z" stroke="black"/>
<g filter="url(#filter7_di_1137_90)">
<path d="M29.845 55.9961H13.0942L18.7705 48.9961L11.2074 39.9961H27.9583L35.7355 48.9961L29.845 55.9961Z" fill="url(#paint14_linear_1137_90)"/>
<path d="M12.7058 55.6812L12.045 56.4961H13.0942H29.845H30.0778L30.2276 56.318L36.118 49.318L36.3926 48.9918L36.1138 48.6692L28.3366 39.6692L28.187 39.4961H27.9583H11.2074H10.1341L10.8246 40.3178L18.1222 49.0018L12.7058 55.6812Z" stroke="url(#paint15_linear_1137_90)"/>
</g>
<path opacity="0.7" d="M34.3596 88.6665L33.6346 89.4957H34.736H49.0895H49.3177L49.4672 89.3233L56.3777 81.3569L56.6619 81.0293L56.3777 80.7016L49.4672 72.7352L49.3177 72.5629H49.0895H34.736H33.6346L34.3596 73.392L41.0375 81.0293L34.3596 88.6665Z" stroke="black"/>
<g filter="url(#filter8_di_1137_90)">
<path d="M48.5654 87.9335H37.1028L43.0683 81.0293L36.9483 74.1251H48.561L54.6756 81.0293L48.5654 87.9335Z" fill="url(#paint16_linear_1137_90)"/>
<path d="M36.7244 87.6066L36.0099 88.4335H37.1028H48.5654H48.7906L48.9398 88.2648L55.05 81.3606L55.3433 81.0292L55.0499 80.6978L48.9353 73.7936L48.7861 73.6251H48.561H36.9483H35.837L36.5742 74.4567L42.4039 81.0335L36.7244 87.6066Z" stroke="url(#paint17_linear_1137_90)"/>
</g>
<path opacity="0.7" d="M53.6236 88.6037L52.8986 89.4328H54H68.3536H68.5817L68.7313 89.2604L75.6417 81.294L75.9259 80.9664L75.6417 80.6388L68.7313 72.6724L68.5817 72.5H68.3536H54H52.8986L53.6236 73.3291L60.3015 80.9664L53.6236 88.6037Z" stroke="black"/>
<g filter="url(#filter9_i_1137_90)">
<path d="M67.8294 87.8706H56.3668L62.3323 80.9664L56.2124 74.0622H67.825L73.9396 80.9664L67.8294 87.8706Z" fill="url(#paint18_linear_1137_90)" fill-opacity="0.75"/>
</g>
<path d="M55.9885 87.5437L55.274 88.3706H56.3668H67.8294H68.0546L68.2038 88.202L74.314 81.2978L74.6074 80.9663L74.3139 80.6349L68.1994 73.7307L68.0501 73.5622H67.825H56.2124H55.101L55.8382 74.3939L61.6679 80.9706L55.9885 87.5437Z" stroke="url(#paint19_linear_1137_90)" stroke-opacity="0.5"/>
<path opacity="0.7" d="M72.6236 88.6037L71.8986 89.4328H73H87.3536H87.5817L87.7313 89.2604L94.6417 81.294L94.9259 80.9664L94.6417 80.6388L87.7313 72.6724L87.5817 72.5H87.3536H73H71.8986L72.6236 73.3291L79.3015 80.9664L72.6236 88.6037Z" stroke="black"/>
<g filter="url(#filter10_i_1137_90)">
<path d="M86.8294 87.8706H75.3668L81.3323 80.9664L75.2124 74.0622H86.825L92.9396 80.9664L86.8294 87.8706Z" fill="url(#paint20_linear_1137_90)" fill-opacity="0.75"/>
</g>
<path d="M74.9885 87.5437L74.274 88.3706H75.3668H86.8294H87.0546L87.2038 88.202L93.314 81.2978L93.6074 80.9663L93.3139 80.6349L87.1994 73.7307L87.0501 73.5622H86.825H75.2124H74.101L74.8382 74.3939L80.6679 80.9706L74.9885 87.5437Z" stroke="url(#paint21_linear_1137_90)" stroke-opacity="0.5"/>
<path opacity="0.7" d="M10.5166 88.6779L9.84343 89.4957H10.9026H30.2653H30.4982L30.648 89.3174L37.3827 81.306L37.6559 80.9811L37.3795 80.6588L28.8369 70.6982L28.6875 70.524L28.458 70.5237L9.00061 70.5L7.91834 70.4987L8.61887 71.3236L16.8364 81.0008L10.5166 88.6779Z" stroke="black"/>
<g filter="url(#filter11_i_1137_90)">
<path d="M29.845 87.9961H13.0942L18.7705 80.9961L11.2074 71.9961H27.9583L35.7355 80.9961L29.845 87.9961Z" fill="url(#paint22_linear_1137_90)" fill-opacity="0.75"/>
</g>
<path d="M12.7058 87.6812L12.045 88.4961H13.0942H29.845H30.0778L30.2276 88.318L36.118 81.318L36.3926 80.9918L36.1138 80.6692L28.3366 71.6692L28.187 71.4961H27.9583H11.2074H10.1341L10.8246 72.3178L18.1222 81.0018L12.7058 87.6812Z" stroke="url(#paint23_linear_1137_90)" stroke-opacity="0.5"/>
<path opacity="0.7" d="M34.3596 120.667L33.6346 121.496H34.736H49.0895H49.3177L49.4672 121.323L56.3777 113.357L56.6619 113.029L56.3777 112.702L49.4672 104.735L49.3177 104.563H49.0895H34.736H33.6346L34.3596 105.392L41.0375 113.029L34.3596 120.667Z" stroke="black"/>
<g filter="url(#filter12_i_1137_90)">
<path d="M48.5654 119.934H37.1028L43.0683 113.029L36.9483 106.125H48.561L54.6756 113.029L48.5654 119.934Z" fill="url(#paint24_linear_1137_90)" fill-opacity="0.75"/>
</g>
<path d="M36.7244 119.607L36.0099 120.434H37.1028H48.5654H48.7906L48.9398 120.265L55.05 113.361L55.3433 113.029L55.0499 112.698L48.9353 105.794L48.7861 105.625H48.561H36.9483H35.837L36.5742 106.457L42.4039 113.034L36.7244 119.607Z" stroke="url(#paint25_linear_1137_90)" stroke-opacity="0.5"/>
<path opacity="0.7" d="M53.6236 120.604L52.8986 121.433H54H68.3536H68.5817L68.7313 121.26L75.6417 113.294L75.9259 112.966L75.6417 112.639L68.7313 104.672L68.5817 104.5H68.3536H54H52.8986L53.6236 105.329L60.3015 112.966L53.6236 120.604Z" stroke="black"/>
<g filter="url(#filter13_di_1137_90)">
<path d="M67.8294 119.871H56.3668L62.3323 112.966L56.2124 106.062H67.825L73.9396 112.966L67.8294 119.871Z" fill="url(#paint26_linear_1137_90)"/>
<path d="M55.9885 119.544L55.274 120.371H56.3668H67.8294H68.0546L68.2038 120.202L74.314 113.298L74.6074 112.966L74.3139 112.635L68.1994 105.731L68.0501 105.562H67.825H56.2124H55.101L55.8382 106.394L61.6679 112.971L55.9885 119.544Z" stroke="url(#paint27_linear_1137_90)"/>
</g>
<path opacity="0.7" d="M72.6236 120.604L71.8986 121.433H73H87.3536H87.5817L87.7313 121.26L94.6417 113.294L94.9259 112.966L94.6417 112.639L87.7313 104.672L87.5817 104.5H87.3536H73H71.8986L72.6236 105.329L79.3015 112.966L72.6236 120.604Z" stroke="black"/>
<g filter="url(#filter14_i_1137_90)">
<path d="M86.8294 119.871H75.3668L81.3323 112.966L75.2124 106.062H86.825L92.9396 112.966L86.8294 119.871Z" fill="url(#paint28_linear_1137_90)" fill-opacity="0.75"/>
</g>
<path d="M74.9885 119.544L74.274 120.371H75.3668H86.8294H87.0546L87.2038 120.202L93.314 113.298L93.6074 112.966L93.3139 112.635L87.1994 105.731L87.0501 105.562H86.825H75.2124H74.101L74.8382 106.394L80.6679 112.971L74.9885 119.544Z" stroke="url(#paint29_linear_1137_90)" stroke-opacity="0.5"/>
<path opacity="0.7" d="M10.5166 120.678L9.84343 121.496H10.9026H30.2653H30.4982L30.648 121.317L37.3827 113.306L37.6559 112.981L37.3795 112.659L28.8369 102.698L28.6875 102.524L28.458 102.524L9.00061 102.5L7.91834 102.499L8.61887 103.324L16.8364 113.001L10.5166 120.678Z" stroke="black"/>
<g filter="url(#filter15_i_1137_90)">
<path d="M29.845 119.996H13.0942L18.7705 112.996L11.2074 103.996H27.9583L35.7355 112.996L29.845 119.996Z" fill="url(#paint30_linear_1137_90)" fill-opacity="0.75"/>
</g>
<path d="M12.7058 119.681L12.045 120.496H13.0942H29.845H30.0778L30.2276 120.318L36.118 113.318L36.3926 112.992L36.1138 112.669L28.3366 103.669L28.187 103.496H27.9583H11.2074H10.1341L10.8246 104.318L18.1222 113.002L12.7058 119.681Z" stroke="url(#paint31_linear_1137_90)" stroke-opacity="0.5"/>
<path opacity="0.7" d="M34.3596 152.667L33.6346 153.496H34.736H49.0895H49.3177L49.4672 153.323L56.3777 145.357L56.6619 145.029L56.3777 144.702L49.4672 136.735L49.3177 136.563H49.0895H34.736H33.6346L34.3596 137.392L41.0375 145.029L34.3596 152.667Z" stroke="black"/>
<g filter="url(#filter16_i_1137_90)">
<path d="M48.5654 151.934H37.1028L43.0683 145.029L36.9483 138.125H48.561L54.6756 145.029L48.5654 151.934Z" fill="url(#paint32_linear_1137_90)" fill-opacity="0.75"/>
</g>
<path d="M36.7244 151.607L36.0099 152.434H37.1028H48.5654H48.7906L48.9398 152.265L55.05 145.361L55.3433 145.029L55.0499 144.698L48.9353 137.794L48.7861 137.625H48.561H36.9483H35.837L36.5742 138.457L42.4039 145.034L36.7244 151.607Z" stroke="url(#paint33_linear_1137_90)" stroke-opacity="0.5"/>
<path opacity="0.7" d="M53.6236 152.604L52.8986 153.433H54H68.3536H68.5817L68.7313 153.26L75.6417 145.294L75.9259 144.966L75.6417 144.639L68.7313 136.672L68.5817 136.5H68.3536H54H52.8986L53.6236 137.329L60.3015 144.966L53.6236 152.604Z" stroke="black"/>
<g filter="url(#filter17_i_1137_90)">
<path d="M67.8294 151.871H56.3668L62.3323 144.966L56.2124 138.062H67.825L73.9396 144.966L67.8294 151.871Z" fill="url(#paint34_linear_1137_90)" fill-opacity="0.75"/>
</g>
<path d="M55.9885 151.544L55.274 152.371H56.3668H67.8294H68.0546L68.2038 152.202L74.314 145.298L74.6074 144.966L74.3139 144.635L68.1994 137.731L68.0501 137.562H67.825H56.2124H55.101L55.8382 138.394L61.6679 144.971L55.9885 151.544Z" stroke="url(#paint35_linear_1137_90)" stroke-opacity="0.5"/>
<path opacity="0.7" d="M72.6236 152.604L71.8986 153.433H73H87.3536H87.5817L87.7313 153.26L94.6417 145.294L94.9259 144.966L94.6417 144.639L87.7313 136.672L87.5817 136.5H87.3536H73H71.8986L72.6236 137.329L79.3015 144.966L72.6236 152.604Z" stroke="black"/>
<g filter="url(#filter18_di_1137_90)">
<path d="M86.8294 151.871H75.3668L81.3323 144.966L75.2124 138.062H86.825L92.9396 144.966L86.8294 151.871Z" fill="url(#paint36_linear_1137_90)"/>
<path d="M74.9885 151.544L74.274 152.371H75.3668H86.8294H87.0546L87.2038 152.202L93.314 145.298L93.6074 144.966L93.3139 144.635L87.1994 137.731L87.0501 137.562H86.825H75.2124H74.101L74.8382 138.394L80.6679 144.971L74.9885 151.544Z" stroke="url(#paint37_linear_1137_90)"/>
</g>
<path opacity="0.7" d="M10.5166 152.678L9.84343 153.496H10.9026H30.2653H30.4982L30.648 153.317L37.3827 145.306L37.6559 144.981L37.3795 144.659L28.8369 134.698L28.6875 134.524L28.458 134.524L9.00061 134.5L7.91834 134.499L8.61887 135.324L16.8364 145.001L10.5166 152.678Z" stroke="black"/>
<g filter="url(#filter19_i_1137_90)">
<path d="M29.845 151.996H13.0942L18.7705 144.996L11.2074 135.996H27.9583L35.7355 144.996L29.845 151.996Z" fill="url(#paint38_linear_1137_90)" fill-opacity="0.75"/>
</g>
<path d="M12.7058 151.681L12.045 152.496H13.0942H29.845H30.0778L30.2276 152.318L36.118 145.318L36.3926 144.992L36.1138 144.669L28.3366 135.669L28.187 135.496H27.9583H11.2074H10.1341L10.8246 136.318L18.1222 145.002L12.7058 151.681Z" stroke="url(#paint39_linear_1137_90)" stroke-opacity="0.5"/>
<defs>
<filter id="filter0_i_1137_90" x="33.7256" y="7.12506" width="22.2855" height="17.8084" filterUnits="userSpaceOnUse" color-interpolation-filters="sRGB">
<feFlood flood-opacity="0" result="BackgroundImageFix"/>
<feBlend mode="normal" in="SourceGraphic" in2="BackgroundImageFix" result="shape"/>
<feColorMatrix in="SourceAlpha" type="matrix" values="0 0 0 0 0 0 0 0 0 0 0 0 0 0 0 0 0 0 127 0" result="hardAlpha"/>
<feOffset dx="-1" dy="-2"/>
<feGaussianBlur stdDeviation="2"/>
<feComposite in2="hardAlpha" operator="arithmetic" k2="-1" k3="1"/>
<feColorMatrix type="matrix" values="0 0 0 0 1 0 0 0 0 1 0 0 0 0 1 0 0 0 0.15 0"/>
<feBlend mode="normal" in2="shape" result="effect1_innerShadow_1137_90"/>
</filter>
<filter id="filter1_i_1137_90" x="52.9897" y="7.06219" width="22.2855" height="17.8084" filterUnits="userSpaceOnUse" color-interpolation-filters="sRGB">
<feFlood flood-opacity="0" result="BackgroundImageFix"/>
<feBlend mode="normal" in="SourceGraphic" in2="BackgroundImageFix" result="shape"/>
<feColorMatrix in="SourceAlpha" type="matrix" values="0 0 0 0 0 0 0 0 0 0 0 0 0 0 0 0 0 0 127 0" result="hardAlpha"/>
<feOffset dx="-1" dy="-2"/>
<feGaussianBlur stdDeviation="2"/>
<feComposite in2="hardAlpha" operator="arithmetic" k2="-1" k3="1"/>
<feColorMatrix type="matrix" values="0 0 0 0 1 0 0 0 0 1 0 0 0 0 1 0 0 0 0.15 0"/>
<feBlend mode="normal" in2="shape" result="effect1_innerShadow_1137_90"/>
</filter>
<filter id="filter2_i_1137_90" x="71.9897" y="7.06219" width="22.2855" height="17.8084" filterUnits="userSpaceOnUse" color-interpolation-filters="sRGB">
<feFlood flood-opacity="0" result="BackgroundImageFix"/>
<feBlend mode="normal" in="SourceGraphic" in2="BackgroundImageFix" result="shape"/>
<feColorMatrix in="SourceAlpha" type="matrix" values="0 0 0 0 0 0 0 0 0 0 0 0 0 0 0 0 0 0 127 0" result="hardAlpha"/>
<feOffset dx="-1" dy="-2"/>
<feGaussianBlur stdDeviation="2"/>
<feComposite in2="hardAlpha" operator="arithmetic" k2="-1" k3="1"/>
<feColorMatrix type="matrix" values="0 0 0 0 1 0 0 0 0 1 0 0 0 0 1 0 0 0 0.15 0"/>
<feBlend mode="normal" in2="shape" result="effect1_innerShadow_1137_90"/>
</filter>
<filter id="filter3_i_1137_90" x="8.06085" y="4.99609" width="28.9888" height="20" filterUnits="userSpaceOnUse" color-interpolation-filters="sRGB">
<feFlood flood-opacity="0" result="BackgroundImageFix"/>
<feBlend mode="normal" in="SourceGraphic" in2="BackgroundImageFix" result="shape"/>
<feColorMatrix in="SourceAlpha" type="matrix" values="0 0 0 0 0 0 0 0 0 0 0 0 0 0 0 0 0 0 127 0" result="hardAlpha"/>
<feOffset dx="-1" dy="-2"/>
<feGaussianBlur stdDeviation="2"/>
<feComposite in2="hardAlpha" operator="arithmetic" k2="-1" k3="1"/>
<feColorMatrix type="matrix" values="0 0 0 0 1 0 0 0 0 1 0 0 0 0 1 0 0 0 0.15 0"/>
<feBlend mode="normal" in2="shape" result="effect1_innerShadow_1137_90"/>
</filter>
<filter id="filter4_i_1137_90" x="33.7256" y="39.1251" width="22.2855" height="17.8084" filterUnits="userSpaceOnUse" color-interpolation-filters="sRGB">
<feFlood flood-opacity="0" result="BackgroundImageFix"/>
<feBlend mode="normal" in="SourceGraphic" in2="BackgroundImageFix" result="shape"/>
<feColorMatrix in="SourceAlpha" type="matrix" values="0 0 0 0 0 0 0 0 0 0 0 0 0 0 0 0 0 0 127 0" result="hardAlpha"/>
<feOffset dx="-1" dy="-2"/>
<feGaussianBlur stdDeviation="2"/>
<feComposite in2="hardAlpha" operator="arithmetic" k2="-1" k3="1"/>
<feColorMatrix type="matrix" values="0 0 0 0 1 0 0 0 0 1 0 0 0 0 1 0 0 0 0.15 0"/>
<feBlend mode="normal" in2="shape" result="effect1_innerShadow_1137_90"/>
</filter>
<filter id="filter5_i_1137_90" x="52.9897" y="39.0622" width="22.2855" height="17.8084" filterUnits="userSpaceOnUse" color-interpolation-filters="sRGB">
<feFlood flood-opacity="0" result="BackgroundImageFix"/>
<feBlend mode="normal" in="SourceGraphic" in2="BackgroundImageFix" result="shape"/>
<feColorMatrix in="SourceAlpha" type="matrix" values="0 0 0 0 0 0 0 0 0 0 0 0 0 0 0 0 0 0 127 0" result="hardAlpha"/>
<feOffset dx="-1" dy="-2"/>
<feGaussianBlur stdDeviation="2"/>
<feComposite in2="hardAlpha" operator="arithmetic" k2="-1" k3="1"/>
<feColorMatrix type="matrix" values="0 0 0 0 1 0 0 0 0 1 0 0 0 0 1 0 0 0 0.15 0"/>
<feBlend mode="normal" in2="shape" result="effect1_innerShadow_1137_90"/>
</filter>
<filter id="filter6_i_1137_90" x="71.9897" y="39.0622" width="22.2855" height="17.8084" filterUnits="userSpaceOnUse" color-interpolation-filters="sRGB">
<feFlood flood-opacity="0" result="BackgroundImageFix"/>
<feBlend mode="normal" in="SourceGraphic" in2="BackgroundImageFix" result="shape"/>
<feColorMatrix in="SourceAlpha" type="matrix" values="0 0 0 0 0 0 0 0 0 0 0 0 0 0 0 0 0 0 127 0" result="hardAlpha"/>
<feOffset dx="-1" dy="-2"/>
<feGaussianBlur stdDeviation="2"/>
<feComposite in2="hardAlpha" operator="arithmetic" k2="-1" k3="1"/>
<feColorMatrix type="matrix" values="0 0 0 0 1 0 0 0 0 1 0 0 0 0 1 0 0 0 0.15 0"/>
<feBlend mode="normal" in2="shape" result="effect1_innerShadow_1137_90"/>
</filter>
<filter id="filter7_di_1137_90" x="1.06085" y="30.9961" width="43.9888" height="34" filterUnits="userSpaceOnUse" color-interpolation-filters="sRGB">
<feFlood flood-opacity="0" result="BackgroundImageFix"/>
<feColorMatrix in="SourceAlpha" type="matrix" values="0 0 0 0 0 0 0 0 0 0 0 0 0 0 0 0 0 0 127 0" result="hardAlpha"/>
<feOffset/>
<feGaussianBlur stdDeviation="4"/>
<feComposite in2="hardAlpha" operator="out"/>
<feColorMatrix type="matrix" values="0 0 0 0 1 0 0 0 0 0 0 0 0 0 0 0 0 0 0.5 0"/>
<feBlend mode="normal" in2="BackgroundImageFix" result="effect1_dropShadow_1137_90"/>
<feBlend mode="normal" in="SourceGraphic" in2="effect1_dropShadow_1137_90" result="shape"/>
<feColorMatrix in="SourceAlpha" type="matrix" values="0 0 0 0 0 0 0 0 0 0 0 0 0 0 0 0 0 0 127 0" result="hardAlpha"/>
<feOffset dx="-1" dy="-2"/>
<feGaussianBlur stdDeviation="2"/>
<feComposite in2="hardAlpha" operator="arithmetic" k2="-1" k3="1"/>
<feColorMatrix type="matrix" values="0 0 0 0 1 0 0 0 0 1 0 0 0 0 0 0 0 0 0.5 0"/>
<feBlend mode="normal" in2="shape" result="effect2_innerShadow_1137_90"/>
</filter>
<filter id="filter8_di_1137_90" x="28.7256" y="67.1251" width="33.2855" height="27.8084" filterUnits="userSpaceOnUse" color-interpolation-filters="sRGB">
<feFlood flood-opacity="0" result="BackgroundImageFix"/>
<feColorMatrix in="SourceAlpha" type="matrix" values="0 0 0 0 0 0 0 0 0 0 0 0 0 0 0 0 0 0 127 0" result="hardAlpha"/>
<feOffset/>
<feGaussianBlur stdDeviation="3"/>
<feComposite in2="hardAlpha" operator="out"/>
<feColorMatrix type="matrix" values="0 0 0 0 1 0 0 0 0 1 0 0 0 0 1 0 0 0 0.5 0"/>
<feBlend mode="normal" in2="BackgroundImageFix" result="effect1_dropShadow_1137_90"/>
<feBlend mode="normal" in="SourceGraphic" in2="effect1_dropShadow_1137_90" result="shape"/>
<feColorMatrix in="SourceAlpha" type="matrix" values="0 0 0 0 0 0 0 0 0 0 0 0 0 0 0 0 0 0 127 0" result="hardAlpha"/>
<feOffset dx="-1" dy="-2"/>
<feGaussianBlur stdDeviation="2"/>
<feComposite in2="hardAlpha" operator="arithmetic" k2="-1" k3="1"/>
<feColorMatrix type="matrix" values="0 0 0 0 1 0 0 0 0 1 0 0 0 0 1 0 0 0 1 0"/>
<feBlend mode="normal" in2="shape" result="effect2_innerShadow_1137_90"/>
</filter>
<filter id="filter9_i_1137_90" x="52.9897" y="71.0622" width="22.2855" height="17.8084" filterUnits="userSpaceOnUse" color-interpolation-filters="sRGB">
<feFlood flood-opacity="0" result="BackgroundImageFix"/>
<feBlend mode="normal" in="SourceGraphic" in2="BackgroundImageFix" result="shape"/>
<feColorMatrix in="SourceAlpha" type="matrix" values="0 0 0 0 0 0 0 0 0 0 0 0 0 0 0 0 0 0 127 0" result="hardAlpha"/>
<feOffset dx="-1" dy="-2"/>
<feGaussianBlur stdDeviation="2"/>
<feComposite in2="hardAlpha" operator="arithmetic" k2="-1" k3="1"/>
<feColorMatrix type="matrix" values="0 0 0 0 1 0 0 0 0 1 0 0 0 0 1 0 0 0 0.15 0"/>
<feBlend mode="normal" in2="shape" result="effect1_innerShadow_1137_90"/>
</filter>
<filter id="filter10_i_1137_90" x="71.9897" y="71.0622" width="22.2855" height="17.8084" filterUnits="userSpaceOnUse" color-interpolation-filters="sRGB">
<feFlood flood-opacity="0" result="BackgroundImageFix"/>
<feBlend mode="normal" in="SourceGraphic" in2="BackgroundImageFix" result="shape"/>
<feColorMatrix in="SourceAlpha" type="matrix" values="0 0 0 0 0 0 0 0 0 0 0 0 0 0 0 0 0 0 127 0" result="hardAlpha"/>
<feOffset dx="-1" dy="-2"/>
<feGaussianBlur stdDeviation="2"/>
<feComposite in2="hardAlpha" operator="arithmetic" k2="-1" k3="1"/>
<feColorMatrix type="matrix" values="0 0 0 0 1 0 0 0 0 1 0 0 0 0 1 0 0 0 0.15 0"/>
<feBlend mode="normal" in2="shape" result="effect1_innerShadow_1137_90"/>
</filter>
<filter id="filter11_i_1137_90" x="8.06085" y="68.9961" width="28.9888" height="20" filterUnits="userSpaceOnUse" color-interpolation-filters="sRGB">
<feFlood flood-opacity="0" result="BackgroundImageFix"/>
<feBlend mode="normal" in="SourceGraphic" in2="BackgroundImageFix" result="shape"/>
<feColorMatrix in="SourceAlpha" type="matrix" values="0 0 0 0 0 0 0 0 0 0 0 0 0 0 0 0 0 0 127 0" result="hardAlpha"/>
<feOffset dx="-1" dy="-2"/>
<feGaussianBlur stdDeviation="2"/>
<feComposite in2="hardAlpha" operator="arithmetic" k2="-1" k3="1"/>
<feColorMatrix type="matrix" values="0 0 0 0 1 0 0 0 0 1 0 0 0 0 1 0 0 0 0.15 0"/>
<feBlend mode="normal" in2="shape" result="effect1_innerShadow_1137_90"/>
</filter>
<filter id="filter12_i_1137_90" x="33.7256" y="103.125" width="22.2855" height="17.8084" filterUnits="userSpaceOnUse" color-interpolation-filters="sRGB">
<feFlood flood-opacity="0" result="BackgroundImageFix"/>
<feBlend mode="normal" in="SourceGraphic" in2="BackgroundImageFix" result="shape"/>
<feColorMatrix in="SourceAlpha" type="matrix" values="0 0 0 0 0 0 0 0 0 0 0 0 0 0 0 0 0 0 127 0" result="hardAlpha"/>
<feOffset dx="-1" dy="-2"/>
<feGaussianBlur stdDeviation="2"/>
<feComposite in2="hardAlpha" operator="arithmetic" k2="-1" k3="1"/>
<feColorMatrix type="matrix" values="0 0 0 0 1 0 0 0 0 1 0 0 0 0 1 0 0 0 0.15 0"/>
<feBlend mode="normal" in2="shape" result="effect1_innerShadow_1137_90"/>
</filter>
<filter id="filter13_di_1137_90" x="47.9897" y="99.0622" width="33.2855" height="27.8084" filterUnits="userSpaceOnUse" color-interpolation-filters="sRGB">
<feFlood flood-opacity="0" result="BackgroundImageFix"/>
<feColorMatrix in="SourceAlpha" type="matrix" values="0 0 0 0 0 0 0 0 0 0 0 0 0 0 0 0 0 0 127 0" result="hardAlpha"/>
<feOffset/>
<feGaussianBlur stdDeviation="3"/>
<feComposite in2="hardAlpha" operator="out"/>
<feColorMatrix type="matrix" values="0 0 0 0 1 0 0 0 0 1 0 0 0 0 1 0 0 0 0.5 0"/>
<feBlend mode="normal" in2="BackgroundImageFix" result="effect1_dropShadow_1137_90"/>
<feBlend mode="normal" in="SourceGraphic" in2="effect1_dropShadow_1137_90" result="shape"/>
<feColorMatrix in="SourceAlpha" type="matrix" values="0 0 0 0 0 0 0 0 0 0 0 0 0 0 0 0 0 0 127 0" result="hardAlpha"/>
<feOffset dx="-1" dy="-2"/>
<feGaussianBlur stdDeviation="2"/>
<feComposite in2="hardAlpha" operator="arithmetic" k2="-1" k3="1"/>
<feColorMatrix type="matrix" values="0 0 0 0 1 0 0 0 0 1 0 0 0 0 1 0 0 0 1 0"/>
<feBlend mode="normal" in2="shape" result="effect2_innerShadow_1137_90"/>
</filter>
<filter id="filter14_i_1137_90" x="71.9897" y="103.062" width="22.2855" height="17.8084" filterUnits="userSpaceOnUse" color-interpolation-filters="sRGB">
<feFlood flood-opacity="0" result="BackgroundImageFix"/>
<feBlend mode="normal" in="SourceGraphic" in2="BackgroundImageFix" result="shape"/>
<feColorMatrix in="SourceAlpha" type="matrix" values="0 0 0 0 0 0 0 0 0 0 0 0 0 0 0 0 0 0 127 0" result="hardAlpha"/>
<feOffset dx="-1" dy="-2"/>
<feGaussianBlur stdDeviation="2"/>
<feComposite in2="hardAlpha" operator="arithmetic" k2="-1" k3="1"/>
<feColorMatrix type="matrix" values="0 0 0 0 1 0 0 0 0 1 0 0 0 0 1 0 0 0 0.15 0"/>
<feBlend mode="normal" in2="shape" result="effect1_innerShadow_1137_90"/>
</filter>
<filter id="filter15_i_1137_90" x="8.06085" y="100.996" width="28.9888" height="20" filterUnits="userSpaceOnUse" color-interpolation-filters="sRGB">
<feFlood flood-opacity="0" result="BackgroundImageFix"/>
<feBlend mode="normal" in="SourceGraphic" in2="BackgroundImageFix" result="shape"/>
<feColorMatrix in="SourceAlpha" type="matrix" values="0 0 0 0 0 0 0 0 0 0 0 0 0 0 0 0 0 0 127 0" result="hardAlpha"/>
<feOffset dx="-1" dy="-2"/>
<feGaussianBlur stdDeviation="2"/>
<feComposite in2="hardAlpha" operator="arithmetic" k2="-1" k3="1"/>
<feColorMatrix type="matrix" values="0 0 0 0 1 0 0 0 0 1 0 0 0 0 1 0 0 0 0.15 0"/>
<feBlend mode="normal" in2="shape" result="effect1_innerShadow_1137_90"/>
</filter>
<filter id="filter16_i_1137_90" x="33.7256" y="135.125" width="22.2855" height="17.8084" filterUnits="userSpaceOnUse" color-interpolation-filters="sRGB">
<feFlood flood-opacity="0" result="BackgroundImageFix"/>
<feBlend mode="normal" in="SourceGraphic" in2="BackgroundImageFix" result="shape"/>
<feColorMatrix in="SourceAlpha" type="matrix" values="0 0 0 0 0 0 0 0 0 0 0 0 0 0 0 0 0 0 127 0" result="hardAlpha"/>
<feOffset dx="-1" dy="-2"/>
<feGaussianBlur stdDeviation="2"/>
<feComposite in2="hardAlpha" operator="arithmetic" k2="-1" k3="1"/>
<feColorMatrix type="matrix" values="0 0 0 0 1 0 0 0 0 1 0 0 0 0 1 0 0 0 0.15 0"/>
<feBlend mode="normal" in2="shape" result="effect1_innerShadow_1137_90"/>
</filter>
<filter id="filter17_i_1137_90" x="52.9897" y="135.062" width="22.2855" height="17.8084" filterUnits="userSpaceOnUse" color-interpolation-filters="sRGB">
<feFlood flood-opacity="0" result="BackgroundImageFix"/>
<feBlend mode="normal" in="SourceGraphic" in2="BackgroundImageFix" result="shape"/>
<feColorMatrix in="SourceAlpha" type="matrix" values="0 0 0 0 0 0 0 0 0 0 0 0 0 0 0 0 0 0 127 0" result="hardAlpha"/>
<feOffset dx="-1" dy="-2"/>
<feGaussianBlur stdDeviation="2"/>
<feComposite in2="hardAlpha" operator="arithmetic" k2="-1" k3="1"/>
<feColorMatrix type="matrix" values="0 0 0 0 1 0 0 0 0 1 0 0 0 0 1 0 0 0 0.15 0"/>
<feBlend mode="normal" in2="shape" result="effect1_innerShadow_1137_90"/>
</filter>
<filter id="filter18_di_1137_90" x="66.9897" y="131.062" width="33.2855" height="27.8084" filterUnits="userSpaceOnUse" color-interpolation-filters="sRGB">
<feFlood flood-opacity="0" result="BackgroundImageFix"/>
<feColorMatrix in="SourceAlpha" type="matrix" values="0 0 0 0 0 0 0 0 0 0 0 0 0 0 0 0 0 0 127 0" result="hardAlpha"/>
<feOffset/>
<feGaussianBlur stdDeviation="3"/>
<feComposite in2="hardAlpha" operator="out"/>
<feColorMatrix type="matrix" values="0 0 0 0 1 0 0 0 0 1 0 0 0 0 1 0 0 0 0.5 0"/>
<feBlend mode="normal" in2="BackgroundImageFix" result="effect1_dropShadow_1137_90"/>
<feBlend mode="normal" in="SourceGraphic" in2="effect1_dropShadow_1137_90" result="shape"/>
<feColorMatrix in="SourceAlpha" type="matrix" values="0 0 0 0 0 0 0 0 0 0 0 0 0 0 0 0 0 0 127 0" result="hardAlpha"/>
<feOffset dx="-1" dy="-2"/>
<feGaussianBlur stdDeviation="2"/>
<feComposite in2="hardAlpha" operator="arithmetic" k2="-1" k3="1"/>
<feColorMatrix type="matrix" values="0 0 0 0 1 0 0 0 0 1 0 0 0 0 1 0 0 0 1 0"/>
<feBlend mode="normal" in2="shape" result="effect2_innerShadow_1137_90"/>
</filter>
<filter id="filter19_i_1137_90" x="8.06085" y="132.996" width="28.9888" height="20" filterUnits="userSpaceOnUse" color-interpolation-filters="sRGB">
<feFlood flood-opacity="0" result="BackgroundImageFix"/>
<feBlend mode="normal" in="SourceGraphic" in2="BackgroundImageFix" result="shape"/>
<feColorMatrix in="SourceAlpha" type="matrix" values="0 0 0 0 0 0 0 0 0 0 0 0 0 0 0 0 0 0 127 0" result="hardAlpha"/>
<feOffset dx="-1" dy="-2"/>
<feGaussianBlur stdDeviation="2"/>
<feComposite in2="hardAlpha" operator="arithmetic" k2="-1" k3="1"/>
<feColorMatrix type="matrix" values="0 0 0 0 1 0 0 0 0 1 0 0 0 0 1 0 0 0 0.15 0"/>
<feBlend mode="normal" in2="shape" result="effect1_innerShadow_1137_90"/>
</filter>
<linearGradient id="paint0_linear_1137_90" x1="46.8484" y1="10.1251" x2="46.8484" y2="23.9335" gradientUnits="userSpaceOnUse">
<stop stop-color="#616161"/>
<stop offset="0.453125" stop-color="#262626"/>
<stop offset="0.473958"/>
<stop offset="1" stop-color="#252525"/>
</linearGradient>
<linearGradient id="paint1_linear_1137_90" x1="45.6318" y1="10.1251" x2="45.6318" y2="24.9798" gradientUnits="userSpaceOnUse">
<stop stop-color="white"/>
<stop offset="0.0001" stop-color="#EDEDED"/>
<stop offset="1" stop-color="#666666"/>
</linearGradient>
<linearGradient id="paint2_linear_1137_90" x1="66.1124" y1="10.0622" x2="66.1124" y2="23.8706" gradientUnits="userSpaceOnUse">
<stop stop-color="#616161"/>
<stop offset="0.453125" stop-color="#262626"/>
<stop offset="0.473958"/>
<stop offset="1" stop-color="#252525"/>
</linearGradient>
<linearGradient id="paint3_linear_1137_90" x1="64.8958" y1="10.0622" x2="64.8958" y2="24.917" gradientUnits="userSpaceOnUse">
<stop stop-color="white"/>
<stop offset="0.0001" stop-color="#EDEDED"/>
<stop offset="1" stop-color="#666666"/>
</linearGradient>
<linearGradient id="paint4_linear_1137_90" x1="85.1124" y1="10.0622" x2="85.1124" y2="23.8706" gradientUnits="userSpaceOnUse">
<stop stop-color="#616161"/>
<stop offset="0.453125" stop-color="#262626"/>
<stop offset="0.473958"/>
<stop offset="1" stop-color="#252525"/>
</linearGradient>
<linearGradient id="paint5_linear_1137_90" x1="83.8958" y1="10.0622" x2="83.8958" y2="24.917" gradientUnits="userSpaceOnUse">
<stop stop-color="white"/>
<stop offset="0.0001" stop-color="#EDEDED"/>
<stop offset="1" stop-color="#666666"/>
</linearGradient>
<linearGradient id="paint6_linear_1137_90" x1="24.9055" y1="7.99609" x2="24.9055" y2="23.9961" gradientUnits="userSpaceOnUse">
<stop stop-color="#616161"/>
<stop offset="0.53125" stop-color="#262626"/>
<stop offset="0.552083"/>
<stop offset="1" stop-color="#252525"/>
</linearGradient>
<linearGradient id="paint7_linear_1137_90" x1="23.2222" y1="7.99609" x2="23.2222" y2="25.2085" gradientUnits="userSpaceOnUse">
<stop stop-color="white"/>
<stop offset="0.0001" stop-color="#EDEDED"/>
<stop offset="1" stop-color="#666666"/>
</linearGradient>
<linearGradient id="paint8_linear_1137_90" x1="46.8484" y1="42.1251" x2="46.8484" y2="55.9335" gradientUnits="userSpaceOnUse">
<stop stop-color="#616161"/>
<stop offset="0.453125" stop-color="#262626"/>
<stop offset="0.473958"/>
<stop offset="1" stop-color="#252525"/>
</linearGradient>
<linearGradient id="paint9_linear_1137_90" x1="45.6318" y1="42.1251" x2="45.6318" y2="56.9798" gradientUnits="userSpaceOnUse">
<stop stop-color="white"/>
<stop offset="0.0001" stop-color="#EDEDED"/>
<stop offset="1" stop-color="#666666"/>
</linearGradient>
<linearGradient id="paint10_linear_1137_90" x1="66.1124" y1="42.0622" x2="66.1124" y2="55.8706" gradientUnits="userSpaceOnUse">
<stop stop-color="#616161"/>
<stop offset="0.453125" stop-color="#262626"/>
<stop offset="0.473958"/>
<stop offset="1" stop-color="#252525"/>
</linearGradient>
<linearGradient id="paint11_linear_1137_90" x1="64.8958" y1="42.0622" x2="64.8958" y2="56.917" gradientUnits="userSpaceOnUse">
<stop stop-color="white"/>
<stop offset="0.0001" stop-color="#EDEDED"/>
<stop offset="1" stop-color="#666666"/>
</linearGradient>
<linearGradient id="paint12_linear_1137_90" x1="85.1124" y1="42.0622" x2="85.1124" y2="55.8706" gradientUnits="userSpaceOnUse">
<stop stop-color="#616161"/>
<stop offset="0.453125" stop-color="#262626"/>
<stop offset="0.473958"/>
<stop offset="1" stop-color="#252525"/>
</linearGradient>
<linearGradient id="paint13_linear_1137_90" x1="83.8958" y1="42.0622" x2="83.8958" y2="56.917" gradientUnits="userSpaceOnUse">
<stop stop-color="white"/>
<stop offset="0.0001" stop-color="#EDEDED"/>
<stop offset="1" stop-color="#666666"/>
</linearGradient>
<linearGradient id="paint14_linear_1137_90" x1="24.9055" y1="39.9961" x2="24.9055" y2="55.9961" gradientUnits="userSpaceOnUse">
<stop stop-color="#D98B8B"/>
<stop offset="0.53125" stop-color="#A82323"/>
<stop offset="0.552083" stop-color="#8D0000"/>
<stop offset="1" stop-color="#FF0000"/>
</linearGradient>
<linearGradient id="paint15_linear_1137_90" x1="23.2222" y1="39.9961" x2="27.5457" y2="55.8746" gradientUnits="userSpaceOnUse">
<stop stop-color="#F5DAF1"/>
<stop offset="0.0364583" stop-color="#FFC8C8"/>
<stop offset="0.6875" stop-color="#F25C53"/>
<stop offset="0.802083" stop-color="#FFA41D"/>
</linearGradient>
<linearGradient id="paint16_linear_1137_90" x1="46.8484" y1="74.1251" x2="46.8484" y2="87.9335" gradientUnits="userSpaceOnUse">
<stop stop-color="#CBCBCB"/>
<stop offset="0.473958" stop-color="#9B9B9B"/>
<stop offset="0.510417" stop-color="#676767"/>
<stop offset="1" stop-color="#C7C7C7"/>
</linearGradient>
<linearGradient id="paint17_linear_1137_90" x1="45.8119" y1="74.1251" x2="48.8317" y2="87.91" gradientUnits="userSpaceOnUse">
<stop stop-color="#DEDEDE"/>
<stop offset="0.588542" stop-color="#A5A5A5"/>
<stop offset="0.755208" stop-color="white"/>
</linearGradient>
<linearGradient id="paint18_linear_1137_90" x1="66.1124" y1="74.0622" x2="66.1124" y2="87.8706" gradientUnits="userSpaceOnUse">
<stop stop-color="#616161"/>
<stop offset="0.453125" stop-color="#262626"/>
<stop offset="0.473958"/>
<stop offset="1" stop-color="#252525"/>
</linearGradient>
<linearGradient id="paint19_linear_1137_90" x1="64.8958" y1="74.0622" x2="64.8958" y2="88.917" gradientUnits="userSpaceOnUse">
<stop stop-color="white"/>
<stop offset="0.0001" stop-color="#EDEDED"/>
<stop offset="1" stop-color="#666666"/>
</linearGradient>
<linearGradient id="paint20_linear_1137_90" x1="85.1124" y1="74.0622" x2="85.1124" y2="87.8706" gradientUnits="userSpaceOnUse">
<stop stop-color="#616161"/>
<stop offset="0.453125" stop-color="#262626"/>
<stop offset="0.473958"/>
<stop offset="1" stop-color="#252525"/>
</linearGradient>
<linearGradient id="paint21_linear_1137_90" x1="83.8958" y1="74.0622" x2="83.8958" y2="88.917" gradientUnits="userSpaceOnUse">
<stop stop-color="white"/>
<stop offset="0.0001" stop-color="#EDEDED"/>
<stop offset="1" stop-color="#666666"/>
</linearGradient>
<linearGradient id="paint22_linear_1137_90" x1="24.9055" y1="71.9961" x2="24.9055" y2="87.9961" gradientUnits="userSpaceOnUse">
<stop stop-color="#616161"/>
<stop offset="0.53125" stop-color="#262626"/>
<stop offset="0.552083"/>
<stop offset="1" stop-color="#252525"/>
</linearGradient>
<linearGradient id="paint23_linear_1137_90" x1="23.2222" y1="71.9961" x2="23.2222" y2="89.2085" gradientUnits="userSpaceOnUse">
<stop stop-color="white"/>
<stop offset="0.0001" stop-color="#EDEDED"/>
<stop offset="1" stop-color="#666666"/>
</linearGradient>
<linearGradient id="paint24_linear_1137_90" x1="46.8484" y1="106.125" x2="46.8484" y2="119.934" gradientUnits="userSpaceOnUse">
<stop stop-color="#616161"/>
<stop offset="0.453125" stop-color="#262626"/>
<stop offset="0.473958"/>
<stop offset="1" stop-color="#252525"/>
</linearGradient>
<linearGradient id="paint25_linear_1137_90" x1="45.6318" y1="106.125" x2="45.6318" y2="120.98" gradientUnits="userSpaceOnUse">
<stop stop-color="white"/>
<stop offset="0.0001" stop-color="#EDEDED"/>
<stop offset="1" stop-color="#666666"/>
</linearGradient>
<linearGradient id="paint26_linear_1137_90" x1="66.1124" y1="106.062" x2="66.1124" y2="119.871" gradientUnits="userSpaceOnUse">
<stop stop-color="#CBCBCB"/>
<stop offset="0.473958" stop-color="#9B9B9B"/>
<stop offset="0.510417" stop-color="#676767"/>
<stop offset="1" stop-color="#C7C7C7"/>
</linearGradient>
<linearGradient id="paint27_linear_1137_90" x1="65.076" y1="106.062" x2="68.0957" y2="119.847" gradientUnits="userSpaceOnUse">
<stop stop-color="#DEDEDE"/>
<stop offset="0.588542" stop-color="#A5A5A5"/>
<stop offset="0.755208" stop-color="white"/>
</linearGradient>
<linearGradient id="paint28_linear_1137_90" x1="85.1124" y1="106.062" x2="85.1124" y2="119.871" gradientUnits="userSpaceOnUse">
<stop stop-color="#616161"/>
<stop offset="0.453125" stop-color="#262626"/>
<stop offset="0.473958"/>
<stop offset="1" stop-color="#252525"/>
</linearGradient>
<linearGradient id="paint29_linear_1137_90" x1="83.8958" y1="106.062" x2="83.8958" y2="120.917" gradientUnits="userSpaceOnUse">
<stop stop-color="white"/>
<stop offset="0.0001" stop-color="#EDEDED"/>
<stop offset="1" stop-color="#666666"/>
</linearGradient>
<linearGradient id="paint30_linear_1137_90" x1="24.9055" y1="103.996" x2="24.9055" y2="119.996" gradientUnits="userSpaceOnUse">
<stop stop-color="#616161"/>
<stop offset="0.53125" stop-color="#262626"/>
<stop offset="0.552083"/>
<stop offset="1" stop-color="#252525"/>
</linearGradient>
<linearGradient id="paint31_linear_1137_90" x1="23.2222" y1="103.996" x2="23.2222" y2="121.209" gradientUnits="userSpaceOnUse">
<stop stop-color="white"/>
<stop offset="0.0001" stop-color="#EDEDED"/>
<stop offset="1" stop-color="#666666"/>
</linearGradient>
<linearGradient id="paint32_linear_1137_90" x1="46.8484" y1="138.125" x2="46.8484" y2="151.934" gradientUnits="userSpaceOnUse">
<stop stop-color="#616161"/>
<stop offset="0.453125" stop-color="#262626"/>
<stop offset="0.473958"/>
<stop offset="1" stop-color="#252525"/>
</linearGradient>
<linearGradient id="paint33_linear_1137_90" x1="45.6318" y1="138.125" x2="45.6318" y2="152.98" gradientUnits="userSpaceOnUse">
<stop stop-color="white"/>
<stop offset="0.0001" stop-color="#EDEDED"/>
<stop offset="1" stop-color="#666666"/>
</linearGradient>
<linearGradient id="paint34_linear_1137_90" x1="66.1124" y1="138.062" x2="66.1124" y2="151.871" gradientUnits="userSpaceOnUse">
<stop stop-color="#616161"/>
<stop offset="0.453125" stop-color="#262626"/>
<stop offset="0.473958"/>
<stop offset="1" stop-color="#252525"/>
</linearGradient>
<linearGradient id="paint35_linear_1137_90" x1="64.8958" y1="138.062" x2="64.8958" y2="152.917" gradientUnits="userSpaceOnUse">
<stop stop-color="white"/>
<stop offset="0.0001" stop-color="#EDEDED"/>
<stop offset="1" stop-color="#666666"/>
</linearGradient>
<linearGradient id="paint36_linear_1137_90" x1="85.1124" y1="138.062" x2="85.1124" y2="151.871" gradientUnits="userSpaceOnUse">
<stop stop-color="#CBCBCB"/>
<stop offset="0.473958" stop-color="#9B9B9B"/>
<stop offset="0.510417" stop-color="#676767"/>
<stop offset="1" stop-color="#C7C7C7"/>
</linearGradient>
<linearGradient id="paint37_linear_1137_90" x1="84.076" y1="138.062" x2="87.0957" y2="151.847" gradientUnits="userSpaceOnUse">
<stop stop-color="#DEDEDE"/>
<stop offset="0.588542" stop-color="#A5A5A5"/>
<stop offset="0.755208" stop-color="white"/>
</linearGradient>
<linearGradient id="paint38_linear_1137_90" x1="24.9055" y1="135.996" x2="24.9055" y2="151.996" gradientUnits="userSpaceOnUse">
<stop stop-color="#616161"/>
<stop offset="0.53125" stop-color="#262626"/>
<stop offset="0.552083"/>
<stop offset="1" stop-color="#252525"/>
</linearGradient>
<linearGradient id="paint39_linear_1137_90" x1="23.2222" y1="135.996" x2="23.2222" y2="153.209" gradientUnits="userSpaceOnUse">
<stop stop-color="white"/>
<stop offset="0.0001" stop-color="#EDEDED"/>
<stop offset="1" stop-color="#666666"/>
</linearGradient>
</defs>
</svg>
