<svg width="35" height="20" viewBox="0 0 35 20" fill="none" xmlns="http://www.w3.org/2000/svg">
<path d="M4.62004 18.6691L3.89688 19.4979H4.99677H25.5214H25.7455L25.8947 19.3305L33.0335 11.3191L33.3329 10.9831L33.0302 10.6501L23.9749 0.689568L23.8264 0.526164L23.6055 0.52591L2.98053 0.502167L1.856 0.500873L2.60833 1.33668L11.3094 11.0031L4.62004 18.6691Z" stroke="black" stroke-opacity="0.1"/>
<g filter="url(#filter0_i)">
<path d="M25.0759 17.9983H7.31982L13.3368 10.9983L5.31982 1.99826H23.0759L31.3198 10.9983L25.0759 17.9983Z" fill="url(#paint0_linear)"/>
</g>
<path d="M25.0759 18.4983H25.2999L25.4491 18.3311L31.693 11.3311L31.9938 10.9938L31.6885 10.6605L23.4446 1.66053L23.296 1.49826H23.0759H5.31982H4.20483L4.94647 2.33084L12.6724 11.0041L6.94065 17.6723L6.23071 18.4983H7.31982H25.0759Z" stroke="url(#paint1_linear)"/>
<defs>
<filter id="filter0_i" x="2.08984" y="-1.00174" width="30.5779" height="20" filterUnits="userSpaceOnUse" color-interpolation-filters="sRGB">
<feFlood flood-opacity="0" result="BackgroundImageFix"/>
<feBlend mode="normal" in="SourceGraphic" in2="BackgroundImageFix" result="shape"/>
<feColorMatrix in="SourceAlpha" type="matrix" values="0 0 0 0 0 0 0 0 0 0 0 0 0 0 0 0 0 0 127 0" result="hardAlpha"/>
<feOffset dx="-1" dy="-2"/>
<feGaussianBlur stdDeviation="2"/>
<feComposite in2="hardAlpha" operator="arithmetic" k2="-1" k3="1"/>
<feColorMatrix type="matrix" values="0 0 0 0 1 0 0 0 0 1 0 0 0 0 0 0 0 0 0.5 0"/>
<feBlend mode="normal" in2="shape" result="effect1_innerShadow"/>
</filter>
<linearGradient id="paint0_linear" x1="19.8399" y1="1.99826" x2="19.8399" y2="17.9983" gradientUnits="userSpaceOnUse">
<stop stop-color="#D98B8B"/>
<stop offset="0.53125" stop-color="#A82323"/>
<stop offset="0.552083" stop-color="#8D0000"/>
<stop offset="1" stop-color="#FF0000"/>
</linearGradient>
<linearGradient id="paint1_linear" x1="18.0556" y1="1.99826" x2="18.0556" y2="19.2107" gradientUnits="userSpaceOnUse">
<stop stop-color="#F5DAF1"/>
<stop offset="0.0364583" stop-color="#FFC8C8"/>
<stop offset="0.895833" stop-color="#F25C53"/>
<stop offset="0.953125" stop-color="#FFA41D"/>
</linearGradient>
</defs>
</svg>
