<svg width="424" height="213" viewBox="0 0 424 213" fill="none" xmlns="http://www.w3.org/2000/svg">
<rect width="424" height="213" fill="#202020"/>
<path d="M194.7 120H193.7V121H194.7V120ZM194.7 85.488V84.488H193.7V85.488H194.7ZM227.58 87.216L226.863 87.9131L226.873 87.9231L227.58 87.216ZM227.58 105.456L228.287 106.163L228.297 106.153L227.58 105.456ZM198.588 107.136V106.136H197.588V107.136H198.588ZM198.588 120V121H199.588V120H198.588ZM224.796 102.672L224.121 101.935L224.104 101.95L224.089 101.965L224.796 102.672ZM224.796 89.952L224.059 90.6277L224.088 90.6598L224.121 90.6892L224.796 89.952ZM199.116 89.952L198.409 89.2449L198.409 89.2449L199.116 89.952ZM199.116 102.672L198.409 103.379L198.424 103.394L198.441 103.409L199.116 102.672ZM195.7 120V85.488H193.7V120H195.7ZM194.7 86.488H223.5V84.488H194.7V86.488ZM223.5 86.488C224.829 86.488 225.931 86.9538 226.863 87.9131L228.297 86.5189C226.99 85.1742 225.372 84.488 223.5 84.488V86.488ZM226.873 87.9231C227.808 88.8577 228.26 89.9482 228.26 91.248H230.26C230.26 89.4118 229.593 87.8143 228.287 86.5089L226.873 87.9231ZM228.26 91.248V101.376H230.26V91.248H228.26ZM228.26 101.376C228.26 102.677 227.807 103.788 226.863 104.759L228.297 106.153C229.594 104.82 230.26 103.211 230.26 101.376H228.26ZM226.873 104.749C225.943 105.679 224.838 106.136 223.5 106.136V108.136C225.362 108.136 226.978 107.473 228.287 106.163L226.873 104.749ZM223.5 106.136H198.588V108.136H223.5V106.136ZM197.588 107.136V120H199.588V107.136H197.588ZM198.588 119H194.7V121H198.588V119ZM200.46 104.2H223.5V102.2H200.46V104.2ZM223.5 104.2C224.269 104.2 224.958 103.925 225.503 103.379L224.089 101.965C223.931 102.123 223.755 102.2 223.5 102.2V104.2ZM225.472 103.409C226.058 102.872 226.372 102.174 226.372 101.376H224.372C224.372 101.602 224.302 101.768 224.121 101.935L225.472 103.409ZM226.372 101.376V91.248H224.372V101.376H226.372ZM226.372 91.248C226.372 90.4502 226.058 89.7525 225.472 89.2148L224.121 90.6892C224.302 90.8555 224.372 91.0218 224.372 91.248H226.372ZM225.533 89.2763C224.996 88.6897 224.298 88.376 223.5 88.376V90.376C223.726 90.376 223.893 90.4463 224.059 90.6277L225.533 89.2763ZM223.5 88.376H200.46V90.376H223.5V88.376ZM200.46 88.376C199.666 88.376 198.968 88.686 198.409 89.2449L199.823 90.6591C200.032 90.45 200.231 90.376 200.46 90.376V88.376ZM198.409 89.2449C197.864 89.7903 197.588 90.4792 197.588 91.248H199.588C199.588 90.9928 199.665 90.8177 199.823 90.6591L198.409 89.2449ZM197.588 91.248V101.376H199.588V91.248H197.588ZM197.588 101.376C197.588 102.145 197.864 102.834 198.409 103.379L199.823 101.965C199.665 101.806 199.588 101.631 199.588 101.376H197.588ZM198.441 103.409C199.005 103.927 199.693 104.2 200.46 104.2V102.2C200.203 102.2 199.995 102.121 199.792 101.935L198.441 103.409ZM244.237 120L243.297 120.342L243.537 121H244.237V120ZM231.661 85.44V84.44H230.233L230.721 85.782L231.661 85.44ZM235.789 85.44L236.728 85.0971L236.488 84.44H235.789V85.44ZM245.917 113.184L244.978 113.527L245.919 116.106L246.857 113.525L245.917 113.184ZM255.997 85.44V84.44H255.296L255.057 85.0985L255.997 85.44ZM260.701 85.44L261.64 85.0971L261.4 84.44H260.701V85.44ZM270.829 113.184L269.89 113.527L270.833 116.112L271.769 113.524L270.829 113.184ZM280.861 85.44V84.44H280.159L279.921 85.1L280.861 85.44ZM285.085 85.44L286.025 85.782L286.513 84.44H285.085V85.44ZM272.509 120V121H273.209L273.449 120.342L272.509 120ZM269.101 120L268.161 120.342L268.401 121H269.101V120ZM258.349 90.48L259.289 90.1378L258.349 87.558L257.409 90.1378L258.349 90.48ZM247.597 120V121H248.297L248.537 120.342L247.597 120ZM245.177 119.658L232.601 85.098L230.721 85.782L243.297 120.342L245.177 119.658ZM231.661 86.44H235.789V84.44H231.661V86.44ZM234.85 85.7829L244.978 113.527L246.856 112.841L236.728 85.0971L234.85 85.7829ZM246.857 113.525L256.937 85.7815L255.057 85.0985L244.977 112.843L246.857 113.525ZM255.997 86.44H260.701V84.44H255.997V86.44ZM259.762 85.7829L269.89 113.527L271.768 112.841L261.64 85.0971L259.762 85.7829ZM271.769 113.524L281.801 85.78L279.921 85.1L269.889 112.844L271.769 113.524ZM280.861 86.44H285.085V84.44H280.861V86.44ZM284.145 85.098L271.569 119.658L273.449 120.342L286.025 85.782L284.145 85.098ZM272.509 119H269.101V121H272.509V119ZM270.041 119.658L259.289 90.1378L257.409 90.8222L268.161 120.342L270.041 119.658ZM257.409 90.1378L246.657 119.658L248.537 120.342L259.289 90.8222L257.409 90.1378ZM247.597 119H244.237V121H247.597V119Z" fill="white"/>
<path d="M66.4707 107.291C66.4707 107.924 66.3594 108.609 66.1367 109.348C65.9141 110.074 65.5508 110.754 65.0469 111.387C64.5547 112.008 63.9043 112.529 63.0957 112.951C62.2988 113.373 61.3262 113.584 60.1777 113.584H51.9336V109.242H60.1777C60.7988 109.242 61.2793 109.055 61.6191 108.68C61.959 108.293 62.1289 107.818 62.1289 107.256C62.1289 106.658 61.9355 106.189 61.5488 105.85C61.1738 105.51 60.7168 105.34 60.1777 105.34H51.9336C51.3125 105.34 50.832 105.533 50.4922 105.92C50.1523 106.295 49.9824 106.764 49.9824 107.326V113.707C49.9824 114.316 50.1699 114.791 50.5449 115.131C50.9316 115.471 51.4062 115.641 51.9688 115.641H60.1777V120H51.9336C51.3008 120 50.6152 119.889 49.877 119.666C49.1504 119.443 48.4707 119.086 47.8379 118.594C47.2168 118.09 46.6953 117.439 46.2734 116.643C45.8516 115.834 45.6406 114.855 45.6406 113.707V107.291C45.6406 106.658 45.752 105.979 45.9746 105.252C46.1973 104.514 46.5547 103.834 47.0469 103.213C47.5508 102.58 48.2012 102.053 48.998 101.631C49.8066 101.209 50.7852 100.998 51.9336 100.998H60.1777C60.8105 100.998 61.4902 101.109 62.2168 101.332C62.9551 101.555 63.6348 101.918 64.2559 102.422C64.8887 102.914 65.416 103.564 65.8379 104.373C66.2598 105.17 66.4707 106.143 66.4707 107.291ZM82.8711 120H79.8242V112.969C79.8242 112.57 79.7539 112.215 79.6133 111.902C79.4805 111.582 79.2969 111.309 79.0625 111.082C78.8281 110.855 78.5508 110.684 78.2305 110.566C77.918 110.441 77.5781 110.379 77.2109 110.379H71.8789V120H68.832V108.844C68.832 108.633 68.8711 108.438 68.9492 108.258C69.0273 108.07 69.1367 107.91 69.2773 107.777C69.418 107.637 69.582 107.527 69.7695 107.449C69.957 107.371 70.1562 107.332 70.3672 107.332H77.2344C77.6172 107.332 78.0195 107.375 78.4414 107.461C78.8711 107.547 79.293 107.688 79.707 107.883C80.1289 108.07 80.5273 108.312 80.9023 108.609C81.2852 108.898 81.6211 109.254 81.9102 109.676C82.207 110.09 82.4414 110.57 82.6133 111.117C82.7852 111.664 82.8711 112.281 82.8711 112.969V120ZM97.7891 115.723C97.7891 116.246 97.7227 116.719 97.5898 117.141C97.457 117.555 97.2812 117.922 97.0625 118.242C96.8438 118.555 96.5898 118.824 96.3008 119.051C96.0117 119.27 95.707 119.449 95.3867 119.59C95.0742 119.73 94.7539 119.836 94.4258 119.906C94.1055 119.969 93.8008 120 93.5117 120H85.2617V116.953H93.4883C93.9023 116.953 94.2148 116.848 94.4258 116.637C94.6367 116.426 94.7422 116.121 94.7422 115.723C94.7031 114.91 94.293 114.504 93.5117 114.504H88.7891C88.1172 114.504 87.5469 114.387 87.0781 114.152C86.6094 113.918 86.2266 113.625 85.9297 113.273C85.6406 112.922 85.4297 112.543 85.2969 112.137C85.1719 111.73 85.1094 111.352 85.1094 111C85.1094 110.32 85.2305 109.75 85.4727 109.289C85.7148 108.82 86.0195 108.441 86.3867 108.152C86.7539 107.863 87.1523 107.656 87.582 107.531C88.0117 107.398 88.4141 107.332 88.7891 107.332H96.2773V110.379H88.8125C88.6562 110.379 88.5312 110.398 88.4375 110.438C88.3516 110.469 88.2852 110.516 88.2383 110.578C88.1992 110.633 88.1758 110.695 88.168 110.766C88.1602 110.828 88.1562 110.891 88.1562 110.953C88.1641 111.078 88.1875 111.176 88.2266 111.246C88.2656 111.316 88.3125 111.367 88.3672 111.398C88.4297 111.43 88.4961 111.449 88.5664 111.457C88.6445 111.457 88.7188 111.457 88.7891 111.457H93.5117C94.293 111.457 94.957 111.598 95.5039 111.879C96.0508 112.16 96.4922 112.516 96.8281 112.945C97.1641 113.367 97.4062 113.828 97.5547 114.328C97.7109 114.828 97.7891 115.293 97.7891 115.723ZM113.562 111.527C113.562 111.949 113.488 112.406 113.34 112.898C113.191 113.383 112.949 113.836 112.613 114.258C112.285 114.672 111.852 115.02 111.312 115.301C110.781 115.582 110.133 115.723 109.367 115.723H103.871V112.828H109.367C109.781 112.828 110.102 112.703 110.328 112.453C110.555 112.195 110.668 111.879 110.668 111.504C110.668 111.105 110.539 110.793 110.281 110.566C110.031 110.34 109.727 110.227 109.367 110.227H103.871C103.457 110.227 103.137 110.355 102.91 110.613C102.684 110.863 102.57 111.176 102.57 111.551V115.805C102.57 116.211 102.695 116.527 102.945 116.754C103.203 116.98 103.52 117.094 103.895 117.094H109.367V120H103.871C103.449 120 102.992 119.926 102.5 119.777C102.016 119.629 101.562 119.391 101.141 119.062C100.727 118.727 100.379 118.293 100.098 117.762C99.8164 117.223 99.6758 116.57 99.6758 115.805V111.527C99.6758 111.105 99.75 110.652 99.8984 110.168C100.047 109.676 100.285 109.223 100.613 108.809C100.949 108.387 101.383 108.035 101.914 107.754C102.453 107.473 103.105 107.332 103.871 107.332H109.367C109.789 107.332 110.242 107.406 110.727 107.555C111.219 107.703 111.672 107.945 112.086 108.281C112.508 108.609 112.859 109.043 113.141 109.582C113.422 110.113 113.562 110.762 113.562 111.527ZM126.922 120H123.875V111.598C123.875 111.199 123.77 110.898 123.559 110.695C123.348 110.484 123.035 110.379 122.621 110.379H118.66V120H115.613V108.844C115.613 108.633 115.652 108.438 115.73 108.258C115.809 108.07 115.918 107.91 116.059 107.777C116.199 107.637 116.363 107.527 116.551 107.449C116.738 107.371 116.938 107.332 117.148 107.332H122.645C123.066 107.332 123.52 107.406 124.004 107.555C124.488 107.703 124.949 107.941 125.387 108.27V107.332H129.512C129.801 107.332 130.105 107.367 130.426 107.438C130.746 107.5 131.062 107.602 131.375 107.742C131.695 107.883 132 108.066 132.289 108.293C132.578 108.512 132.832 108.781 133.051 109.102C133.27 109.414 133.445 109.777 133.578 110.191C133.711 110.605 133.777 111.074 133.777 111.598V120H130.73V111.598C130.73 111.199 130.629 110.898 130.426 110.695C130.23 110.484 129.926 110.379 129.512 110.379H126.77C126.871 110.754 126.922 111.16 126.922 111.598V120ZM150.559 115.723C150.559 116.012 150.523 116.316 150.453 116.637C150.391 116.957 150.289 117.277 150.148 117.598C150.008 117.91 149.824 118.211 149.598 118.5C149.379 118.789 149.109 119.047 148.789 119.273C148.477 119.492 148.113 119.668 147.699 119.801C147.285 119.934 146.816 120 146.293 120H140.797C140.508 120 140.203 119.969 139.883 119.906C139.562 119.836 139.242 119.73 138.922 119.59C138.609 119.449 138.309 119.27 138.02 119.051C137.73 118.824 137.473 118.555 137.246 118.242C137.027 117.922 136.852 117.555 136.719 117.141C136.586 116.719 136.52 116.246 136.52 115.723V101.977H139.566V115.723C139.566 116.098 139.684 116.398 139.918 116.625C140.152 116.844 140.445 116.953 140.797 116.953H146.293C146.676 116.953 146.973 116.84 147.184 116.613C147.402 116.387 147.512 116.09 147.512 115.723V111.598C147.512 111.215 147.398 110.918 147.172 110.707C146.945 110.488 146.652 110.379 146.293 110.379H140.797V107.332H146.293C146.582 107.332 146.887 107.367 147.207 107.438C147.527 107.5 147.844 107.602 148.156 107.742C148.477 107.883 148.781 108.066 149.07 108.293C149.359 108.512 149.613 108.781 149.832 109.102C150.051 109.414 150.227 109.777 150.359 110.191C150.492 110.605 150.559 111.074 150.559 111.598V115.723ZM158.727 120H157.367C156.93 120 156.461 119.926 155.961 119.777C155.469 119.629 155.008 119.387 154.578 119.051C154.148 118.707 153.793 118.266 153.512 117.727C153.23 117.18 153.09 116.512 153.09 115.723V101.977H156.137V115.723C156.137 116.098 156.254 116.398 156.488 116.625C156.723 116.844 157.016 116.953 157.367 116.953H158.727V120ZM174.312 111.527C174.312 111.949 174.238 112.406 174.09 112.898C173.941 113.383 173.699 113.836 173.363 114.258C173.035 114.672 172.602 115.02 172.062 115.301C171.531 115.582 170.883 115.723 170.117 115.723H164.621V112.828H170.117C170.531 112.828 170.852 112.703 171.078 112.453C171.305 112.195 171.418 111.879 171.418 111.504C171.418 111.105 171.289 110.793 171.031 110.566C170.781 110.34 170.477 110.227 170.117 110.227H164.621C164.207 110.227 163.887 110.355 163.66 110.613C163.434 110.863 163.32 111.176 163.32 111.551V115.805C163.32 116.211 163.445 116.527 163.695 116.754C163.953 116.98 164.27 117.094 164.645 117.094H170.117V120H164.621C164.199 120 163.742 119.926 163.25 119.777C162.766 119.629 162.312 119.391 161.891 119.062C161.477 118.727 161.129 118.293 160.848 117.762C160.566 117.223 160.426 116.57 160.426 115.805V111.527C160.426 111.105 160.5 110.652 160.648 110.168C160.797 109.676 161.035 109.223 161.363 108.809C161.699 108.387 162.133 108.035 162.664 107.754C163.203 107.473 163.855 107.332 164.621 107.332H170.117C170.539 107.332 170.992 107.406 171.477 107.555C171.969 107.703 172.422 107.945 172.836 108.281C173.258 108.609 173.609 109.043 173.891 109.582C174.172 110.113 174.312 110.762 174.312 111.527ZM188.609 115.723C188.609 116.246 188.543 116.719 188.41 117.141C188.277 117.555 188.102 117.922 187.883 118.242C187.664 118.555 187.41 118.824 187.121 119.051C186.832 119.27 186.527 119.449 186.207 119.59C185.895 119.73 185.574 119.836 185.246 119.906C184.926 119.969 184.621 120 184.332 120H176.082V116.953H184.309C184.723 116.953 185.035 116.848 185.246 116.637C185.457 116.426 185.562 116.121 185.562 115.723C185.523 114.91 185.113 114.504 184.332 114.504H179.609C178.938 114.504 178.367 114.387 177.898 114.152C177.43 113.918 177.047 113.625 176.75 113.273C176.461 112.922 176.25 112.543 176.117 112.137C175.992 111.73 175.93 111.352 175.93 111C175.93 110.32 176.051 109.75 176.293 109.289C176.535 108.82 176.84 108.441 177.207 108.152C177.574 107.863 177.973 107.656 178.402 107.531C178.832 107.398 179.234 107.332 179.609 107.332H187.098V110.379H179.633C179.477 110.379 179.352 110.398 179.258 110.438C179.172 110.469 179.105 110.516 179.059 110.578C179.02 110.633 178.996 110.695 178.988 110.766C178.98 110.828 178.977 110.891 178.977 110.953C178.984 111.078 179.008 111.176 179.047 111.246C179.086 111.316 179.133 111.367 179.188 111.398C179.25 111.43 179.316 111.449 179.387 111.457C179.465 111.457 179.539 111.457 179.609 111.457H184.332C185.113 111.457 185.777 111.598 186.324 111.879C186.871 112.16 187.312 112.516 187.648 112.945C187.984 113.367 188.227 113.828 188.375 114.328C188.531 114.828 188.609 115.293 188.609 115.723ZM296.85 120H292.262V99.3633H288.131V94.793H296.85V120ZM305.604 117.697C305.604 118.014 305.539 118.312 305.41 118.594C305.293 118.863 305.129 119.104 304.918 119.314C304.719 119.514 304.479 119.672 304.197 119.789C303.928 119.906 303.641 119.965 303.336 119.965C303.02 119.965 302.721 119.906 302.439 119.789C302.17 119.672 301.93 119.514 301.719 119.314C301.52 119.104 301.361 118.863 301.244 118.594C301.127 118.312 301.068 118.014 301.068 117.697C301.068 117.393 301.127 117.105 301.244 116.836C301.361 116.555 301.52 116.314 301.719 116.115C301.93 115.904 302.17 115.74 302.439 115.623C302.721 115.494 303.02 115.43 303.336 115.43C303.641 115.43 303.928 115.494 304.197 115.623C304.479 115.74 304.719 115.904 304.918 116.115C305.129 116.314 305.293 116.555 305.41 116.836C305.539 117.105 305.604 117.393 305.604 117.697ZM338.053 109.453C338.053 110.484 337.918 111.463 337.648 112.389C337.391 113.303 337.021 114.152 336.541 114.938C336.061 115.723 335.492 116.426 334.836 117.047C334.18 117.668 333.459 118.201 332.674 118.646C331.9 119.08 331.074 119.414 330.195 119.648C329.316 119.883 328.42 120 327.506 120H319.262C318.336 120 317.434 119.883 316.555 119.648C315.676 119.414 314.844 119.08 314.059 118.646C313.285 118.201 312.57 117.668 311.914 117.047C311.258 116.426 310.689 115.723 310.209 114.938C309.74 114.152 309.371 113.303 309.102 112.389C308.844 111.463 308.715 110.484 308.715 109.453V105.34C308.715 103.793 309.002 102.375 309.576 101.086C310.162 99.7969 310.941 98.6895 311.914 97.7637C312.887 96.8262 314.006 96.0996 315.271 95.584C316.549 95.0566 317.879 94.793 319.262 94.793H327.506C328.42 94.793 329.316 94.9102 330.195 95.1445C331.074 95.3789 331.9 95.7188 332.674 96.1641C333.459 96.5977 334.18 97.125 334.836 97.7461C335.492 98.3672 336.061 99.0703 336.541 99.8555C337.021 100.641 337.391 101.496 337.648 102.422C337.918 103.336 338.053 104.309 338.053 105.34V109.453ZM333.447 105.34C333.447 104.438 333.283 103.617 332.955 102.879C332.627 102.141 332.188 101.508 331.637 100.98C331.098 100.453 330.471 100.049 329.756 99.7676C329.041 99.4863 328.291 99.3516 327.506 99.3633H319.262C318.5 99.3516 317.756 99.4863 317.029 99.7676C316.314 100.037 315.676 100.436 315.113 100.963C314.562 101.479 314.117 102.111 313.777 102.861C313.449 103.6 313.285 104.426 313.285 105.34V109.453C313.285 110.367 313.449 111.193 313.777 111.932C314.105 112.67 314.545 113.303 315.096 113.83C315.646 114.346 316.279 114.744 316.994 115.025C317.721 115.307 318.477 115.441 319.262 115.43H327.506C328.408 115.43 329.223 115.283 329.949 114.99C330.688 114.686 331.314 114.27 331.83 113.742C332.346 113.215 332.744 112.588 333.025 111.861C333.307 111.123 333.447 110.32 333.447 109.453V105.34ZM331.461 102C331.637 102.258 331.754 102.539 331.812 102.844C331.871 103.137 331.871 103.43 331.812 103.723C331.754 104.004 331.637 104.273 331.461 104.531C331.297 104.777 331.08 104.988 330.811 105.164L318.471 113.408C318.271 113.561 318.066 113.666 317.855 113.725C317.645 113.783 317.428 113.812 317.205 113.812C316.83 113.812 316.473 113.725 316.133 113.549C315.793 113.373 315.518 113.121 315.307 112.793C315.131 112.535 315.014 112.26 314.955 111.967C314.896 111.662 314.891 111.369 314.938 111.088C314.996 110.795 315.107 110.525 315.271 110.279C315.436 110.021 315.652 109.805 315.922 109.629L328.297 101.385C328.555 101.209 328.83 101.092 329.123 101.033C329.428 100.975 329.721 100.975 330.002 101.033C330.295 101.092 330.564 101.203 330.811 101.367C331.068 101.531 331.285 101.742 331.461 102ZM345.682 117.697C345.682 118.014 345.617 118.312 345.488 118.594C345.371 118.863 345.207 119.104 344.996 119.314C344.797 119.514 344.557 119.672 344.275 119.789C344.006 119.906 343.719 119.965 343.414 119.965C343.098 119.965 342.799 119.906 342.518 119.789C342.248 119.672 342.008 119.514 341.797 119.314C341.598 119.104 341.439 118.863 341.322 118.594C341.205 118.312 341.146 118.014 341.146 117.697C341.146 117.393 341.205 117.105 341.322 116.836C341.439 116.555 341.598 116.314 341.797 116.115C342.008 115.904 342.248 115.74 342.518 115.623C342.799 115.494 343.098 115.43 343.414 115.43C343.719 115.43 344.006 115.494 344.275 115.623C344.557 115.74 344.797 115.904 344.996 116.115C345.207 116.314 345.371 116.555 345.488 116.836C345.617 117.105 345.682 117.393 345.682 117.697ZM378.131 109.453C378.131 110.484 377.996 111.463 377.727 112.389C377.469 113.303 377.1 114.152 376.619 114.938C376.139 115.723 375.57 116.426 374.914 117.047C374.258 117.668 373.537 118.201 372.752 118.646C371.979 119.08 371.152 119.414 370.273 119.648C369.395 119.883 368.498 120 367.584 120H359.34C358.414 120 357.512 119.883 356.633 119.648C355.754 119.414 354.922 119.08 354.137 118.646C353.363 118.201 352.648 117.668 351.992 117.047C351.336 116.426 350.768 115.723 350.287 114.938C349.818 114.152 349.449 113.303 349.18 112.389C348.922 111.463 348.793 110.484 348.793 109.453V105.34C348.793 103.793 349.08 102.375 349.654 101.086C350.24 99.7969 351.02 98.6895 351.992 97.7637C352.965 96.8262 354.084 96.0996 355.35 95.584C356.627 95.0566 357.957 94.793 359.34 94.793H367.584C368.498 94.793 369.395 94.9102 370.273 95.1445C371.152 95.3789 371.979 95.7188 372.752 96.1641C373.537 96.5977 374.258 97.125 374.914 97.7461C375.57 98.3672 376.139 99.0703 376.619 99.8555C377.1 100.641 377.469 101.496 377.727 102.422C377.996 103.336 378.131 104.309 378.131 105.34V109.453ZM373.525 105.34C373.525 104.438 373.361 103.617 373.033 102.879C372.705 102.141 372.266 101.508 371.715 100.98C371.176 100.453 370.549 100.049 369.834 99.7676C369.119 99.4863 368.369 99.3516 367.584 99.3633H359.34C358.578 99.3516 357.834 99.4863 357.107 99.7676C356.393 100.037 355.754 100.436 355.191 100.963C354.641 101.479 354.195 102.111 353.855 102.861C353.527 103.6 353.363 104.426 353.363 105.34V109.453C353.363 110.367 353.527 111.193 353.855 111.932C354.184 112.67 354.623 113.303 355.174 113.83C355.725 114.346 356.357 114.744 357.072 115.025C357.799 115.307 358.555 115.441 359.34 115.43H367.584C368.486 115.43 369.301 115.283 370.027 114.99C370.766 114.686 371.393 114.27 371.908 113.742C372.424 113.215 372.822 112.588 373.104 111.861C373.385 111.123 373.525 110.32 373.525 109.453V105.34ZM371.539 102C371.715 102.258 371.832 102.539 371.891 102.844C371.949 103.137 371.949 103.43 371.891 103.723C371.832 104.004 371.715 104.273 371.539 104.531C371.375 104.777 371.158 104.988 370.889 105.164L358.549 113.408C358.35 113.561 358.145 113.666 357.934 113.725C357.723 113.783 357.506 113.812 357.283 113.812C356.908 113.812 356.551 113.725 356.211 113.549C355.871 113.373 355.596 113.121 355.385 112.793C355.209 112.535 355.092 112.26 355.033 111.967C354.975 111.662 354.969 111.369 355.016 111.088C355.074 110.795 355.186 110.525 355.35 110.279C355.514 110.021 355.73 109.805 356 109.629L368.375 101.385C368.633 101.209 368.908 101.092 369.201 101.033C369.506 100.975 369.799 100.975 370.08 101.033C370.373 101.092 370.643 101.203 370.889 101.367C371.146 101.531 371.363 101.742 371.539 102Z" fill="white"/>
</svg>
