<svg width="424" height="236" viewBox="0 0 424 236" fill="none" xmlns="http://www.w3.org/2000/svg">
<rect width="424" height="236" fill="#202020"/>
<path d="M194.7 132H193.7V133H194.7V132ZM194.7 97.488V96.488H193.7V97.488H194.7ZM227.58 99.216L226.863 99.9131L226.873 99.9231L227.58 99.216ZM227.58 117.456L228.287 118.163L228.297 118.153L227.58 117.456ZM198.588 119.136V118.136H197.588V119.136H198.588ZM198.588 132V133H199.588V132H198.588ZM224.796 114.672L224.121 113.935L224.105 113.95L224.089 113.965L224.796 114.672ZM224.796 101.952L224.059 102.628L224.088 102.66L224.121 102.689L224.796 101.952ZM199.116 101.952L198.409 101.245L198.409 101.245L199.116 101.952ZM199.116 114.672L198.409 115.379L198.424 115.394L198.441 115.409L199.116 114.672ZM195.7 132V97.488H193.7V132H195.7ZM194.7 98.488H223.5V96.488H194.7V98.488ZM223.5 98.488C224.829 98.488 225.931 98.9538 226.863 99.9131L228.297 98.5189C226.99 97.1742 225.372 96.488 223.5 96.488V98.488ZM226.873 99.9231C227.808 100.858 228.26 101.948 228.26 103.248H230.26C230.26 101.412 229.593 99.8143 228.287 98.5089L226.873 99.9231ZM228.26 103.248V113.376H230.26V103.248H228.26ZM228.26 113.376C228.26 114.677 227.807 115.788 226.863 116.759L228.297 118.153C229.594 116.82 230.26 115.211 230.26 113.376H228.26ZM226.873 116.749C225.943 117.679 224.838 118.136 223.5 118.136V120.136C225.362 120.136 226.978 119.473 228.287 118.163L226.873 116.749ZM223.5 118.136H198.588V120.136H223.5V118.136ZM197.588 119.136V132H199.588V119.136H197.588ZM198.588 131H194.7V133H198.588V131ZM200.46 116.2H223.5V114.2H200.46V116.2ZM223.5 116.2C224.269 116.2 224.958 115.925 225.503 115.379L224.089 113.965C223.931 114.123 223.755 114.2 223.5 114.2V116.2ZM225.472 115.409C226.058 114.872 226.372 114.174 226.372 113.376H224.372C224.372 113.602 224.302 113.768 224.121 113.935L225.472 115.409ZM226.372 113.376V103.248H224.372V113.376H226.372ZM226.372 103.248C226.372 102.45 226.058 101.752 225.472 101.215L224.121 102.689C224.302 102.855 224.372 103.022 224.372 103.248H226.372ZM225.533 101.276C224.996 100.69 224.298 100.376 223.5 100.376V102.376C223.726 102.376 223.893 102.446 224.059 102.628L225.533 101.276ZM223.5 100.376H200.46V102.376H223.5V100.376ZM200.46 100.376C199.666 100.376 198.968 100.686 198.409 101.245L199.823 102.659C200.032 102.45 200.231 102.376 200.46 102.376V100.376ZM198.409 101.245C197.864 101.79 197.588 102.479 197.588 103.248H199.588C199.588 102.993 199.665 102.818 199.823 102.659L198.409 101.245ZM197.588 103.248V113.376H199.588V103.248H197.588ZM197.588 113.376C197.588 114.145 197.864 114.834 198.409 115.379L199.823 113.965C199.665 113.806 199.588 113.631 199.588 113.376H197.588ZM198.441 115.409C199.005 115.927 199.693 116.2 200.46 116.2V114.2C200.203 114.2 199.995 114.121 199.792 113.935L198.441 115.409ZM244.237 132L243.297 132.342L243.537 133H244.237V132ZM231.661 97.44V96.44H230.233L230.721 97.782L231.661 97.44ZM235.789 97.44L236.728 97.0971L236.488 96.44H235.789V97.44ZM245.917 125.184L244.978 125.527L245.919 128.106L246.857 125.525L245.917 125.184ZM255.997 97.44V96.44H255.296L255.057 97.0985L255.997 97.44ZM260.701 97.44L261.64 97.0971L261.4 96.44H260.701V97.44ZM270.829 125.184L269.89 125.527L270.833 128.112L271.769 125.524L270.829 125.184ZM280.861 97.44V96.44H280.159L279.921 97.1L280.861 97.44ZM285.085 97.44L286.025 97.782L286.513 96.44H285.085V97.44ZM272.509 132V133H273.209L273.449 132.342L272.509 132ZM269.101 132L268.161 132.342L268.401 133H269.101V132ZM258.349 102.48L259.289 102.138L258.349 99.558L257.409 102.138L258.349 102.48ZM247.597 132V133H248.297L248.537 132.342L247.597 132ZM245.177 131.658L232.601 97.098L230.721 97.782L243.297 132.342L245.177 131.658ZM231.661 98.44H235.789V96.44H231.661V98.44ZM234.85 97.7829L244.978 125.527L246.856 124.841L236.728 97.0971L234.85 97.7829ZM246.857 125.525L256.937 97.7815L255.057 97.0985L244.977 124.843L246.857 125.525ZM255.997 98.44H260.701V96.44H255.997V98.44ZM259.762 97.7829L269.89 125.527L271.768 124.841L261.64 97.0971L259.762 97.7829ZM271.769 125.524L281.801 97.78L279.921 97.1L269.889 124.844L271.769 125.524ZM280.861 98.44H285.085V96.44H280.861V98.44ZM284.145 97.098L271.569 131.658L273.449 132.342L286.025 97.782L284.145 97.098ZM272.509 131H269.101V133H272.509V131ZM270.041 131.658L259.289 102.138L257.409 102.822L268.161 132.342L270.041 131.658ZM257.409 102.138L246.657 131.658L248.537 132.342L259.289 102.822L257.409 102.138ZM247.597 131H244.237V133H247.597V131Z" fill="white"/>
<path d="M66.4707 121.895C66.4707 122.528 66.3594 123.213 66.1367 123.952C65.9141 124.678 65.5508 125.358 65.0469 125.991C64.5547 126.612 63.9043 127.133 63.0957 127.555C62.2988 127.977 61.3262 128.188 60.1777 128.188H51.9336V123.846H60.1777C60.7988 123.846 61.2793 123.659 61.6191 123.284C61.959 122.897 62.1289 122.422 62.1289 121.86C62.1289 121.262 61.9355 120.793 61.5488 120.454C61.1738 120.114 60.7168 119.944 60.1777 119.944H51.9336C51.3125 119.944 50.832 120.137 50.4922 120.524C50.1523 120.899 49.9824 121.368 49.9824 121.93V128.311C49.9824 128.92 50.1699 129.395 50.5449 129.735C50.9316 130.075 51.4062 130.245 51.9688 130.245H60.1777V134.604H51.9336C51.3008 134.604 50.6152 134.493 49.877 134.27C49.1504 134.047 48.4707 133.69 47.8379 133.198C47.2168 132.694 46.6953 132.043 46.2734 131.247C45.8516 130.438 45.6406 129.46 45.6406 128.311V121.895C45.6406 121.262 45.752 120.583 45.9746 119.856C46.1973 119.118 46.5547 118.438 47.0469 117.817C47.5508 117.184 48.2012 116.657 48.998 116.235C49.8066 115.813 50.7852 115.602 51.9336 115.602H60.1777C60.8105 115.602 61.4902 115.713 62.2168 115.936C62.9551 116.159 63.6348 116.522 64.2559 117.026C64.8887 117.518 65.416 118.168 65.8379 118.977C66.2598 119.774 66.4707 120.747 66.4707 121.895ZM82.8711 134.604H79.8242V127.573C79.8242 127.174 79.7539 126.819 79.6133 126.506C79.4805 126.186 79.2969 125.913 79.0625 125.686C78.8281 125.46 78.5508 125.288 78.2305 125.17C77.918 125.045 77.5781 124.983 77.2109 124.983H71.8789V134.604H68.832V123.448C68.832 123.237 68.8711 123.042 68.9492 122.862C69.0273 122.674 69.1367 122.514 69.2773 122.381C69.418 122.241 69.582 122.131 69.7695 122.053C69.957 121.975 70.1562 121.936 70.3672 121.936H77.2344C77.6172 121.936 78.0195 121.979 78.4414 122.065C78.8711 122.151 79.293 122.292 79.707 122.487C80.1289 122.674 80.5273 122.917 80.9023 123.213C81.2852 123.502 81.6211 123.858 81.9102 124.28C82.207 124.694 82.4414 125.174 82.6133 125.721C82.7852 126.268 82.8711 126.885 82.8711 127.573V134.604ZM97.7891 130.327C97.7891 130.85 97.7227 131.323 97.5898 131.745C97.457 132.159 97.2812 132.526 97.0625 132.846C96.8438 133.159 96.5898 133.428 96.3008 133.655C96.0117 133.874 95.707 134.053 95.3867 134.194C95.0742 134.335 94.7539 134.44 94.4258 134.51C94.1055 134.573 93.8008 134.604 93.5117 134.604H85.2617V131.557H93.4883C93.9023 131.557 94.2148 131.452 94.4258 131.241C94.6367 131.03 94.7422 130.725 94.7422 130.327C94.7031 129.514 94.293 129.108 93.5117 129.108H88.7891C88.1172 129.108 87.5469 128.991 87.0781 128.756C86.6094 128.522 86.2266 128.229 85.9297 127.877C85.6406 127.526 85.4297 127.147 85.2969 126.741C85.1719 126.335 85.1094 125.956 85.1094 125.604C85.1094 124.924 85.2305 124.354 85.4727 123.893C85.7148 123.424 86.0195 123.045 86.3867 122.756C86.7539 122.467 87.1523 122.26 87.582 122.135C88.0117 122.002 88.4141 121.936 88.7891 121.936H96.2773V124.983H88.8125C88.6562 124.983 88.5312 125.002 88.4375 125.042C88.3516 125.073 88.2852 125.12 88.2383 125.182C88.1992 125.237 88.1758 125.299 88.168 125.37C88.1602 125.432 88.1562 125.495 88.1562 125.557C88.1641 125.682 88.1875 125.78 88.2266 125.85C88.2656 125.92 88.3125 125.971 88.3672 126.002C88.4297 126.034 88.4961 126.053 88.5664 126.061C88.6445 126.061 88.7188 126.061 88.7891 126.061H93.5117C94.293 126.061 94.957 126.202 95.5039 126.483C96.0508 126.764 96.4922 127.12 96.8281 127.549C97.1641 127.971 97.4062 128.432 97.5547 128.932C97.7109 129.432 97.7891 129.897 97.7891 130.327ZM113.562 126.131C113.562 126.553 113.488 127.01 113.34 127.502C113.191 127.987 112.949 128.44 112.613 128.862C112.285 129.276 111.852 129.624 111.312 129.905C110.781 130.186 110.133 130.327 109.367 130.327H103.871V127.432H109.367C109.781 127.432 110.102 127.307 110.328 127.057C110.555 126.799 110.668 126.483 110.668 126.108C110.668 125.71 110.539 125.397 110.281 125.17C110.031 124.944 109.727 124.831 109.367 124.831H103.871C103.457 124.831 103.137 124.96 102.91 125.217C102.684 125.467 102.57 125.78 102.57 126.155V130.409C102.57 130.815 102.695 131.131 102.945 131.358C103.203 131.585 103.52 131.698 103.895 131.698H109.367V134.604H103.871C103.449 134.604 102.992 134.53 102.5 134.381C102.016 134.233 101.562 133.995 101.141 133.667C100.727 133.331 100.379 132.897 100.098 132.366C99.8164 131.827 99.6758 131.174 99.6758 130.409V126.131C99.6758 125.71 99.75 125.256 99.8984 124.772C100.047 124.28 100.285 123.827 100.613 123.413C100.949 122.991 101.383 122.639 101.914 122.358C102.453 122.077 103.105 121.936 103.871 121.936H109.367C109.789 121.936 110.242 122.01 110.727 122.159C111.219 122.307 111.672 122.549 112.086 122.885C112.508 123.213 112.859 123.647 113.141 124.186C113.422 124.717 113.562 125.366 113.562 126.131ZM126.922 134.604H123.875V126.202C123.875 125.803 123.77 125.502 123.559 125.299C123.348 125.088 123.035 124.983 122.621 124.983H118.66V134.604H115.613V123.448C115.613 123.237 115.652 123.042 115.73 122.862C115.809 122.674 115.918 122.514 116.059 122.381C116.199 122.241 116.363 122.131 116.551 122.053C116.738 121.975 116.938 121.936 117.148 121.936H122.645C123.066 121.936 123.52 122.01 124.004 122.159C124.488 122.307 124.949 122.545 125.387 122.874V121.936H129.512C129.801 121.936 130.105 121.971 130.426 122.042C130.746 122.104 131.062 122.206 131.375 122.346C131.695 122.487 132 122.67 132.289 122.897C132.578 123.116 132.832 123.385 133.051 123.706C133.27 124.018 133.445 124.381 133.578 124.795C133.711 125.21 133.777 125.678 133.777 126.202V134.604H130.73V126.202C130.73 125.803 130.629 125.502 130.426 125.299C130.23 125.088 129.926 124.983 129.512 124.983H126.77C126.871 125.358 126.922 125.764 126.922 126.202V134.604ZM150.559 130.327C150.559 130.616 150.523 130.92 150.453 131.241C150.391 131.561 150.289 131.881 150.148 132.202C150.008 132.514 149.824 132.815 149.598 133.104C149.379 133.393 149.109 133.651 148.789 133.877C148.477 134.096 148.113 134.272 147.699 134.405C147.285 134.538 146.816 134.604 146.293 134.604H140.797C140.508 134.604 140.203 134.573 139.883 134.51C139.562 134.44 139.242 134.335 138.922 134.194C138.609 134.053 138.309 133.874 138.02 133.655C137.73 133.428 137.473 133.159 137.246 132.846C137.027 132.526 136.852 132.159 136.719 131.745C136.586 131.323 136.52 130.85 136.52 130.327V116.581H139.566V130.327C139.566 130.702 139.684 131.002 139.918 131.229C140.152 131.448 140.445 131.557 140.797 131.557H146.293C146.676 131.557 146.973 131.444 147.184 131.217C147.402 130.991 147.512 130.694 147.512 130.327V126.202C147.512 125.819 147.398 125.522 147.172 125.311C146.945 125.092 146.652 124.983 146.293 124.983H140.797V121.936H146.293C146.582 121.936 146.887 121.971 147.207 122.042C147.527 122.104 147.844 122.206 148.156 122.346C148.477 122.487 148.781 122.67 149.07 122.897C149.359 123.116 149.613 123.385 149.832 123.706C150.051 124.018 150.227 124.381 150.359 124.795C150.492 125.21 150.559 125.678 150.559 126.202V130.327ZM158.727 134.604H157.367C156.93 134.604 156.461 134.53 155.961 134.381C155.469 134.233 155.008 133.991 154.578 133.655C154.148 133.311 153.793 132.87 153.512 132.331C153.23 131.784 153.09 131.116 153.09 130.327V116.581H156.137V130.327C156.137 130.702 156.254 131.002 156.488 131.229C156.723 131.448 157.016 131.557 157.367 131.557H158.727V134.604ZM174.312 126.131C174.312 126.553 174.238 127.01 174.09 127.502C173.941 127.987 173.699 128.44 173.363 128.862C173.035 129.276 172.602 129.624 172.062 129.905C171.531 130.186 170.883 130.327 170.117 130.327H164.621V127.432H170.117C170.531 127.432 170.852 127.307 171.078 127.057C171.305 126.799 171.418 126.483 171.418 126.108C171.418 125.71 171.289 125.397 171.031 125.17C170.781 124.944 170.477 124.831 170.117 124.831H164.621C164.207 124.831 163.887 124.96 163.66 125.217C163.434 125.467 163.32 125.78 163.32 126.155V130.409C163.32 130.815 163.445 131.131 163.695 131.358C163.953 131.585 164.27 131.698 164.645 131.698H170.117V134.604H164.621C164.199 134.604 163.742 134.53 163.25 134.381C162.766 134.233 162.312 133.995 161.891 133.667C161.477 133.331 161.129 132.897 160.848 132.366C160.566 131.827 160.426 131.174 160.426 130.409V126.131C160.426 125.71 160.5 125.256 160.648 124.772C160.797 124.28 161.035 123.827 161.363 123.413C161.699 122.991 162.133 122.639 162.664 122.358C163.203 122.077 163.855 121.936 164.621 121.936H170.117C170.539 121.936 170.992 122.01 171.477 122.159C171.969 122.307 172.422 122.549 172.836 122.885C173.258 123.213 173.609 123.647 173.891 124.186C174.172 124.717 174.312 125.366 174.312 126.131ZM188.609 130.327C188.609 130.85 188.543 131.323 188.41 131.745C188.277 132.159 188.102 132.526 187.883 132.846C187.664 133.159 187.41 133.428 187.121 133.655C186.832 133.874 186.527 134.053 186.207 134.194C185.895 134.335 185.574 134.44 185.246 134.51C184.926 134.573 184.621 134.604 184.332 134.604H176.082V131.557H184.309C184.723 131.557 185.035 131.452 185.246 131.241C185.457 131.03 185.562 130.725 185.562 130.327C185.523 129.514 185.113 129.108 184.332 129.108H179.609C178.938 129.108 178.367 128.991 177.898 128.756C177.43 128.522 177.047 128.229 176.75 127.877C176.461 127.526 176.25 127.147 176.117 126.741C175.992 126.335 175.93 125.956 175.93 125.604C175.93 124.924 176.051 124.354 176.293 123.893C176.535 123.424 176.84 123.045 177.207 122.756C177.574 122.467 177.973 122.26 178.402 122.135C178.832 122.002 179.234 121.936 179.609 121.936H187.098V124.983H179.633C179.477 124.983 179.352 125.002 179.258 125.042C179.172 125.073 179.105 125.12 179.059 125.182C179.02 125.237 178.996 125.299 178.988 125.37C178.98 125.432 178.977 125.495 178.977 125.557C178.984 125.682 179.008 125.78 179.047 125.85C179.086 125.92 179.133 125.971 179.188 126.002C179.25 126.034 179.316 126.053 179.387 126.061C179.465 126.061 179.539 126.061 179.609 126.061H184.332C185.113 126.061 185.777 126.202 186.324 126.483C186.871 126.764 187.312 127.12 187.648 127.549C187.984 127.971 188.227 128.432 188.375 128.932C188.531 129.432 188.609 129.897 188.609 130.327ZM296.85 134.604H292.262V113.967H288.131V109.397H296.85V134.604ZM305.604 132.301C305.604 132.618 305.539 132.917 305.41 133.198C305.293 133.467 305.129 133.708 304.918 133.918C304.719 134.118 304.479 134.276 304.197 134.393C303.928 134.51 303.641 134.569 303.336 134.569C303.02 134.569 302.721 134.51 302.439 134.393C302.17 134.276 301.93 134.118 301.719 133.918C301.52 133.708 301.361 133.467 301.244 133.198C301.127 132.917 301.068 132.618 301.068 132.301C301.068 131.997 301.127 131.71 301.244 131.44C301.361 131.159 301.52 130.918 301.719 130.719C301.93 130.508 302.17 130.344 302.439 130.227C302.721 130.098 303.02 130.034 303.336 130.034C303.641 130.034 303.928 130.098 304.197 130.227C304.479 130.344 304.719 130.508 304.918 130.719C305.129 130.918 305.293 131.159 305.41 131.44C305.539 131.71 305.604 131.997 305.604 132.301ZM338.053 124.057C338.053 125.088 337.918 126.067 337.648 126.993C337.391 127.907 337.021 128.756 336.541 129.542C336.061 130.327 335.492 131.03 334.836 131.651C334.18 132.272 333.459 132.805 332.674 133.251C331.9 133.684 331.074 134.018 330.195 134.252C329.316 134.487 328.42 134.604 327.506 134.604H319.262C318.336 134.604 317.434 134.487 316.555 134.252C315.676 134.018 314.844 133.684 314.059 133.251C313.285 132.805 312.57 132.272 311.914 131.651C311.258 131.03 310.689 130.327 310.209 129.542C309.74 128.756 309.371 127.907 309.102 126.993C308.844 126.067 308.715 125.088 308.715 124.057V119.944C308.715 118.397 309.002 116.979 309.576 115.69C310.162 114.401 310.941 113.293 311.914 112.368C312.887 111.43 314.006 110.704 315.271 110.188C316.549 109.661 317.879 109.397 319.262 109.397H327.506C328.42 109.397 329.316 109.514 330.195 109.749C331.074 109.983 331.9 110.323 332.674 110.768C333.459 111.202 334.18 111.729 334.836 112.35C335.492 112.971 336.061 113.674 336.541 114.46C337.021 115.245 337.391 116.1 337.648 117.026C337.918 117.94 338.053 118.913 338.053 119.944V124.057ZM333.447 119.944C333.447 119.042 333.283 118.221 332.955 117.483C332.627 116.745 332.188 116.112 331.637 115.585C331.098 115.057 330.471 114.653 329.756 114.372C329.041 114.09 328.291 113.956 327.506 113.967H319.262C318.5 113.956 317.756 114.09 317.029 114.372C316.314 114.641 315.676 115.04 315.113 115.567C314.562 116.083 314.117 116.715 313.777 117.465C313.449 118.204 313.285 119.03 313.285 119.944V124.057C313.285 124.971 313.449 125.797 313.777 126.536C314.105 127.274 314.545 127.907 315.096 128.434C315.646 128.95 316.279 129.348 316.994 129.629C317.721 129.911 318.477 130.045 319.262 130.034H327.506C328.408 130.034 329.223 129.887 329.949 129.594C330.688 129.29 331.314 128.874 331.83 128.346C332.346 127.819 332.744 127.192 333.025 126.465C333.307 125.727 333.447 124.924 333.447 124.057V119.944ZM331.461 116.604C331.637 116.862 331.754 117.143 331.812 117.448C331.871 117.741 331.871 118.034 331.812 118.327C331.754 118.608 331.637 118.877 331.461 119.135C331.297 119.381 331.08 119.592 330.811 119.768L318.471 128.012C318.271 128.165 318.066 128.27 317.855 128.329C317.645 128.387 317.428 128.417 317.205 128.417C316.83 128.417 316.473 128.329 316.133 128.153C315.793 127.977 315.518 127.725 315.307 127.397C315.131 127.139 315.014 126.864 314.955 126.571C314.896 126.266 314.891 125.973 314.938 125.692C314.996 125.399 315.107 125.129 315.271 124.883C315.436 124.626 315.652 124.409 315.922 124.233L328.297 115.989C328.555 115.813 328.83 115.696 329.123 115.637C329.428 115.579 329.721 115.579 330.002 115.637C330.295 115.696 330.564 115.807 330.811 115.971C331.068 116.135 331.285 116.346 331.461 116.604ZM345.682 132.301C345.682 132.618 345.617 132.917 345.488 133.198C345.371 133.467 345.207 133.708 344.996 133.918C344.797 134.118 344.557 134.276 344.275 134.393C344.006 134.51 343.719 134.569 343.414 134.569C343.098 134.569 342.799 134.51 342.518 134.393C342.248 134.276 342.008 134.118 341.797 133.918C341.598 133.708 341.439 133.467 341.322 133.198C341.205 132.917 341.146 132.618 341.146 132.301C341.146 131.997 341.205 131.71 341.322 131.44C341.439 131.159 341.598 130.918 341.797 130.719C342.008 130.508 342.248 130.344 342.518 130.227C342.799 130.098 343.098 130.034 343.414 130.034C343.719 130.034 344.006 130.098 344.275 130.227C344.557 130.344 344.797 130.508 344.996 130.719C345.207 130.918 345.371 131.159 345.488 131.44C345.617 131.71 345.682 131.997 345.682 132.301ZM378.131 124.057C378.131 125.088 377.996 126.067 377.727 126.993C377.469 127.907 377.1 128.756 376.619 129.542C376.139 130.327 375.57 131.03 374.914 131.651C374.258 132.272 373.537 132.805 372.752 133.251C371.979 133.684 371.152 134.018 370.273 134.252C369.395 134.487 368.498 134.604 367.584 134.604H359.34C358.414 134.604 357.512 134.487 356.633 134.252C355.754 134.018 354.922 133.684 354.137 133.251C353.363 132.805 352.648 132.272 351.992 131.651C351.336 131.03 350.768 130.327 350.287 129.542C349.818 128.756 349.449 127.907 349.18 126.993C348.922 126.067 348.793 125.088 348.793 124.057V119.944C348.793 118.397 349.08 116.979 349.654 115.69C350.24 114.401 351.02 113.293 351.992 112.368C352.965 111.43 354.084 110.704 355.35 110.188C356.627 109.661 357.957 109.397 359.34 109.397H367.584C368.498 109.397 369.395 109.514 370.273 109.749C371.152 109.983 371.979 110.323 372.752 110.768C373.537 111.202 374.258 111.729 374.914 112.35C375.57 112.971 376.139 113.674 376.619 114.46C377.1 115.245 377.469 116.1 377.727 117.026C377.996 117.94 378.131 118.913 378.131 119.944V124.057ZM373.525 119.944C373.525 119.042 373.361 118.221 373.033 117.483C372.705 116.745 372.266 116.112 371.715 115.585C371.176 115.057 370.549 114.653 369.834 114.372C369.119 114.09 368.369 113.956 367.584 113.967H359.34C358.578 113.956 357.834 114.09 357.107 114.372C356.393 114.641 355.754 115.04 355.191 115.567C354.641 116.083 354.195 116.715 353.855 117.465C353.527 118.204 353.363 119.03 353.363 119.944V124.057C353.363 124.971 353.527 125.797 353.855 126.536C354.184 127.274 354.623 127.907 355.174 128.434C355.725 128.95 356.357 129.348 357.072 129.629C357.799 129.911 358.555 130.045 359.34 130.034H367.584C368.486 130.034 369.301 129.887 370.027 129.594C370.766 129.29 371.393 128.874 371.908 128.346C372.424 127.819 372.822 127.192 373.104 126.465C373.385 125.727 373.525 124.924 373.525 124.057V119.944ZM371.539 116.604C371.715 116.862 371.832 117.143 371.891 117.448C371.949 117.741 371.949 118.034 371.891 118.327C371.832 118.608 371.715 118.877 371.539 119.135C371.375 119.381 371.158 119.592 370.889 119.768L358.549 128.012C358.35 128.165 358.145 128.27 357.934 128.329C357.723 128.387 357.506 128.417 357.283 128.417C356.908 128.417 356.551 128.329 356.211 128.153C355.871 127.977 355.596 127.725 355.385 127.397C355.209 127.139 355.092 126.864 355.033 126.571C354.975 126.266 354.969 125.973 355.016 125.692C355.074 125.399 355.186 125.129 355.35 124.883C355.514 124.626 355.73 124.409 356 124.233L368.375 115.989C368.633 115.813 368.908 115.696 369.201 115.637C369.506 115.579 369.799 115.579 370.08 115.637C370.373 115.696 370.643 115.807 370.889 115.971C371.146 116.135 371.363 116.346 371.539 116.604Z" fill="white"/>
</svg>
