<svg width="460" height="236" viewBox="0 0 460 236" fill="none" xmlns="http://www.w3.org/2000/svg">
<rect width="460" height="236" fill="#202020"/>
<path d="M219.785 134H218.785V135H219.785V134ZM221.465 101.12L220.758 100.413V100.413L221.465 101.12ZM252.665 101.12L253.372 100.413L252.665 101.12ZM254.345 134V135H255.345V134H254.345ZM250.457 134H249.457V135H250.457V134ZM250.457 121.376H251.457V120.376H250.457V121.376ZM223.673 121.376V120.376H222.673V121.376H223.673ZM223.673 134V135H224.673V134H223.673ZM223.673 117.488H222.673V118.488H223.673V117.488ZM250.457 117.488V118.488H251.457V117.488H250.457ZM249.881 103.904L249.144 104.58L249.173 104.612L249.205 104.641L249.881 103.904ZM224.201 103.904L224.908 104.611H224.908L224.201 103.904ZM220.785 134V105.2H218.785V134H220.785ZM220.785 105.2C220.785 103.862 221.242 102.757 222.172 101.827L220.758 100.413C219.448 101.723 218.785 103.338 218.785 105.2H220.785ZM222.172 101.827C223.102 100.897 224.207 100.44 225.545 100.44V98.44C223.683 98.44 222.067 99.1032 220.758 100.413L222.172 101.827ZM225.545 100.44H248.585V98.44H225.545V100.44ZM248.585 100.44C249.923 100.44 251.027 100.897 251.958 101.827L253.372 100.413C252.062 99.1032 250.447 98.44 248.585 98.44V100.44ZM251.958 101.827C252.888 102.757 253.345 103.862 253.345 105.2H255.345C255.345 103.338 254.682 101.723 253.372 100.413L251.958 101.827ZM253.345 105.2V134H255.345V105.2H253.345ZM254.345 133H250.457V135H254.345V133ZM251.457 134V121.376H249.457V134H251.457ZM250.457 120.376H223.673V122.376H250.457V120.376ZM222.673 121.376V134H224.673V121.376H222.673ZM223.673 133H219.785V135H223.673V133ZM223.673 118.488H250.457V116.488H223.673V118.488ZM251.457 117.488V105.2H249.457V117.488H251.457ZM251.457 105.2C251.457 104.402 251.143 103.704 250.557 103.167L249.205 104.641C249.387 104.807 249.457 104.974 249.457 105.2H251.457ZM250.618 103.228C250.08 102.642 249.383 102.328 248.585 102.328V104.328C248.811 104.328 248.977 104.398 249.144 104.58L250.618 103.228ZM248.585 102.328H225.545V104.328H248.585V102.328ZM225.545 102.328C224.75 102.328 224.053 102.638 223.494 103.197L224.908 104.611C225.117 104.402 225.315 104.328 225.545 104.328V102.328ZM223.494 103.197C222.948 103.742 222.673 104.431 222.673 105.2H224.673C224.673 104.945 224.749 104.77 224.908 104.611L223.494 103.197ZM222.673 105.2V117.488H224.673V105.2H222.673ZM269.882 134L268.942 134.342L269.182 135H269.882V134ZM257.306 99.44V98.44H255.878L256.366 99.782L257.306 99.44ZM261.434 99.44L262.373 99.0971L262.133 98.44H261.434V99.44ZM271.562 127.184L270.622 127.527L271.564 130.106L272.502 127.525L271.562 127.184ZM281.642 99.44V98.44H280.941L280.702 99.0985L281.642 99.44ZM286.346 99.44L287.285 99.0971L287.045 98.44H286.346V99.44ZM296.474 127.184L295.534 127.527L296.478 130.112L297.414 127.524L296.474 127.184ZM306.506 99.44V98.44H305.804L305.565 99.1L306.506 99.44ZM310.73 99.44L311.67 99.782L312.158 98.44H310.73V99.44ZM298.154 134V135H298.854L299.094 134.342L298.154 134ZM294.746 134L293.806 134.342L294.046 135H294.746V134ZM283.994 104.48L284.933 104.138L283.994 101.558L283.054 104.138L283.994 104.48ZM273.242 134V135H273.942L274.181 134.342L273.242 134ZM270.822 133.658L258.246 99.098L256.366 99.782L268.942 134.342L270.822 133.658ZM257.306 100.44H261.434V98.44H257.306V100.44ZM260.494 99.7829L270.622 127.527L272.501 126.841L262.373 99.0971L260.494 99.7829ZM272.502 127.525L282.582 99.7815L280.702 99.0985L270.622 126.843L272.502 127.525ZM281.642 100.44H286.346V98.44H281.642V100.44ZM285.406 99.7829L295.534 127.527L297.413 126.841L287.285 99.0971L285.406 99.7829ZM297.414 127.524L307.446 99.78L305.565 99.1L295.533 126.844L297.414 127.524ZM306.506 100.44H310.73V98.44H306.506V100.44ZM309.79 99.098L297.214 133.658L299.094 134.342L311.67 99.782L309.79 99.098ZM298.154 133H294.746V135H298.154V133ZM295.685 133.658L284.933 104.138L283.054 104.822L293.806 134.342L295.685 133.658ZM283.054 104.138L272.302 133.658L274.181 134.342L284.933 104.822L283.054 104.138ZM273.242 133H269.882V135H273.242V133Z" fill="white"/>
<path d="M91.3789 121.895C91.3789 122.528 91.2676 123.213 91.0449 123.952C90.8223 124.678 90.459 125.358 89.9551 125.991C89.4629 126.612 88.8125 127.133 88.0039 127.555C87.207 127.977 86.2344 128.188 85.0859 128.188H76.8418V123.846H85.0859C85.707 123.846 86.1875 123.659 86.5273 123.284C86.8672 122.897 87.0371 122.422 87.0371 121.86C87.0371 121.262 86.8438 120.793 86.457 120.454C86.082 120.114 85.625 119.944 85.0859 119.944H76.8418C76.2207 119.944 75.7402 120.137 75.4004 120.524C75.0605 120.899 74.8906 121.368 74.8906 121.93V128.311C74.8906 128.92 75.0781 129.395 75.4531 129.735C75.8398 130.075 76.3145 130.245 76.877 130.245H85.0859V134.604H76.8418C76.209 134.604 75.5234 134.493 74.7852 134.27C74.0586 134.047 73.3789 133.69 72.7461 133.198C72.125 132.694 71.6035 132.043 71.1816 131.247C70.7598 130.438 70.5488 129.46 70.5488 128.311V121.895C70.5488 121.262 70.6602 120.583 70.8828 119.856C71.1055 119.118 71.4629 118.438 71.9551 117.817C72.459 117.184 73.1094 116.657 73.9062 116.235C74.7148 115.813 75.6934 115.602 76.8418 115.602H85.0859C85.7188 115.602 86.3984 115.713 87.125 115.936C87.8633 116.159 88.543 116.522 89.1641 117.026C89.7969 117.518 90.3242 118.168 90.7461 118.977C91.168 119.774 91.3789 120.747 91.3789 121.895ZM107.779 134.604H104.732V127.573C104.732 127.174 104.662 126.819 104.521 126.506C104.389 126.186 104.205 125.913 103.971 125.686C103.736 125.46 103.459 125.288 103.139 125.17C102.826 125.045 102.486 124.983 102.119 124.983H96.7871V134.604H93.7402V123.448C93.7402 123.237 93.7793 123.042 93.8574 122.862C93.9355 122.674 94.0449 122.514 94.1855 122.381C94.3262 122.241 94.4902 122.131 94.6777 122.053C94.8652 121.975 95.0645 121.936 95.2754 121.936H102.143C102.525 121.936 102.928 121.979 103.35 122.065C103.779 122.151 104.201 122.292 104.615 122.487C105.037 122.674 105.436 122.917 105.811 123.213C106.193 123.502 106.529 123.858 106.818 124.28C107.115 124.694 107.35 125.174 107.521 125.721C107.693 126.268 107.779 126.885 107.779 127.573V134.604ZM122.697 130.327C122.697 130.85 122.631 131.323 122.498 131.745C122.365 132.159 122.189 132.526 121.971 132.846C121.752 133.159 121.498 133.428 121.209 133.655C120.92 133.874 120.615 134.053 120.295 134.194C119.982 134.335 119.662 134.44 119.334 134.51C119.014 134.573 118.709 134.604 118.42 134.604H110.17V131.557H118.396C118.811 131.557 119.123 131.452 119.334 131.241C119.545 131.03 119.65 130.725 119.65 130.327C119.611 129.514 119.201 129.108 118.42 129.108H113.697C113.025 129.108 112.455 128.991 111.986 128.756C111.518 128.522 111.135 128.229 110.838 127.877C110.549 127.526 110.338 127.147 110.205 126.741C110.08 126.335 110.018 125.956 110.018 125.604C110.018 124.924 110.139 124.354 110.381 123.893C110.623 123.424 110.928 123.045 111.295 122.756C111.662 122.467 112.061 122.26 112.49 122.135C112.92 122.002 113.322 121.936 113.697 121.936H121.186V124.983H113.721C113.564 124.983 113.439 125.002 113.346 125.042C113.26 125.073 113.193 125.12 113.146 125.182C113.107 125.237 113.084 125.299 113.076 125.37C113.068 125.432 113.064 125.495 113.064 125.557C113.072 125.682 113.096 125.78 113.135 125.85C113.174 125.92 113.221 125.971 113.275 126.002C113.338 126.034 113.404 126.053 113.475 126.061C113.553 126.061 113.627 126.061 113.697 126.061H118.42C119.201 126.061 119.865 126.202 120.412 126.483C120.959 126.764 121.4 127.12 121.736 127.549C122.072 127.971 122.314 128.432 122.463 128.932C122.619 129.432 122.697 129.897 122.697 130.327ZM138.471 126.131C138.471 126.553 138.396 127.01 138.248 127.502C138.1 127.987 137.857 128.44 137.521 128.862C137.193 129.276 136.76 129.624 136.221 129.905C135.689 130.186 135.041 130.327 134.275 130.327H128.779V127.432H134.275C134.689 127.432 135.01 127.307 135.236 127.057C135.463 126.799 135.576 126.483 135.576 126.108C135.576 125.71 135.447 125.397 135.189 125.17C134.939 124.944 134.635 124.831 134.275 124.831H128.779C128.365 124.831 128.045 124.96 127.818 125.217C127.592 125.467 127.479 125.78 127.479 126.155V130.409C127.479 130.815 127.604 131.131 127.854 131.358C128.111 131.585 128.428 131.698 128.803 131.698H134.275V134.604H128.779C128.357 134.604 127.9 134.53 127.408 134.381C126.924 134.233 126.471 133.995 126.049 133.667C125.635 133.331 125.287 132.897 125.006 132.366C124.725 131.827 124.584 131.174 124.584 130.409V126.131C124.584 125.71 124.658 125.256 124.807 124.772C124.955 124.28 125.193 123.827 125.521 123.413C125.857 122.991 126.291 122.639 126.822 122.358C127.361 122.077 128.014 121.936 128.779 121.936H134.275C134.697 121.936 135.15 122.01 135.635 122.159C136.127 122.307 136.58 122.549 136.994 122.885C137.416 123.213 137.768 123.647 138.049 124.186C138.33 124.717 138.471 125.366 138.471 126.131ZM151.83 134.604H148.783V126.202C148.783 125.803 148.678 125.502 148.467 125.299C148.256 125.088 147.943 124.983 147.529 124.983H143.568V134.604H140.521V123.448C140.521 123.237 140.561 123.042 140.639 122.862C140.717 122.674 140.826 122.514 140.967 122.381C141.107 122.241 141.271 122.131 141.459 122.053C141.646 121.975 141.846 121.936 142.057 121.936H147.553C147.975 121.936 148.428 122.01 148.912 122.159C149.396 122.307 149.857 122.545 150.295 122.874V121.936H154.42C154.709 121.936 155.014 121.971 155.334 122.042C155.654 122.104 155.971 122.206 156.283 122.346C156.604 122.487 156.908 122.67 157.197 122.897C157.486 123.116 157.74 123.385 157.959 123.706C158.178 124.018 158.354 124.381 158.486 124.795C158.619 125.21 158.686 125.678 158.686 126.202V134.604H155.639V126.202C155.639 125.803 155.537 125.502 155.334 125.299C155.139 125.088 154.834 124.983 154.42 124.983H151.678C151.779 125.358 151.83 125.764 151.83 126.202V134.604ZM175.467 130.327C175.467 130.616 175.432 130.92 175.361 131.241C175.299 131.561 175.197 131.881 175.057 132.202C174.916 132.514 174.732 132.815 174.506 133.104C174.287 133.393 174.018 133.651 173.697 133.877C173.385 134.096 173.021 134.272 172.607 134.405C172.193 134.538 171.725 134.604 171.201 134.604H165.705C165.416 134.604 165.111 134.573 164.791 134.51C164.471 134.44 164.15 134.335 163.83 134.194C163.518 134.053 163.217 133.874 162.928 133.655C162.639 133.428 162.381 133.159 162.154 132.846C161.936 132.526 161.76 132.159 161.627 131.745C161.494 131.323 161.428 130.85 161.428 130.327V116.581H164.475V130.327C164.475 130.702 164.592 131.002 164.826 131.229C165.061 131.448 165.354 131.557 165.705 131.557H171.201C171.584 131.557 171.881 131.444 172.092 131.217C172.311 130.991 172.42 130.694 172.42 130.327V126.202C172.42 125.819 172.307 125.522 172.08 125.311C171.854 125.092 171.561 124.983 171.201 124.983H165.705V121.936H171.201C171.49 121.936 171.795 121.971 172.115 122.042C172.436 122.104 172.752 122.206 173.064 122.346C173.385 122.487 173.689 122.67 173.979 122.897C174.268 123.116 174.521 123.385 174.74 123.706C174.959 124.018 175.135 124.381 175.268 124.795C175.4 125.21 175.467 125.678 175.467 126.202V130.327ZM183.635 134.604H182.275C181.838 134.604 181.369 134.53 180.869 134.381C180.377 134.233 179.916 133.991 179.486 133.655C179.057 133.311 178.701 132.87 178.42 132.331C178.139 131.784 177.998 131.116 177.998 130.327V116.581H181.045V130.327C181.045 130.702 181.162 131.002 181.396 131.229C181.631 131.448 181.924 131.557 182.275 131.557H183.635V134.604ZM199.221 126.131C199.221 126.553 199.146 127.01 198.998 127.502C198.85 127.987 198.607 128.44 198.271 128.862C197.943 129.276 197.51 129.624 196.971 129.905C196.439 130.186 195.791 130.327 195.025 130.327H189.529V127.432H195.025C195.439 127.432 195.76 127.307 195.986 127.057C196.213 126.799 196.326 126.483 196.326 126.108C196.326 125.71 196.197 125.397 195.939 125.17C195.689 124.944 195.385 124.831 195.025 124.831H189.529C189.115 124.831 188.795 124.96 188.568 125.217C188.342 125.467 188.229 125.78 188.229 126.155V130.409C188.229 130.815 188.354 131.131 188.604 131.358C188.861 131.585 189.178 131.698 189.553 131.698H195.025V134.604H189.529C189.107 134.604 188.65 134.53 188.158 134.381C187.674 134.233 187.221 133.995 186.799 133.667C186.385 133.331 186.037 132.897 185.756 132.366C185.475 131.827 185.334 131.174 185.334 130.409V126.131C185.334 125.71 185.408 125.256 185.557 124.772C185.705 124.28 185.943 123.827 186.271 123.413C186.607 122.991 187.041 122.639 187.572 122.358C188.111 122.077 188.764 121.936 189.529 121.936H195.025C195.447 121.936 195.9 122.01 196.385 122.159C196.877 122.307 197.33 122.549 197.744 122.885C198.166 123.213 198.518 123.647 198.799 124.186C199.08 124.717 199.221 125.366 199.221 126.131ZM213.518 130.327C213.518 130.85 213.451 131.323 213.318 131.745C213.186 132.159 213.01 132.526 212.791 132.846C212.572 133.159 212.318 133.428 212.029 133.655C211.74 133.874 211.436 134.053 211.115 134.194C210.803 134.335 210.482 134.44 210.154 134.51C209.834 134.573 209.529 134.604 209.24 134.604H200.99V131.557H209.217C209.631 131.557 209.943 131.452 210.154 131.241C210.365 131.03 210.471 130.725 210.471 130.327C210.432 129.514 210.021 129.108 209.24 129.108H204.518C203.846 129.108 203.275 128.991 202.807 128.756C202.338 128.522 201.955 128.229 201.658 127.877C201.369 127.526 201.158 127.147 201.025 126.741C200.9 126.335 200.838 125.956 200.838 125.604C200.838 124.924 200.959 124.354 201.201 123.893C201.443 123.424 201.748 123.045 202.115 122.756C202.482 122.467 202.881 122.26 203.311 122.135C203.74 122.002 204.143 121.936 204.518 121.936H212.006V124.983H204.541C204.385 124.983 204.26 125.002 204.166 125.042C204.08 125.073 204.014 125.12 203.967 125.182C203.928 125.237 203.904 125.299 203.896 125.37C203.889 125.432 203.885 125.495 203.885 125.557C203.893 125.682 203.916 125.78 203.955 125.85C203.994 125.92 204.041 125.971 204.096 126.002C204.158 126.034 204.225 126.053 204.295 126.061C204.373 126.061 204.447 126.061 204.518 126.061H209.24C210.021 126.061 210.686 126.202 211.232 126.483C211.779 126.764 212.221 127.12 212.557 127.549C212.893 127.971 213.135 128.432 213.283 128.932C213.439 129.432 213.518 129.897 213.518 130.327ZM321.758 134.604H317.17V113.967H313.039V109.397H321.758V134.604ZM355.895 124.057C355.895 125.088 355.76 126.067 355.49 126.993C355.232 127.907 354.863 128.756 354.383 129.542C353.902 130.327 353.334 131.03 352.678 131.651C352.021 132.272 351.301 132.805 350.516 133.251C349.742 133.684 348.916 134.018 348.037 134.252C347.158 134.487 346.262 134.604 345.348 134.604H337.104C336.178 134.604 335.275 134.487 334.396 134.252C333.518 134.018 332.686 133.684 331.9 133.251C331.127 132.805 330.412 132.272 329.756 131.651C329.1 131.03 328.531 130.327 328.051 129.542C327.582 128.756 327.213 127.907 326.943 126.993C326.686 126.067 326.557 125.088 326.557 124.057V119.944C326.557 118.397 326.844 116.979 327.418 115.69C328.004 114.401 328.783 113.293 329.756 112.368C330.729 111.43 331.848 110.704 333.113 110.188C334.391 109.661 335.721 109.397 337.104 109.397H345.348C346.262 109.397 347.158 109.514 348.037 109.749C348.916 109.983 349.742 110.323 350.516 110.768C351.301 111.202 352.021 111.729 352.678 112.35C353.334 112.971 353.902 113.674 354.383 114.46C354.863 115.245 355.232 116.1 355.49 117.026C355.76 117.94 355.895 118.913 355.895 119.944V124.057ZM351.289 119.944C351.289 119.042 351.125 118.221 350.797 117.483C350.469 116.745 350.029 116.112 349.479 115.585C348.939 115.057 348.312 114.653 347.598 114.372C346.883 114.09 346.133 113.956 345.348 113.967H337.104C336.342 113.956 335.598 114.09 334.871 114.372C334.156 114.641 333.518 115.04 332.955 115.567C332.404 116.083 331.959 116.715 331.619 117.465C331.291 118.204 331.127 119.03 331.127 119.944V124.057C331.127 124.971 331.291 125.797 331.619 126.536C331.947 127.274 332.387 127.907 332.938 128.434C333.488 128.95 334.121 129.348 334.836 129.629C335.562 129.911 336.318 130.045 337.104 130.034H345.348C346.25 130.034 347.064 129.887 347.791 129.594C348.529 129.29 349.156 128.874 349.672 128.346C350.188 127.819 350.586 127.192 350.867 126.465C351.148 125.727 351.289 124.924 351.289 124.057V119.944ZM349.303 116.604C349.479 116.862 349.596 117.143 349.654 117.448C349.713 117.741 349.713 118.034 349.654 118.327C349.596 118.608 349.479 118.877 349.303 119.135C349.139 119.381 348.922 119.592 348.652 119.768L336.312 128.012C336.113 128.165 335.908 128.27 335.697 128.329C335.486 128.387 335.27 128.417 335.047 128.417C334.672 128.417 334.314 128.329 333.975 128.153C333.635 127.977 333.359 127.725 333.148 127.397C332.973 127.139 332.855 126.864 332.797 126.571C332.738 126.266 332.732 125.973 332.779 125.692C332.838 125.399 332.949 125.129 333.113 124.883C333.277 124.626 333.494 124.409 333.764 124.233L346.139 115.989C346.396 115.813 346.672 115.696 346.965 115.637C347.27 115.579 347.562 115.579 347.844 115.637C348.137 115.696 348.406 115.807 348.652 115.971C348.91 116.135 349.127 116.346 349.303 116.604ZM389.223 124.057C389.223 125.088 389.088 126.067 388.818 126.993C388.561 127.907 388.191 128.756 387.711 129.542C387.23 130.327 386.662 131.03 386.006 131.651C385.35 132.272 384.629 132.805 383.844 133.251C383.07 133.684 382.244 134.018 381.365 134.252C380.486 134.487 379.59 134.604 378.676 134.604H370.432C369.506 134.604 368.604 134.487 367.725 134.252C366.846 134.018 366.014 133.684 365.229 133.251C364.455 132.805 363.74 132.272 363.084 131.651C362.428 131.03 361.859 130.327 361.379 129.542C360.91 128.756 360.541 127.907 360.271 126.993C360.014 126.067 359.885 125.088 359.885 124.057V119.944C359.885 118.397 360.172 116.979 360.746 115.69C361.332 114.401 362.111 113.293 363.084 112.368C364.057 111.43 365.176 110.704 366.441 110.188C367.719 109.661 369.049 109.397 370.432 109.397H378.676C379.59 109.397 380.486 109.514 381.365 109.749C382.244 109.983 383.07 110.323 383.844 110.768C384.629 111.202 385.35 111.729 386.006 112.35C386.662 112.971 387.23 113.674 387.711 114.46C388.191 115.245 388.561 116.1 388.818 117.026C389.088 117.94 389.223 118.913 389.223 119.944V124.057ZM384.617 119.944C384.617 119.042 384.453 118.221 384.125 117.483C383.797 116.745 383.357 116.112 382.807 115.585C382.268 115.057 381.641 114.653 380.926 114.372C380.211 114.09 379.461 113.956 378.676 113.967H370.432C369.67 113.956 368.926 114.09 368.199 114.372C367.484 114.641 366.846 115.04 366.283 115.567C365.732 116.083 365.287 116.715 364.947 117.465C364.619 118.204 364.455 119.03 364.455 119.944V124.057C364.455 124.971 364.619 125.797 364.947 126.536C365.275 127.274 365.715 127.907 366.266 128.434C366.816 128.95 367.449 129.348 368.164 129.629C368.891 129.911 369.646 130.045 370.432 130.034H378.676C379.578 130.034 380.393 129.887 381.119 129.594C381.857 129.29 382.484 128.874 383 128.346C383.516 127.819 383.914 127.192 384.195 126.465C384.477 125.727 384.617 124.924 384.617 124.057V119.944ZM382.631 116.604C382.807 116.862 382.924 117.143 382.982 117.448C383.041 117.741 383.041 118.034 382.982 118.327C382.924 118.608 382.807 118.877 382.631 119.135C382.467 119.381 382.25 119.592 381.98 119.768L369.641 128.012C369.441 128.165 369.236 128.27 369.025 128.329C368.814 128.387 368.598 128.417 368.375 128.417C368 128.417 367.643 128.329 367.303 128.153C366.963 127.977 366.688 127.725 366.477 127.397C366.301 127.139 366.184 126.864 366.125 126.571C366.066 126.266 366.061 125.973 366.107 125.692C366.166 125.399 366.277 125.129 366.441 124.883C366.605 124.626 366.822 124.409 367.092 124.233L379.467 115.989C379.725 115.813 380 115.696 380.293 115.637C380.598 115.579 380.891 115.579 381.172 115.637C381.465 115.696 381.734 115.807 381.98 115.971C382.238 116.135 382.455 116.346 382.631 116.604Z" fill="white"/>
</svg>
