<?xml version="1.0" encoding="UTF-8"?>
<svg width="460" height="236" version="1.1" viewBox="0 0 460 236" xmlns="http://www.w3.org/2000/svg">
 <rect width="460" height="236" fill="#202020"/>
 <path d="m215.02 132h-1v1h1v-1zm0-34.512v-1h-1v1h1zm32.88 1.728-0.717 0.6971 0.01 0.01 0.707-0.7071zm0 18.24 0.707 0.707 0.01-0.01-0.717-0.697zm-28.992 1.68v-1h-1v1h1zm0 12.864v1h1v-1h-1zm26.208-17.328-0.676-0.737-0.016 0.015-0.015 0.015 0.707 0.707zm0-12.72-0.737 0.676 0.029 0.032 0.032 0.029 0.676-0.737zm-25.68 0-0.707-0.707 0.707 0.707zm0 12.72-0.707 0.707 0.015 0.015 0.016 0.015 0.676-0.737zm-3.416 17.328v-34.512h-2v34.512h2zm-1-33.512h28.8v-2h-28.8v2zm28.8 0c1.329 0 2.43 0.4658 3.363 1.4251l1.434-1.3942c-1.307-1.3447-2.926-2.0309-4.797-2.0309v2zm3.373 1.4351c0.934 0.9349 1.387 2.0249 1.387 3.3249h2c0-1.836-0.668-3.4337-1.973-4.7391l-1.414 1.4142zm1.387 3.3249v10.128h2v-10.128h-2zm0 10.128c0 1.301-0.454 2.412-1.397 3.383l1.434 1.394c1.296-1.333 1.963-2.942 1.963-4.777h-2zm-1.387 3.373c-0.93 0.93-2.035 1.387-3.373 1.387v2c1.862 0 3.477-0.663 4.787-1.973l-1.414-1.414zm-3.373 1.387h-24.912v2h24.912v-2zm-25.912 1v12.864h2v-12.864h-2zm1 11.864h-3.888v2h3.888v-2zm1.872-14.8h23.04v-2h-23.04v2zm23.04 0c0.769 0 1.458-0.275 2.003-0.821l-1.414-1.414c-0.159 0.158-0.334 0.235-0.589 0.235v2zm1.972-0.791c0.586-0.537 0.9-1.235 0.9-2.033h-2c0 0.226-0.07 0.392-0.252 0.559l1.352 1.474zm0.9-2.033v-10.128h-2v10.128h2zm0-10.128c0-0.798-0.314-1.496-0.9-2.033l-1.352 1.474c0.182 0.166 0.252 0.333 0.252 0.559h2zm-0.839-1.972c-0.538-0.586-1.235-0.9-2.033-0.9v2c0.226 0 0.392 0.07 0.559 0.252l1.474-1.352zm-2.033-0.9h-23.04v2h23.04v-2zm-23.04 0c-0.795 0-1.492 0.31-2.051 0.869l1.414 1.414c0.209-0.209 0.408-0.283 0.637-0.283v-2zm-2.051 0.869c-0.546 0.545-0.821 1.234-0.821 2.003h2c0-0.255 0.077-0.43 0.235-0.589l-1.414-1.414zm-0.821 2.003v10.128h2v-10.128h-2zm0 10.128c0 0.769 0.275 1.458 0.821 2.003l1.414-1.414c-0.158-0.159-0.235-0.334-0.235-0.589h-2zm0.852 2.033c0.565 0.518 1.253 0.791 2.02 0.791v-2c-0.257 0-0.465-0.079-0.668-0.265l-1.352 1.474zm45.797 16.591-0.94 0.342 0.239 0.658h0.701v-1zm-12.576-34.56v-1h-1.428l0.488 1.342 0.94-0.342zm4.128 0 0.939-0.3429-0.24-0.6571h-0.699v1zm10.128 27.744-0.94 0.343 0.942 2.579 0.938-2.581-0.94-0.341zm10.08-27.744v-1h-0.701l-0.239 0.6585 0.94 0.3415zm4.704 0 0.939-0.3429-0.24-0.6571h-0.699v1zm10.128 27.744-0.94 0.343 0.944 2.585 0.936-2.588-0.94-0.34zm10.032-27.744v-1h-0.702l-0.239 0.66 0.941 0.34zm4.224 0 0.939 0.342 0.489-1.342h-1.428v1zm-12.576 34.56v1h0.7l0.239-0.658-0.939-0.342zm-3.408 0-0.94 0.342 0.24 0.658h0.7v-1zm-10.752-29.52 0.939-0.342-0.939-2.58-0.94 2.58 0.94 0.342zm-10.752 29.52v1h0.7l0.239-0.658-0.939-0.342zm-2.421-0.342-12.576-34.56-1.879 0.684 12.576 34.56 1.879-0.684zm-13.515-33.218h4.128v-2h-4.128v2zm3.188-0.6571 10.128 27.744 1.879-0.686-10.128-27.744-1.879 0.6858zm12.008 27.742 10.08-27.744-1.88-0.683-10.08 27.744 1.88 0.682zm9.14-27.085h4.704v-2h-4.704v2zm3.764-0.6571 10.128 27.744 1.879-0.686-10.128-27.744-1.879 0.6858zm12.008 27.741 10.032-27.744-1.881-0.68-10.032 27.744 1.881 0.68zm9.092-27.084h4.224v-2h-4.224v2zm3.284-1.342-12.576 34.56 1.879 0.684 12.576-34.56-1.879-0.684zm-11.636 33.902h-3.408v2h3.408v-2zm-2.469 0.658-10.752-29.52-1.879 0.684 10.752 29.52 1.879-0.684zm-12.631-29.52-10.752 29.52 1.879 0.684 10.752-29.52-1.879-0.684zm-9.812 28.862h-3.36v2h3.36v-2z" fill="#fff"/>
 <path d="m84.471 121.9c0 0.633-0.1113 1.318-0.334 2.057-0.2226 0.726-0.5859 1.406-1.0898 2.039-0.4922 0.621-1.1426 1.142-1.9512 1.564-0.7969 0.422-1.7695 0.633-2.918 0.633h-8.2441v-4.342h8.2441c0.6211 0 1.1016-0.187 1.4414-0.562 0.3399-0.387 0.5098-0.862 0.5098-1.424 0-0.598-0.1934-1.067-0.5801-1.406-0.375-0.34-0.832-0.51-1.3711-0.51h-8.2441c-0.6211 0-1.1016 0.193-1.4414 0.58-0.3399 0.375-0.5098 0.844-0.5098 1.406v6.381c0 0.609 0.1875 1.084 0.5625 1.424 0.3867 0.34 0.8613 0.51 1.4239 0.51h8.2089v4.359h-8.2441c-0.6328 0-1.3184-0.111-2.0566-0.334-0.7266-0.223-1.4063-0.58-2.0391-1.072-0.6211-0.504-1.1426-1.155-1.5645-1.951-0.4218-0.809-0.6328-1.787-0.6328-2.936v-6.416c0-0.633 0.1114-1.312 0.334-2.039 0.2227-0.738 0.5801-1.418 1.0723-2.039 0.5039-0.633 1.1543-1.16 1.9511-1.582 0.8086-0.422 1.7872-0.633 2.9356-0.633h8.2441c0.6328 0 1.3125 0.111 2.0391 0.334 0.7383 0.223 1.418 0.586 2.0391 1.09 0.6328 0.492 1.1601 1.142 1.582 1.951 0.4219 0.797 0.6328 1.77 0.6328 2.918zm16.4 12.709h-3.0468v-7.031c0-0.399-0.0703-0.754-0.2109-1.067-0.1328-0.32-0.3164-0.593-0.5508-0.82-0.2344-0.226-0.5117-0.398-0.832-0.516-0.3125-0.125-0.6524-0.187-1.0196-0.187h-5.332v9.621h-3.0469v-11.156c0-0.211 0.0391-0.406 0.1172-0.586 0.0781-0.188 0.1875-0.348 0.3281-0.481 0.1407-0.14 0.3047-0.25 0.4922-0.328s0.3867-0.117 0.5977-0.117h6.8672c0.3828 0 0.7851 0.043 1.207 0.129 0.4297 0.086 0.8516 0.227 1.2656 0.422 0.4219 0.187 0.8203 0.43 1.1953 0.726 0.3829 0.289 0.7188 0.645 1.0079 1.067 0.2968 0.414 0.5308 0.894 0.7028 1.441s0.258 1.164 0.258 1.852v7.031zm14.918-4.277c0 0.523-0.066 0.996-0.199 1.418-0.133 0.414-0.309 0.781-0.528 1.101-0.218 0.313-0.472 0.582-0.761 0.809-0.289 0.219-0.594 0.398-0.914 0.539-0.313 0.141-0.633 0.246-0.961 0.316-0.321 0.063-0.625 0.094-0.914 0.094h-8.25v-3.047h8.226c0.414 0 0.727-0.105 0.938-0.316s0.316-0.516 0.316-0.914c-0.039-0.813-0.449-1.219-1.23-1.219h-4.723c-0.672 0-1.242-0.117-1.711-0.352-0.469-0.234-0.851-0.527-1.148-0.879-0.289-0.351-0.5-0.73-0.633-1.136-0.125-0.406-0.188-0.785-0.188-1.137 0-0.68 0.121-1.25 0.364-1.711 0.242-0.469 0.547-0.848 0.914-1.137s0.765-0.496 1.195-0.621c0.43-0.133 0.832-0.199 1.207-0.199h7.488v3.047h-7.465c-0.156 0-0.281 0.019-0.374 0.059-0.086 0.031-0.153 0.078-0.2 0.14-0.039 0.055-0.062 0.117-0.07 0.188-8e-3 0.062-0.012 0.125-0.012 0.187 8e-3 0.125 0.032 0.223 0.071 0.293s0.085 0.121 0.14 0.152c0.063 0.032 0.129 0.051 0.199 0.059h0.223 4.723c0.781 0 1.445 0.141 1.992 0.422s0.988 0.637 1.324 1.066c0.336 0.422 0.578 0.883 0.727 1.383 0.156 0.5 0.234 0.965 0.234 1.395zm15.773-4.196c0 0.422-0.074 0.879-0.222 1.371-0.149 0.485-0.391 0.938-0.727 1.36-0.328 0.414-0.761 0.762-1.301 1.043-0.531 0.281-1.179 0.422-1.945 0.422h-5.496v-2.895h5.496c0.414 0 0.735-0.125 0.961-0.375 0.227-0.258 0.34-0.574 0.34-0.949 0-0.398-0.129-0.711-0.387-0.938-0.25-0.226-0.554-0.339-0.914-0.339h-5.496c-0.414 0-0.734 0.129-0.961 0.386-0.226 0.25-0.34 0.563-0.34 0.938v4.254c0 0.406 0.125 0.722 0.375 0.949 0.258 0.227 0.575 0.34 0.95 0.34h5.472v2.906h-5.496c-0.422 0-0.879-0.074-1.371-0.223-0.484-0.148-0.938-0.386-1.359-0.714-0.414-0.336-0.762-0.77-1.043-1.301-0.282-0.539-0.422-1.192-0.422-1.957v-4.278c0-0.421 0.074-0.875 0.222-1.359 0.149-0.492 0.387-0.945 0.715-1.359 0.336-0.422 0.77-0.774 1.301-1.055 0.539-0.281 1.191-0.422 1.957-0.422h5.496c0.422 0 0.875 0.074 1.36 0.223 0.492 0.148 0.945 0.39 1.359 0.726 0.422 0.328 0.773 0.762 1.055 1.301 0.281 0.531 0.421 1.18 0.421 1.945zm13.36 8.473h-3.047v-8.402c0-0.399-0.105-0.7-0.316-0.903-0.211-0.211-0.524-0.316-0.938-0.316h-3.961v9.621h-3.047v-11.156c0-0.211 0.039-0.406 0.117-0.586 0.079-0.188 0.188-0.348 0.329-0.481 0.14-0.14 0.304-0.25 0.492-0.328 0.187-0.078 0.387-0.117 0.597-0.117h5.497c0.421 0 0.875 0.074 1.359 0.223 0.484 0.148 0.945 0.386 1.383 0.715v-0.938h4.125c0.289 0 0.593 0.035 0.914 0.106 0.32 0.062 0.636 0.164 0.949 0.304 0.32 0.141 0.625 0.324 0.914 0.551 0.289 0.219 0.543 0.488 0.762 0.809 0.219 0.312 0.394 0.675 0.527 1.089 0.133 0.415 0.199 0.883 0.199 1.407v8.402h-3.047v-8.402c0-0.399-0.101-0.7-0.304-0.903-0.196-0.211-0.5-0.316-0.914-0.316h-2.742c0.101 0.375 0.152 0.781 0.152 1.219v8.402zm23.637-4.277c0 0.289-0.036 0.593-0.106 0.914-0.062 0.32-0.164 0.64-0.305 0.961-0.14 0.312-0.324 0.613-0.55 0.902-0.219 0.289-0.489 0.547-0.809 0.773-0.312 0.219-0.676 0.395-1.09 0.528s-0.883 0.199-1.406 0.199h-5.496c-0.289 0-0.594-0.031-0.914-0.094-0.321-0.07-0.641-0.175-0.961-0.316-0.313-0.141-0.613-0.32-0.902-0.539-0.29-0.227-0.547-0.496-0.774-0.809-0.219-0.32-0.394-0.687-0.527-1.101-0.133-0.422-0.199-0.895-0.199-1.418v-13.746h3.046v13.746c0 0.375 0.118 0.675 0.352 0.902 0.234 0.219 0.527 0.328 0.879 0.328h5.496c0.383 0 0.68-0.113 0.891-0.34 0.218-0.226 0.328-0.523 0.328-0.89v-4.125c0-0.383-0.114-0.68-0.34-0.891-0.227-0.219-0.52-0.328-0.879-0.328h-5.496v-3.047h5.496c0.289 0 0.594 0.035 0.914 0.106 0.32 0.062 0.637 0.164 0.949 0.304 0.321 0.141 0.625 0.324 0.914 0.551 0.289 0.219 0.543 0.488 0.762 0.809 0.219 0.312 0.395 0.675 0.527 1.089 0.133 0.415 0.2 0.883 0.2 1.407v4.125zm8.168 4.277h-1.36c-0.437 0-0.906-0.074-1.406-0.223-0.492-0.148-0.953-0.39-1.383-0.726-0.43-0.344-0.785-0.785-1.066-1.324-0.282-0.547-0.422-1.215-0.422-2.004v-13.746h3.047v13.746c0 0.375 0.117 0.675 0.351 0.902 0.235 0.219 0.528 0.328 0.879 0.328h1.36v3.047zm15.585-8.473c0 0.422-0.074 0.879-0.222 1.371-0.149 0.485-0.391 0.938-0.727 1.36-0.328 0.414-0.761 0.762-1.301 1.043-0.531 0.281-1.179 0.422-1.945 0.422h-5.496v-2.895h5.496c0.414 0 0.735-0.125 0.961-0.375 0.227-0.258 0.34-0.574 0.34-0.949 0-0.398-0.129-0.711-0.387-0.938-0.25-0.226-0.554-0.339-0.914-0.339h-5.496c-0.414 0-0.734 0.129-0.961 0.386-0.226 0.25-0.34 0.563-0.34 0.938v4.254c0 0.406 0.125 0.722 0.375 0.949 0.258 0.227 0.575 0.34 0.95 0.34h5.472v2.906h-5.496c-0.422 0-0.879-0.074-1.371-0.223-0.484-0.148-0.938-0.386-1.359-0.714-0.414-0.336-0.762-0.77-1.043-1.301-0.282-0.539-0.422-1.192-0.422-1.957v-4.278c0-0.421 0.074-0.875 0.222-1.359 0.149-0.492 0.387-0.945 0.715-1.359 0.336-0.422 0.77-0.774 1.301-1.055 0.539-0.281 1.191-0.422 1.957-0.422h5.496c0.422 0 0.875 0.074 1.36 0.223 0.492 0.148 0.945 0.39 1.359 0.726 0.422 0.328 0.773 0.762 1.055 1.301 0.281 0.531 0.421 1.18 0.421 1.945zm14.297 4.196c0 0.523-0.066 0.996-0.199 1.418-0.133 0.414-0.308 0.781-0.527 1.101-0.219 0.313-0.473 0.582-0.762 0.809-0.289 0.219-0.594 0.398-0.914 0.539-0.312 0.141-0.633 0.246-0.961 0.316-0.32 0.063-0.625 0.094-0.914 0.094h-8.25v-3.047h8.227c0.414 0 0.726-0.105 0.937-0.316s0.316-0.516 0.316-0.914c-0.039-0.813-0.449-1.219-1.23-1.219h-4.723c-0.671 0-1.242-0.117-1.711-0.352-0.468-0.234-0.851-0.527-1.148-0.879-0.289-0.351-0.5-0.73-0.633-1.136-0.125-0.406-0.187-0.785-0.187-1.137 0-0.68 0.121-1.25 0.363-1.711 0.242-0.469 0.547-0.848 0.914-1.137s0.766-0.496 1.195-0.621c0.43-0.133 0.832-0.199 1.207-0.199h7.489v3.047h-7.465c-0.156 0-0.281 0.019-0.375 0.059-0.086 0.031-0.153 0.078-0.199 0.14-0.039 0.055-0.063 0.117-0.071 0.188-8e-3 0.062-0.011 0.125-0.011 0.187 7e-3 0.125 0.031 0.223 0.07 0.293s0.086 0.121 0.141 0.152c0.062 0.032 0.128 0.051 0.199 0.059h0.222 4.723c0.781 0 1.445 0.141 1.992 0.422s0.988 0.637 1.324 1.066c0.336 0.422 0.579 0.883 0.727 1.383 0.156 0.5 0.234 0.965 0.234 1.395zm108.24 4.277h-4.588v-20.637h-4.131v-4.57h8.719v25.207zm8.754-2.303c0 0.317-0.065 0.616-0.194 0.897-0.117 0.269-0.281 0.51-0.492 0.72-0.199 0.2-0.439 0.358-0.721 0.475-0.269 0.117-0.556 0.176-0.861 0.176-0.316 0-0.615-0.059-0.897-0.176-0.269-0.117-0.509-0.275-0.72-0.475-0.199-0.21-0.358-0.451-0.475-0.72-0.117-0.281-0.176-0.58-0.176-0.897 0-0.304 0.059-0.591 0.176-0.861 0.117-0.281 0.276-0.522 0.475-0.721 0.211-0.211 0.451-0.375 0.72-0.492 0.282-0.129 0.581-0.193 0.897-0.193 0.305 0 0.592 0.064 0.861 0.193 0.282 0.117 0.522 0.281 0.721 0.492 0.211 0.199 0.375 0.44 0.492 0.721 0.129 0.27 0.194 0.557 0.194 0.861zm32.449-8.244c0 1.031-0.135 2.01-0.405 2.936-0.257 0.914-0.627 1.763-1.107 2.549-0.48 0.785-1.049 1.488-1.705 2.109s-1.377 1.154-2.162 1.6c-0.774 0.433-1.6 0.767-2.479 1.001-0.879 0.235-1.775 0.352-2.689 0.352h-8.244c-0.926 0-1.828-0.117-2.707-0.352-0.879-0.234-1.711-0.568-2.496-1.001-0.774-0.446-1.489-0.979-2.145-1.6s-1.225-1.324-1.705-2.109c-0.469-0.786-0.838-1.635-1.107-2.549-0.258-0.926-0.387-1.905-0.387-2.936v-4.113c0-1.547 0.287-2.965 0.861-4.254 0.586-1.289 1.365-2.397 2.338-3.322 0.973-0.938 2.092-1.664 3.357-2.18 1.278-0.527 2.608-0.791 3.991-0.791h8.244c0.914 0 1.81 0.117 2.689 0.352 0.879 0.234 1.705 0.574 2.479 1.019 0.785 0.434 1.506 0.961 2.162 1.582s1.225 1.324 1.705 2.11c0.48 0.785 0.85 1.64 1.107 2.566 0.27 0.914 0.405 1.887 0.405 2.918v4.113zm-4.606-4.113c0-0.902-0.164-1.723-0.492-2.461s-0.767-1.371-1.318-1.898c-0.539-0.528-1.166-0.932-1.881-1.213-0.715-0.282-1.465-0.416-2.25-0.405h-8.244c-0.762-0.011-1.506 0.123-2.233 0.405-0.715 0.269-1.353 0.668-1.916 1.195-0.551 0.516-0.996 1.148-1.336 1.898-0.328 0.739-0.492 1.565-0.492 2.479v4.113c0 0.914 0.164 1.74 0.492 2.479 0.328 0.738 0.768 1.371 1.319 1.898 0.55 0.516 1.183 0.914 1.898 1.195 0.727 0.282 1.483 0.416 2.268 0.405h8.244c0.902 0 1.717-0.147 2.443-0.44 0.739-0.304 1.365-0.72 1.881-1.248 0.516-0.527 0.914-1.154 1.195-1.881 0.282-0.738 0.422-1.541 0.422-2.408v-4.113zm-1.986-3.34c0.176 0.258 0.293 0.539 0.351 0.844 0.059 0.293 0.059 0.586 0 0.879-0.058 0.281-0.175 0.55-0.351 0.808-0.164 0.246-0.381 0.457-0.65 0.633l-12.34 8.244c-0.2 0.153-0.405 0.258-0.616 0.317-0.21 0.058-0.427 0.088-0.65 0.088-0.375 0-0.732-0.088-1.072-0.264s-0.615-0.428-0.826-0.756c-0.176-0.258-0.293-0.533-0.352-0.826-0.059-0.305-0.064-0.598-0.017-0.879 0.058-0.293 0.169-0.563 0.333-0.809 0.165-0.257 0.381-0.474 0.651-0.65l12.375-8.244c0.258-0.176 0.533-0.293 0.826-0.352 0.305-0.058 0.598-0.058 0.879 0 0.293 0.059 0.562 0.17 0.809 0.334 0.257 0.164 0.474 0.375 0.65 0.633zm14.221 15.697c0 0.317-0.065 0.616-0.194 0.897-0.117 0.269-0.281 0.51-0.492 0.72-0.199 0.2-0.439 0.358-0.721 0.475-0.269 0.117-0.556 0.176-0.861 0.176-0.316 0-0.615-0.059-0.896-0.176-0.27-0.117-0.51-0.275-0.721-0.475-0.199-0.21-0.358-0.451-0.475-0.72-0.117-0.281-0.176-0.58-0.176-0.897 0-0.304 0.059-0.591 0.176-0.861 0.117-0.281 0.276-0.522 0.475-0.721 0.211-0.211 0.451-0.375 0.721-0.492 0.281-0.129 0.58-0.193 0.896-0.193 0.305 0 0.592 0.064 0.861 0.193 0.282 0.117 0.522 0.281 0.721 0.492 0.211 0.199 0.375 0.44 0.492 0.721 0.129 0.27 0.194 0.557 0.194 0.861zm32.449-8.244c0 1.031-0.135 2.01-0.404 2.936-0.258 0.914-0.627 1.763-1.108 2.549-0.48 0.785-1.049 1.488-1.705 2.109s-1.377 1.154-2.162 1.6c-0.773 0.433-1.6 0.767-2.479 1.001-0.878 0.235-1.775 0.352-2.689 0.352h-8.244c-0.926 0-1.828-0.117-2.707-0.352-0.879-0.234-1.711-0.568-2.496-1.001-0.774-0.446-1.489-0.979-2.145-1.6s-1.224-1.324-1.705-2.109c-0.469-0.786-0.838-1.635-1.107-2.549-0.258-0.926-0.387-1.905-0.387-2.936v-4.113c0-1.547 0.287-2.965 0.861-4.254 0.586-1.289 1.366-2.397 2.338-3.322 0.973-0.938 2.092-1.664 3.358-2.18 1.277-0.527 2.607-0.791 3.99-0.791h8.244c0.914 0 1.811 0.117 2.689 0.352 0.879 0.234 1.706 0.574 2.479 1.019 0.785 0.434 1.506 0.961 2.162 1.582s1.225 1.324 1.705 2.11c0.481 0.785 0.85 1.64 1.108 2.566 0.269 0.914 0.404 1.887 0.404 2.918v4.113zm-4.606-4.113c0-0.902-0.164-1.723-0.492-2.461s-0.767-1.371-1.318-1.898c-0.539-0.528-1.166-0.932-1.881-1.213-0.715-0.282-1.465-0.416-2.25-0.405h-8.244c-0.762-0.011-1.506 0.123-2.233 0.405-0.714 0.269-1.353 0.668-1.916 1.195-0.55 0.516-0.996 1.148-1.336 1.898-0.328 0.739-0.492 1.565-0.492 2.479v4.113c0 0.914 0.164 1.74 0.492 2.479 0.329 0.738 0.768 1.371 1.319 1.898 0.551 0.516 1.183 0.914 1.898 1.195 0.727 0.282 1.483 0.416 2.268 0.405h8.244c0.902 0 1.717-0.147 2.443-0.44 0.739-0.304 1.366-0.72 1.881-1.248 0.516-0.527 0.914-1.154 1.196-1.881 0.281-0.738 0.421-1.541 0.421-2.408v-4.113zm-1.986-3.34c0.176 0.258 0.293 0.539 0.352 0.844 0.058 0.293 0.058 0.586 0 0.879-0.059 0.281-0.176 0.55-0.352 0.808-0.164 0.246-0.381 0.457-0.65 0.633l-12.34 8.244c-0.199 0.153-0.404 0.258-0.615 0.317-0.211 0.058-0.428 0.088-0.651 0.088-0.375 0-0.732-0.088-1.072-0.264s-0.615-0.428-0.826-0.756c-0.176-0.258-0.293-0.533-0.352-0.826-0.058-0.305-0.064-0.598-0.017-0.879 0.058-0.293 0.17-0.563 0.334-0.809 0.164-0.257 0.38-0.474 0.65-0.65l12.375-8.244c0.258-0.176 0.533-0.293 0.826-0.352 0.305-0.058 0.598-0.058 0.879 0 0.293 0.059 0.563 0.17 0.809 0.334 0.257 0.164 0.474 0.375 0.65 0.633z" fill="#fff"/>
</svg>
