<svg width="460" height="236" viewBox="0 0 460 236" fill="none" xmlns="http://www.w3.org/2000/svg">
<rect width="460" height="236" fill="#202020"/>
<path d="M215.017 132H214.017V133H215.017V132ZM215.017 97.488V96.488H214.017V97.488H215.017ZM247.897 99.216L247.18 99.9131L247.19 99.9231L247.897 99.216ZM247.897 117.456L248.604 118.163L248.614 118.153L247.897 117.456ZM218.905 119.136V118.136H217.905V119.136H218.905ZM218.905 132V133H219.905V132H218.905ZM245.113 114.672L244.437 113.935L244.421 113.95L244.406 113.965L245.113 114.672ZM245.113 101.952L244.376 102.628L244.405 102.66L244.437 102.689L245.113 101.952ZM219.433 101.952L218.726 101.245L218.726 101.245L219.433 101.952ZM219.433 114.672L218.726 115.379L218.741 115.394L218.757 115.409L219.433 114.672ZM216.017 132V97.488H214.017V132H216.017ZM215.017 98.488H243.817V96.488H215.017V98.488ZM243.817 98.488C245.146 98.488 246.247 98.9538 247.18 99.9131L248.614 98.5189C247.307 97.1742 245.688 96.488 243.817 96.488V98.488ZM247.19 99.9231C248.124 100.858 248.577 101.948 248.577 103.248H250.577C250.577 101.412 249.909 99.8143 248.604 98.5089L247.19 99.9231ZM248.577 103.248V113.376H250.577V103.248H248.577ZM248.577 113.376C248.577 114.677 248.123 115.788 247.18 116.759L248.614 118.153C249.91 116.82 250.577 115.211 250.577 113.376H248.577ZM247.19 116.749C246.26 117.679 245.155 118.136 243.817 118.136V120.136C245.679 120.136 247.294 119.473 248.604 118.163L247.19 116.749ZM243.817 118.136H218.905V120.136H243.817V118.136ZM217.905 119.136V132H219.905V119.136H217.905ZM218.905 131H215.017V133H218.905V131ZM220.777 116.2H243.817V114.2H220.777V116.2ZM243.817 116.2C244.586 116.2 245.275 115.925 245.82 115.379L244.406 113.965C244.247 114.123 244.072 114.2 243.817 114.2V116.2ZM245.789 115.409C246.375 114.872 246.689 114.174 246.689 113.376H244.689C244.689 113.602 244.619 113.768 244.437 113.935L245.789 115.409ZM246.689 113.376V103.248H244.689V113.376H246.689ZM246.689 103.248C246.689 102.45 246.375 101.752 245.789 101.215L244.437 102.689C244.619 102.855 244.689 103.022 244.689 103.248H246.689ZM245.85 101.276C245.312 100.69 244.615 100.376 243.817 100.376V102.376C244.043 102.376 244.209 102.446 244.376 102.628L245.85 101.276ZM243.817 100.376H220.777V102.376H243.817V100.376ZM220.777 100.376C219.982 100.376 219.285 100.686 218.726 101.245L220.14 102.659C220.349 102.45 220.548 102.376 220.777 102.376V100.376ZM218.726 101.245C218.18 101.79 217.905 102.479 217.905 103.248H219.905C219.905 102.993 219.982 102.818 220.14 102.659L218.726 101.245ZM217.905 103.248V113.376H219.905V103.248H217.905ZM217.905 113.376C217.905 114.145 218.18 114.834 218.726 115.379L220.14 113.965C219.982 113.806 219.905 113.631 219.905 113.376H217.905ZM218.757 115.409C219.322 115.927 220.01 116.2 220.777 116.2V114.2C220.52 114.2 220.312 114.121 220.109 113.935L218.757 115.409ZM264.554 132L263.614 132.342L263.853 133H264.554V132ZM251.978 97.44V96.44H250.55L251.038 97.782L251.978 97.44ZM256.106 97.44L257.045 97.0971L256.805 96.44H256.106V97.44ZM266.234 125.184L265.294 125.527L266.236 128.106L267.174 125.525L266.234 125.184ZM276.314 97.44V96.44H275.613L275.374 97.0985L276.314 97.44ZM281.018 97.44L281.957 97.0971L281.717 96.44H281.018V97.44ZM291.146 125.184L290.206 125.527L291.15 128.112L292.086 125.524L291.146 125.184ZM301.178 97.44V96.44H300.476L300.237 97.1L301.178 97.44ZM305.402 97.44L306.341 97.782L306.83 96.44H305.402V97.44ZM292.826 132V133H293.526L293.765 132.342L292.826 132ZM289.418 132L288.478 132.342L288.718 133H289.418V132ZM278.666 102.48L279.605 102.138L278.666 99.558L277.726 102.138L278.666 102.48ZM267.914 132V133H268.614L268.853 132.342L267.914 132ZM265.493 131.658L252.917 97.098L251.038 97.782L263.614 132.342L265.493 131.658ZM251.978 98.44H256.106V96.44H251.978V98.44ZM255.166 97.7829L265.294 125.527L267.173 124.841L257.045 97.0971L255.166 97.7829ZM267.174 125.525L277.254 97.7815L275.374 97.0985L265.294 124.843L267.174 125.525ZM276.314 98.44H281.018V96.44H276.314V98.44ZM280.078 97.7829L290.206 125.527L292.085 124.841L281.957 97.0971L280.078 97.7829ZM292.086 125.524L302.118 97.78L300.237 97.1L290.205 124.844L292.086 125.524ZM301.178 98.44H305.402V96.44H301.178V98.44ZM304.462 97.098L291.886 131.658L293.765 132.342L306.341 97.782L304.462 97.098ZM292.826 131H289.418V133H292.826V131ZM290.357 131.658L279.605 102.138L277.726 102.822L288.478 132.342L290.357 131.658ZM277.726 102.138L266.974 131.658L268.853 132.342L279.605 102.822L277.726 102.138ZM267.914 131H264.554V133H267.914V131Z" fill="white"/>
<path d="M84.4707 121.895C84.4707 122.528 84.3594 123.213 84.1367 123.952C83.9141 124.678 83.5508 125.358 83.0469 125.991C82.5547 126.612 81.9043 127.133 81.0957 127.555C80.2988 127.977 79.3262 128.188 78.1777 128.188H69.9336V123.846H78.1777C78.7988 123.846 79.2793 123.659 79.6191 123.284C79.959 122.897 80.1289 122.422 80.1289 121.86C80.1289 121.262 79.9355 120.793 79.5488 120.454C79.1738 120.114 78.7168 119.944 78.1777 119.944H69.9336C69.3125 119.944 68.832 120.137 68.4922 120.524C68.1523 120.899 67.9824 121.368 67.9824 121.93V128.311C67.9824 128.92 68.1699 129.395 68.5449 129.735C68.9316 130.075 69.4062 130.245 69.9688 130.245H78.1777V134.604H69.9336C69.3008 134.604 68.6152 134.493 67.877 134.27C67.1504 134.047 66.4707 133.69 65.8379 133.198C65.2168 132.694 64.6953 132.043 64.2734 131.247C63.8516 130.438 63.6406 129.46 63.6406 128.311V121.895C63.6406 121.262 63.752 120.583 63.9746 119.856C64.1973 119.118 64.5547 118.438 65.0469 117.817C65.5508 117.184 66.2012 116.657 66.998 116.235C67.8066 115.813 68.7852 115.602 69.9336 115.602H78.1777C78.8105 115.602 79.4902 115.713 80.2168 115.936C80.9551 116.159 81.6348 116.522 82.2559 117.026C82.8887 117.518 83.416 118.168 83.8379 118.977C84.2598 119.774 84.4707 120.747 84.4707 121.895ZM100.871 134.604H97.8242V127.573C97.8242 127.174 97.7539 126.819 97.6133 126.506C97.4805 126.186 97.2969 125.913 97.0625 125.686C96.8281 125.46 96.5508 125.288 96.2305 125.17C95.918 125.045 95.5781 124.983 95.2109 124.983H89.8789V134.604H86.832V123.448C86.832 123.237 86.8711 123.042 86.9492 122.862C87.0273 122.674 87.1367 122.514 87.2773 122.381C87.418 122.241 87.582 122.131 87.7695 122.053C87.957 121.975 88.1562 121.936 88.3672 121.936H95.2344C95.6172 121.936 96.0195 121.979 96.4414 122.065C96.8711 122.151 97.293 122.292 97.707 122.487C98.1289 122.674 98.5273 122.917 98.9023 123.213C99.2852 123.502 99.6211 123.858 99.9102 124.28C100.207 124.694 100.441 125.174 100.613 125.721C100.785 126.268 100.871 126.885 100.871 127.573V134.604ZM115.789 130.327C115.789 130.85 115.723 131.323 115.59 131.745C115.457 132.159 115.281 132.526 115.062 132.846C114.844 133.159 114.59 133.428 114.301 133.655C114.012 133.874 113.707 134.053 113.387 134.194C113.074 134.335 112.754 134.44 112.426 134.51C112.105 134.573 111.801 134.604 111.512 134.604H103.262V131.557H111.488C111.902 131.557 112.215 131.452 112.426 131.241C112.637 131.03 112.742 130.725 112.742 130.327C112.703 129.514 112.293 129.108 111.512 129.108H106.789C106.117 129.108 105.547 128.991 105.078 128.756C104.609 128.522 104.227 128.229 103.93 127.877C103.641 127.526 103.43 127.147 103.297 126.741C103.172 126.335 103.109 125.956 103.109 125.604C103.109 124.924 103.23 124.354 103.473 123.893C103.715 123.424 104.02 123.045 104.387 122.756C104.754 122.467 105.152 122.26 105.582 122.135C106.012 122.002 106.414 121.936 106.789 121.936H114.277V124.983H106.812C106.656 124.983 106.531 125.002 106.438 125.042C106.352 125.073 106.285 125.12 106.238 125.182C106.199 125.237 106.176 125.299 106.168 125.37C106.16 125.432 106.156 125.495 106.156 125.557C106.164 125.682 106.188 125.78 106.227 125.85C106.266 125.92 106.312 125.971 106.367 126.002C106.43 126.034 106.496 126.053 106.566 126.061C106.645 126.061 106.719 126.061 106.789 126.061H111.512C112.293 126.061 112.957 126.202 113.504 126.483C114.051 126.764 114.492 127.12 114.828 127.549C115.164 127.971 115.406 128.432 115.555 128.932C115.711 129.432 115.789 129.897 115.789 130.327ZM131.562 126.131C131.562 126.553 131.488 127.01 131.34 127.502C131.191 127.987 130.949 128.44 130.613 128.862C130.285 129.276 129.852 129.624 129.312 129.905C128.781 130.186 128.133 130.327 127.367 130.327H121.871V127.432H127.367C127.781 127.432 128.102 127.307 128.328 127.057C128.555 126.799 128.668 126.483 128.668 126.108C128.668 125.71 128.539 125.397 128.281 125.17C128.031 124.944 127.727 124.831 127.367 124.831H121.871C121.457 124.831 121.137 124.96 120.91 125.217C120.684 125.467 120.57 125.78 120.57 126.155V130.409C120.57 130.815 120.695 131.131 120.945 131.358C121.203 131.585 121.52 131.698 121.895 131.698H127.367V134.604H121.871C121.449 134.604 120.992 134.53 120.5 134.381C120.016 134.233 119.562 133.995 119.141 133.667C118.727 133.331 118.379 132.897 118.098 132.366C117.816 131.827 117.676 131.174 117.676 130.409V126.131C117.676 125.71 117.75 125.256 117.898 124.772C118.047 124.28 118.285 123.827 118.613 123.413C118.949 122.991 119.383 122.639 119.914 122.358C120.453 122.077 121.105 121.936 121.871 121.936H127.367C127.789 121.936 128.242 122.01 128.727 122.159C129.219 122.307 129.672 122.549 130.086 122.885C130.508 123.213 130.859 123.647 131.141 124.186C131.422 124.717 131.562 125.366 131.562 126.131ZM144.922 134.604H141.875V126.202C141.875 125.803 141.77 125.502 141.559 125.299C141.348 125.088 141.035 124.983 140.621 124.983H136.66V134.604H133.613V123.448C133.613 123.237 133.652 123.042 133.73 122.862C133.809 122.674 133.918 122.514 134.059 122.381C134.199 122.241 134.363 122.131 134.551 122.053C134.738 121.975 134.938 121.936 135.148 121.936H140.645C141.066 121.936 141.52 122.01 142.004 122.159C142.488 122.307 142.949 122.545 143.387 122.874V121.936H147.512C147.801 121.936 148.105 121.971 148.426 122.042C148.746 122.104 149.062 122.206 149.375 122.346C149.695 122.487 150 122.67 150.289 122.897C150.578 123.116 150.832 123.385 151.051 123.706C151.27 124.018 151.445 124.381 151.578 124.795C151.711 125.21 151.777 125.678 151.777 126.202V134.604H148.73V126.202C148.73 125.803 148.629 125.502 148.426 125.299C148.23 125.088 147.926 124.983 147.512 124.983H144.77C144.871 125.358 144.922 125.764 144.922 126.202V134.604ZM168.559 130.327C168.559 130.616 168.523 130.92 168.453 131.241C168.391 131.561 168.289 131.881 168.148 132.202C168.008 132.514 167.824 132.815 167.598 133.104C167.379 133.393 167.109 133.651 166.789 133.877C166.477 134.096 166.113 134.272 165.699 134.405C165.285 134.538 164.816 134.604 164.293 134.604H158.797C158.508 134.604 158.203 134.573 157.883 134.51C157.562 134.44 157.242 134.335 156.922 134.194C156.609 134.053 156.309 133.874 156.02 133.655C155.73 133.428 155.473 133.159 155.246 132.846C155.027 132.526 154.852 132.159 154.719 131.745C154.586 131.323 154.52 130.85 154.52 130.327V116.581H157.566V130.327C157.566 130.702 157.684 131.002 157.918 131.229C158.152 131.448 158.445 131.557 158.797 131.557H164.293C164.676 131.557 164.973 131.444 165.184 131.217C165.402 130.991 165.512 130.694 165.512 130.327V126.202C165.512 125.819 165.398 125.522 165.172 125.311C164.945 125.092 164.652 124.983 164.293 124.983H158.797V121.936H164.293C164.582 121.936 164.887 121.971 165.207 122.042C165.527 122.104 165.844 122.206 166.156 122.346C166.477 122.487 166.781 122.67 167.07 122.897C167.359 123.116 167.613 123.385 167.832 123.706C168.051 124.018 168.227 124.381 168.359 124.795C168.492 125.21 168.559 125.678 168.559 126.202V130.327ZM176.727 134.604H175.367C174.93 134.604 174.461 134.53 173.961 134.381C173.469 134.233 173.008 133.991 172.578 133.655C172.148 133.311 171.793 132.87 171.512 132.331C171.23 131.784 171.09 131.116 171.09 130.327V116.581H174.137V130.327C174.137 130.702 174.254 131.002 174.488 131.229C174.723 131.448 175.016 131.557 175.367 131.557H176.727V134.604ZM192.312 126.131C192.312 126.553 192.238 127.01 192.09 127.502C191.941 127.987 191.699 128.44 191.363 128.862C191.035 129.276 190.602 129.624 190.062 129.905C189.531 130.186 188.883 130.327 188.117 130.327H182.621V127.432H188.117C188.531 127.432 188.852 127.307 189.078 127.057C189.305 126.799 189.418 126.483 189.418 126.108C189.418 125.71 189.289 125.397 189.031 125.17C188.781 124.944 188.477 124.831 188.117 124.831H182.621C182.207 124.831 181.887 124.96 181.66 125.217C181.434 125.467 181.32 125.78 181.32 126.155V130.409C181.32 130.815 181.445 131.131 181.695 131.358C181.953 131.585 182.27 131.698 182.645 131.698H188.117V134.604H182.621C182.199 134.604 181.742 134.53 181.25 134.381C180.766 134.233 180.312 133.995 179.891 133.667C179.477 133.331 179.129 132.897 178.848 132.366C178.566 131.827 178.426 131.174 178.426 130.409V126.131C178.426 125.71 178.5 125.256 178.648 124.772C178.797 124.28 179.035 123.827 179.363 123.413C179.699 122.991 180.133 122.639 180.664 122.358C181.203 122.077 181.855 121.936 182.621 121.936H188.117C188.539 121.936 188.992 122.01 189.477 122.159C189.969 122.307 190.422 122.549 190.836 122.885C191.258 123.213 191.609 123.647 191.891 124.186C192.172 124.717 192.312 125.366 192.312 126.131ZM206.609 130.327C206.609 130.85 206.543 131.323 206.41 131.745C206.277 132.159 206.102 132.526 205.883 132.846C205.664 133.159 205.41 133.428 205.121 133.655C204.832 133.874 204.527 134.053 204.207 134.194C203.895 134.335 203.574 134.44 203.246 134.51C202.926 134.573 202.621 134.604 202.332 134.604H194.082V131.557H202.309C202.723 131.557 203.035 131.452 203.246 131.241C203.457 131.03 203.562 130.725 203.562 130.327C203.523 129.514 203.113 129.108 202.332 129.108H197.609C196.938 129.108 196.367 128.991 195.898 128.756C195.43 128.522 195.047 128.229 194.75 127.877C194.461 127.526 194.25 127.147 194.117 126.741C193.992 126.335 193.93 125.956 193.93 125.604C193.93 124.924 194.051 124.354 194.293 123.893C194.535 123.424 194.84 123.045 195.207 122.756C195.574 122.467 195.973 122.26 196.402 122.135C196.832 122.002 197.234 121.936 197.609 121.936H205.098V124.983H197.633C197.477 124.983 197.352 125.002 197.258 125.042C197.172 125.073 197.105 125.12 197.059 125.182C197.02 125.237 196.996 125.299 196.988 125.37C196.98 125.432 196.977 125.495 196.977 125.557C196.984 125.682 197.008 125.78 197.047 125.85C197.086 125.92 197.133 125.971 197.188 126.002C197.25 126.034 197.316 126.053 197.387 126.061C197.465 126.061 197.539 126.061 197.609 126.061H202.332C203.113 126.061 203.777 126.202 204.324 126.483C204.871 126.764 205.312 127.12 205.648 127.549C205.984 127.971 206.227 128.432 206.375 128.932C206.531 129.432 206.609 129.897 206.609 130.327ZM314.85 134.604H310.262V113.967H306.131V109.397H314.85V134.604ZM323.604 132.301C323.604 132.618 323.539 132.917 323.41 133.198C323.293 133.467 323.129 133.708 322.918 133.918C322.719 134.118 322.479 134.276 322.197 134.393C321.928 134.51 321.641 134.569 321.336 134.569C321.02 134.569 320.721 134.51 320.439 134.393C320.17 134.276 319.93 134.118 319.719 133.918C319.52 133.708 319.361 133.467 319.244 133.198C319.127 132.917 319.068 132.618 319.068 132.301C319.068 131.997 319.127 131.71 319.244 131.44C319.361 131.159 319.52 130.918 319.719 130.719C319.93 130.508 320.17 130.344 320.439 130.227C320.721 130.098 321.02 130.034 321.336 130.034C321.641 130.034 321.928 130.098 322.197 130.227C322.479 130.344 322.719 130.508 322.918 130.719C323.129 130.918 323.293 131.159 323.41 131.44C323.539 131.71 323.604 131.997 323.604 132.301ZM356.053 124.057C356.053 125.088 355.918 126.067 355.648 126.993C355.391 127.907 355.021 128.756 354.541 129.542C354.061 130.327 353.492 131.03 352.836 131.651C352.18 132.272 351.459 132.805 350.674 133.251C349.9 133.684 349.074 134.018 348.195 134.252C347.316 134.487 346.42 134.604 345.506 134.604H337.262C336.336 134.604 335.434 134.487 334.555 134.252C333.676 134.018 332.844 133.684 332.059 133.251C331.285 132.805 330.57 132.272 329.914 131.651C329.258 131.03 328.689 130.327 328.209 129.542C327.74 128.756 327.371 127.907 327.102 126.993C326.844 126.067 326.715 125.088 326.715 124.057V119.944C326.715 118.397 327.002 116.979 327.576 115.69C328.162 114.401 328.941 113.293 329.914 112.368C330.887 111.43 332.006 110.704 333.271 110.188C334.549 109.661 335.879 109.397 337.262 109.397H345.506C346.42 109.397 347.316 109.514 348.195 109.749C349.074 109.983 349.9 110.323 350.674 110.768C351.459 111.202 352.18 111.729 352.836 112.35C353.492 112.971 354.061 113.674 354.541 114.46C355.021 115.245 355.391 116.1 355.648 117.026C355.918 117.94 356.053 118.913 356.053 119.944V124.057ZM351.447 119.944C351.447 119.042 351.283 118.221 350.955 117.483C350.627 116.745 350.188 116.112 349.637 115.585C349.098 115.057 348.471 114.653 347.756 114.372C347.041 114.09 346.291 113.956 345.506 113.967H337.262C336.5 113.956 335.756 114.09 335.029 114.372C334.314 114.641 333.676 115.04 333.113 115.567C332.562 116.083 332.117 116.715 331.777 117.465C331.449 118.204 331.285 119.03 331.285 119.944V124.057C331.285 124.971 331.449 125.797 331.777 126.536C332.105 127.274 332.545 127.907 333.096 128.434C333.646 128.95 334.279 129.348 334.994 129.629C335.721 129.911 336.477 130.045 337.262 130.034H345.506C346.408 130.034 347.223 129.887 347.949 129.594C348.688 129.29 349.314 128.874 349.83 128.346C350.346 127.819 350.744 127.192 351.025 126.465C351.307 125.727 351.447 124.924 351.447 124.057V119.944ZM349.461 116.604C349.637 116.862 349.754 117.143 349.812 117.448C349.871 117.741 349.871 118.034 349.812 118.327C349.754 118.608 349.637 118.877 349.461 119.135C349.297 119.381 349.08 119.592 348.811 119.768L336.471 128.012C336.271 128.165 336.066 128.27 335.855 128.329C335.645 128.387 335.428 128.417 335.205 128.417C334.83 128.417 334.473 128.329 334.133 128.153C333.793 127.977 333.518 127.725 333.307 127.397C333.131 127.139 333.014 126.864 332.955 126.571C332.896 126.266 332.891 125.973 332.938 125.692C332.996 125.399 333.107 125.129 333.271 124.883C333.436 124.626 333.652 124.409 333.922 124.233L346.297 115.989C346.555 115.813 346.83 115.696 347.123 115.637C347.428 115.579 347.721 115.579 348.002 115.637C348.295 115.696 348.564 115.807 348.811 115.971C349.068 116.135 349.285 116.346 349.461 116.604ZM363.682 132.301C363.682 132.618 363.617 132.917 363.488 133.198C363.371 133.467 363.207 133.708 362.996 133.918C362.797 134.118 362.557 134.276 362.275 134.393C362.006 134.51 361.719 134.569 361.414 134.569C361.098 134.569 360.799 134.51 360.518 134.393C360.248 134.276 360.008 134.118 359.797 133.918C359.598 133.708 359.439 133.467 359.322 133.198C359.205 132.917 359.146 132.618 359.146 132.301C359.146 131.997 359.205 131.71 359.322 131.44C359.439 131.159 359.598 130.918 359.797 130.719C360.008 130.508 360.248 130.344 360.518 130.227C360.799 130.098 361.098 130.034 361.414 130.034C361.719 130.034 362.006 130.098 362.275 130.227C362.557 130.344 362.797 130.508 362.996 130.719C363.207 130.918 363.371 131.159 363.488 131.44C363.617 131.71 363.682 131.997 363.682 132.301ZM396.131 124.057C396.131 125.088 395.996 126.067 395.727 126.993C395.469 127.907 395.1 128.756 394.619 129.542C394.139 130.327 393.57 131.03 392.914 131.651C392.258 132.272 391.537 132.805 390.752 133.251C389.979 133.684 389.152 134.018 388.273 134.252C387.395 134.487 386.498 134.604 385.584 134.604H377.34C376.414 134.604 375.512 134.487 374.633 134.252C373.754 134.018 372.922 133.684 372.137 133.251C371.363 132.805 370.648 132.272 369.992 131.651C369.336 131.03 368.768 130.327 368.287 129.542C367.818 128.756 367.449 127.907 367.18 126.993C366.922 126.067 366.793 125.088 366.793 124.057V119.944C366.793 118.397 367.08 116.979 367.654 115.69C368.24 114.401 369.02 113.293 369.992 112.368C370.965 111.43 372.084 110.704 373.35 110.188C374.627 109.661 375.957 109.397 377.34 109.397H385.584C386.498 109.397 387.395 109.514 388.273 109.749C389.152 109.983 389.979 110.323 390.752 110.768C391.537 111.202 392.258 111.729 392.914 112.35C393.57 112.971 394.139 113.674 394.619 114.46C395.1 115.245 395.469 116.1 395.727 117.026C395.996 117.94 396.131 118.913 396.131 119.944V124.057ZM391.525 119.944C391.525 119.042 391.361 118.221 391.033 117.483C390.705 116.745 390.266 116.112 389.715 115.585C389.176 115.057 388.549 114.653 387.834 114.372C387.119 114.09 386.369 113.956 385.584 113.967H377.34C376.578 113.956 375.834 114.09 375.107 114.372C374.393 114.641 373.754 115.04 373.191 115.567C372.641 116.083 372.195 116.715 371.855 117.465C371.527 118.204 371.363 119.03 371.363 119.944V124.057C371.363 124.971 371.527 125.797 371.855 126.536C372.184 127.274 372.623 127.907 373.174 128.434C373.725 128.95 374.357 129.348 375.072 129.629C375.799 129.911 376.555 130.045 377.34 130.034H385.584C386.486 130.034 387.301 129.887 388.027 129.594C388.766 129.29 389.393 128.874 389.908 128.346C390.424 127.819 390.822 127.192 391.104 126.465C391.385 125.727 391.525 124.924 391.525 124.057V119.944ZM389.539 116.604C389.715 116.862 389.832 117.143 389.891 117.448C389.949 117.741 389.949 118.034 389.891 118.327C389.832 118.608 389.715 118.877 389.539 119.135C389.375 119.381 389.158 119.592 388.889 119.768L376.549 128.012C376.35 128.165 376.145 128.27 375.934 128.329C375.723 128.387 375.506 128.417 375.283 128.417C374.908 128.417 374.551 128.329 374.211 128.153C373.871 127.977 373.596 127.725 373.385 127.397C373.209 127.139 373.092 126.864 373.033 126.571C372.975 126.266 372.969 125.973 373.016 125.692C373.074 125.399 373.186 125.129 373.35 124.883C373.514 124.626 373.73 124.409 374 124.233L386.375 115.989C386.633 115.813 386.908 115.696 387.201 115.637C387.506 115.579 387.799 115.579 388.08 115.637C388.373 115.696 388.643 115.807 388.889 115.971C389.146 116.135 389.363 116.346 389.539 116.604Z" fill="white"/>
</svg>
