<svg width="460" height="236" viewBox="0 0 460 236" fill="none" xmlns="http://www.w3.org/2000/svg">
<rect width="460" height="236" fill="#202020"/>
<path d="M214.785 134H213.785V135H214.785V134ZM216.465 101.12L215.758 100.413V100.413L216.465 101.12ZM247.665 101.12L248.372 100.413L247.665 101.12ZM249.345 134V135H250.345V134H249.345ZM245.457 134H244.457V135H245.457V134ZM245.457 121.376H246.457V120.376H245.457V121.376ZM218.673 121.376V120.376H217.673V121.376H218.673ZM218.673 134V135H219.673V134H218.673ZM218.673 117.488H217.673V118.488H218.673V117.488ZM245.457 117.488V118.488H246.457V117.488H245.457ZM244.881 103.904L244.144 104.58L244.173 104.612L244.205 104.641L244.881 103.904ZM219.201 103.904L219.908 104.611H219.908L219.201 103.904ZM215.785 134V105.2H213.785V134H215.785ZM215.785 105.2C215.785 103.862 216.242 102.757 217.172 101.827L215.758 100.413C214.448 101.723 213.785 103.338 213.785 105.2H215.785ZM217.172 101.827C218.102 100.897 219.207 100.44 220.545 100.44V98.44C218.683 98.44 217.067 99.1032 215.758 100.413L217.172 101.827ZM220.545 100.44H243.585V98.44H220.545V100.44ZM243.585 100.44C244.923 100.44 246.027 100.897 246.958 101.827L248.372 100.413C247.062 99.1032 245.447 98.44 243.585 98.44V100.44ZM246.958 101.827C247.888 102.757 248.345 103.862 248.345 105.2H250.345C250.345 103.338 249.682 101.723 248.372 100.413L246.958 101.827ZM248.345 105.2V134H250.345V105.2H248.345ZM249.345 133H245.457V135H249.345V133ZM246.457 134V121.376H244.457V134H246.457ZM245.457 120.376H218.673V122.376H245.457V120.376ZM217.673 121.376V134H219.673V121.376H217.673ZM218.673 133H214.785V135H218.673V133ZM218.673 118.488H245.457V116.488H218.673V118.488ZM246.457 117.488V105.2H244.457V117.488H246.457ZM246.457 105.2C246.457 104.402 246.143 103.704 245.557 103.167L244.205 104.641C244.387 104.807 244.457 104.974 244.457 105.2H246.457ZM245.618 103.228C245.08 102.642 244.383 102.328 243.585 102.328V104.328C243.811 104.328 243.977 104.398 244.144 104.58L245.618 103.228ZM243.585 102.328H220.545V104.328H243.585V102.328ZM220.545 102.328C219.75 102.328 219.053 102.638 218.494 103.197L219.908 104.611C220.117 104.402 220.315 104.328 220.545 104.328V102.328ZM218.494 103.197C217.948 103.742 217.673 104.431 217.673 105.2H219.673C219.673 104.945 219.749 104.77 219.908 104.611L218.494 103.197ZM217.673 105.2V117.488H219.673V105.2H217.673ZM264.882 134L263.942 134.342L264.182 135H264.882V134ZM252.306 99.44V98.44H250.878L251.366 99.782L252.306 99.44ZM256.434 99.44L257.373 99.0971L257.133 98.44H256.434V99.44ZM266.562 127.184L265.622 127.527L266.564 130.106L267.502 127.525L266.562 127.184ZM276.642 99.44V98.44H275.941L275.702 99.0985L276.642 99.44ZM281.346 99.44L282.285 99.0971L282.045 98.44H281.346V99.44ZM291.474 127.184L290.534 127.527L291.478 130.112L292.414 127.524L291.474 127.184ZM301.506 99.44V98.44H300.804L300.565 99.1L301.506 99.44ZM305.73 99.44L306.67 99.782L307.158 98.44H305.73V99.44ZM293.154 134V135H293.854L294.094 134.342L293.154 134ZM289.746 134L288.806 134.342L289.046 135H289.746V134ZM278.994 104.48L279.933 104.138L278.994 101.558L278.054 104.138L278.994 104.48ZM268.242 134V135H268.942L269.181 134.342L268.242 134ZM265.822 133.658L253.246 99.098L251.366 99.782L263.942 134.342L265.822 133.658ZM252.306 100.44H256.434V98.44H252.306V100.44ZM255.494 99.7829L265.622 127.527L267.501 126.841L257.373 99.0971L255.494 99.7829ZM267.502 127.525L277.582 99.7815L275.702 99.0985L265.622 126.843L267.502 127.525ZM276.642 100.44H281.346V98.44H276.642V100.44ZM280.406 99.7829L290.534 127.527L292.413 126.841L282.285 99.0971L280.406 99.7829ZM292.414 127.524L302.446 99.78L300.565 99.1L290.533 126.844L292.414 127.524ZM301.506 100.44H305.73V98.44H301.506V100.44ZM304.79 99.098L292.214 133.658L294.094 134.342L306.67 99.782L304.79 99.098ZM293.154 133H289.746V135H293.154V133ZM290.685 133.658L279.933 104.138L278.054 104.822L288.806 134.342L290.685 133.658ZM278.054 104.138L267.302 133.658L269.181 134.342L279.933 104.822L278.054 104.138ZM268.242 133H264.882V135H268.242V133Z" fill="white"/>
<path d="M84.207 121.895C84.207 122.528 84.0957 123.213 83.873 123.952C83.6504 124.678 83.2871 125.358 82.7832 125.991C82.291 126.612 81.6406 127.133 80.832 127.555C80.0352 127.977 79.0625 128.188 77.9141 128.188H69.6699V123.846H77.9141C78.5352 123.846 79.0156 123.659 79.3555 123.284C79.6953 122.897 79.8652 122.422 79.8652 121.86C79.8652 121.262 79.6719 120.793 79.2852 120.454C78.9102 120.114 78.4531 119.944 77.9141 119.944H69.6699C69.0488 119.944 68.5684 120.137 68.2285 120.524C67.8887 120.899 67.7188 121.368 67.7188 121.93V128.311C67.7188 128.92 67.9062 129.395 68.2812 129.735C68.668 130.075 69.1426 130.245 69.7051 130.245H77.9141V134.604H69.6699C69.0371 134.604 68.3516 134.493 67.6133 134.27C66.8867 134.047 66.207 133.69 65.5742 133.198C64.9531 132.694 64.4316 132.043 64.0098 131.247C63.5879 130.438 63.377 129.46 63.377 128.311V121.895C63.377 121.262 63.4883 120.583 63.7109 119.856C63.9336 119.118 64.291 118.438 64.7832 117.817C65.2871 117.184 65.9375 116.657 66.7344 116.235C67.543 115.813 68.5215 115.602 69.6699 115.602H77.9141C78.5469 115.602 79.2266 115.713 79.9531 115.936C80.6914 116.159 81.3711 116.522 81.9922 117.026C82.625 117.518 83.1523 118.168 83.5742 118.977C83.9961 119.774 84.207 120.747 84.207 121.895ZM100.607 134.604H97.5605V127.573C97.5605 127.174 97.4902 126.819 97.3496 126.506C97.2168 126.186 97.0332 125.913 96.7988 125.686C96.5645 125.46 96.2871 125.288 95.9668 125.17C95.6543 125.045 95.3145 124.983 94.9473 124.983H89.6152V134.604H86.5684V123.448C86.5684 123.237 86.6074 123.042 86.6855 122.862C86.7637 122.674 86.873 122.514 87.0137 122.381C87.1543 122.241 87.3184 122.131 87.5059 122.053C87.6934 121.975 87.8926 121.936 88.1035 121.936H94.9707C95.3535 121.936 95.7559 121.979 96.1777 122.065C96.6074 122.151 97.0293 122.292 97.4434 122.487C97.8652 122.674 98.2637 122.917 98.6387 123.213C99.0215 123.502 99.3574 123.858 99.6465 124.28C99.9434 124.694 100.178 125.174 100.35 125.721C100.521 126.268 100.607 126.885 100.607 127.573V134.604ZM115.525 130.327C115.525 130.85 115.459 131.323 115.326 131.745C115.193 132.159 115.018 132.526 114.799 132.846C114.58 133.159 114.326 133.428 114.037 133.655C113.748 133.874 113.443 134.053 113.123 134.194C112.811 134.335 112.49 134.44 112.162 134.51C111.842 134.573 111.537 134.604 111.248 134.604H102.998V131.557H111.225C111.639 131.557 111.951 131.452 112.162 131.241C112.373 131.03 112.479 130.725 112.479 130.327C112.439 129.514 112.029 129.108 111.248 129.108H106.525C105.854 129.108 105.283 128.991 104.814 128.756C104.346 128.522 103.963 128.229 103.666 127.877C103.377 127.526 103.166 127.147 103.033 126.741C102.908 126.335 102.846 125.956 102.846 125.604C102.846 124.924 102.967 124.354 103.209 123.893C103.451 123.424 103.756 123.045 104.123 122.756C104.49 122.467 104.889 122.26 105.318 122.135C105.748 122.002 106.15 121.936 106.525 121.936H114.014V124.983H106.549C106.393 124.983 106.268 125.002 106.174 125.042C106.088 125.073 106.021 125.12 105.975 125.182C105.936 125.237 105.912 125.299 105.904 125.37C105.896 125.432 105.893 125.495 105.893 125.557C105.9 125.682 105.924 125.78 105.963 125.85C106.002 125.92 106.049 125.971 106.104 126.002C106.166 126.034 106.232 126.053 106.303 126.061C106.381 126.061 106.455 126.061 106.525 126.061H111.248C112.029 126.061 112.693 126.202 113.24 126.483C113.787 126.764 114.229 127.12 114.564 127.549C114.9 127.971 115.143 128.432 115.291 128.932C115.447 129.432 115.525 129.897 115.525 130.327ZM131.299 126.131C131.299 126.553 131.225 127.01 131.076 127.502C130.928 127.987 130.686 128.44 130.35 128.862C130.021 129.276 129.588 129.624 129.049 129.905C128.518 130.186 127.869 130.327 127.104 130.327H121.607V127.432H127.104C127.518 127.432 127.838 127.307 128.064 127.057C128.291 126.799 128.404 126.483 128.404 126.108C128.404 125.71 128.275 125.397 128.018 125.17C127.768 124.944 127.463 124.831 127.104 124.831H121.607C121.193 124.831 120.873 124.96 120.646 125.217C120.42 125.467 120.307 125.78 120.307 126.155V130.409C120.307 130.815 120.432 131.131 120.682 131.358C120.939 131.585 121.256 131.698 121.631 131.698H127.104V134.604H121.607C121.186 134.604 120.729 134.53 120.236 134.381C119.752 134.233 119.299 133.995 118.877 133.667C118.463 133.331 118.115 132.897 117.834 132.366C117.553 131.827 117.412 131.174 117.412 130.409V126.131C117.412 125.71 117.486 125.256 117.635 124.772C117.783 124.28 118.021 123.827 118.35 123.413C118.686 122.991 119.119 122.639 119.65 122.358C120.189 122.077 120.842 121.936 121.607 121.936H127.104C127.525 121.936 127.979 122.01 128.463 122.159C128.955 122.307 129.408 122.549 129.822 122.885C130.244 123.213 130.596 123.647 130.877 124.186C131.158 124.717 131.299 125.366 131.299 126.131ZM144.658 134.604H141.611V126.202C141.611 125.803 141.506 125.502 141.295 125.299C141.084 125.088 140.771 124.983 140.357 124.983H136.396V134.604H133.35V123.448C133.35 123.237 133.389 123.042 133.467 122.862C133.545 122.674 133.654 122.514 133.795 122.381C133.936 122.241 134.1 122.131 134.287 122.053C134.475 121.975 134.674 121.936 134.885 121.936H140.381C140.803 121.936 141.256 122.01 141.74 122.159C142.225 122.307 142.686 122.545 143.123 122.874V121.936H147.248C147.537 121.936 147.842 121.971 148.162 122.042C148.482 122.104 148.799 122.206 149.111 122.346C149.432 122.487 149.736 122.67 150.025 122.897C150.314 123.116 150.568 123.385 150.787 123.706C151.006 124.018 151.182 124.381 151.314 124.795C151.447 125.21 151.514 125.678 151.514 126.202V134.604H148.467V126.202C148.467 125.803 148.365 125.502 148.162 125.299C147.967 125.088 147.662 124.983 147.248 124.983H144.506C144.607 125.358 144.658 125.764 144.658 126.202V134.604ZM168.295 130.327C168.295 130.616 168.26 130.92 168.189 131.241C168.127 131.561 168.025 131.881 167.885 132.202C167.744 132.514 167.561 132.815 167.334 133.104C167.115 133.393 166.846 133.651 166.525 133.877C166.213 134.096 165.85 134.272 165.436 134.405C165.021 134.538 164.553 134.604 164.029 134.604H158.533C158.244 134.604 157.939 134.573 157.619 134.51C157.299 134.44 156.979 134.335 156.658 134.194C156.346 134.053 156.045 133.874 155.756 133.655C155.467 133.428 155.209 133.159 154.982 132.846C154.764 132.526 154.588 132.159 154.455 131.745C154.322 131.323 154.256 130.85 154.256 130.327V116.581H157.303V130.327C157.303 130.702 157.42 131.002 157.654 131.229C157.889 131.448 158.182 131.557 158.533 131.557H164.029C164.412 131.557 164.709 131.444 164.92 131.217C165.139 130.991 165.248 130.694 165.248 130.327V126.202C165.248 125.819 165.135 125.522 164.908 125.311C164.682 125.092 164.389 124.983 164.029 124.983H158.533V121.936H164.029C164.318 121.936 164.623 121.971 164.943 122.042C165.264 122.104 165.58 122.206 165.893 122.346C166.213 122.487 166.518 122.67 166.807 122.897C167.096 123.116 167.35 123.385 167.568 123.706C167.787 124.018 167.963 124.381 168.096 124.795C168.229 125.21 168.295 125.678 168.295 126.202V130.327ZM176.463 134.604H175.104C174.666 134.604 174.197 134.53 173.697 134.381C173.205 134.233 172.744 133.991 172.314 133.655C171.885 133.311 171.529 132.87 171.248 132.331C170.967 131.784 170.826 131.116 170.826 130.327V116.581H173.873V130.327C173.873 130.702 173.99 131.002 174.225 131.229C174.459 131.448 174.752 131.557 175.104 131.557H176.463V134.604ZM192.049 126.131C192.049 126.553 191.975 127.01 191.826 127.502C191.678 127.987 191.436 128.44 191.1 128.862C190.771 129.276 190.338 129.624 189.799 129.905C189.268 130.186 188.619 130.327 187.854 130.327H182.357V127.432H187.854C188.268 127.432 188.588 127.307 188.814 127.057C189.041 126.799 189.154 126.483 189.154 126.108C189.154 125.71 189.025 125.397 188.768 125.17C188.518 124.944 188.213 124.831 187.854 124.831H182.357C181.943 124.831 181.623 124.96 181.396 125.217C181.17 125.467 181.057 125.78 181.057 126.155V130.409C181.057 130.815 181.182 131.131 181.432 131.358C181.689 131.585 182.006 131.698 182.381 131.698H187.854V134.604H182.357C181.936 134.604 181.479 134.53 180.986 134.381C180.502 134.233 180.049 133.995 179.627 133.667C179.213 133.331 178.865 132.897 178.584 132.366C178.303 131.827 178.162 131.174 178.162 130.409V126.131C178.162 125.71 178.236 125.256 178.385 124.772C178.533 124.28 178.771 123.827 179.1 123.413C179.436 122.991 179.869 122.639 180.4 122.358C180.939 122.077 181.592 121.936 182.357 121.936H187.854C188.275 121.936 188.729 122.01 189.213 122.159C189.705 122.307 190.158 122.549 190.572 122.885C190.994 123.213 191.346 123.647 191.627 124.186C191.908 124.717 192.049 125.366 192.049 126.131ZM206.346 130.327C206.346 130.85 206.279 131.323 206.146 131.745C206.014 132.159 205.838 132.526 205.619 132.846C205.4 133.159 205.146 133.428 204.857 133.655C204.568 133.874 204.264 134.053 203.943 134.194C203.631 134.335 203.311 134.44 202.982 134.51C202.662 134.573 202.357 134.604 202.068 134.604H193.818V131.557H202.045C202.459 131.557 202.771 131.452 202.982 131.241C203.193 131.03 203.299 130.725 203.299 130.327C203.26 129.514 202.85 129.108 202.068 129.108H197.346C196.674 129.108 196.104 128.991 195.635 128.756C195.166 128.522 194.783 128.229 194.486 127.877C194.197 127.526 193.986 127.147 193.854 126.741C193.729 126.335 193.666 125.956 193.666 125.604C193.666 124.924 193.787 124.354 194.029 123.893C194.271 123.424 194.576 123.045 194.943 122.756C195.311 122.467 195.709 122.26 196.139 122.135C196.568 122.002 196.971 121.936 197.346 121.936H204.834V124.983H197.369C197.213 124.983 197.088 125.002 196.994 125.042C196.908 125.073 196.842 125.12 196.795 125.182C196.756 125.237 196.732 125.299 196.725 125.37C196.717 125.432 196.713 125.495 196.713 125.557C196.721 125.682 196.744 125.78 196.783 125.85C196.822 125.92 196.869 125.971 196.924 126.002C196.986 126.034 197.053 126.053 197.123 126.061C197.201 126.061 197.275 126.061 197.346 126.061H202.068C202.85 126.061 203.514 126.202 204.061 126.483C204.607 126.764 205.049 127.12 205.385 127.549C205.721 127.971 205.963 128.432 206.111 128.932C206.268 129.432 206.346 129.897 206.346 130.327ZM329.633 134.604H306.482V126.149C306.482 125.715 306.529 125.258 306.623 124.778C306.729 124.286 306.887 123.799 307.098 123.319C307.309 122.838 307.578 122.381 307.906 121.948C308.246 121.514 308.65 121.133 309.119 120.805C309.6 120.465 310.15 120.196 310.771 119.997C311.393 119.797 312.096 119.698 312.881 119.698H323.182C323.803 119.698 324.26 119.545 324.553 119.241C324.857 118.924 325.01 118.467 325.01 117.87V115.848C325.01 115.227 324.857 114.758 324.553 114.442C324.248 114.126 323.803 113.967 323.217 113.967H308.539V109.397H323.217C323.99 109.397 324.688 109.497 325.309 109.696C325.93 109.895 326.475 110.165 326.943 110.504C327.424 110.833 327.834 111.213 328.174 111.647C328.514 112.081 328.789 112.538 329 113.018C329.223 113.487 329.381 113.967 329.475 114.46C329.58 114.94 329.633 115.391 329.633 115.813V117.87C329.633 119.053 329.416 120.055 328.982 120.876C328.561 121.684 328.027 122.346 327.383 122.862C326.738 123.366 326.041 123.735 325.291 123.969C324.553 124.192 323.861 124.303 323.217 124.303H312.881C312.506 124.303 312.207 124.356 311.984 124.461C311.762 124.567 311.586 124.708 311.457 124.883C311.34 125.059 311.252 125.258 311.193 125.481C311.135 125.704 311.088 125.926 311.053 126.149V130.034H329.633V134.604ZM363.066 124.057C363.066 125.088 362.932 126.067 362.662 126.993C362.404 127.907 362.035 128.756 361.555 129.542C361.074 130.327 360.506 131.03 359.85 131.651C359.193 132.272 358.473 132.805 357.688 133.251C356.914 133.684 356.088 134.018 355.209 134.252C354.33 134.487 353.434 134.604 352.52 134.604H344.275C343.35 134.604 342.447 134.487 341.568 134.252C340.689 134.018 339.857 133.684 339.072 133.251C338.299 132.805 337.584 132.272 336.928 131.651C336.271 131.03 335.703 130.327 335.223 129.542C334.754 128.756 334.385 127.907 334.115 126.993C333.857 126.067 333.729 125.088 333.729 124.057V119.944C333.729 118.397 334.016 116.979 334.59 115.69C335.176 114.401 335.955 113.293 336.928 112.368C337.9 111.43 339.02 110.704 340.285 110.188C341.562 109.661 342.893 109.397 344.275 109.397H352.52C353.434 109.397 354.33 109.514 355.209 109.749C356.088 109.983 356.914 110.323 357.688 110.768C358.473 111.202 359.193 111.729 359.85 112.35C360.506 112.971 361.074 113.674 361.555 114.46C362.035 115.245 362.404 116.1 362.662 117.026C362.932 117.94 363.066 118.913 363.066 119.944V124.057ZM358.461 119.944C358.461 119.042 358.297 118.221 357.969 117.483C357.641 116.745 357.201 116.112 356.65 115.585C356.111 115.057 355.484 114.653 354.77 114.372C354.055 114.09 353.305 113.956 352.52 113.967H344.275C343.514 113.956 342.77 114.09 342.043 114.372C341.328 114.641 340.689 115.04 340.127 115.567C339.576 116.083 339.131 116.715 338.791 117.465C338.463 118.204 338.299 119.03 338.299 119.944V124.057C338.299 124.971 338.463 125.797 338.791 126.536C339.119 127.274 339.559 127.907 340.109 128.434C340.66 128.95 341.293 129.348 342.008 129.629C342.734 129.911 343.49 130.045 344.275 130.034H352.52C353.422 130.034 354.236 129.887 354.963 129.594C355.701 129.29 356.328 128.874 356.844 128.346C357.359 127.819 357.758 127.192 358.039 126.465C358.32 125.727 358.461 124.924 358.461 124.057V119.944ZM356.475 116.604C356.65 116.862 356.768 117.143 356.826 117.448C356.885 117.741 356.885 118.034 356.826 118.327C356.768 118.608 356.65 118.877 356.475 119.135C356.311 119.381 356.094 119.592 355.824 119.768L343.484 128.012C343.285 128.165 343.08 128.27 342.869 128.329C342.658 128.387 342.441 128.417 342.219 128.417C341.844 128.417 341.486 128.329 341.146 128.153C340.807 127.977 340.531 127.725 340.32 127.397C340.145 127.139 340.027 126.864 339.969 126.571C339.91 126.266 339.904 125.973 339.951 125.692C340.01 125.399 340.121 125.129 340.285 124.883C340.449 124.626 340.666 124.409 340.936 124.233L353.311 115.989C353.568 115.813 353.844 115.696 354.137 115.637C354.441 115.579 354.734 115.579 355.016 115.637C355.309 115.696 355.578 115.807 355.824 115.971C356.082 116.135 356.299 116.346 356.475 116.604ZM396.395 124.057C396.395 125.088 396.26 126.067 395.99 126.993C395.732 127.907 395.363 128.756 394.883 129.542C394.402 130.327 393.834 131.03 393.178 131.651C392.521 132.272 391.801 132.805 391.016 133.251C390.242 133.684 389.416 134.018 388.537 134.252C387.658 134.487 386.762 134.604 385.848 134.604H377.604C376.678 134.604 375.775 134.487 374.896 134.252C374.018 134.018 373.186 133.684 372.4 133.251C371.627 132.805 370.912 132.272 370.256 131.651C369.6 131.03 369.031 130.327 368.551 129.542C368.082 128.756 367.713 127.907 367.443 126.993C367.186 126.067 367.057 125.088 367.057 124.057V119.944C367.057 118.397 367.344 116.979 367.918 115.69C368.504 114.401 369.283 113.293 370.256 112.368C371.229 111.43 372.348 110.704 373.613 110.188C374.891 109.661 376.221 109.397 377.604 109.397H385.848C386.762 109.397 387.658 109.514 388.537 109.749C389.416 109.983 390.242 110.323 391.016 110.768C391.801 111.202 392.521 111.729 393.178 112.35C393.834 112.971 394.402 113.674 394.883 114.46C395.363 115.245 395.732 116.1 395.99 117.026C396.26 117.94 396.395 118.913 396.395 119.944V124.057ZM391.789 119.944C391.789 119.042 391.625 118.221 391.297 117.483C390.969 116.745 390.529 116.112 389.979 115.585C389.439 115.057 388.812 114.653 388.098 114.372C387.383 114.09 386.633 113.956 385.848 113.967H377.604C376.842 113.956 376.098 114.09 375.371 114.372C374.656 114.641 374.018 115.04 373.455 115.567C372.904 116.083 372.459 116.715 372.119 117.465C371.791 118.204 371.627 119.03 371.627 119.944V124.057C371.627 124.971 371.791 125.797 372.119 126.536C372.447 127.274 372.887 127.907 373.438 128.434C373.988 128.95 374.621 129.348 375.336 129.629C376.062 129.911 376.818 130.045 377.604 130.034H385.848C386.75 130.034 387.564 129.887 388.291 129.594C389.029 129.29 389.656 128.874 390.172 128.346C390.688 127.819 391.086 127.192 391.367 126.465C391.648 125.727 391.789 124.924 391.789 124.057V119.944ZM389.803 116.604C389.979 116.862 390.096 117.143 390.154 117.448C390.213 117.741 390.213 118.034 390.154 118.327C390.096 118.608 389.979 118.877 389.803 119.135C389.639 119.381 389.422 119.592 389.152 119.768L376.812 128.012C376.613 128.165 376.408 128.27 376.197 128.329C375.986 128.387 375.77 128.417 375.547 128.417C375.172 128.417 374.814 128.329 374.475 128.153C374.135 127.977 373.859 127.725 373.648 127.397C373.473 127.139 373.355 126.864 373.297 126.571C373.238 126.266 373.232 125.973 373.279 125.692C373.338 125.399 373.449 125.129 373.613 124.883C373.777 124.626 373.994 124.409 374.264 124.233L386.639 115.989C386.896 115.813 387.172 115.696 387.465 115.637C387.77 115.579 388.062 115.579 388.344 115.637C388.637 115.696 388.906 115.807 389.152 115.971C389.41 116.135 389.627 116.346 389.803 116.604Z" fill="white"/>
</svg>
