<svg width="460" height="116" viewBox="0 0 460 116" fill="none" xmlns="http://www.w3.org/2000/svg">
<path d="M214.785 84H213.785V85H214.785V84ZM216.465 51.12L215.758 50.4129L215.758 50.4129L216.465 51.12ZM247.665 51.12L248.372 50.4129L248.372 50.4129L247.665 51.12ZM249.345 84V85H250.345V84H249.345ZM245.457 84H244.457V85H245.457V84ZM245.457 71.376H246.457V70.376H245.457V71.376ZM218.673 71.376V70.376H217.673V71.376H218.673ZM218.673 84V85H219.673V84H218.673ZM218.673 67.488H217.673V68.488H218.673V67.488ZM245.457 67.488V68.488H246.457V67.488H245.457ZM244.881 53.904L244.144 54.5797L244.173 54.6118L244.205 54.6412L244.881 53.904ZM219.201 53.904L219.908 54.6111L219.908 54.6111L219.201 53.904ZM215.785 84V55.2H213.785V84H215.785ZM215.785 55.2C215.785 53.8622 216.242 52.7574 217.172 51.8271L215.758 50.4129C214.448 51.7226 213.785 53.3378 213.785 55.2H215.785ZM217.172 51.8271C218.102 50.8968 219.207 50.44 220.545 50.44V48.44C218.683 48.44 217.067 49.1032 215.758 50.4129L217.172 51.8271ZM220.545 50.44H243.585V48.44H220.545V50.44ZM243.585 50.44C244.923 50.44 246.027 50.8968 246.958 51.8271L248.372 50.4129C247.062 49.1032 245.447 48.44 243.585 48.44V50.44ZM246.958 51.8271C247.888 52.7574 248.345 53.8622 248.345 55.2H250.345C250.345 53.3378 249.682 51.7226 248.372 50.4129L246.958 51.8271ZM248.345 55.2V84H250.345V55.2H248.345ZM249.345 83H245.457V85H249.345V83ZM246.457 84V71.376H244.457V84H246.457ZM245.457 70.376H218.673V72.376H245.457V70.376ZM217.673 71.376V84H219.673V71.376H217.673ZM218.673 83H214.785V85H218.673V83ZM218.673 68.488H245.457V66.488H218.673V68.488ZM246.457 67.488V55.2H244.457V67.488H246.457ZM246.457 55.2C246.457 54.4022 246.143 53.7045 245.557 53.1668L244.205 54.6412C244.387 54.8075 244.457 54.9738 244.457 55.2H246.457ZM245.618 53.2283C245.08 52.6417 244.383 52.328 243.585 52.328V54.328C243.811 54.328 243.977 54.3983 244.144 54.5797L245.618 53.2283ZM243.585 52.328H220.545V54.328H243.585V52.328ZM220.545 52.328C219.75 52.328 219.053 52.638 218.494 53.1969L219.908 54.6111C220.117 54.402 220.315 54.328 220.545 54.328V52.328ZM218.494 53.1969C217.948 53.7423 217.673 54.4312 217.673 55.2H219.673C219.673 54.9448 219.749 54.7697 219.908 54.6111L218.494 53.1969ZM217.673 55.2V67.488H219.673V55.2H217.673ZM264.882 84L263.942 84.342L264.182 85H264.882V84ZM252.306 49.44V48.44H250.878L251.366 49.782L252.306 49.44ZM256.434 49.44L257.373 49.0971L257.133 48.44H256.434V49.44ZM266.562 77.184L265.622 77.5269L266.564 80.1063L267.502 77.5255L266.562 77.184ZM276.642 49.44V48.44H275.941L275.702 49.0985L276.642 49.44ZM281.346 49.44L282.285 49.0971L282.045 48.44H281.346V49.44ZM291.474 77.184L290.534 77.5269L291.478 80.1124L292.414 77.524L291.474 77.184ZM301.506 49.44V48.44H300.804L300.565 49.1L301.506 49.44ZM305.73 49.44L306.67 49.782L307.158 48.44H305.73V49.44ZM293.154 84V85H293.854L294.094 84.342L293.154 84ZM289.746 84L288.806 84.3422L289.046 85H289.746V84ZM278.994 54.48L279.933 54.1378L278.994 51.558L278.054 54.1378L278.994 54.48ZM268.242 84V85H268.942L269.181 84.3422L268.242 84ZM265.822 83.658L253.246 49.098L251.366 49.782L263.942 84.342L265.822 83.658ZM252.306 50.44H256.434V48.44H252.306V50.44ZM255.494 49.7829L265.622 77.5269L267.501 76.8411L257.373 49.0971L255.494 49.7829ZM267.502 77.5255L277.582 49.7815L275.702 49.0985L265.622 76.8425L267.502 77.5255ZM276.642 50.44H281.346V48.44H276.642V50.44ZM280.406 49.7829L290.534 77.5269L292.413 76.8411L282.285 49.0971L280.406 49.7829ZM292.414 77.524L302.446 49.78L300.565 49.1L290.533 76.844L292.414 77.524ZM301.506 50.44H305.73V48.44H301.506V50.44ZM304.79 49.098L292.214 83.658L294.094 84.342L306.67 49.782L304.79 49.098ZM293.154 83H289.746V85H293.154V83ZM290.685 83.6578L279.933 54.1378L278.054 54.8222L288.806 84.3422L290.685 83.6578ZM278.054 54.1378L267.302 83.6578L269.181 84.3422L279.933 54.8222L278.054 54.1378ZM268.242 83H264.882V85H268.242V83Z" fill="white"/>
<path d="M84.207 70.853C84.207 71.4858 84.0957 72.1713 83.873 72.9096C83.6504 73.6362 83.2871 74.3159 82.7832 74.9487C82.291 75.5698 81.6406 76.0912 80.832 76.5131C80.0352 76.935 79.0625 77.1459 77.9141 77.1459H69.6699V72.8041H77.9141C78.5352 72.8041 79.0156 72.6166 79.3555 72.2416C79.6953 71.8549 79.8652 71.3803 79.8652 70.8178C79.8652 70.2202 79.6719 69.7514 79.2852 69.4116C78.9102 69.0717 78.4531 68.9018 77.9141 68.9018H69.6699C69.0488 68.9018 68.5684 69.0952 68.2285 69.4819C67.8887 69.8569 67.7188 70.3256 67.7188 70.8881V77.269C67.7188 77.8784 67.9062 78.353 68.2812 78.6928C68.668 79.0327 69.1426 79.2026 69.7051 79.2026H77.9141V83.562H69.6699C69.0371 83.562 68.3516 83.4506 67.6133 83.228C66.8867 83.0053 66.207 82.6479 65.5742 82.1557C64.9531 81.6518 64.4316 81.0014 64.0098 80.2045C63.5879 79.3959 63.377 78.4174 63.377 77.269V70.853C63.377 70.2202 63.4883 69.5405 63.7109 68.8139C63.9336 68.0756 64.291 67.3959 64.7832 66.7748C65.2871 66.142 65.9375 65.6147 66.7344 65.1928C67.543 64.7709 68.5215 64.56 69.6699 64.56H77.9141C78.5469 64.56 79.2266 64.6713 79.9531 64.894C80.6914 65.1166 81.3711 65.4799 81.9922 65.9838C82.625 66.476 83.1523 67.1264 83.5742 67.935C83.9961 68.7319 84.207 69.7045 84.207 70.853ZM100.607 83.562H97.5605V76.5307C97.5605 76.1323 97.4902 75.7768 97.3496 75.4643C97.2168 75.144 97.0332 74.8705 96.7988 74.644C96.5645 74.4174 96.2871 74.2455 95.9668 74.1284C95.6543 74.0034 95.3145 73.9409 94.9473 73.9409H89.6152V83.562H86.5684V72.4057C86.5684 72.1948 86.6074 71.9995 86.6855 71.8198C86.7637 71.6323 86.873 71.4721 87.0137 71.3393C87.1543 71.1987 87.3184 71.0893 87.5059 71.0112C87.6934 70.933 87.8926 70.894 88.1035 70.894H94.9707C95.3535 70.894 95.7559 70.937 96.1777 71.0229C96.6074 71.1088 97.0293 71.2495 97.4434 71.4448C97.8652 71.6323 98.2637 71.8745 98.6387 72.1713C99.0215 72.4604 99.3574 72.8159 99.6465 73.2377C99.9434 73.6518 100.178 74.1323 100.35 74.6791C100.521 75.226 100.607 75.8432 100.607 76.5307V83.562ZM115.525 79.2846C115.525 79.808 115.459 80.2807 115.326 80.7026C115.193 81.1166 115.018 81.4838 114.799 81.8041C114.58 82.1166 114.326 82.3862 114.037 82.6127C113.748 82.8315 113.443 83.0112 113.123 83.1518C112.811 83.2924 112.49 83.3979 112.162 83.4682C111.842 83.5307 111.537 83.562 111.248 83.562H102.998V80.5151H111.225C111.639 80.5151 111.951 80.4096 112.162 80.1987C112.373 79.9877 112.479 79.683 112.479 79.2846C112.439 78.4721 112.029 78.0659 111.248 78.0659H106.525C105.854 78.0659 105.283 77.9487 104.814 77.7143C104.346 77.4799 103.963 77.187 103.666 76.8354C103.377 76.4838 103.166 76.1049 103.033 75.6987C102.908 75.2924 102.846 74.9135 102.846 74.562C102.846 73.8823 102.967 73.312 103.209 72.851C103.451 72.3823 103.756 72.0034 104.123 71.7143C104.49 71.4252 104.889 71.2182 105.318 71.0932C105.748 70.9604 106.15 70.894 106.525 70.894H114.014V73.9409H106.549C106.393 73.9409 106.268 73.9604 106.174 73.9995C106.088 74.0307 106.021 74.0776 105.975 74.1401C105.936 74.1948 105.912 74.2573 105.904 74.3276C105.896 74.3901 105.893 74.4526 105.893 74.5151C105.9 74.6401 105.924 74.7377 105.963 74.808C106.002 74.8784 106.049 74.9291 106.104 74.9604C106.166 74.9916 106.232 75.0112 106.303 75.019C106.381 75.019 106.455 75.019 106.525 75.019H111.248C112.029 75.019 112.693 75.1596 113.24 75.4409C113.787 75.7221 114.229 76.0776 114.564 76.5073C114.9 76.9291 115.143 77.3901 115.291 77.8901C115.447 78.3901 115.525 78.8549 115.525 79.2846ZM131.299 75.0893C131.299 75.5112 131.225 75.9682 131.076 76.4604C130.928 76.9448 130.686 77.3979 130.35 77.8198C130.021 78.2338 129.588 78.5815 129.049 78.8627C128.518 79.144 127.869 79.2846 127.104 79.2846H121.607V76.3901H127.104C127.518 76.3901 127.838 76.2651 128.064 76.0151C128.291 75.7573 128.404 75.4409 128.404 75.0659C128.404 74.6674 128.275 74.3549 128.018 74.1284C127.768 73.9018 127.463 73.7885 127.104 73.7885H121.607C121.193 73.7885 120.873 73.9174 120.646 74.1752C120.42 74.4252 120.307 74.7377 120.307 75.1127V79.3666C120.307 79.7729 120.432 80.0893 120.682 80.3159C120.939 80.5424 121.256 80.6557 121.631 80.6557H127.104V83.562H121.607C121.186 83.562 120.729 83.4877 120.236 83.3393C119.752 83.1909 119.299 82.9526 118.877 82.6245C118.463 82.2885 118.115 81.8549 117.834 81.3237C117.553 80.7846 117.412 80.1323 117.412 79.3666V75.0893C117.412 74.6674 117.486 74.2143 117.635 73.7299C117.783 73.2377 118.021 72.7846 118.35 72.3705C118.686 71.9487 119.119 71.5971 119.65 71.3159C120.189 71.0346 120.842 70.894 121.607 70.894H127.104C127.525 70.894 127.979 70.9682 128.463 71.1166C128.955 71.2651 129.408 71.5073 129.822 71.8432C130.244 72.1713 130.596 72.6049 130.877 73.144C131.158 73.6752 131.299 74.3237 131.299 75.0893ZM144.658 83.562H141.611V75.1596C141.611 74.7612 141.506 74.4604 141.295 74.2573C141.084 74.0463 140.771 73.9409 140.357 73.9409H136.396V83.562H133.35V72.4057C133.35 72.1948 133.389 71.9995 133.467 71.8198C133.545 71.6323 133.654 71.4721 133.795 71.3393C133.936 71.1987 134.1 71.0893 134.287 71.0112C134.475 70.933 134.674 70.894 134.885 70.894H140.381C140.803 70.894 141.256 70.9682 141.74 71.1166C142.225 71.2651 142.686 71.5034 143.123 71.8315V70.894H147.248C147.537 70.894 147.842 70.9291 148.162 70.9995C148.482 71.062 148.799 71.1635 149.111 71.3041C149.432 71.4448 149.736 71.6284 150.025 71.8549C150.314 72.0737 150.568 72.3432 150.787 72.6635C151.006 72.976 151.182 73.3393 151.314 73.7534C151.447 74.1674 151.514 74.6362 151.514 75.1596V83.562H148.467V75.1596C148.467 74.7612 148.365 74.4604 148.162 74.2573C147.967 74.0463 147.662 73.9409 147.248 73.9409H144.506C144.607 74.3159 144.658 74.7221 144.658 75.1596V83.562ZM168.295 79.2846C168.295 79.5737 168.26 79.8784 168.189 80.1987C168.127 80.519 168.025 80.8393 167.885 81.1596C167.744 81.4721 167.561 81.7729 167.334 82.062C167.115 82.351 166.846 82.6088 166.525 82.8354C166.213 83.0541 165.85 83.2299 165.436 83.3627C165.021 83.4955 164.553 83.562 164.029 83.562H158.533C158.244 83.562 157.939 83.5307 157.619 83.4682C157.299 83.3979 156.979 83.2924 156.658 83.1518C156.346 83.0112 156.045 82.8315 155.756 82.6127C155.467 82.3862 155.209 82.1166 154.982 81.8041C154.764 81.4838 154.588 81.1166 154.455 80.7026C154.322 80.2807 154.256 79.808 154.256 79.2846V65.5385H157.303V79.2846C157.303 79.6596 157.42 79.9604 157.654 80.187C157.889 80.4057 158.182 80.5151 158.533 80.5151H164.029C164.412 80.5151 164.709 80.4018 164.92 80.1752C165.139 79.9487 165.248 79.6518 165.248 79.2846V75.1596C165.248 74.7768 165.135 74.4799 164.908 74.269C164.682 74.0502 164.389 73.9409 164.029 73.9409H158.533V70.894H164.029C164.318 70.894 164.623 70.9291 164.943 70.9995C165.264 71.062 165.58 71.1635 165.893 71.3041C166.213 71.4448 166.518 71.6284 166.807 71.8549C167.096 72.0737 167.35 72.3432 167.568 72.6635C167.787 72.976 167.963 73.3393 168.096 73.7534C168.229 74.1674 168.295 74.6362 168.295 75.1596V79.2846ZM176.463 83.562H175.104C174.666 83.562 174.197 83.4877 173.697 83.3393C173.205 83.1909 172.744 82.9487 172.314 82.6127C171.885 82.269 171.529 81.8276 171.248 81.2885C170.967 80.7416 170.826 80.0737 170.826 79.2846V65.5385H173.873V79.2846C173.873 79.6596 173.99 79.9604 174.225 80.187C174.459 80.4057 174.752 80.5151 175.104 80.5151H176.463V83.562ZM192.049 75.0893C192.049 75.5112 191.975 75.9682 191.826 76.4604C191.678 76.9448 191.436 77.3979 191.1 77.8198C190.771 78.2338 190.338 78.5815 189.799 78.8627C189.268 79.144 188.619 79.2846 187.854 79.2846H182.357V76.3901H187.854C188.268 76.3901 188.588 76.2651 188.814 76.0151C189.041 75.7573 189.154 75.4409 189.154 75.0659C189.154 74.6674 189.025 74.3549 188.768 74.1284C188.518 73.9018 188.213 73.7885 187.854 73.7885H182.357C181.943 73.7885 181.623 73.9174 181.396 74.1752C181.17 74.4252 181.057 74.7377 181.057 75.1127V79.3666C181.057 79.7729 181.182 80.0893 181.432 80.3159C181.689 80.5424 182.006 80.6557 182.381 80.6557H187.854V83.562H182.357C181.936 83.562 181.479 83.4877 180.986 83.3393C180.502 83.1909 180.049 82.9526 179.627 82.6245C179.213 82.2885 178.865 81.8549 178.584 81.3237C178.303 80.7846 178.162 80.1323 178.162 79.3666V75.0893C178.162 74.6674 178.236 74.2143 178.385 73.7299C178.533 73.2377 178.771 72.7846 179.1 72.3705C179.436 71.9487 179.869 71.5971 180.4 71.3159C180.939 71.0346 181.592 70.894 182.357 70.894H187.854C188.275 70.894 188.729 70.9682 189.213 71.1166C189.705 71.2651 190.158 71.5073 190.572 71.8432C190.994 72.1713 191.346 72.6049 191.627 73.144C191.908 73.6752 192.049 74.3237 192.049 75.0893ZM206.346 79.2846C206.346 79.808 206.279 80.2807 206.146 80.7026C206.014 81.1166 205.838 81.4838 205.619 81.8041C205.4 82.1166 205.146 82.3862 204.857 82.6127C204.568 82.8315 204.264 83.0112 203.943 83.1518C203.631 83.2924 203.311 83.3979 202.982 83.4682C202.662 83.5307 202.357 83.562 202.068 83.562H193.818V80.5151H202.045C202.459 80.5151 202.771 80.4096 202.982 80.1987C203.193 79.9877 203.299 79.683 203.299 79.2846C203.26 78.4721 202.85 78.0659 202.068 78.0659H197.346C196.674 78.0659 196.104 77.9487 195.635 77.7143C195.166 77.4799 194.783 77.187 194.486 76.8354C194.197 76.4838 193.986 76.1049 193.854 75.6987C193.729 75.2924 193.666 74.9135 193.666 74.562C193.666 73.8823 193.787 73.312 194.029 72.851C194.271 72.3823 194.576 72.0034 194.943 71.7143C195.311 71.4252 195.709 71.2182 196.139 71.0932C196.568 70.9604 196.971 70.894 197.346 70.894H204.834V73.9409H197.369C197.213 73.9409 197.088 73.9604 196.994 73.9995C196.908 74.0307 196.842 74.0776 196.795 74.1401C196.756 74.1948 196.732 74.2573 196.725 74.3276C196.717 74.3901 196.713 74.4526 196.713 74.5151C196.721 74.6401 196.744 74.7377 196.783 74.808C196.822 74.8784 196.869 74.9291 196.924 74.9604C196.986 74.9916 197.053 75.0112 197.123 75.019C197.201 75.019 197.275 75.019 197.346 75.019H202.068C202.85 75.019 203.514 75.1596 204.061 75.4409C204.607 75.7221 205.049 76.0776 205.385 76.5073C205.721 76.9291 205.963 77.3901 206.111 77.8901C206.268 78.3901 206.346 78.8549 206.346 79.2846ZM329.633 83.562H306.482V75.1069C306.482 74.6733 306.529 74.2162 306.623 73.7358C306.729 73.2436 306.887 72.7573 307.098 72.2768C307.309 71.7963 307.578 71.3393 307.906 70.9057C308.246 70.4721 308.65 70.0912 309.119 69.7631C309.6 69.4233 310.15 69.1537 310.771 68.9545C311.393 68.7553 312.096 68.6557 312.881 68.6557H323.182C323.803 68.6557 324.26 68.5034 324.553 68.1987C324.857 67.8823 325.01 67.4252 325.01 66.8276V64.8061C325.01 64.185 324.857 63.7162 324.553 63.3998C324.248 63.0834 323.803 62.9252 323.217 62.9252H308.539V58.3549H323.217C323.99 58.3549 324.688 58.4545 325.309 58.6537C325.93 58.853 326.475 59.1225 326.943 59.4623C327.424 59.7905 327.834 60.1713 328.174 60.6049C328.514 61.0385 328.789 61.4955 329 61.976C329.223 62.4448 329.381 62.9252 329.475 63.4174C329.58 63.8979 329.633 64.3491 329.633 64.7709V66.8276C329.633 68.0112 329.416 69.0131 328.982 69.8334C328.561 70.642 328.027 71.3041 327.383 71.8198C326.738 72.3237 326.041 72.6928 325.291 72.9272C324.553 73.1498 323.861 73.2612 323.217 73.2612H312.881C312.506 73.2612 312.207 73.3139 311.984 73.4194C311.762 73.5248 311.586 73.6655 311.457 73.8412C311.34 74.017 311.252 74.2162 311.193 74.4389C311.135 74.6616 311.088 74.8842 311.053 75.1069V78.9916H329.633V83.562ZM363.066 73.0151C363.066 74.0463 362.932 75.0248 362.662 75.9506C362.404 76.8647 362.035 77.7143 361.555 78.4995C361.074 79.2846 360.506 79.9877 359.85 80.6088C359.193 81.2299 358.473 81.7631 357.688 82.2084C356.914 82.642 356.088 82.976 355.209 83.2104C354.33 83.4448 353.434 83.562 352.52 83.562H344.275C343.35 83.562 342.447 83.4448 341.568 83.2104C340.689 82.976 339.857 82.642 339.072 82.2084C338.299 81.7631 337.584 81.2299 336.928 80.6088C336.271 79.9877 335.703 79.2846 335.223 78.4995C334.754 77.7143 334.385 76.8647 334.115 75.9506C333.857 75.0248 333.729 74.0463 333.729 73.0151V68.9018C333.729 67.3549 334.016 65.937 334.59 64.6479C335.176 63.3588 335.955 62.2514 336.928 61.3256C337.9 60.3881 339.02 59.6616 340.285 59.1459C341.562 58.6186 342.893 58.3549 344.275 58.3549H352.52C353.434 58.3549 354.33 58.4721 355.209 58.7065C356.088 58.9409 356.914 59.2807 357.688 59.726C358.473 60.1596 359.193 60.687 359.85 61.308C360.506 61.9291 361.074 62.6323 361.555 63.4174C362.035 64.2026 362.404 65.058 362.662 65.9838C362.932 66.8979 363.066 67.8705 363.066 68.9018V73.0151ZM358.461 68.9018C358.461 67.9995 358.297 67.1791 357.969 66.4409C357.641 65.7026 357.201 65.0698 356.65 64.5424C356.111 64.0151 355.484 63.6108 354.77 63.3295C354.055 63.0483 353.305 62.9135 352.52 62.9252H344.275C343.514 62.9135 342.77 63.0483 342.043 63.3295C341.328 63.5991 340.689 63.9975 340.127 64.5248C339.576 65.0405 339.131 65.6733 338.791 66.4233C338.463 67.1616 338.299 67.9877 338.299 68.9018V73.0151C338.299 73.9291 338.463 74.7553 338.791 75.4936C339.119 76.2319 339.559 76.8647 340.109 77.392C340.66 77.9077 341.293 78.3061 342.008 78.5873C342.734 78.8686 343.49 79.0034 344.275 78.9916H352.52C353.422 78.9916 354.236 78.8452 354.963 78.5522C355.701 78.2475 356.328 77.8315 356.844 77.3041C357.359 76.7768 357.758 76.1498 358.039 75.4233C358.32 74.685 358.461 73.8823 358.461 73.0151V68.9018ZM356.475 65.562C356.65 65.8198 356.768 66.101 356.826 66.4057C356.885 66.6987 356.885 66.9916 356.826 67.2846C356.768 67.5659 356.65 67.8354 356.475 68.0932C356.311 68.3393 356.094 68.5502 355.824 68.726L343.484 76.9702C343.285 77.1225 343.08 77.228 342.869 77.2866C342.658 77.3452 342.441 77.3745 342.219 77.3745C341.844 77.3745 341.486 77.2866 341.146 77.1108C340.807 76.935 340.531 76.683 340.32 76.3549C340.145 76.0971 340.027 75.8217 339.969 75.5287C339.91 75.2241 339.904 74.9311 339.951 74.6498C340.01 74.3569 340.121 74.0873 340.285 73.8412C340.449 73.5834 340.666 73.3666 340.936 73.1909L353.311 64.9467C353.568 64.7709 353.844 64.6537 354.137 64.5952C354.441 64.5366 354.734 64.5366 355.016 64.5952C355.309 64.6537 355.578 64.7651 355.824 64.9291C356.082 65.0932 356.299 65.3041 356.475 65.562ZM396.395 73.0151C396.395 74.0463 396.26 75.0248 395.99 75.9506C395.732 76.8647 395.363 77.7143 394.883 78.4995C394.402 79.2846 393.834 79.9877 393.178 80.6088C392.521 81.2299 391.801 81.7631 391.016 82.2084C390.242 82.642 389.416 82.976 388.537 83.2104C387.658 83.4448 386.762 83.562 385.848 83.562H377.604C376.678 83.562 375.775 83.4448 374.896 83.2104C374.018 82.976 373.186 82.642 372.4 82.2084C371.627 81.7631 370.912 81.2299 370.256 80.6088C369.6 79.9877 369.031 79.2846 368.551 78.4995C368.082 77.7143 367.713 76.8647 367.443 75.9506C367.186 75.0248 367.057 74.0463 367.057 73.0151V68.9018C367.057 67.3549 367.344 65.937 367.918 64.6479C368.504 63.3588 369.283 62.2514 370.256 61.3256C371.229 60.3881 372.348 59.6616 373.613 59.1459C374.891 58.6186 376.221 58.3549 377.604 58.3549H385.848C386.762 58.3549 387.658 58.4721 388.537 58.7065C389.416 58.9409 390.242 59.2807 391.016 59.726C391.801 60.1596 392.521 60.687 393.178 61.308C393.834 61.9291 394.402 62.6323 394.883 63.4174C395.363 64.2026 395.732 65.058 395.99 65.9838C396.26 66.8979 396.395 67.8705 396.395 68.9018V73.0151ZM391.789 68.9018C391.789 67.9995 391.625 67.1791 391.297 66.4409C390.969 65.7026 390.529 65.0698 389.979 64.5424C389.439 64.0151 388.812 63.6108 388.098 63.3295C387.383 63.0483 386.633 62.9135 385.848 62.9252H377.604C376.842 62.9135 376.098 63.0483 375.371 63.3295C374.656 63.5991 374.018 63.9975 373.455 64.5248C372.904 65.0405 372.459 65.6733 372.119 66.4233C371.791 67.1616 371.627 67.9877 371.627 68.9018V73.0151C371.627 73.9291 371.791 74.7553 372.119 75.4936C372.447 76.2319 372.887 76.8647 373.438 77.392C373.988 77.9077 374.621 78.3061 375.336 78.5873C376.062 78.8686 376.818 79.0034 377.604 78.9916H385.848C386.75 78.9916 387.564 78.8452 388.291 78.5522C389.029 78.2475 389.656 77.8315 390.172 77.3041C390.688 76.7768 391.086 76.1498 391.367 75.4233C391.648 74.685 391.789 73.8823 391.789 73.0151V68.9018ZM389.803 65.562C389.979 65.8198 390.096 66.101 390.154 66.4057C390.213 66.6987 390.213 66.9916 390.154 67.2846C390.096 67.5659 389.979 67.8354 389.803 68.0932C389.639 68.3393 389.422 68.5502 389.152 68.726L376.812 76.9702C376.613 77.1225 376.408 77.228 376.197 77.2866C375.986 77.3452 375.77 77.3745 375.547 77.3745C375.172 77.3745 374.814 77.2866 374.475 77.1108C374.135 76.935 373.859 76.683 373.648 76.3549C373.473 76.0971 373.355 75.8217 373.297 75.5287C373.238 75.2241 373.232 74.9311 373.279 74.6498C373.338 74.3569 373.449 74.0873 373.613 73.8412C373.777 73.5834 373.994 73.3666 374.264 73.1909L386.639 64.9467C386.896 64.7709 387.172 64.6537 387.465 64.5952C387.77 64.5366 388.062 64.5366 388.344 64.5952C388.637 64.6537 388.906 64.7651 389.152 64.9291C389.41 65.0932 389.627 65.3041 389.803 65.562Z" fill="white"/>
</svg>
