<svg width="55" height="89" viewBox="0 0 55 89" fill="none" xmlns="http://www.w3.org/2000/svg">
<path d="M22.05 15.1951C23.5669 9.13877 32.1735 9.13879 33.6904 15.1951L46.887 67.8832C47.8357 71.6707 44.9714 75.3409 41.0668 75.3409H14.6735C10.769 75.3409 7.90463 71.6707 8.85329 67.8832L22.05 15.1951Z" fill="#C4C4C4" fill-opacity="0.4"/>
<path d="M33.2054 15.3166L46.402 68.0046C47.2716 71.4765 44.646 74.8409 41.0668 74.8409H14.6735C11.0944 74.8409 8.4687 71.4765 9.3383 68.0046L22.535 15.3166C23.9255 9.76495 31.8149 9.76496 33.2054 15.3166Z" stroke="white" stroke-opacity="0.75"/>
<path d="M14.6735 75.3409H41.0668C44.9714 75.3409 47.8357 71.6707 46.887 67.8832L45.0135 60.4031C44.3448 57.7333 41.9455 55.8608 39.1933 55.8608H16.547C13.7948 55.8608 11.3955 57.7333 10.7268 60.4031L8.85328 67.8832C7.90463 71.6707 10.769 75.3409 14.6735 75.3409Z" fill="white" fill-opacity="0.5"/>
<path d="M41.0668 74.8409H14.6735C11.0944 74.8409 8.4687 71.4765 9.3383 68.0046L11.2118 60.5245C11.8248 58.0773 14.0242 56.3608 16.547 56.3608H39.1933C41.7162 56.3608 43.9155 58.0773 44.5285 60.5245L46.402 68.0046C47.2716 71.4765 44.646 74.8409 41.0668 74.8409Z" stroke="white" stroke-opacity="0.75"/>
<path d="M50.2297 16.5234L51.6477 17.3805L28.3863 55.8608L26.4523 55.8608L50.2297 16.5234Z" fill="white" fill-opacity="0.75"/>
<path d="M50.399 17.21L50.9611 17.5498L28.1043 55.3608L27.3388 55.3608L50.399 17.21Z" stroke="white" stroke-opacity="0.5"/>
<path d="M36.7403 32.1926C37.2013 31.3942 38.2222 31.1207 39.0206 31.5816L43.5641 34.2048C44.3625 34.6658 44.6361 35.6867 44.1751 36.4851V36.4851C43.2532 38.0819 41.2113 38.6291 39.6145 37.7071L37.9623 36.7532C36.3655 35.8313 35.8184 33.7895 36.7403 32.1926V32.1926Z" fill="white"/>
</svg>
