<svg width="48" height="48" viewBox="0 0 48 48" fill="none" xmlns="http://www.w3.org/2000/svg">
<g opacity="0.6">
<path opacity="0.6" d="M45.9999 41.75H40.2104V46.25H45.9999V41.75Z" fill="url(#paint0_radial)"/>
<path opacity="0.6" d="M2.00007 46.25H7.78955V41.75H2.00007V46.25Z" fill="url(#paint1_radial)"/>
<path opacity="0.6" d="M40.2106 41.75H7.78955V46.25H40.2106V41.75Z" fill="url(#paint2_linear)"/>
</g>
<path d="M41.5 5.5H6.5C5.39543 5.5 4.5 6.39543 4.5 7.5V42.5C4.5 43.6046 5.39543 44.5 6.5 44.5H41.5C42.6046 44.5 43.5 43.6046 43.5 42.5V7.5C43.5 6.39543 42.6046 5.5 41.5 5.5Z" fill="url(#paint3_linear)"/>
<path opacity="0.7" d="M41.5 5.5H6.5C5.39543 5.5 4.5 6.39543 4.5 7.5V42.5C4.5 43.6046 5.39543 44.5 6.5 44.5H41.5C42.6046 44.5 43.5 43.6046 43.5 42.5V7.5C43.5 6.39543 42.6046 5.5 41.5 5.5Z" stroke="black" stroke-linecap="round" stroke-linejoin="round"/>
<path opacity="0.5" d="M41.5 6.5H6.5C5.94772 6.5 5.5 6.94772 5.5 7.5V42.5C5.5 43.0523 5.94772 43.5 6.5 43.5H41.5C42.0523 43.5 42.5 43.0523 42.5 42.5V7.5C42.5 6.94772 42.0523 6.5 41.5 6.5Z" stroke="url(#paint4_linear)" stroke-linecap="round" stroke-linejoin="round"/>
<circle cx="17.2858" cy="18.2265" r="9.91565" fill="url(#paint5_radial)"/>
<circle cx="17.2858" cy="18.2265" r="10.4156" stroke="black" stroke-opacity="0.75"/>
<g filter="url(#filter0_dd)">
<circle cx="17.2857" cy="18.2265" r="8.48683" fill="url(#paint6_radial)"/>
<circle cx="17.2857" cy="18.2265" r="7.98683" stroke="black" stroke-opacity="0.75"/>
</g>
<g filter="url(#filter1_d)">
<circle cx="17.286" cy="18.2265" r="2.37218" fill="url(#paint7_radial)"/>
<circle cx="17.286" cy="18.2265" r="1.87218" stroke="url(#paint8_linear)" stroke-opacity="0.75"/>
</g>
<circle cx="34.7977" cy="14.3092" r="5.99837" fill="url(#paint9_radial)"/>
<circle cx="34.7977" cy="14.3092" r="6.49837" stroke="black" stroke-opacity="0.75"/>
<g filter="url(#filter2_d)">
<circle cx="34.7977" cy="14.3092" r="4.27305" fill="url(#paint10_radial)"/>
<circle cx="34.7977" cy="14.3092" r="3.77305" stroke="black" stroke-opacity="0.75"/>
</g>
<circle cx="34.7976" cy="14.3092" r="2.2837" fill="url(#paint11_radial)"/>
<circle cx="34.7976" cy="14.3092" r="1.7837" stroke="url(#paint12_linear)" stroke-opacity="0.75"/>
<path d="M41.4978 22.0073V22.3986L41.4978 24.7506L41.4978 31.9067L41.4978 42.5039C41.4963 42.5062 41.4939 42.5094 41.4902 42.513C41.4877 42.5155 41.4851 42.5176 41.4827 42.5193L24.0449 42.5159L6.5416 42.5124C6.52409 42.5124 6.51306 42.5101 6.5075 42.5084C6.50498 42.5013 6.5 42.4832 6.5 42.4501V42.4479V42.4453V42.4424V42.4392V42.4357V42.4319V42.4278V42.4234V42.4188V42.4138V42.4085V42.4029V42.3971V42.3909V42.3845V42.3777V42.3707V42.3634V42.3558V42.348V42.3398V42.3314V42.3227V42.3137V42.3044V42.2949V42.285V42.2749V42.2646V42.2539V42.243V42.2318V42.2204V42.2087V42.1967V42.1844V42.1719V42.1592V42.1461V42.1329V42.1193V42.1055V42.0914V42.0771V42.0626V42.0478V42.0327V42.0174V42.0018V41.986V41.9699V41.9536V41.9371V41.9203V41.9033V41.886V41.8685V41.8507V41.8327V41.8145V41.7961V41.7774V41.7585V41.7393V41.7199V41.7003V41.6805V41.6605V41.6402V41.6197V41.599V41.578V41.5568V41.5355V41.5139V41.4921V41.47V41.4478V41.4253V41.4027V41.3798V41.3567V41.3334V41.3099V41.2862V41.2623V41.2382V41.2139V41.1894V41.1647V41.1398V41.1147V41.0894V41.0639V41.0382V41.0124V40.9863V40.9601V40.9336V40.907V40.8802V40.8532V40.826V40.7987V40.7711V40.7434V40.7155V40.6875V40.6592V40.6308V40.6022V40.5734V40.5445V40.5154V40.4861V40.4567V40.4271V40.3973V40.3674V40.3373V40.307V40.2766V40.246V40.2153V40.1844V40.1533V40.1221V40.0908V40.0593V40.0276V39.9958V39.9639V39.9318V39.8996V39.8672V39.8346V39.802V39.7692V39.7362V39.7031V39.6699V39.6366V39.6031V39.5694V39.5357V39.5018V39.4678V39.4336V39.3994V39.365V39.3304V39.2958V39.261V39.2261V39.1911V39.156V39.1208V39.0854V39.0499V39.0143V38.9786V38.9428V38.9069V38.8709V38.8347V38.7985V38.7621V38.7257V38.6891V38.6525V38.6157V38.5789V38.5419V38.5048V38.4677V38.4305V38.3931V38.3557V38.3182V38.2806V38.2429V38.2051V38.1672V38.1293V38.0913V38.0531V38.0149V37.9767V37.9383V37.8999V37.8614V37.8228V37.7841V37.7454V37.7066V37.6677V37.6288V37.5898V37.5507V37.5116V37.4724V37.4331V37.3938V37.3544V37.315V37.2755V37.2359V37.1963V37.1566V37.1169V37.0771V37.0373V36.9974V36.9575V36.9175V36.8775V36.8375V36.7974V36.7572V36.717V36.6768V36.6366V36.5963V36.5559V36.5156V36.4752V36.4347V36.3943V36.3538V36.3132V36.2727V36.2321V36.1915V36.1509V36.1102V36.0696V36.0289V35.9882V35.9474V35.9067V35.8659V35.8252V35.7844V35.7436V35.7028V35.6619V35.6211V35.5803V35.5395V35.4986V35.4578V35.4169V35.3761V35.3352V35.2944V35.2535V35.2127V35.1719V35.131V35.0902V35.0494V35.0086V34.9678V34.927V34.8863V34.8455V34.8048V34.7641V34.7234V34.6827V34.6421V34.6014V34.5608V34.5203V34.4797V34.4392V34.3987V34.3582V34.3178V34.2774V34.237V34.1966V34.1563V34.1161V34.0758V34.0356V33.9955V33.9554V33.9153V33.8753V33.8353V33.7954V33.7555V33.7157V33.6759V33.6362V33.5965V33.5569V33.5173V33.4778V33.4383V33.3989V33.3596V33.3203V33.2811V33.242V33.2029V33.1639V33.1249V33.086V33.0472V33.0085V32.9698V32.9312V32.8927V32.8543V32.8159V32.7776V32.7394V32.7013V32.6632V32.6253V32.5874V32.5496V32.5119V32.4743V32.4367V32.3993V32.3619V32.3247V32.2875V32.2504V32.2135V32.1766V32.1398V32.1032V32.0666V32.0301V31.9937V31.9575V31.9213V31.8853V31.8493V31.8135V31.7778V31.7422V31.7067V31.6713V31.636V31.6009V31.5659V31.531V31.4962V31.4615V31.427V31.3925V31.3582V31.3241V31.29V31.2561V31.2224V31.1887V31.1552V31.1218V31.0886V31.0555V31.0225V30.9897V30.957V30.9244V30.892V30.8597V30.8276V30.7956V30.7638V30.7321V30.7006V30.6692V30.638V30.6069V30.576V30.5453V30.5147V30.4842V30.4539V30.4238V30.3938V30.364V30.3344V30.3049V30.2756V30.2465V30.2175V30.1888V30.1601V30.1317V30.1034V30.0753V30.0474V30.0196V29.9921V29.9647V29.9375V29.9104V29.8836V29.857V29.8305V29.8042V29.7781V29.7522V29.7265V29.701V29.6757V29.6505V29.6256V29.6009V29.5763V29.552V29.5278V29.5039V29.4802V29.4566V29.4333V29.4102V29.3873V29.3646V29.3421V29.3198V29.2978V29.2759V29.2543V29.2329V29.2117V29.1907V29.1699V29.1494V29.1291V29.109V29.0891V29.0695V29.05V29.0309V29.0119V28.9932V28.9747V28.9564V28.9384V28.9206V28.9031V28.8858V28.8687V28.8519V28.8353V28.8287H18.8178C18.955 28.8287 19.0862 28.7723 19.1806 28.6728L25.5016 22.0073H41.4978Z" fill="url(#paint13_linear)" stroke="#5B5B5B" stroke-linecap="round" stroke-linejoin="round"/>
<path d="M7.99268 30.7125H7.49268V31.2125V40.9789V41.4789H7.99268H39.9927H40.4927V40.9789V31.2125V30.7125H39.9927H7.99268Z" fill="#EEEEEE" stroke="black"/>
<g filter="url(#filter3_d)">
<line x1="12.1826" y1="40.9795" x2="12.1826" y2="33.3383" stroke="black" stroke-opacity="0.75"/>
</g>
<g filter="url(#filter4_d)">
<line x1="17.0591" y1="40.9795" x2="17.0591" y2="32.2022" stroke="black" stroke-opacity="0.75"/>
</g>
<line x1="21.71" y1="40.9795" x2="21.71" y2="31.2131" stroke="black" stroke-opacity="0.75"/>
<g filter="url(#filter5_d)">
<line x1="26.1328" y1="40.9795" x2="26.1328" y2="37.6379" stroke="black" stroke-opacity="0.75"/>
</g>
<g filter="url(#filter6_d)">
<line x1="30.897" y1="40.9795" x2="30.897" y2="36.5056" stroke="black" stroke-opacity="0.75"/>
</g>
<g filter="url(#filter7_d)">
<line x1="35.5471" y1="40.9795" x2="35.5471" y2="32.4736" stroke="black" stroke-opacity="0.75"/>
</g>
<g filter="url(#filter8_i)">
<path d="M10.4351 30.8212H13.3499V36.7017C13.3499 37.0331 13.0813 37.3017 12.7499 37.3017H11.0351C10.7037 37.3017 10.4351 37.0331 10.4351 36.7017V30.8212Z" fill="#222222"/>
</g>
<path d="M10.4351 30.8212H13.3499V36.7017C13.3499 37.0331 13.0813 37.3017 12.7499 37.3017H11.0351C10.7037 37.3017 10.4351 37.0331 10.4351 36.7017V30.8212Z" stroke="black" stroke-opacity="0.75"/>
<g filter="url(#filter9_i)">
<path d="M15.9885 30.8346H18.9034V36.3152C18.9034 36.8674 18.4556 37.3152 17.9034 37.3152H16.9885C16.4362 37.3152 15.9885 36.8674 15.9885 36.3152V30.8346Z" fill="#222222"/>
</g>
<path d="M15.9885 30.8346H18.9034V36.3152C18.9034 36.8674 18.4556 37.3152 17.9034 37.3152H16.9885C16.4362 37.3152 15.9885 36.8674 15.9885 36.3152V30.8346Z" stroke="black" stroke-opacity="0.75"/>
<g filter="url(#filter10_i)">
<path d="M24.4937 30.8346H27.4085V36.3152C27.4085 36.8674 26.9608 37.3152 26.4085 37.3152H25.4937C24.9414 37.3152 24.4937 36.8674 24.4937 36.3152V30.8346Z" fill="#222222"/>
</g>
<path d="M24.4937 30.8346H27.4085V36.3152C27.4085 36.8674 26.9608 37.3152 26.4085 37.3152H25.4937C24.9414 37.3152 24.4937 36.8674 24.4937 36.3152V30.8346Z" stroke="black" stroke-opacity="0.75"/>
<g filter="url(#filter11_i)">
<path d="M29.3633 30.8346H32.2781V36.3152C32.2781 36.8674 31.8304 37.3152 31.2781 37.3152H30.3633C29.811 37.3152 29.3633 36.8674 29.3633 36.3152V30.8346Z" fill="#222222"/>
</g>
<path d="M29.3633 30.8346H32.2781V36.3152C32.2781 36.8674 31.8304 37.3152 31.2781 37.3152H30.3633C29.811 37.3152 29.3633 36.8674 29.3633 36.3152V30.8346Z" stroke="black" stroke-opacity="0.75"/>
<g filter="url(#filter12_i)">
<path d="M34.5901 30.8346H37.5049V36.2731C37.5049 36.8254 37.0572 37.2731 36.5049 37.2731H35.5901C35.0378 37.2731 34.5901 36.8254 34.5901 36.2731V30.8346Z" fill="#222222"/>
</g>
<path d="M34.5901 30.8346H37.5049V36.2731C37.5049 36.8254 37.0572 37.2731 36.5049 37.2731H35.5901C35.0378 37.2731 34.5901 36.8254 34.5901 36.2731V30.8346Z" stroke="black" stroke-opacity="0.75"/>
<g filter="url(#filter13_d)">
<path d="M6.53198 28.0034L18.8535 28.1421L25.3952 21.2948H41.4787" stroke="black" stroke-opacity="0.5" stroke-linecap="square" stroke-linejoin="round"/>
</g>
<g filter="url(#filter14_dd)">
<circle cx="29.6549" cy="26.0549" r="2.08729" fill="url(#paint14_radial)"/>
<circle cx="29.6549" cy="26.0549" r="1.58729" stroke="black" stroke-opacity="0.25"/>
</g>
<line x1="31.1418" y1="25.3522" x2="30.3859" y2="25.847" stroke="white" stroke-opacity="0.15"/>
<g filter="url(#filter15_dd)">
<circle cx="36.8849" cy="26.0549" r="2.08729" fill="url(#paint15_radial)"/>
<circle cx="36.8849" cy="26.0549" r="1.58729" stroke="black" stroke-opacity="0.25"/>
</g>
<line y1="-0.5" x2="0.90339" y2="-0.5" transform="matrix(-0.836688 0.547681 -0.547679 -0.836689 38.2043 24.9339)" stroke="white" stroke-opacity="0.15"/>
<path d="M41.5263 6.99551H6.50924C6.21875 6.99551 6.00879 7.23047 6.00879 7.47656L6.0088 12.0071H41.9953V7.47078C41.9953 7.23047 41.7773 6.99551 41.5263 6.99551Z" fill="white" fill-opacity="0.15"/>
<g filter="url(#filter16_ii)">
<rect x="15.9885" y="32.8687" width="25.9874" height="10.1506" rx="1.5" fill="#0062BC"/>
</g>
<rect x="16.4885" y="33.3687" width="24.9874" height="9.15062" rx="1" stroke="black" stroke-opacity="0.75"/>
<g filter="url(#filter17_d)">
<path d="M22.3637 39.0161H20.5766L20.1753 40.1294H19.5952L21.2241 35.8637H21.7163L23.3481 40.1294H22.771L22.3637 39.0161ZM20.7465 38.5532H22.1967L21.4702 36.5581L20.7465 38.5532ZM24.4878 39.6694H26.5092V40.1294H23.9223V35.8637H24.4878V39.6694ZM27.7133 38.4594V40.1294H27.1508V35.8637H28.7241C29.1909 35.8637 29.5561 35.9829 29.8198 36.2212C30.0854 36.4594 30.2182 36.7749 30.2182 37.1674C30.2182 37.5815 30.0883 37.9008 29.8286 38.1255C29.5708 38.3481 29.2007 38.4594 28.7182 38.4594H27.7133ZM27.7133 37.9995H28.7241C29.0249 37.9995 29.2553 37.9292 29.4155 37.7885C29.5757 37.646 29.6557 37.4409 29.6557 37.1733C29.6557 36.9194 29.5757 36.7163 29.4155 36.5639C29.2553 36.4116 29.0356 36.3325 28.7563 36.3266H27.7133V37.9995ZM34.2143 40.1294H33.6489V38.1577H31.4985V40.1294H30.936V35.8637H31.4985V37.6977H33.6489V35.8637H34.2143V40.1294ZM37.6215 39.0161H35.8344L35.4331 40.1294H34.853L36.4819 35.8637H36.9741L38.6059 40.1294H38.0288L37.6215 39.0161ZM36.0044 38.5532H37.4546L36.728 36.5581L36.0044 38.5532Z" fill="white"/>
</g>
<defs>
<filter id="filter0_dd" x="4.79883" y="8.73967" width="24.9737" height="25.9737" filterUnits="userSpaceOnUse" color-interpolation-filters="sRGB">
<feFlood flood-opacity="0" result="BackgroundImageFix"/>
<feColorMatrix in="SourceAlpha" type="matrix" values="0 0 0 0 0 0 0 0 0 0 0 0 0 0 0 0 0 0 127 0"/>
<feMorphology radius="1" operator="dilate" in="SourceAlpha" result="effect1_dropShadow"/>
<feOffset/>
<feColorMatrix type="matrix" values="0 0 0 0 0 0 0 0 0 0 0 0 0 0 0 0 0 0 0.15 0"/>
<feBlend mode="normal" in2="BackgroundImageFix" result="effect1_dropShadow"/>
<feColorMatrix in="SourceAlpha" type="matrix" values="0 0 0 0 0 0 0 0 0 0 0 0 0 0 0 0 0 0 127 0"/>
<feOffset dy="4"/>
<feGaussianBlur stdDeviation="2"/>
<feColorMatrix type="matrix" values="0 0 0 0 0 0 0 0 0 0 0 0 0 0 0 0 0 0 0.25 0"/>
<feBlend mode="normal" in2="effect1_dropShadow" result="effect2_dropShadow"/>
<feBlend mode="normal" in="SourceGraphic" in2="effect2_dropShadow" result="shape"/>
</filter>
<filter id="filter1_d" x="13.9138" y="14.8543" width="6.74436" height="6.74436" filterUnits="userSpaceOnUse" color-interpolation-filters="sRGB">
<feFlood flood-opacity="0" result="BackgroundImageFix"/>
<feColorMatrix in="SourceAlpha" type="matrix" values="0 0 0 0 0 0 0 0 0 0 0 0 0 0 0 0 0 0 127 0"/>
<feMorphology radius="1" operator="dilate" in="SourceAlpha" result="effect1_dropShadow"/>
<feOffset/>
<feColorMatrix type="matrix" values="0 0 0 0 0 0 0 0 0 0 0 0 0 0 0 0 0 0 0.25 0"/>
<feBlend mode="normal" in2="BackgroundImageFix" result="effect1_dropShadow"/>
<feBlend mode="normal" in="SourceGraphic" in2="effect1_dropShadow" result="shape"/>
</filter>
<filter id="filter2_d" x="29.5247" y="9.03616" width="10.5461" height="10.5461" filterUnits="userSpaceOnUse" color-interpolation-filters="sRGB">
<feFlood flood-opacity="0" result="BackgroundImageFix"/>
<feColorMatrix in="SourceAlpha" type="matrix" values="0 0 0 0 0 0 0 0 0 0 0 0 0 0 0 0 0 0 127 0"/>
<feMorphology radius="1" operator="dilate" in="SourceAlpha" result="effect1_dropShadow"/>
<feOffset/>
<feColorMatrix type="matrix" values="0 0 0 0 0 0 0 0 0 0 0 0 0 0 0 0 0 0 0.15 0"/>
<feBlend mode="normal" in2="BackgroundImageFix" result="effect1_dropShadow"/>
<feBlend mode="normal" in="SourceGraphic" in2="effect1_dropShadow" result="shape"/>
</filter>
<filter id="filter3_d" x="11.6826" y="32.3383" width="2" height="8.64125" filterUnits="userSpaceOnUse" color-interpolation-filters="sRGB">
<feFlood flood-opacity="0" result="BackgroundImageFix"/>
<feColorMatrix in="SourceAlpha" type="matrix" values="0 0 0 0 0 0 0 0 0 0 0 0 0 0 0 0 0 0 127 0"/>
<feOffset dx="1" dy="-1"/>
<feColorMatrix type="matrix" values="0 0 0 0 1 0 0 0 0 1 0 0 0 0 1 0 0 0 1 0"/>
<feBlend mode="normal" in2="BackgroundImageFix" result="effect1_dropShadow"/>
<feBlend mode="normal" in="SourceGraphic" in2="effect1_dropShadow" result="shape"/>
</filter>
<filter id="filter4_d" x="16.5591" y="31.2022" width="2" height="9.7773" filterUnits="userSpaceOnUse" color-interpolation-filters="sRGB">
<feFlood flood-opacity="0" result="BackgroundImageFix"/>
<feColorMatrix in="SourceAlpha" type="matrix" values="0 0 0 0 0 0 0 0 0 0 0 0 0 0 0 0 0 0 127 0"/>
<feOffset dx="1" dy="-1"/>
<feColorMatrix type="matrix" values="0 0 0 0 1 0 0 0 0 1 0 0 0 0 1 0 0 0 1 0"/>
<feBlend mode="normal" in2="BackgroundImageFix" result="effect1_dropShadow"/>
<feBlend mode="normal" in="SourceGraphic" in2="effect1_dropShadow" result="shape"/>
</filter>
<filter id="filter5_d" x="25.6328" y="36.6379" width="2" height="4.34161" filterUnits="userSpaceOnUse" color-interpolation-filters="sRGB">
<feFlood flood-opacity="0" result="BackgroundImageFix"/>
<feColorMatrix in="SourceAlpha" type="matrix" values="0 0 0 0 0 0 0 0 0 0 0 0 0 0 0 0 0 0 127 0"/>
<feOffset dx="1" dy="-1"/>
<feColorMatrix type="matrix" values="0 0 0 0 1 0 0 0 0 1 0 0 0 0 1 0 0 0 1 0"/>
<feBlend mode="normal" in2="BackgroundImageFix" result="effect1_dropShadow"/>
<feBlend mode="normal" in="SourceGraphic" in2="effect1_dropShadow" result="shape"/>
</filter>
<filter id="filter6_d" x="30.397" y="35.5056" width="2" height="5.4739" filterUnits="userSpaceOnUse" color-interpolation-filters="sRGB">
<feFlood flood-opacity="0" result="BackgroundImageFix"/>
<feColorMatrix in="SourceAlpha" type="matrix" values="0 0 0 0 0 0 0 0 0 0 0 0 0 0 0 0 0 0 127 0"/>
<feOffset dx="1" dy="-1"/>
<feColorMatrix type="matrix" values="0 0 0 0 1 0 0 0 0 1 0 0 0 0 1 0 0 0 1 0"/>
<feBlend mode="normal" in2="BackgroundImageFix" result="effect1_dropShadow"/>
<feBlend mode="normal" in="SourceGraphic" in2="effect1_dropShadow" result="shape"/>
</filter>
<filter id="filter7_d" x="35.0471" y="31.4736" width="2" height="9.50593" filterUnits="userSpaceOnUse" color-interpolation-filters="sRGB">
<feFlood flood-opacity="0" result="BackgroundImageFix"/>
<feColorMatrix in="SourceAlpha" type="matrix" values="0 0 0 0 0 0 0 0 0 0 0 0 0 0 0 0 0 0 127 0"/>
<feOffset dx="1" dy="-1"/>
<feColorMatrix type="matrix" values="0 0 0 0 1 0 0 0 0 1 0 0 0 0 1 0 0 0 1 0"/>
<feBlend mode="normal" in2="BackgroundImageFix" result="effect1_dropShadow"/>
<feBlend mode="normal" in="SourceGraphic" in2="effect1_dropShadow" result="shape"/>
</filter>
<filter id="filter8_i" x="9.93506" y="30.3212" width="3.91484" height="7.48052" filterUnits="userSpaceOnUse" color-interpolation-filters="sRGB">
<feFlood flood-opacity="0" result="BackgroundImageFix"/>
<feBlend mode="normal" in="SourceGraphic" in2="BackgroundImageFix" result="shape"/>
<feColorMatrix in="SourceAlpha" type="matrix" values="0 0 0 0 0 0 0 0 0 0 0 0 0 0 0 0 0 0 127 0" result="hardAlpha"/>
<feOffset dy="-4"/>
<feComposite in2="hardAlpha" operator="arithmetic" k2="-1" k3="1"/>
<feColorMatrix type="matrix" values="0 0 0 0 1 0 0 0 0 1 0 0 0 0 1 0 0 0 0.25 0"/>
<feBlend mode="normal" in2="shape" result="effect1_innerShadow"/>
</filter>
<filter id="filter9_i" x="15.4885" y="30.3346" width="3.91484" height="7.48052" filterUnits="userSpaceOnUse" color-interpolation-filters="sRGB">
<feFlood flood-opacity="0" result="BackgroundImageFix"/>
<feBlend mode="normal" in="SourceGraphic" in2="BackgroundImageFix" result="shape"/>
<feColorMatrix in="SourceAlpha" type="matrix" values="0 0 0 0 0 0 0 0 0 0 0 0 0 0 0 0 0 0 127 0" result="hardAlpha"/>
<feOffset dy="-4"/>
<feComposite in2="hardAlpha" operator="arithmetic" k2="-1" k3="1"/>
<feColorMatrix type="matrix" values="0 0 0 0 1 0 0 0 0 1 0 0 0 0 1 0 0 0 0.25 0"/>
<feBlend mode="normal" in2="shape" result="effect1_innerShadow"/>
</filter>
<filter id="filter10_i" x="23.9937" y="30.3346" width="3.91484" height="7.48052" filterUnits="userSpaceOnUse" color-interpolation-filters="sRGB">
<feFlood flood-opacity="0" result="BackgroundImageFix"/>
<feBlend mode="normal" in="SourceGraphic" in2="BackgroundImageFix" result="shape"/>
<feColorMatrix in="SourceAlpha" type="matrix" values="0 0 0 0 0 0 0 0 0 0 0 0 0 0 0 0 0 0 127 0" result="hardAlpha"/>
<feOffset dy="-4"/>
<feComposite in2="hardAlpha" operator="arithmetic" k2="-1" k3="1"/>
<feColorMatrix type="matrix" values="0 0 0 0 1 0 0 0 0 1 0 0 0 0 1 0 0 0 0.25 0"/>
<feBlend mode="normal" in2="shape" result="effect1_innerShadow"/>
</filter>
<filter id="filter11_i" x="28.8633" y="30.3346" width="3.91484" height="7.48052" filterUnits="userSpaceOnUse" color-interpolation-filters="sRGB">
<feFlood flood-opacity="0" result="BackgroundImageFix"/>
<feBlend mode="normal" in="SourceGraphic" in2="BackgroundImageFix" result="shape"/>
<feColorMatrix in="SourceAlpha" type="matrix" values="0 0 0 0 0 0 0 0 0 0 0 0 0 0 0 0 0 0 127 0" result="hardAlpha"/>
<feOffset dy="-4"/>
<feComposite in2="hardAlpha" operator="arithmetic" k2="-1" k3="1"/>
<feColorMatrix type="matrix" values="0 0 0 0 1 0 0 0 0 1 0 0 0 0 1 0 0 0 0.25 0"/>
<feBlend mode="normal" in2="shape" result="effect1_innerShadow"/>
</filter>
<filter id="filter12_i" x="34.0901" y="30.3346" width="3.91484" height="7.43845" filterUnits="userSpaceOnUse" color-interpolation-filters="sRGB">
<feFlood flood-opacity="0" result="BackgroundImageFix"/>
<feBlend mode="normal" in="SourceGraphic" in2="BackgroundImageFix" result="shape"/>
<feColorMatrix in="SourceAlpha" type="matrix" values="0 0 0 0 0 0 0 0 0 0 0 0 0 0 0 0 0 0 127 0" result="hardAlpha"/>
<feOffset dy="-4"/>
<feComposite in2="hardAlpha" operator="arithmetic" k2="-1" k3="1"/>
<feColorMatrix type="matrix" values="0 0 0 0 1 0 0 0 0 1 0 0 0 0 1 0 0 0 0.25 0"/>
<feBlend mode="normal" in2="shape" result="effect1_innerShadow"/>
</filter>
<filter id="filter13_d" x="6.02637" y="20.7948" width="35.9523" height="8.84735" filterUnits="userSpaceOnUse" color-interpolation-filters="sRGB">
<feFlood flood-opacity="0" result="BackgroundImageFix"/>
<feColorMatrix in="SourceAlpha" type="matrix" values="0 0 0 0 0 0 0 0 0 0 0 0 0 0 0 0 0 0 127 0"/>
<feOffset dy="1"/>
<feColorMatrix type="matrix" values="0 0 0 0 0.443137 0 0 0 0 0.439216 0 0 0 0 0.439216 0 0 0 1 0"/>
<feBlend mode="normal" in2="BackgroundImageFix" result="effect1_dropShadow"/>
<feBlend mode="normal" in="SourceGraphic" in2="effect1_dropShadow" result="shape"/>
</filter>
<filter id="filter14_dd" x="25.5676" y="21.9676" width="8.17457" height="9.17457" filterUnits="userSpaceOnUse" color-interpolation-filters="sRGB">
<feFlood flood-opacity="0" result="BackgroundImageFix"/>
<feColorMatrix in="SourceAlpha" type="matrix" values="0 0 0 0 0 0 0 0 0 0 0 0 0 0 0 0 0 0 127 0"/>
<feOffset dy="1"/>
<feGaussianBlur stdDeviation="1"/>
<feColorMatrix type="matrix" values="0 0 0 0 0 0 0 0 0 0 0 0 0 0 0 0 0 0 0.75 0"/>
<feBlend mode="normal" in2="BackgroundImageFix" result="effect1_dropShadow"/>
<feColorMatrix in="SourceAlpha" type="matrix" values="0 0 0 0 0 0 0 0 0 0 0 0 0 0 0 0 0 0 127 0"/>
<feOffset dy="-1"/>
<feGaussianBlur stdDeviation="0.5"/>
<feColorMatrix type="matrix" values="0 0 0 0 1 0 0 0 0 1 0 0 0 0 1 0 0 0 0.15 0"/>
<feBlend mode="normal" in2="effect1_dropShadow" result="effect2_dropShadow"/>
<feBlend mode="normal" in="SourceGraphic" in2="effect2_dropShadow" result="shape"/>
</filter>
<filter id="filter15_dd" x="32.7976" y="21.9676" width="8.17457" height="9.17457" filterUnits="userSpaceOnUse" color-interpolation-filters="sRGB">
<feFlood flood-opacity="0" result="BackgroundImageFix"/>
<feColorMatrix in="SourceAlpha" type="matrix" values="0 0 0 0 0 0 0 0 0 0 0 0 0 0 0 0 0 0 127 0"/>
<feOffset dy="1"/>
<feGaussianBlur stdDeviation="1"/>
<feColorMatrix type="matrix" values="0 0 0 0 0 0 0 0 0 0 0 0 0 0 0 0 0 0 0.75 0"/>
<feBlend mode="normal" in2="BackgroundImageFix" result="effect1_dropShadow"/>
<feColorMatrix in="SourceAlpha" type="matrix" values="0 0 0 0 0 0 0 0 0 0 0 0 0 0 0 0 0 0 127 0"/>
<feOffset dy="-1"/>
<feGaussianBlur stdDeviation="0.5"/>
<feColorMatrix type="matrix" values="0 0 0 0 1 0 0 0 0 1 0 0 0 0 1 0 0 0 0.15 0"/>
<feBlend mode="normal" in2="effect1_dropShadow" result="effect2_dropShadow"/>
<feBlend mode="normal" in="SourceGraphic" in2="effect2_dropShadow" result="shape"/>
</filter>
<filter id="filter16_ii" x="15.9885" y="32.8687" width="25.9874" height="10.1506" filterUnits="userSpaceOnUse" color-interpolation-filters="sRGB">
<feFlood flood-opacity="0" result="BackgroundImageFix"/>
<feBlend mode="normal" in="SourceGraphic" in2="BackgroundImageFix" result="shape"/>
<feColorMatrix in="SourceAlpha" type="matrix" values="0 0 0 0 0 0 0 0 0 0 0 0 0 0 0 0 0 0 127 0" result="hardAlpha"/>
<feOffset dy="2"/>
<feComposite in2="hardAlpha" operator="arithmetic" k2="-1" k3="1"/>
<feColorMatrix type="matrix" values="0 0 0 0 1 0 0 0 0 1 0 0 0 0 1 0 0 0 0.25 0"/>
<feBlend mode="normal" in2="shape" result="effect1_innerShadow"/>
<feColorMatrix in="SourceAlpha" type="matrix" values="0 0 0 0 0 0 0 0 0 0 0 0 0 0 0 0 0 0 127 0" result="hardAlpha"/>
<feOffset dy="-2"/>
<feComposite in2="hardAlpha" operator="arithmetic" k2="-1" k3="1"/>
<feColorMatrix type="matrix" values="0 0 0 0 0 0 0 0 0 0 0 0 0 0 0 0 0 0 0.25 0"/>
<feBlend mode="normal" in2="effect1_innerShadow" result="effect2_innerShadow"/>
</filter>
<filter id="filter17_d" x="19.5952" y="35.8637" width="19.0107" height="4.76562" filterUnits="userSpaceOnUse" color-interpolation-filters="sRGB">
<feFlood flood-opacity="0" result="BackgroundImageFix"/>
<feColorMatrix in="SourceAlpha" type="matrix" values="0 0 0 0 0 0 0 0 0 0 0 0 0 0 0 0 0 0 127 0"/>
<feOffset dy="0.5"/>
<feColorMatrix type="matrix" values="0 0 0 0 0 0 0 0 0 0 0 0 0 0 0 0 0 0 0.3 0"/>
<feBlend mode="normal" in2="BackgroundImageFix" result="effect1_dropShadow"/>
<feBlend mode="normal" in="SourceGraphic" in2="effect1_dropShadow" result="shape"/>
</filter>
<radialGradient id="paint0_radial" cx="0" cy="0" r="1" gradientUnits="userSpaceOnUse" gradientTransform="translate(40.2023 44) scale(5.80043 2.25)">
<stop stop-color="#181818"/>
<stop offset="1" stop-color="#181818" stop-opacity="0"/>
</radialGradient>
<radialGradient id="paint1_radial" cx="0" cy="0" r="1" gradientUnits="userSpaceOnUse" gradientTransform="translate(7.79768 44) rotate(180) scale(5.80043 2.25)">
<stop stop-color="#181818"/>
<stop offset="1" stop-color="#181818" stop-opacity="0"/>
</radialGradient>
<linearGradient id="paint2_linear" x1="25.2252" y1="46.2678" x2="25.2252" y2="41.7496" gradientUnits="userSpaceOnUse">
<stop stop-color="#181818" stop-opacity="0"/>
<stop offset="0.5" stop-color="#181818"/>
<stop offset="1" stop-color="#181818" stop-opacity="0"/>
</linearGradient>
<linearGradient id="paint3_linear" x1="23.5728" y1="5.65423" x2="23.5728" y2="44.4724" gradientUnits="userSpaceOnUse">
<stop stop-color="#4D4D4D"/>
<stop offset="1" stop-color="#1A1A1A"/>
</linearGradient>
<linearGradient id="paint4_linear" x1="24" y1="5.99999" x2="24" y2="44" gradientUnits="userSpaceOnUse">
<stop stop-color="white"/>
<stop offset="0.0631645" stop-color="white" stop-opacity="0.12"/>
<stop offset="0.950563" stop-color="white" stop-opacity="0.12"/>
<stop offset="1" stop-color="white" stop-opacity="0.5"/>
</linearGradient>
<radialGradient id="paint5_radial" cx="0" cy="0" r="1" gradientUnits="userSpaceOnUse" gradientTransform="translate(17.2858 13.2084) rotate(90) scale(14.9338)">
<stop stop-color="#828282"/>
<stop offset="1" stop-color="#161616"/>
</radialGradient>
<radialGradient id="paint6_radial" cx="0" cy="0" r="1" gradientUnits="userSpaceOnUse" gradientTransform="translate(17.2857 11.9082) rotate(90) scale(13.7987)">
<stop stop-color="#A62100"/>
<stop offset="1" stop-color="#F37329"/>
</radialGradient>
<radialGradient id="paint7_radial" cx="0" cy="0" r="1" gradientUnits="userSpaceOnUse" gradientTransform="translate(17.286 16.9529) rotate(90) scale(3.64573)">
<stop stop-color="#B6B6B6"/>
<stop offset="1"/>
</radialGradient>
<linearGradient id="paint8_linear" x1="17.286" y1="15.8543" x2="17.286" y2="20.5987" gradientUnits="userSpaceOnUse">
<stop/>
<stop offset="1" stop-color="#626262"/>
</linearGradient>
<radialGradient id="paint9_radial" cx="0" cy="0" r="1" gradientUnits="userSpaceOnUse" gradientTransform="translate(34.7977 11.2736) rotate(90) scale(9.03402)">
<stop stop-color="#828282"/>
<stop offset="1" stop-color="#161616"/>
</radialGradient>
<radialGradient id="paint10_radial" cx="0" cy="0" r="1" gradientUnits="userSpaceOnUse" gradientTransform="translate(34.7977 11.128) rotate(90) scale(6.94754)">
<stop stop-color="#A62100"/>
<stop offset="1" stop-color="#F37329"/>
</radialGradient>
<radialGradient id="paint11_radial" cx="0" cy="0" r="1" gradientUnits="userSpaceOnUse" gradientTransform="translate(34.7976 13.0832) rotate(90) scale(3.50974)">
<stop stop-color="#B6B6B6"/>
<stop offset="1"/>
</radialGradient>
<linearGradient id="paint12_linear" x1="34.7976" y1="12.0255" x2="34.7976" y2="16.5929" gradientUnits="userSpaceOnUse">
<stop/>
<stop offset="1" stop-color="#626262"/>
</linearGradient>
<linearGradient id="paint13_linear" x1="23.9984" y1="21.5073" x2="23.9984" y2="42.9916" gradientUnits="userSpaceOnUse">
<stop stop-color="#4F4C4C"/>
<stop offset="1" stop-color="#262626"/>
</linearGradient>
<radialGradient id="paint14_radial" cx="0" cy="0" r="1" gradientUnits="userSpaceOnUse" gradientTransform="translate(29.6549 25.0462) rotate(90) scale(3.09593)">
<stop stop-color="#2B2B2B"/>
<stop offset="1" stop-color="#4F4F4F"/>
</radialGradient>
<radialGradient id="paint15_radial" cx="0" cy="0" r="1" gradientUnits="userSpaceOnUse" gradientTransform="translate(36.8849 25.0462) rotate(90) scale(3.09593)">
<stop stop-color="#2B2B2B"/>
<stop offset="1" stop-color="#4F4F4F"/>
</radialGradient>
</defs>
</svg>
