<svg width="16" height="16" viewBox="0 0 16 16" fill="none" xmlns="http://www.w3.org/2000/svg">
<path fill-rule="evenodd" clip-rule="evenodd" d="M2 3C0.895431 3 0 3.89543 0 5V11C0 12.1046 0.895431 13 2 13H14C15.1046 13 16 12.1046 16 11V5C16 3.89543 15.1046 3 14 3H2ZM2 5V11H6.70376L6.14042 9.50118H3.60622V5H2ZM7.24661 11L5.0001 5.00001H6.65218L8.33756 9.50101L10.0211 5.00001H11.6771L9.42858 11H7.24661ZM13.6753 7.49081C14.0778 7.009 14.0965 6.31122 13.7846 5.81532C13.5427 5.43062 13.1689 5.00001 12.1945 5.00001L11.8586 5.89878H12.1685C13.0079 5.89878 13.0639 6.32487 13.0862 6.5109C13.1355 6.92248 12.654 7.26268 12.1234 7.63753C11.7999 7.86604 11.4582 8.10742 11.2075 8.38571C10.9472 8.67456 10.7916 8.968 10.5828 9.5H13.935V8.60137H12.334C12.4771 8.47368 12.6171 8.38178 12.7637 8.28552C13.0272 8.11247 13.3122 7.92533 13.6753 7.49081Z" fill="#555761"/>
</svg>
