<svg width="24" height="24" viewBox="0 0 24 24" fill="none" xmlns="http://www.w3.org/2000/svg">
<g opacity="0.4">
<path opacity="0.4" d="M22.5 21H19.7368V23.25H22.5V21Z" fill="url(#paint0_radial)"/>
<path opacity="0.4" d="M1.50003 23.25H4.26318V21H1.50003V23.25Z" fill="url(#paint1_radial)"/>
<path opacity="0.4" d="M19.7369 21H4.26318V23.25H19.7369V21Z" fill="url(#paint2_linear)"/>
</g>
<path d="M19.875 1.875H4.125C2.88236 1.875 1.875 2.88236 1.875 4.125V19.875C1.875 21.1176 2.88236 22.125 4.125 22.125H19.875C21.1176 22.125 22.125 21.1176 22.125 19.875V4.125C22.125 2.88236 21.1176 1.875 19.875 1.875Z" fill="url(#paint3_linear)"/>
<path opacity="0.35" d="M19.875 2.625H4.125C3.29657 2.625 2.625 3.29657 2.625 4.125V19.875C2.625 20.7034 3.29657 21.375 4.125 21.375H19.875C20.7034 21.375 21.375 20.7034 21.375 19.875V4.125C21.375 3.29657 20.7034 2.625 19.875 2.625Z" stroke="url(#paint4_linear)" stroke-linecap="round" stroke-linejoin="round"/>
<path opacity="0.5" d="M19.875 1.875H4.125C2.88236 1.875 1.875 2.88236 1.875 4.125V19.875C1.875 21.1176 2.88236 22.125 4.125 22.125H19.875C21.1176 22.125 22.125 21.1176 22.125 19.875V4.125C22.125 2.88236 21.1176 1.875 19.875 1.875Z" stroke="#273445" stroke-width="0.999998"/>
<circle cx="8.34016" cy="9.37266" r="4.21369" fill="url(#paint5_radial)"/>
<circle cx="8.34016" cy="9.37266" r="4.71369" stroke="black" stroke-opacity="0.75"/>
<g filter="url(#filter0_d)">
<circle cx="8.34015" cy="9.37281" r="3.60651" fill="url(#paint6_radial)"/>
</g>
<circle cx="8.34025" cy="9.37266" r="1.70988" fill="#1B1B1B"/>
<circle cx="17.0221" cy="7.66482" r="2.64779" fill="url(#paint7_radial)"/>
<circle cx="17.0221" cy="7.66482" r="3.14779" stroke="black" stroke-opacity="0.75"/>
<g filter="url(#filter1_d)">
<circle cx="17.0224" cy="7.66538" r="2.14176" fill="url(#paint8_radial)"/>
</g>
<circle cx="17.0223" cy="7.66539" r="1.00059" fill="#1B1B1B"/>
<path d="M20.365 10.8126V10.8224V10.8348V10.8474V10.8601V10.8729V10.8859V10.899V10.9122V10.9256V10.939V10.9526V10.9663V10.9802V10.9942V11.0083V11.0225V11.0368V11.0513V11.0658V11.0805V11.0953V11.1103V11.1253V11.1405V11.1558V11.1712V11.1867V11.2023V11.2181V11.2339V11.2499V11.266V11.2821V11.2984V11.3148V11.3314V11.348V11.3647V11.3815V11.3985V11.4155V11.4327V11.4499V11.4673V11.4847V11.5023V11.52V11.5377V11.5556V11.5736V11.5916V11.6098V11.628V11.6464V11.6648V11.6834V11.702V11.7207V11.7395V11.7585V11.7775V11.7965V11.8157V11.835V11.8544V11.8738V11.8934V11.913V11.9327V11.9525V11.9724V11.9923V12.0124V12.0325V12.0527V12.073V12.0934V12.1138V12.1343V12.1549V12.1756V12.1964V12.2172V12.2381V12.2591V12.2802V12.3013V12.3225V12.3438V12.3652V12.3866V12.4081V12.4296V12.4513V12.473V12.4947V12.5166V12.5385V12.5604V12.5825V12.6046V12.6267V12.6489V12.6712V12.6935V12.7159V12.7384V12.7609V12.7835V12.8061V12.8288V12.8516V12.8744V12.8972V12.9202V12.9431V12.9661V12.9892V13.0123V13.0355V13.0587V13.082V13.1053V13.1287V13.1521V13.1756V13.1991V13.2226V13.2462V13.2699V13.2936V13.3173V13.3411V13.3649V13.3887V13.4126V13.4366V13.4605V13.4845V13.5086V13.5327V13.5568V13.5809V13.6051V13.6293V13.6536V13.6779V13.7022V13.7265V13.7509V13.7753V13.7997V13.8242V13.8487V13.8732V13.8978V13.9223V13.9469V13.9715V13.9962V14.0208V14.0455V14.0702V14.095V14.1197V14.1445V14.1693V14.1941V14.2189V14.2437V14.2686V14.2934V14.3183V14.3432V14.3681V14.393V14.418V14.4429V14.4679V14.4928V14.5178V14.5428V14.5678V14.5927V14.6177V14.6427V14.6678V14.6928V14.7178V14.7428V14.7678V14.7929V14.8179V14.8429V14.8679V14.8929V14.918V14.943V14.968V14.993V15.018V15.043V15.068V15.093V15.1179V15.1429V15.1679V15.1928V15.2178V15.2427V15.2676V15.2925V15.3174V15.3423V15.3671V15.392V15.4168V15.4416V15.4664V15.4912V15.516V15.5407V15.5654V15.5901V15.6148V15.6395V15.6641V15.6887V15.7133V15.7379V15.7624V15.7869V15.8114V15.8358V15.8603V15.8847V15.909V15.9334V15.9577V15.982V16.0062V16.0304V16.0546V16.0787V16.1028V16.1269V16.1509V16.1749V16.1989V16.2228V16.2467V16.2706V16.2944V16.3181V16.3418V16.3655V16.3891V16.4127V16.4363V16.4598V16.4832V16.5066V16.53V16.5533V16.5765V16.5998V16.6229V16.646V16.6691V16.6921V16.715V16.7379V16.7608V16.7836V16.8063V16.829V16.8516V16.8742V16.8967V16.9191V16.9415V16.9638V16.9861V17.0083V17.0304V17.0525V17.0745V17.0965V17.1183V17.1401V17.1619V17.1836V17.2052V17.2267V17.2482V17.2696V17.2909V17.3122V17.3334V17.3545V17.3756V17.3965V17.4174V17.4382V17.459V17.4796V17.5002V17.5207V17.5412V17.5615V17.5818V17.602V17.6221V17.6421V17.662V17.6819V17.7017V17.7213V17.7409V17.7605V17.7799V17.7992V17.8185V17.8376V17.8567V17.8757V17.8946V17.9134V17.9321V17.9507V17.9692V17.9876V18.0059V18.0242V18.0423V18.0603V18.0783V18.0961V18.1138V18.1315V18.149V18.1664V18.1838V18.201V18.2181V18.2351V18.252V18.2688V18.2856V18.3021V18.3186V18.335V18.3513V18.3674V18.3835V18.3994V18.4152V18.4309V18.4465V18.462V18.4774V18.4926V18.5078V18.5228V18.5377V18.5525V18.5672V18.5817V18.5961V18.6104V18.6246V18.6387V18.6526V18.6664V18.6801V18.6937V18.7071V18.7204V18.7336V18.7466V18.7596V18.7724V18.785V18.7976V18.81V18.8223V18.8344V18.8464V18.8583V18.87V18.8816V18.8931V18.9044V18.9156V18.9267V18.9376V18.9483V18.959V18.9695V18.9798V18.99V19.0001V19.01V19.0198V19.0294V19.0389V19.0483V19.0575V19.0665V19.0754V19.0842V19.0928V19.1012V19.1095V19.1177V19.1257V19.1335V19.1412V19.1487V19.1561V19.1633V19.1704V19.1773V19.184V19.1906V19.197V19.2033V19.2094V19.2154V19.2211V19.2268V19.2322V19.2375V19.2426V19.2476C20.365 19.8564 19.914 20.3457 19.369 20.3457H19.3638H19.3582H19.3524H19.3463H19.34H19.3333H19.3264H19.3192H19.3118H19.304H19.296H19.2877H19.2791H19.2703H19.2612H19.2519H19.2422H19.2323H19.2222H19.2118H19.2011H19.1901H19.1789H19.1675H19.1558H19.1438H19.1316H19.1191H19.1064H19.0934H19.0802H19.0667H19.053H19.039H19.0248H19.0103H18.9956H18.9806H18.9654H18.95H18.8859H18.8693H18.8524H18.8354H18.818H18.8005H18.7827H18.7647H18.7465H18.7281H18.7094H18.6905H18.6714H18.652H18.6325H18.6127H18.5927H18.5725H18.552H18.5314H18.5105H18.4895H18.4682H18.4467H18.425H18.4031H18.381H18.3587H18.3361H18.3134H18.2905H18.2673H18.244H18.2205H18.1968H18.1728H18.1487H18.1244H18.0999H18.0752H18.0503H18.0252H18H17.9745H17.9489H17.923H17.897H17.8708H17.8445H17.8179H17.7912H17.7642H17.7372H17.7099H17.6824H17.6548H17.627H17.5991H17.5709H17.5426H17.5141H17.4855H17.4567H17.4277H17.3986H17.3693H17.3398H17.3102H17.2804H17.2505H17.2204H17.1901H17.1597H17.1292H17.0984H17.0676H17.0365H17.0054H16.9741H16.9426H16.911H16.8792H16.8473H16.8153H16.7831H16.7508H16.7183H16.6857H16.653H16.6201H16.5871H16.5539H16.5206H16.4872H16.4537H16.42H16.3862H16.3523H16.3182H16.284H16.2497H16.2153H16.1808H16.1461H16.1113H16.0764H16.0414H16.0062H15.971H15.9356H15.9001H15.8645H15.8288H15.793H15.7571H15.7211H15.6849H15.6487H15.6123H15.5759H15.5393H15.5027H15.4659H15.4291H15.3922H15.3551H15.318H15.2807H15.2434H15.206H15.1685H15.1309H15.0932H15.0555H15.0176H14.9797H14.9416H14.9035H14.8653H14.8271H14.7887H14.7503H14.7118H14.6732H14.6346H14.5958H14.557H14.5182H14.4792H14.4402H14.4011H14.362H14.3228H14.2835H14.2441H14.2047H14.1653H14.1257H14.0862H14.0465H14.0068H13.9671H13.9272H13.8874H13.8475H13.8075H13.7675H13.7274H13.6873H13.6471H13.6069H13.5667H13.5264H13.486H13.4456H13.4052H13.3647H13.3242H13.2837H13.2431H13.2025H13.1619H13.1212H13.0805H13.0398H12.999H12.9582H12.9174H12.8766H12.8357H12.7948H12.7539H12.7129H12.672H12.631H12.59H12.549H12.508H12.4669H12.4259H12.3848H12.3437H12.3026H12.2615H12.2204H12.1793H12.1382H12.0971H12.056H12.0148H11.9737H11.9326H11.8914H11.8503H11.8092H11.7681H11.7269H11.6858H11.6447H11.6037H11.5626H11.5215H11.4804H11.4394H11.3984H11.3574H11.3164H11.2754H11.2344H11.1935H11.1525H11.1116H11.0708H11.0299H10.9891H10.9483H10.9075H10.8668H10.8261H10.7854H10.7447H10.7041H10.6636H10.623H10.5825H10.542H10.5016H10.4612H10.4209H10.3805H10.3403H10.3001H10.2599H10.2198H10.1797H10.1396H10.0997H10.0597H10.0199H9.98003H9.94027H9.90055H9.86089H9.8213H9.78176H9.74228H9.70286H9.6635H9.62421H9.58498H9.54582H9.50672H9.46769H9.42874H9.38985H9.35103H9.31229H9.27361H9.23502H9.1965H9.15805H9.11969H9.0814H9.04319H9.00507H8.96703H8.92907H8.89119H8.8534H8.8157H8.77809H8.74056H8.70313H8.66579H8.62853H8.59138H8.55432H8.51735H8.48048H8.44371H8.40704H8.37046H8.33399H8.29763H8.26136H8.2252H8.18915H8.1532H8.11736H8.08164H8.04602H8.01051H7.97512H7.93983H7.90467H7.86962H7.83468H7.79987H7.76517H7.7306H7.69614H7.66181H7.62761H7.59352H7.55957H7.52574H7.49204H7.45846H7.42502H7.39171H7.35853H7.32549H7.29258H7.25981H7.22717H7.19468H7.16232H7.1301H7.09803H7.06609H7.0343H7.00266H6.97116H6.93981H6.90861H6.87755H6.84665H6.8159H6.7853H6.75486H6.72457H6.69443H6.66446H6.63464H6.60498H6.57548H6.54615H6.51697H6.48796H6.45912H6.43044H6.40193H6.37359H6.34541H6.31741H6.28958H6.26192H6.23444H6.20713H6.18H6.15304H6.12626H6.09967H6.07325H6.04702H6.02096H5.99509H5.96941H5.94392H5.91861H5.89348H5.86855H5.84381H5.81926H5.79491H5.77075H5.74678H5.72301H5.69944H5.67606H5.65289H5.62991H5.60714H5.58457H5.56221H5.54005H5.51809H5.49635H5.47481H5.45348H5.43236H5.41146H5.39076H5.37029H5.35002H5.32998H5.31015H5.29054H5.27115H5.25198H5.23303H5.2143H5.1958H5.17753H5.15948H5.14166H5.12406H5.1067H5.08957H5.07267H5.056H5.03957H5.02337H5.00741H4.99169H4.9762H4.96095H4.94595H4.93119H4.91667H4.90239H4.88837H4.87458H4.86105H4.84776H4.83472H4.82194H4.8094H4.79712H4.7851H4.77333H4.76181H4.75056H4.73956H4.72882H4.71834H4.70813H4.69818H4.68849H4.67907H4.66991H4.66103H4.65241H4.64406H4.63598H4.62818H4.62064H4.61339H4.6064H4.5997H4.59327H4.58712H4.58125H4.57566H4.57036H4.56534H4.5606H4.55615H4.55198C4.36275 20.3457 4.1256 20.2496 3.92915 20.0588C3.73587 19.8711 3.62451 19.6332 3.62451 19.4001V19.3955V19.3907V19.3859V19.381V19.3759V19.3708V19.3656V19.3603V19.3549V19.3494V19.3438V19.3381V19.3324V19.3265V19.3206V19.3145V19.3084V19.3022V19.2959V19.2895V19.283V19.2765V19.2698V19.2631V19.2563V19.2494V19.2424V19.2353V19.2281V19.2209V19.2136V19.2062V19.1987V19.1911V19.1835V19.1757V19.1679V19.16V19.152V19.144V19.1358V19.1276V19.1193V19.111V19.1025V19.094V19.0854V19.0767V19.068V19.0591V19.0502V19.0412V19.0322V19.0231V19.0139V19.0046V18.9952V18.9858V18.9763V18.9668V18.9571V18.9474V18.9377V18.9278V18.9179V18.9079V18.8979V18.8877V18.8776V18.8673V18.857V18.8466V18.8361V18.8256V18.815V18.8044V18.7937V18.7829V18.7721V18.7612V18.7502V18.7392V18.7281V18.7169V18.7057V18.6944V18.6831V18.6717V18.6602V18.6487V18.6371V18.6255V18.6138V18.6021V18.5903V18.5784V18.5665V18.5545V18.5425V18.5304V18.5183V18.5061V18.4938V18.4815V18.4692V18.4568V18.4443V18.4318V18.4192V18.4066V18.394V18.3812V18.3685V18.3557V18.3428V18.3299V18.3169V18.3039V18.2909V18.2778V18.2646V18.2514V18.2382V18.2249V18.2116V18.1982V18.1848V18.1713V18.1578V18.1443V18.1307V18.1171V18.1034V18.0897V18.0759V18.0621V18.0483V18.0344V18.0205V18.0066V17.9926V17.9785V17.9645V17.9504V17.9362V17.9221V17.9078V17.8936V17.8793V17.865V17.8506V17.8363V17.8218V17.8074V17.7929V17.7784V17.7638V17.7492V17.7346V17.72V17.7053V17.6906V17.6759V17.6611V17.6463V17.6315V17.6167V17.6018V17.5869V17.572V17.557V17.5421V17.527V17.512V17.497V17.4819V17.4668V17.4517V17.4365V17.4214V17.4062V17.391V17.3757V17.3605V17.3452V17.3299V17.3146V17.2992V17.2839V17.2685V17.2531V17.2377V17.2223V17.2069V17.1914V17.1759V17.1605V17.145V17.1294V17.1139V17.0984V17.0828V17.0672V17.0516V17.036V17.0204V17.0048V16.9892V16.9735V16.9579V16.9422V16.9266V16.9109V16.8952V16.8795V16.8638V16.8481V16.8324V16.8166V16.8009V16.7852V16.7694V16.7537V16.7379V16.7222V16.7064V16.6906V16.6749V16.6591V16.6433V16.6276V16.6118V16.596V16.5803V16.5645V16.5487V16.5329V16.5172V16.5014V16.4856V16.4699V16.4541V16.4383V16.4226V16.4068V16.3911V16.3753V16.3596V16.3439V16.3282V16.3124V16.2967V16.281V16.2653V16.2496V16.234V16.2183V16.2026V16.187V16.1713V16.1557V16.1401V16.1245V16.1089V16.0933V16.0777V16.0622V16.0466V16.0311V16.0156V16.0001V15.9846V15.9691V15.9537V15.9382V15.9228V15.9074V15.892V15.8766V15.8613V15.846V15.8306V15.8153V15.8001V15.7848V15.7696V15.7544V15.7392V15.724V15.7089V15.6938V15.6787V15.6636V15.6485V15.6335V15.6185V15.6035V15.5886V15.5737V15.5588V15.5439V15.529V15.5142V15.4994V15.4847V15.4699V15.4552V15.4406V15.4259V15.4113V15.3967V15.3822V15.3677V15.3532V15.3388V15.3243V15.31V15.2956V15.2813V15.267V15.2528V15.2385V15.2244V15.2102V15.1961V15.1821V15.168V15.1541V15.1401V15.1262V15.1123V15.0985V15.0847V15.0709V15.0572V15.0436V15.0299V15.0163V15.0028V14.9893V14.9758V14.9624V14.9491V14.9357V14.9224V14.9092V14.896V14.8829V14.8698V14.8567V14.8437V14.8308V14.8179V14.805V14.7922V14.7794V14.7667V14.7541V14.7415V14.7289V14.7164V14.7039V14.6915V14.6792V14.6669V14.6546V14.6425V14.6303V14.6182V14.6062V14.5942V14.5823V14.5705V14.5587V14.5469V14.5352V14.5236V14.512V14.5005V14.4891V14.4777V14.4663V14.4551V14.4439V14.4327V14.4216V14.4106V14.3996V14.3887V14.3779V14.3671V14.3564V14.3458V14.3352V14.3247V14.3142V14.3038V14.2935V14.2833V14.2731V14.263V14.2529V14.2429V14.233V14.2232V14.2134V14.2037V14.1941V14.1845V14.1751V14.1656V14.157H9.45246C9.58968 14.157 9.72087 14.1006 9.81528 14.001L12.8385 10.8126H20.365Z" fill="url(#paint9_linear)" stroke="#5B5B5B" stroke-linecap="round" stroke-linejoin="round"/>
<path d="M4.12646 15.5752H3.62646V16.0752V19.7481C3.62646 20.0795 3.89509 20.3481 4.22646 20.3481H19.7963C20.1277 20.3481 20.3963 20.0795 20.3963 19.7481V16.0752V15.5752H19.8963H4.12646Z" fill="#EEEEEE" stroke="#171717"/>
<g filter="url(#filter2_i)">
<rect x="5.34082" y="16.0752" width="1.43645" height="2.35288" fill="#222222"/>
</g>
<rect x="5.69993" y="16.4343" width="0.718226" height="1.63465" stroke="black" stroke-opacity="0.75" stroke-width="0.718226"/>
<g filter="url(#filter3_i)">
<rect x="8.07739" y="16.0804" width="1.43645" height="2.35288" fill="#222222"/>
</g>
<rect x="8.43651" y="16.4396" width="0.718226" height="1.63465" stroke="black" stroke-opacity="0.75" stroke-width="0.718226"/>
<g filter="url(#filter4_i)">
<path d="M12.2688 16.0804H13.7053V18.4333H12.2688V16.0804Z" fill="#222222"/>
</g>
<path d="M12.7688 16.5804H13.2053V17.9333H12.7688V16.5804Z" stroke="black" stroke-opacity="0.75" stroke-width="0.718226"/>
<g filter="url(#filter5_i)">
<rect x="14.6689" y="16.0804" width="1.43645" height="2.35288" fill="#222222"/>
</g>
<rect x="15.0281" y="16.4396" width="0.718227" height="1.63465" stroke="black" stroke-opacity="0.75" stroke-width="0.718227"/>
<g filter="url(#filter6_i)">
<rect x="17.2449" y="16.0804" width="1.43645" height="2.3376" fill="#222222"/>
</g>
<rect x="17.604" y="16.4396" width="0.718226" height="1.61937" stroke="black" stroke-opacity="0.75" stroke-width="0.718226"/>
<path d="M19.8654 3.00806H4.1615C3.40466 3.00806 3.01074 3.58871 3.01074 4.02746V5.49162H20.9916V4.0434C20.9916 3.67094 20.6289 3.00806 19.8654 3.00806Z" fill="white" fill-opacity="0.15"/>
<circle cx="14.3742" cy="13.2068" r="0.8" fill="#A9A9A9"/>
<circle cx="14.3742" cy="13.2068" r="1.3" stroke="black" stroke-opacity="0.15"/>
<circle cx="18.0549" cy="13.2068" r="0.8" fill="#A9A9A9"/>
<circle cx="18.0549" cy="13.2068" r="1.3" stroke="black" stroke-opacity="0.15"/>
<defs>
<filter id="filter0_d" x="3.73364" y="4.7663" width="9.21302" height="9.21302" filterUnits="userSpaceOnUse" color-interpolation-filters="sRGB">
<feFlood flood-opacity="0" result="BackgroundImageFix"/>
<feColorMatrix in="SourceAlpha" type="matrix" values="0 0 0 0 0 0 0 0 0 0 0 0 0 0 0 0 0 0 127 0"/>
<feMorphology radius="1" operator="dilate" in="SourceAlpha" result="effect1_dropShadow"/>
<feOffset/>
<feColorMatrix type="matrix" values="0 0 0 0 0 0 0 0 0 0 0 0 0 0 0 0 0 0 0.15 0"/>
<feBlend mode="normal" in2="BackgroundImageFix" result="effect1_dropShadow"/>
<feBlend mode="normal" in="SourceGraphic" in2="effect1_dropShadow" result="shape"/>
</filter>
<filter id="filter1_d" x="13.8806" y="4.52362" width="6.28352" height="6.28352" filterUnits="userSpaceOnUse" color-interpolation-filters="sRGB">
<feFlood flood-opacity="0" result="BackgroundImageFix"/>
<feColorMatrix in="SourceAlpha" type="matrix" values="0 0 0 0 0 0 0 0 0 0 0 0 0 0 0 0 0 0 127 0"/>
<feMorphology radius="1" operator="dilate" in="SourceAlpha" result="effect1_dropShadow"/>
<feOffset/>
<feColorMatrix type="matrix" values="0 0 0 0 0 0 0 0 0 0 0 0 0 0 0 0 0 0 0.15 0"/>
<feBlend mode="normal" in2="BackgroundImageFix" result="effect1_dropShadow"/>
<feBlend mode="normal" in="SourceGraphic" in2="effect1_dropShadow" result="shape"/>
</filter>
<filter id="filter2_i" x="5.34082" y="16.0752" width="1.43645" height="2.35288" filterUnits="userSpaceOnUse" color-interpolation-filters="sRGB">
<feFlood flood-opacity="0" result="BackgroundImageFix"/>
<feBlend mode="normal" in="SourceGraphic" in2="BackgroundImageFix" result="shape"/>
<feColorMatrix in="SourceAlpha" type="matrix" values="0 0 0 0 0 0 0 0 0 0 0 0 0 0 0 0 0 0 127 0" result="hardAlpha"/>
<feOffset dy="-1"/>
<feComposite in2="hardAlpha" operator="arithmetic" k2="-1" k3="1"/>
<feColorMatrix type="matrix" values="0 0 0 0 1 0 0 0 0 1 0 0 0 0 1 0 0 0 0.25 0"/>
<feBlend mode="normal" in2="shape" result="effect1_innerShadow"/>
</filter>
<filter id="filter3_i" x="8.07739" y="16.0804" width="1.43645" height="2.35288" filterUnits="userSpaceOnUse" color-interpolation-filters="sRGB">
<feFlood flood-opacity="0" result="BackgroundImageFix"/>
<feBlend mode="normal" in="SourceGraphic" in2="BackgroundImageFix" result="shape"/>
<feColorMatrix in="SourceAlpha" type="matrix" values="0 0 0 0 0 0 0 0 0 0 0 0 0 0 0 0 0 0 127 0" result="hardAlpha"/>
<feOffset dy="-1"/>
<feComposite in2="hardAlpha" operator="arithmetic" k2="-1" k3="1"/>
<feColorMatrix type="matrix" values="0 0 0 0 1 0 0 0 0 1 0 0 0 0 1 0 0 0 0.25 0"/>
<feBlend mode="normal" in2="shape" result="effect1_innerShadow"/>
</filter>
<filter id="filter4_i" x="12.2688" y="16.0804" width="1.43645" height="2.35288" filterUnits="userSpaceOnUse" color-interpolation-filters="sRGB">
<feFlood flood-opacity="0" result="BackgroundImageFix"/>
<feBlend mode="normal" in="SourceGraphic" in2="BackgroundImageFix" result="shape"/>
<feColorMatrix in="SourceAlpha" type="matrix" values="0 0 0 0 0 0 0 0 0 0 0 0 0 0 0 0 0 0 127 0" result="hardAlpha"/>
<feOffset dy="-1"/>
<feComposite in2="hardAlpha" operator="arithmetic" k2="-1" k3="1"/>
<feColorMatrix type="matrix" values="0 0 0 0 1 0 0 0 0 1 0 0 0 0 1 0 0 0 0.25 0"/>
<feBlend mode="normal" in2="shape" result="effect1_innerShadow"/>
</filter>
<filter id="filter5_i" x="14.6689" y="16.0804" width="1.43645" height="2.35288" filterUnits="userSpaceOnUse" color-interpolation-filters="sRGB">
<feFlood flood-opacity="0" result="BackgroundImageFix"/>
<feBlend mode="normal" in="SourceGraphic" in2="BackgroundImageFix" result="shape"/>
<feColorMatrix in="SourceAlpha" type="matrix" values="0 0 0 0 0 0 0 0 0 0 0 0 0 0 0 0 0 0 127 0" result="hardAlpha"/>
<feOffset dy="-1"/>
<feComposite in2="hardAlpha" operator="arithmetic" k2="-1" k3="1"/>
<feColorMatrix type="matrix" values="0 0 0 0 1 0 0 0 0 1 0 0 0 0 1 0 0 0 0.25 0"/>
<feBlend mode="normal" in2="shape" result="effect1_innerShadow"/>
</filter>
<filter id="filter6_i" x="17.2449" y="16.0804" width="1.43645" height="2.3376" filterUnits="userSpaceOnUse" color-interpolation-filters="sRGB">
<feFlood flood-opacity="0" result="BackgroundImageFix"/>
<feBlend mode="normal" in="SourceGraphic" in2="BackgroundImageFix" result="shape"/>
<feColorMatrix in="SourceAlpha" type="matrix" values="0 0 0 0 0 0 0 0 0 0 0 0 0 0 0 0 0 0 127 0" result="hardAlpha"/>
<feOffset dy="-1"/>
<feComposite in2="hardAlpha" operator="arithmetic" k2="-1" k3="1"/>
<feColorMatrix type="matrix" values="0 0 0 0 1 0 0 0 0 1 0 0 0 0 1 0 0 0 0.25 0"/>
<feBlend mode="normal" in2="shape" result="effect1_innerShadow"/>
</filter>
<radialGradient id="paint0_radial" cx="0" cy="0" r="1" gradientUnits="userSpaceOnUse" gradientTransform="translate(19.7329 22.125) scale(2.76838 1.125)">
<stop stop-color="#181818"/>
<stop offset="1" stop-color="#181818" stop-opacity="0"/>
</radialGradient>
<radialGradient id="paint1_radial" cx="0" cy="0" r="1" gradientUnits="userSpaceOnUse" gradientTransform="translate(4.26706 22.125) rotate(180) scale(2.76839 1.125)">
<stop stop-color="#181818"/>
<stop offset="1" stop-color="#181818" stop-opacity="0"/>
</radialGradient>
<linearGradient id="paint2_linear" x1="12.5848" y1="23.2589" x2="12.5848" y2="20.9998" gradientUnits="userSpaceOnUse">
<stop stop-color="#181818" stop-opacity="0"/>
<stop offset="0.5" stop-color="#181818"/>
<stop offset="1" stop-color="#181818" stop-opacity="0"/>
</linearGradient>
<linearGradient id="paint3_linear" x1="11.7782" y1="1.95508" x2="11.7782" y2="22.1107" gradientUnits="userSpaceOnUse">
<stop stop-color="#282828"/>
<stop offset="1" stop-color="#1A1A1A"/>
</linearGradient>
<linearGradient id="paint4_linear" x1="12" y1="3" x2="12" y2="21" gradientUnits="userSpaceOnUse">
<stop stop-color="white"/>
<stop offset="0.0416667" stop-color="white" stop-opacity="0.235294"/>
<stop offset="0.958333" stop-color="white" stop-opacity="0.156863"/>
<stop offset="1" stop-color="white" stop-opacity="0.392157"/>
</linearGradient>
<radialGradient id="paint5_radial" cx="0" cy="0" r="1" gradientUnits="userSpaceOnUse" gradientTransform="translate(8.34016 7.24019) rotate(90) scale(6.34616)">
<stop stop-color="#828282"/>
<stop offset="1" stop-color="#161616"/>
</radialGradient>
<radialGradient id="paint6_radial" cx="0" cy="0" r="1" gradientUnits="userSpaceOnUse" gradientTransform="translate(8.34015 6.68783) rotate(90) scale(5.86381)">
<stop stop-color="#A62100"/>
<stop offset="1" stop-color="#F37329"/>
</radialGradient>
<radialGradient id="paint7_radial" cx="0" cy="0" r="1" gradientUnits="userSpaceOnUse" gradientTransform="translate(17.0221 6.32483) rotate(90) scale(3.98779)">
<stop stop-color="#828282"/>
<stop offset="1" stop-color="#161616"/>
</radialGradient>
<radialGradient id="paint8_radial" cx="0" cy="0" r="1" gradientUnits="userSpaceOnUse" gradientTransform="translate(17.0224 6.07088) rotate(90) scale(3.48228)">
<stop stop-color="#A62100"/>
<stop offset="1" stop-color="#F37329"/>
</radialGradient>
<linearGradient id="paint9_linear" x1="11.9922" y1="10.3126" x2="11.9922" y2="20.8457" gradientUnits="userSpaceOnUse">
<stop stop-color="#4F4C4C"/>
<stop offset="1" stop-color="#262626"/>
</linearGradient>
</defs>
</svg>
