<svg width="128" height="128" viewBox="0 0 128 128" fill="none" xmlns="http://www.w3.org/2000/svg">
<path opacity="0.2" d="M119 118C118.998 119.591 113.202 121.117 102.888 122.242C92.5733 123.367 78.5853 123.999 64 123.999C49.4147 123.999 35.4267 123.367 25.1124 122.242C14.7982 121.117 9.00249 119.591 9 118C8.99877 117.212 10.4205 116.432 13.1839 115.704C15.9474 114.976 19.9985 114.314 25.1058 113.757C30.2132 113.199 36.2767 112.757 42.9502 112.456C49.6238 112.154 56.7765 111.999 64 111.999C71.2235 111.999 78.3762 112.154 85.0498 112.456C91.7233 112.757 97.7868 113.199 102.894 113.757C108.002 114.314 112.053 114.976 114.816 115.704C117.58 116.432 119.001 117.212 119 118Z" fill="url(#paint0_radial)"/>
<g opacity="0.4">
<path opacity="0.4" d="M118 116H103.79V121H118V116Z" fill="url(#paint1_radial)"/>
<path opacity="0.4" d="M9.99992 121H24.2104V116H9.99992V121Z" fill="url(#paint2_radial)"/>
<path opacity="0.4" d="M103.789 116H24.2104V121H103.789V116Z" fill="url(#paint3_linear)"/>
</g>
<path d="M105.5 15.5H22.5C16.9772 15.5 12.5 19.9772 12.5 25.5V108.5C12.5 114.023 16.9772 118.5 22.5 118.5H105.5C111.023 118.5 115.5 114.023 115.5 108.5V25.5C115.5 19.9772 111.023 15.5 105.5 15.5Z" fill="url(#paint4_linear)"/>
<path opacity="0.3" d="M105.5 16.5H22.5C17.5294 16.5 13.5 20.5294 13.5 25.5V108.5C13.5 113.471 17.5294 117.5 22.5 117.5H105.5C110.471 117.5 114.5 113.471 114.5 108.5V25.5C114.5 20.5294 110.471 16.5 105.5 16.5Z" stroke="url(#paint5_linear)" stroke-linecap="round" stroke-linejoin="round"/>
<path opacity="0.5" d="M105.5 15.5H22.5C16.9772 15.5 12.5 19.9772 12.5 25.5V108.5C12.5 114.023 16.9772 118.5 22.5 118.5H105.5C111.023 118.5 115.5 114.023 115.5 108.5V25.5C115.5 19.9772 111.023 15.5 105.5 15.5Z" stroke="#273445" stroke-linecap="round" stroke-linejoin="round"/>
<circle cx="46.5917" cy="49.7601" r="29.0414" fill="url(#paint6_radial)"/>
<circle cx="46.5917" cy="49.7601" r="29.5414" stroke="black" stroke-opacity="0.75"/>
<g filter="url(#filter0_di)">
<circle cx="46.5917" cy="49.7601" r="24.8566" fill="url(#paint7_radial)"/>
<circle cx="46.5917" cy="49.7601" r="23.8566" stroke="url(#paint8_linear)" stroke-opacity="0.15" stroke-width="2"/>
</g>
<g filter="url(#filter1_d)">
<circle cx="46.5918" cy="49.7601" r="6.94774" fill="url(#paint9_radial)"/>
<circle cx="46.5918" cy="49.7601" r="6.44774" stroke="url(#paint10_linear)" stroke-opacity="0.75"/>
</g>
<circle cx="93.268" cy="37.2021" r="18.249" fill="url(#paint11_radial)"/>
<circle cx="93.268" cy="37.2021" r="18.749" stroke="black" stroke-opacity="0.75"/>
<g filter="url(#filter2_di)">
<circle cx="93.2678" cy="37.2021" r="13" fill="url(#paint12_radial)"/>
<circle cx="93.2678" cy="37.2021" r="12" stroke="url(#paint13_linear)" stroke-opacity="0.15" stroke-width="2"/>
</g>
<g filter="url(#filter3_d)">
<circle cx="93.2678" cy="37.2021" r="6.94774" fill="url(#paint14_radial)"/>
<circle cx="93.2678" cy="37.2021" r="6.44774" stroke="url(#paint15_linear)" stroke-opacity="0.75"/>
</g>
<path d="M104.306 16.9752H22.7854C17.4267 16.9752 14.071 20.5452 14.071 25.9389V30.8848H114.009V26.7413C114.009 21.3476 111.264 16.9752 104.306 16.9752Z" fill="white" fill-opacity="0.15"/>
<path d="M113.509 61.5788V61.598V61.6293V61.6614V61.6943V61.7282V61.7628V61.7984V61.8348V61.872V61.9101V61.949V61.9887V62.0293V62.0707V62.113V62.156V62.1999V62.2446V62.2901V62.3364V62.3835V62.4314V62.4801V62.5295V62.5798V62.6309V62.6827V62.7353V62.7887V62.8428V62.8977V62.9534V63.0098V63.067V63.125V63.1836V63.2431V63.3032V63.3641V63.4258V63.4881V63.5512V63.615V63.6795V63.7447V63.8107V63.8773V63.9447V64.0127V64.0814V64.1509V64.221V64.2918V64.3632V64.4354V64.5082V64.5817V64.6559V64.7307V64.8062V64.8823V64.9591V65.0365V65.1146V65.1933V65.2726V65.3526V65.4332V65.5144V65.5962V65.6787V65.7618V65.8455V65.9297V66.0146V66.1001V66.1862V66.2729V66.3601V66.448V66.5364V66.6254V66.7149V66.8051V66.8958V66.987V67.0789V67.1712V67.2642V67.3576V67.4516V67.5462V67.6413V67.7369V67.833V67.9297V68.0269V68.1246V68.2228V68.3215V68.4207V68.5205V68.6207V68.7214V68.8226V68.9243V69.0265V69.1292V69.2323V69.3359V69.44V69.5445V69.6495V69.755V69.8609V69.9673V70.0741V70.1813V70.289V70.3971V70.5057V70.6147V70.7241V70.8339V70.9441V71.0548V71.1659V71.2773V71.3892V71.5015V71.6141V71.7272V71.8406V71.9544V72.0686V72.1832V72.2982V72.4135V72.5292V72.6452V72.7616V72.8784V72.9955V73.1129V73.2307V73.3488V73.4673V73.5861V73.7052V73.8246V73.9444V74.0645V74.1849V74.3056V74.4266V74.5479V74.6695V74.7914V74.9136V75.0361V75.1588V75.2819V75.4052V75.5288V75.6526V75.7767V75.9011V76.0257V76.1506V76.2758V76.4012V76.5268V76.6527V76.7788V76.9051V77.0316V77.1584V77.2854V77.4126V77.5401V77.6677V77.7956V77.9236V78.0518V78.1803V78.3089V78.4377V78.5667V78.6959V78.8252V78.9548V79.0844V79.2143V79.3443V79.4745V79.6048V79.7353V79.8659V79.9967V80.1276V80.2586V80.3898V80.5211V80.6525V80.784V80.9157V81.0474V81.1793V81.3113V81.4434V81.5755V81.7078V81.8402V81.9726V82.1052V82.2378V82.3705V82.5032V82.636V82.7689V82.9019V83.0349V83.1679V83.301V83.4342V83.5674V83.7006V83.8339V83.9672V84.1005V84.2339V84.3672V84.5006V84.634V84.7674V84.9009V85.0343V85.1677V85.3011V85.4345V85.5679V85.7012V85.8346V85.9679V86.1012V86.2344V86.3677V86.5008V86.634V86.7671V86.9001V87.0331V87.166V87.2989V87.4317V87.5644V87.6971V87.8297V87.9622V88.0946V88.2269V88.3591V88.4913V88.6233V88.7553V88.8871V89.0188V89.1505V89.282V89.4133V89.5446V89.6757V89.8067V89.9375V90.0682V90.1988V90.3292V90.4595V90.5896V90.7196V90.8494V90.979V91.1085V91.2378V91.3669V91.4958V91.6246V91.7531V91.8815V92.0097V92.1376V92.2654V92.393V92.5203V92.6475V92.7744V92.9011V93.0276V93.1538V93.2799V93.4056V93.5312V93.6565V93.7815V93.9063V94.0309V94.1552V94.2792V94.403V94.5264V94.6497V94.7726V94.8953V95.0176V95.1397V95.2615V95.383V95.5042V95.6251V95.7457V95.866V95.986V96.1056V96.225V96.344V96.4627V96.581V96.699V96.8167V96.934V97.051V97.1676V97.2839V97.3998V97.5154V97.6305V97.7454V97.8598V97.9739V98.0876V98.2009V98.3138V98.4263V98.5384V98.6502V98.7615V98.8724V98.9829V99.093V99.2027V99.312V99.4208V99.5292V99.6372V99.7447V99.8518V99.9584V100.065V100.17V100.276V100.381V100.485V100.589V100.692V100.795V100.898V101V101.101V101.202V101.303V101.403V101.502V101.602V101.7V101.798V101.896V101.993V102.089V102.185V102.281V102.375V102.47V102.564V102.657V102.75V102.842V102.933V103.024V103.115V103.205V103.294V103.383V103.471V103.559V103.646V103.732V103.818V103.904V103.988V104.072V104.156V104.239V104.321V104.403V104.484V104.564V104.644V104.723V104.801V104.879V104.956V105.033V105.109V105.184V105.259V105.333V105.406V105.478V105.55V105.622V105.692V105.762V105.831V105.9V105.967V106.035V106.101V106.167V106.232V106.296V106.359V106.422V106.484V106.546V106.606V106.666V106.725V106.784V106.842V106.898V106.955V107.01V107.065V107.119V107.172V107.224V107.276V107.326V107.376V107.426V107.474V107.522V107.568V107.614V107.66V107.704V107.748V107.79V107.832V107.873V107.914V107.953V107.992V108.03V108.067V108.103V108.138V108.172V108.206V108.238V108.27V108.301V108.331V108.36V108.389V108.416V108.443V108.468V108.493V108.517C113.509 110.369 112.662 112.374 111.254 113.919C109.85 115.461 107.929 116.502 105.817 116.502H105.79H105.76H105.73H105.697H105.663H105.628H105.59H105.552H105.511H105.469H105.426H105.381H105.334H105.286H105.236H105.185H105.132H105.077H105.022H104.964H104.905H104.845H104.783H104.72H104.655H104.588H104.521H104.451H104.381H104.308H104.235H104.16H104.083H104.005H103.926H103.845H103.763H103.68H103.595H103.509H103.421H103.332H103.241H103.15H103.057H102.962H102.866H102.769H102.671H102.571H102.47H102.367H102.264H102.159H102.053H101.945H101.836H101.726H101.615H101.502H101.388H101.273H101.157H101.039H100.92H100.8H100.679H100.557H100.433H100.308H100.182H100.055H99.9268H99.7973H99.6666H99.5348H99.4018H99.2677H99.1325H98.9961H98.8586H98.72H98.5803H98.4395H98.2976H98.1546H98.0106H97.8654H97.7192H97.5719H97.4236H97.2742H97.1238H96.9724H96.8199H96.6664H96.5118H96.3563H96.1998H96.0422H95.8837H95.7242H95.5637H95.4023H95.2398H95.0764H94.9121H94.7468H94.5806H94.4135H94.2454H94.0764H93.9064H93.7356H93.5639H93.3913H93.2178H93.0434H92.8681H92.692H92.515H92.3372H92.1585H91.9789H91.7985H91.6173H91.4353H91.2525H91.0688H90.8843H90.6991H90.513H90.3262H90.1386H89.9502H89.761H89.5711H89.3805H89.1891H88.9969H88.804H88.6104H88.4161H88.221H88.0253H87.8288H87.6317H87.4339H87.2353H87.0362H86.8363H86.6358H86.4346H86.2328H86.0303H85.8272H85.6234H85.4191H85.2141H85.0085H84.8023H84.5955H84.3881H84.1802H83.9716H83.7625H83.5528H83.3426H83.1318H82.9204H82.7085H82.4961H82.2832H82.0697H81.8557H81.6412H81.4262H81.2107H80.9948H80.7783H80.5614H80.344H80.1261H79.9078H79.689H79.4698H79.2502H79.0301H78.8096H78.5886H78.3673H78.1456H77.9234H77.7009H77.478H77.2547H77.031H76.807H76.5826H76.3579H76.1328H75.9073H75.6816H75.4555H75.229H75.0023H74.7753H74.5479H74.3203H74.0924H73.8642H73.6357H73.4069H73.1779H72.9487H72.7191H72.4894H72.2594H72.0291H71.7987H71.568H71.3371H71.106H70.8747H70.6432H70.4116H70.1797H69.9477H69.7155H69.4832H69.2507H69.018H68.7852H68.5523H68.3192H68.0861H67.8528H67.6194H67.3859H67.1523H66.9186H66.6848H66.451H66.2171H65.9831H65.7491H65.515H65.2808H65.0467H64.8125H64.5783H64.344H64.1098H63.8755H63.6413H63.407H63.1728H62.9386H62.7044H62.4702H62.2361H62.002H61.768H61.5341H61.3002H61.0663H60.8326H60.5989H60.3654H60.1319H59.8986H59.6653H59.4322H59.1991H58.9663H58.7335H58.5009H58.2685H58.0362H57.804H57.572H57.3403H57.1086H56.8772H56.646H56.415H56.1841H55.9535H55.7231H55.493H55.263H55.0333H54.8039H54.5747H54.3458H54.1171H53.8887H53.6606H53.4327H53.2052H52.978H52.751H52.5244H52.2981H52.0721H51.8464H51.6211H51.3961H51.1714H50.9472H50.7232H50.4997H50.2765H50.0537H49.8313H49.6093H49.3877H49.1665H48.9457H48.7253H48.5054H48.2858H48.0668H47.8481H47.6299H47.4122H47.195H46.9782H46.7619H46.5461H46.3307H46.1159H45.9015H45.6877H45.4744H45.2616H45.0494H44.8377H44.6265H44.4158H44.2058H43.9963H43.7873H43.5789H43.3712H43.164H42.9573H42.7513H42.5459H42.3411H42.137H41.9334H41.7305H41.5282H41.3266H41.1256H40.9253H40.7257H40.5267H40.3284H40.1307H39.9338H39.7376H39.542H39.3472H39.1531H38.9597H38.7671H38.5752H38.384H38.1935H38.0039H37.8149H37.6268H37.4394H37.2528H37.067H36.882H36.6978H36.5144H36.3318H36.15H35.9691H35.789H35.6097H35.4312H35.2537H35.0769H34.9011H34.7261H34.552H34.3787H34.2064H34.0349H33.8644H33.6948H33.526H33.3582H33.1914H33.0254H32.8605H32.6964H32.5333H32.3712H32.21H32.0499H31.8906H31.7324H31.5752H31.419H31.2637H31.1095H30.9563H30.8042H30.653H30.5029H30.3539H30.2059H30.059H29.9131H29.7683H29.6245H29.4819H29.3403H29.1999H29.0605H28.9222H28.7851H28.6491H28.5142H28.3804H28.2478H28.1164H27.9861H27.8569H27.7289H27.6021H27.4765H27.352H27.2288H27.1067H26.9859H26.8662H26.7478H26.6306H26.5147H26.4H26.2865H26.1742H26.0633H25.9536H25.8451H25.738H25.6321H25.5275H25.4242H25.3222H25.2215H25.1222H25.0241H24.9274H24.832H24.738H24.6453H24.5539H24.4639H24.3753H24.2881H24.2022H24.1177H24.0347H23.953H23.8727H23.7938H23.7164H23.6403H23.5657H23.4926H23.4209H23.3506H23.2818H23.2144H23.1486H23.0842H23.0213H22.9598H22.8999H22.8415H22.7845H22.7291H22.6752H22.6229H22.5721H22.5228H22.475H22.4288H22.3842H22.3412H22.2997H22.2598H22.2214H22.1847H22.1496H22.1161H22.0841H22.0538H22.0252H21.9981H21.9727H21.949H21.9268H21.9064C20.397 116.502 18.5547 115.645 17.0743 114.273C15.5967 112.903 14.5745 111.107 14.5745 109.327V109.303V109.28V109.255V109.23V109.205V109.179V109.153V109.126V109.099V109.071V109.042V109.013V108.984V108.954V108.924V108.893V108.862V108.83V108.798V108.765V108.732V108.698V108.664V108.629V108.594V108.559V108.523V108.486V108.449V108.412V108.374V108.336V108.297V108.258V108.219V108.178V108.138V108.097V108.056V108.014V107.972V107.929V107.886V107.843V107.799V107.754V107.71V107.664V107.619V107.573V107.526V107.48V107.432V107.385V107.337V107.288V107.24V107.19V107.141V107.091V107.04V106.99V106.939V106.887V106.835V106.783V106.73V106.677V106.624V106.57V106.516V106.462V106.407V106.352V106.296V106.24V106.184V106.128V106.071V106.013V105.956V105.898V105.84V105.781V105.722V105.663V105.603V105.543V105.483V105.422V105.361V105.3V105.239V105.177V105.115V105.052V104.989V104.926V104.863V104.799V104.735V104.671V104.606V104.541V104.476V104.411V104.345V104.279V104.213V104.146V104.079V104.012V103.945V103.877V103.809V103.741V103.673V103.604V103.535V103.466V103.396V103.326V103.256V103.186V103.116V103.045V102.974V102.903V102.831V102.76V102.688V102.616V102.543V102.471V102.398V102.325V102.252V102.178V102.105V102.031V101.957V101.882V101.808V101.733V101.658V101.583V101.508V101.432V101.356V101.281V101.204V101.128V101.052V100.975V100.898V100.821V100.744V100.667V100.589V100.512V100.434V100.356V100.278V100.199V100.121V100.042V99.9633V99.8844V99.8053V99.726V99.6467V99.5671V99.4875V99.4077V99.3277V99.2477V99.1675V99.0871V99.0067V98.9261V98.8454V98.7646V98.6836V98.6026V98.5214V98.4401V98.3587V98.2773V98.1957V98.1139V98.0321V97.9502V97.8683V97.7862V97.704V97.6217V97.5394V97.4569V97.3744V97.2918V97.2091V97.1264V97.0435V96.9606V96.8776V96.7946V96.7115V96.6283V96.5451V96.4618V96.3785V96.2951V96.2116V96.1281V96.0446V95.961V95.8774V95.7937V95.71V95.6262V95.5425V95.4586V95.3748V95.2909V95.207V95.1231V95.0392V94.9552V94.8712V94.7872V94.7032V94.6192V94.5352V94.4512V94.3671V94.2831V94.1991V94.1151V94.031V93.947V93.863V93.779V93.6951V93.6111V93.5271V93.4432V93.3593V93.2755V93.1916V93.1078V93.024V92.9403V92.8565V92.7729V92.6892V92.6056V92.5221V92.4386V92.3551V92.2717V92.1884V92.1051V92.0219V91.9387V91.8556V91.7726V91.6896V91.6067V91.5238V91.4411V91.3584V91.2758V91.1933V91.1108V91.0285V90.9462V90.864V90.7819V90.6999V90.618V90.5362V90.4545V90.3729V90.2914V90.21V90.1287V90.0475V89.9665V89.8855V89.8047V89.724V89.6434V89.5629V89.4826V89.4024V89.3223V89.2424V89.1626V89.0829V89.0034V88.924V88.8447V88.7656V88.6867V88.6079V88.5292V88.4507V88.3724V88.2942V88.2162V88.1384V88.0607V87.9832V87.9058V87.8286V87.7516V87.6748V87.5982V87.5217V87.4454V87.3693V87.2934V87.2177V87.1422V87.0669V86.9917V86.9168V86.8421V86.7675V86.6932V86.6191V86.5452V86.4715V86.398V86.3248V86.2517V86.1789V86.1063V86.0339V85.9618V85.8899V85.8182V85.7467V85.6755V85.6045V85.5338V85.4633V85.3931V85.3231V85.2533V85.1838V85.1146V85.0456V84.9769V84.9084V84.8402V84.7722V84.7046V84.6372V84.57V84.5032V84.4366V84.3703V84.3042V84.2385V84.173V84.1079V84.043V83.9784V83.9141V83.8501V83.7864V83.723V83.6599V83.5971V83.5346V83.4724V83.4105V83.349V83.2877V83.2268V83.1662V83.1059V83.046V82.9863V82.927V82.868V82.8094V82.7511V82.6931V82.6355V82.5782V82.5213V82.4647V82.4084V82.3525V82.297V82.2418V82.187V82.1325V82.0784V82.0246V81.9713V81.9182V81.8656V81.8133V81.7614V81.7099V81.6588V81.608V81.5577V81.5077V81.4581V81.4089V81.36V81.3116V81.2636V81.216V81.1687V81.1219V81.0755V81.0295V80.9839V80.9387V80.8939V80.8496V80.8056V80.7621V80.719V80.6764V80.6341V80.5923V80.5509V80.51V80.4695V80.4294V80.3898V80.3506V80.3119V80.2736V80.2357V80.1983V80.1614V80.1249V80.0889V80.0533V80.0182V79.9836V79.9494V79.9157V79.8825V79.8498V79.8175V79.7857V79.7544V79.7235V79.6932V79.6633V79.6339V79.6051V79.5767V79.5488V79.5214V79.4945V79.4681V79.4422V79.4168V79.3919V79.3676V79.3437V79.3347H49.6584C49.7901 79.3347 49.9164 79.2828 50.01 79.1903L67.8222 61.5788H113.509Z" fill="url(#paint16_linear)" stroke="#5B5B5B" stroke-linecap="round" stroke-linejoin="round"/>
<path d="M16.8674 83.6163H16.3674V84.1163V108.088C16.3674 111.678 19.2776 114.588 22.8674 114.588H104.895C108.485 114.588 111.395 111.678 111.395 108.088V84.1163V83.6163H110.895H16.8674Z" fill="#EEEEEE" stroke="black"/>
<g filter="url(#filter4_d)">
<line x1="22.7358" y1="114.088" x2="22.7358" y2="90.6382" stroke="black" stroke-opacity="0.75"/>
</g>
<g filter="url(#filter5_d)">
<line x1="29.8625" y1="114.088" x2="29.8626" y2="87.1518" stroke="black" stroke-opacity="0.75"/>
</g>
<line x1="36.6577" y1="114.088" x2="36.6577" y2="84.1163" stroke="black" stroke-opacity="0.75"/>
<line x1="63.5" y1="114.088" x2="63.5" y2="84.1163" stroke="black" stroke-opacity="0.75"/>
<g filter="url(#filter6_d)">
<line x1="43.1216" y1="114.088" x2="43.1216" y2="103.833" stroke="black" stroke-opacity="0.75"/>
</g>
<g filter="url(#filter7_d)">
<line x1="50.0825" y1="114.088" x2="50.0825" y2="100.358" stroke="black" stroke-opacity="0.75"/>
</g>
<g filter="url(#filter8_d)">
<line x1="56.8777" y1="114.088" x2="56.8777" y2="87.9846" stroke="black" stroke-opacity="0.75"/>
</g>
<g filter="url(#filter9_i)">
<path d="M19.9519 83.6181H24.2104V103.657C24.2104 104.209 23.7627 104.657 23.2104 104.657H20.9519C20.3996 104.657 19.9519 104.209 19.9519 103.657V83.6181Z" fill="#222222"/>
</g>
<path d="M19.9519 83.6181H24.2104V103.657C24.2104 104.209 23.7627 104.657 23.2104 104.657H20.9519C20.3996 104.657 19.9519 104.209 19.9519 103.657V83.6181Z" stroke="black" stroke-opacity="0.75"/>
<g filter="url(#filter10_i)">
<path d="M28.0674 83.6567H32.3259V103.695C32.3259 104.248 31.8782 104.695 31.3259 104.695H29.0674C28.5151 104.695 28.0674 104.248 28.0674 103.695V83.6567Z" fill="#222222"/>
</g>
<path d="M28.0674 83.6567H32.3259V103.695C32.3259 104.248 31.8782 104.695 31.3259 104.695H29.0674C28.5151 104.695 28.0674 104.248 28.0674 103.695V83.6567Z" stroke="black" stroke-opacity="0.75"/>
<g filter="url(#filter11_i)">
<path d="M40.4961 83.6567H44.7546V103.695C44.7546 104.248 44.3069 104.695 43.7546 104.695H41.4961C40.9438 104.695 40.4961 104.248 40.4961 103.695V83.6567Z" fill="#222222"/>
</g>
<path d="M40.4961 83.6567H44.7546V103.695C44.7546 104.248 44.3069 104.695 43.7546 104.695H41.4961C40.9438 104.695 40.4961 104.248 40.4961 103.695V83.6567Z" stroke="black" stroke-opacity="0.75"/>
<g filter="url(#filter12_i)">
<path d="M47.6116 83.6567H51.8701V103.695C51.8701 104.248 51.4224 104.695 50.8701 104.695H48.6116C48.0593 104.695 47.6116 104.248 47.6116 103.695V83.6567Z" fill="#222222"/>
</g>
<path d="M47.6116 83.6567H51.8701V103.695C51.8701 104.248 51.4224 104.695 50.8701 104.695H48.6116C48.0593 104.695 47.6116 104.248 47.6116 103.695V83.6567Z" stroke="black" stroke-opacity="0.75"/>
<g filter="url(#filter13_i)">
<path d="M55.2485 83.6567H59.5071V103.559C59.5071 104.111 59.0594 104.559 58.5071 104.559H56.2485C55.6963 104.559 55.2485 104.111 55.2485 103.559V83.6567Z" fill="#222222"/>
</g>
<path d="M55.2485 83.6567H59.5071V103.559C59.5071 104.111 59.0594 104.559 58.5071 104.559H56.2485C55.6963 104.559 55.2485 104.111 55.2485 103.559V83.6567Z" stroke="black" stroke-opacity="0.75"/>
<g filter="url(#filter14_d)">
<line x1="70.4683" y1="114.088" x2="70.4683" y2="90.6382" stroke="black" stroke-opacity="0.75"/>
</g>
<g filter="url(#filter15_d)">
<line x1="77.595" y1="114.088" x2="77.595" y2="87.1518" stroke="black" stroke-opacity="0.75"/>
</g>
<line x1="84.3901" y1="114.088" x2="84.3901" y2="84.1163" stroke="black" stroke-opacity="0.75"/>
<g filter="url(#filter16_d)">
<line x1="90.854" y1="114.088" x2="90.854" y2="103.833" stroke="black" stroke-opacity="0.75"/>
</g>
<g filter="url(#filter17_d)">
<line x1="97.8149" y1="114.088" x2="97.8149" y2="100.358" stroke="black" stroke-opacity="0.75"/>
</g>
<g filter="url(#filter18_d)">
<line x1="104.61" y1="114.088" x2="104.61" y2="87.9846" stroke="black" stroke-opacity="0.75"/>
</g>
<g filter="url(#filter19_i)">
<path d="M67.6843 83.6181H71.9429V103.657C71.9429 104.209 71.4952 104.657 70.9429 104.657H68.6843C68.132 104.657 67.6843 104.209 67.6843 103.657V83.6181Z" fill="#222222"/>
</g>
<path d="M67.6843 83.6181H71.9429V103.657C71.9429 104.209 71.4952 104.657 70.9429 104.657H68.6843C68.132 104.657 67.6843 104.209 67.6843 103.657V83.6181Z" stroke="black" stroke-opacity="0.75"/>
<g filter="url(#filter20_i)">
<path d="M75.7998 83.6567H80.0583V103.695C80.0583 104.248 79.6106 104.695 79.0583 104.695H76.7998C76.2475 104.695 75.7998 104.248 75.7998 103.695V83.6567Z" fill="#222222"/>
</g>
<path d="M75.7998 83.6567H80.0583V103.695C80.0583 104.248 79.6106 104.695 79.0583 104.695H76.7998C76.2475 104.695 75.7998 104.248 75.7998 103.695V83.6567Z" stroke="black" stroke-opacity="0.75"/>
<g filter="url(#filter21_i)">
<path d="M88.2285 83.6567H92.4871V103.695C92.4871 104.248 92.0393 104.695 91.4871 104.695H89.2285C88.6762 104.695 88.2285 104.248 88.2285 103.695V83.6567Z" fill="#222222"/>
</g>
<path d="M88.2285 83.6567H92.4871V103.695C92.4871 104.248 92.0393 104.695 91.4871 104.695H89.2285C88.6762 104.695 88.2285 104.248 88.2285 103.695V83.6567Z" stroke="black" stroke-opacity="0.75"/>
<g filter="url(#filter22_i)">
<path d="M95.344 83.6567H99.6025V103.695C99.6025 104.248 99.1548 104.695 98.6025 104.695H96.344C95.7917 104.695 95.344 104.248 95.344 103.695V83.6567Z" fill="#222222"/>
</g>
<path d="M95.344 83.6567H99.6025V103.695C99.6025 104.248 99.1548 104.695 98.6025 104.695H96.344C95.7917 104.695 95.344 104.248 95.344 103.695V83.6567Z" stroke="black" stroke-opacity="0.75"/>
<g filter="url(#filter23_i)">
<path d="M102.981 83.5201H107.24V103.559C107.24 104.111 106.792 104.559 106.24 104.559H103.981C103.429 104.559 102.981 104.111 102.981 103.559V83.5201Z" fill="#222222"/>
</g>
<path d="M102.981 83.5201H107.24V103.559C107.24 104.111 106.792 104.559 106.24 104.559H103.981C103.429 104.559 102.981 104.111 102.981 103.559V83.5201Z" stroke="black" stroke-opacity="0.75"/>
<g filter="url(#filter24_d)">
<path d="M14.5149 78.647H49.5824L67.6478 61.0788H113.557" stroke="black" stroke-opacity="0.5" stroke-linecap="square" stroke-linejoin="round"/>
</g>
<g filter="url(#filter25_dd)">
<circle cx="79.1248" cy="72.7654" r="5.7654" fill="url(#paint17_radial)"/>
<circle cx="79.1248" cy="72.7654" r="5.2654" stroke="black" stroke-opacity="0.15"/>
</g>
<line x1="83.0434" y1="70.0875" x2="80.9553" y2="71.4543" stroke="white" stroke-opacity="0.15"/>
<g filter="url(#filter26_dd)">
<circle cx="99.0332" cy="72.7654" r="5.7654" fill="url(#paint18_radial)"/>
<circle cx="99.0332" cy="72.7654" r="5.2654" stroke="black" stroke-opacity="0.15"/>
</g>
<line x1="102.952" y1="70.0875" x2="100.864" y2="71.4543" stroke="white" stroke-opacity="0.15"/>
<defs>
<filter id="filter0_di" x="20.7351" y="23.9035" width="51.7132" height="51.7132" filterUnits="userSpaceOnUse" color-interpolation-filters="sRGB">
<feFlood flood-opacity="0" result="BackgroundImageFix"/>
<feColorMatrix in="SourceAlpha" type="matrix" values="0 0 0 0 0 0 0 0 0 0 0 0 0 0 0 0 0 0 127 0"/>
<feMorphology radius="1" operator="dilate" in="SourceAlpha" result="effect1_dropShadow"/>
<feOffset/>
<feColorMatrix type="matrix" values="0 0 0 0 0 0 0 0 0 0 0 0 0 0 0 0 0 0 0.15 0"/>
<feBlend mode="normal" in2="BackgroundImageFix" result="effect1_dropShadow"/>
<feBlend mode="normal" in="SourceGraphic" in2="effect1_dropShadow" result="shape"/>
<feColorMatrix in="SourceAlpha" type="matrix" values="0 0 0 0 0 0 0 0 0 0 0 0 0 0 0 0 0 0 127 0" result="hardAlpha"/>
<feMorphology radius="1" operator="erode" in="SourceAlpha" result="effect2_innerShadow"/>
<feOffset/>
<feComposite in2="hardAlpha" operator="arithmetic" k2="-1" k3="1"/>
<feColorMatrix type="matrix" values="0 0 0 0 0 0 0 0 0 0 0 0 0 0 0 0 0 0 0.9 0"/>
<feBlend mode="normal" in2="shape" result="effect2_innerShadow"/>
</filter>
<filter id="filter1_d" x="38.644" y="41.8124" width="15.8955" height="15.8955" filterUnits="userSpaceOnUse" color-interpolation-filters="sRGB">
<feFlood flood-opacity="0" result="BackgroundImageFix"/>
<feColorMatrix in="SourceAlpha" type="matrix" values="0 0 0 0 0 0 0 0 0 0 0 0 0 0 0 0 0 0 127 0"/>
<feMorphology radius="1" operator="dilate" in="SourceAlpha" result="effect1_dropShadow"/>
<feOffset/>
<feColorMatrix type="matrix" values="0 0 0 0 0 0 0 0 0 0 0 0 0 0 0 0 0 0 0.25 0"/>
<feBlend mode="normal" in2="BackgroundImageFix" result="effect1_dropShadow"/>
<feBlend mode="normal" in="SourceGraphic" in2="effect1_dropShadow" result="shape"/>
</filter>
<filter id="filter2_di" x="79.2678" y="23.2021" width="28" height="28" filterUnits="userSpaceOnUse" color-interpolation-filters="sRGB">
<feFlood flood-opacity="0" result="BackgroundImageFix"/>
<feColorMatrix in="SourceAlpha" type="matrix" values="0 0 0 0 0 0 0 0 0 0 0 0 0 0 0 0 0 0 127 0"/>
<feMorphology radius="1" operator="dilate" in="SourceAlpha" result="effect1_dropShadow"/>
<feOffset/>
<feColorMatrix type="matrix" values="0 0 0 0 0 0 0 0 0 0 0 0 0 0 0 0 0 0 0.15 0"/>
<feBlend mode="normal" in2="BackgroundImageFix" result="effect1_dropShadow"/>
<feBlend mode="normal" in="SourceGraphic" in2="effect1_dropShadow" result="shape"/>
<feColorMatrix in="SourceAlpha" type="matrix" values="0 0 0 0 0 0 0 0 0 0 0 0 0 0 0 0 0 0 127 0" result="hardAlpha"/>
<feMorphology radius="1" operator="erode" in="SourceAlpha" result="effect2_innerShadow"/>
<feOffset/>
<feComposite in2="hardAlpha" operator="arithmetic" k2="-1" k3="1"/>
<feColorMatrix type="matrix" values="0 0 0 0 0 0 0 0 0 0 0 0 0 0 0 0 0 0 0.9 0"/>
<feBlend mode="normal" in2="shape" result="effect2_innerShadow"/>
</filter>
<filter id="filter3_d" x="85.3201" y="29.2543" width="15.8955" height="15.8955" filterUnits="userSpaceOnUse" color-interpolation-filters="sRGB">
<feFlood flood-opacity="0" result="BackgroundImageFix"/>
<feColorMatrix in="SourceAlpha" type="matrix" values="0 0 0 0 0 0 0 0 0 0 0 0 0 0 0 0 0 0 127 0"/>
<feMorphology radius="1" operator="dilate" in="SourceAlpha" result="effect1_dropShadow"/>
<feOffset/>
<feColorMatrix type="matrix" values="0 0 0 0 0 0 0 0 0 0 0 0 0 0 0 0 0 0 0.25 0"/>
<feBlend mode="normal" in2="BackgroundImageFix" result="effect1_dropShadow"/>
<feBlend mode="normal" in="SourceGraphic" in2="effect1_dropShadow" result="shape"/>
</filter>
<filter id="filter4_d" x="22.2358" y="89.6382" width="2" height="24.4498" filterUnits="userSpaceOnUse" color-interpolation-filters="sRGB">
<feFlood flood-opacity="0" result="BackgroundImageFix"/>
<feColorMatrix in="SourceAlpha" type="matrix" values="0 0 0 0 0 0 0 0 0 0 0 0 0 0 0 0 0 0 127 0"/>
<feOffset dx="1" dy="-1"/>
<feColorMatrix type="matrix" values="0 0 0 0 1 0 0 0 0 1 0 0 0 0 1 0 0 0 1 0"/>
<feBlend mode="normal" in2="BackgroundImageFix" result="effect1_dropShadow"/>
<feBlend mode="normal" in="SourceGraphic" in2="effect1_dropShadow" result="shape"/>
</filter>
<filter id="filter5_d" x="29.3625" y="86.1518" width="2" height="27.9362" filterUnits="userSpaceOnUse" color-interpolation-filters="sRGB">
<feFlood flood-opacity="0" result="BackgroundImageFix"/>
<feColorMatrix in="SourceAlpha" type="matrix" values="0 0 0 0 0 0 0 0 0 0 0 0 0 0 0 0 0 0 127 0"/>
<feOffset dx="1" dy="-1"/>
<feColorMatrix type="matrix" values="0 0 0 0 1 0 0 0 0 1 0 0 0 0 1 0 0 0 1 0"/>
<feBlend mode="normal" in2="BackgroundImageFix" result="effect1_dropShadow"/>
<feBlend mode="normal" in="SourceGraphic" in2="effect1_dropShadow" result="shape"/>
</filter>
<filter id="filter6_d" x="42.6216" y="102.833" width="2" height="11.2549" filterUnits="userSpaceOnUse" color-interpolation-filters="sRGB">
<feFlood flood-opacity="0" result="BackgroundImageFix"/>
<feColorMatrix in="SourceAlpha" type="matrix" values="0 0 0 0 0 0 0 0 0 0 0 0 0 0 0 0 0 0 127 0"/>
<feOffset dx="1" dy="-1"/>
<feColorMatrix type="matrix" values="0 0 0 0 1 0 0 0 0 1 0 0 0 0 1 0 0 0 1 0"/>
<feBlend mode="normal" in2="BackgroundImageFix" result="effect1_dropShadow"/>
<feBlend mode="normal" in="SourceGraphic" in2="effect1_dropShadow" result="shape"/>
</filter>
<filter id="filter7_d" x="49.5825" y="99.3583" width="2" height="14.7297" filterUnits="userSpaceOnUse" color-interpolation-filters="sRGB">
<feFlood flood-opacity="0" result="BackgroundImageFix"/>
<feColorMatrix in="SourceAlpha" type="matrix" values="0 0 0 0 0 0 0 0 0 0 0 0 0 0 0 0 0 0 127 0"/>
<feOffset dx="1" dy="-1"/>
<feColorMatrix type="matrix" values="0 0 0 0 1 0 0 0 0 1 0 0 0 0 1 0 0 0 1 0"/>
<feBlend mode="normal" in2="BackgroundImageFix" result="effect1_dropShadow"/>
<feBlend mode="normal" in="SourceGraphic" in2="effect1_dropShadow" result="shape"/>
</filter>
<filter id="filter8_d" x="56.3777" y="86.9846" width="2" height="27.1034" filterUnits="userSpaceOnUse" color-interpolation-filters="sRGB">
<feFlood flood-opacity="0" result="BackgroundImageFix"/>
<feColorMatrix in="SourceAlpha" type="matrix" values="0 0 0 0 0 0 0 0 0 0 0 0 0 0 0 0 0 0 127 0"/>
<feOffset dx="1" dy="-1"/>
<feColorMatrix type="matrix" values="0 0 0 0 1 0 0 0 0 1 0 0 0 0 1 0 0 0 1 0"/>
<feBlend mode="normal" in2="BackgroundImageFix" result="effect1_dropShadow"/>
<feBlend mode="normal" in="SourceGraphic" in2="effect1_dropShadow" result="shape"/>
</filter>
<filter id="filter9_i" x="19.4519" y="83.1181" width="5.25854" height="22.0388" filterUnits="userSpaceOnUse" color-interpolation-filters="sRGB">
<feFlood flood-opacity="0" result="BackgroundImageFix"/>
<feBlend mode="normal" in="SourceGraphic" in2="BackgroundImageFix" result="shape"/>
<feColorMatrix in="SourceAlpha" type="matrix" values="0 0 0 0 0 0 0 0 0 0 0 0 0 0 0 0 0 0 127 0" result="hardAlpha"/>
<feOffset dy="-4"/>
<feComposite in2="hardAlpha" operator="arithmetic" k2="-1" k3="1"/>
<feColorMatrix type="matrix" values="0 0 0 0 1 0 0 0 0 1 0 0 0 0 1 0 0 0 0.25 0"/>
<feBlend mode="normal" in2="shape" result="effect1_innerShadow"/>
</filter>
<filter id="filter10_i" x="27.5674" y="83.1567" width="5.25854" height="22.0388" filterUnits="userSpaceOnUse" color-interpolation-filters="sRGB">
<feFlood flood-opacity="0" result="BackgroundImageFix"/>
<feBlend mode="normal" in="SourceGraphic" in2="BackgroundImageFix" result="shape"/>
<feColorMatrix in="SourceAlpha" type="matrix" values="0 0 0 0 0 0 0 0 0 0 0 0 0 0 0 0 0 0 127 0" result="hardAlpha"/>
<feOffset dy="-4"/>
<feComposite in2="hardAlpha" operator="arithmetic" k2="-1" k3="1"/>
<feColorMatrix type="matrix" values="0 0 0 0 1 0 0 0 0 1 0 0 0 0 1 0 0 0 0.25 0"/>
<feBlend mode="normal" in2="shape" result="effect1_innerShadow"/>
</filter>
<filter id="filter11_i" x="39.9961" y="83.1567" width="5.25854" height="22.0388" filterUnits="userSpaceOnUse" color-interpolation-filters="sRGB">
<feFlood flood-opacity="0" result="BackgroundImageFix"/>
<feBlend mode="normal" in="SourceGraphic" in2="BackgroundImageFix" result="shape"/>
<feColorMatrix in="SourceAlpha" type="matrix" values="0 0 0 0 0 0 0 0 0 0 0 0 0 0 0 0 0 0 127 0" result="hardAlpha"/>
<feOffset dy="-4"/>
<feComposite in2="hardAlpha" operator="arithmetic" k2="-1" k3="1"/>
<feColorMatrix type="matrix" values="0 0 0 0 1 0 0 0 0 1 0 0 0 0 1 0 0 0 0.25 0"/>
<feBlend mode="normal" in2="shape" result="effect1_innerShadow"/>
</filter>
<filter id="filter12_i" x="47.1116" y="83.1567" width="5.25854" height="22.0388" filterUnits="userSpaceOnUse" color-interpolation-filters="sRGB">
<feFlood flood-opacity="0" result="BackgroundImageFix"/>
<feBlend mode="normal" in="SourceGraphic" in2="BackgroundImageFix" result="shape"/>
<feColorMatrix in="SourceAlpha" type="matrix" values="0 0 0 0 0 0 0 0 0 0 0 0 0 0 0 0 0 0 127 0" result="hardAlpha"/>
<feOffset dy="-4"/>
<feComposite in2="hardAlpha" operator="arithmetic" k2="-1" k3="1"/>
<feColorMatrix type="matrix" values="0 0 0 0 1 0 0 0 0 1 0 0 0 0 1 0 0 0 0.25 0"/>
<feBlend mode="normal" in2="shape" result="effect1_innerShadow"/>
</filter>
<filter id="filter13_i" x="54.7485" y="83.1567" width="5.25854" height="21.9022" filterUnits="userSpaceOnUse" color-interpolation-filters="sRGB">
<feFlood flood-opacity="0" result="BackgroundImageFix"/>
<feBlend mode="normal" in="SourceGraphic" in2="BackgroundImageFix" result="shape"/>
<feColorMatrix in="SourceAlpha" type="matrix" values="0 0 0 0 0 0 0 0 0 0 0 0 0 0 0 0 0 0 127 0" result="hardAlpha"/>
<feOffset dy="-4"/>
<feComposite in2="hardAlpha" operator="arithmetic" k2="-1" k3="1"/>
<feColorMatrix type="matrix" values="0 0 0 0 1 0 0 0 0 1 0 0 0 0 1 0 0 0 0.25 0"/>
<feBlend mode="normal" in2="shape" result="effect1_innerShadow"/>
</filter>
<filter id="filter14_d" x="69.9683" y="89.6382" width="2" height="24.4498" filterUnits="userSpaceOnUse" color-interpolation-filters="sRGB">
<feFlood flood-opacity="0" result="BackgroundImageFix"/>
<feColorMatrix in="SourceAlpha" type="matrix" values="0 0 0 0 0 0 0 0 0 0 0 0 0 0 0 0 0 0 127 0"/>
<feOffset dx="1" dy="-1"/>
<feColorMatrix type="matrix" values="0 0 0 0 1 0 0 0 0 1 0 0 0 0 1 0 0 0 1 0"/>
<feBlend mode="normal" in2="BackgroundImageFix" result="effect1_dropShadow"/>
<feBlend mode="normal" in="SourceGraphic" in2="effect1_dropShadow" result="shape"/>
</filter>
<filter id="filter15_d" x="77.095" y="86.1518" width="2" height="27.9362" filterUnits="userSpaceOnUse" color-interpolation-filters="sRGB">
<feFlood flood-opacity="0" result="BackgroundImageFix"/>
<feColorMatrix in="SourceAlpha" type="matrix" values="0 0 0 0 0 0 0 0 0 0 0 0 0 0 0 0 0 0 127 0"/>
<feOffset dx="1" dy="-1"/>
<feColorMatrix type="matrix" values="0 0 0 0 1 0 0 0 0 1 0 0 0 0 1 0 0 0 1 0"/>
<feBlend mode="normal" in2="BackgroundImageFix" result="effect1_dropShadow"/>
<feBlend mode="normal" in="SourceGraphic" in2="effect1_dropShadow" result="shape"/>
</filter>
<filter id="filter16_d" x="90.354" y="102.833" width="2" height="11.2549" filterUnits="userSpaceOnUse" color-interpolation-filters="sRGB">
<feFlood flood-opacity="0" result="BackgroundImageFix"/>
<feColorMatrix in="SourceAlpha" type="matrix" values="0 0 0 0 0 0 0 0 0 0 0 0 0 0 0 0 0 0 127 0"/>
<feOffset dx="1" dy="-1"/>
<feColorMatrix type="matrix" values="0 0 0 0 1 0 0 0 0 1 0 0 0 0 1 0 0 0 1 0"/>
<feBlend mode="normal" in2="BackgroundImageFix" result="effect1_dropShadow"/>
<feBlend mode="normal" in="SourceGraphic" in2="effect1_dropShadow" result="shape"/>
</filter>
<filter id="filter17_d" x="97.3149" y="99.3583" width="2" height="14.7297" filterUnits="userSpaceOnUse" color-interpolation-filters="sRGB">
<feFlood flood-opacity="0" result="BackgroundImageFix"/>
<feColorMatrix in="SourceAlpha" type="matrix" values="0 0 0 0 0 0 0 0 0 0 0 0 0 0 0 0 0 0 127 0"/>
<feOffset dx="1" dy="-1"/>
<feColorMatrix type="matrix" values="0 0 0 0 1 0 0 0 0 1 0 0 0 0 1 0 0 0 1 0"/>
<feBlend mode="normal" in2="BackgroundImageFix" result="effect1_dropShadow"/>
<feBlend mode="normal" in="SourceGraphic" in2="effect1_dropShadow" result="shape"/>
</filter>
<filter id="filter18_d" x="104.11" y="86.9846" width="2" height="27.1034" filterUnits="userSpaceOnUse" color-interpolation-filters="sRGB">
<feFlood flood-opacity="0" result="BackgroundImageFix"/>
<feColorMatrix in="SourceAlpha" type="matrix" values="0 0 0 0 0 0 0 0 0 0 0 0 0 0 0 0 0 0 127 0"/>
<feOffset dx="1" dy="-1"/>
<feColorMatrix type="matrix" values="0 0 0 0 1 0 0 0 0 1 0 0 0 0 1 0 0 0 1 0"/>
<feBlend mode="normal" in2="BackgroundImageFix" result="effect1_dropShadow"/>
<feBlend mode="normal" in="SourceGraphic" in2="effect1_dropShadow" result="shape"/>
</filter>
<filter id="filter19_i" x="67.1843" y="83.1181" width="5.25854" height="22.0388" filterUnits="userSpaceOnUse" color-interpolation-filters="sRGB">
<feFlood flood-opacity="0" result="BackgroundImageFix"/>
<feBlend mode="normal" in="SourceGraphic" in2="BackgroundImageFix" result="shape"/>
<feColorMatrix in="SourceAlpha" type="matrix" values="0 0 0 0 0 0 0 0 0 0 0 0 0 0 0 0 0 0 127 0" result="hardAlpha"/>
<feOffset dy="-4"/>
<feComposite in2="hardAlpha" operator="arithmetic" k2="-1" k3="1"/>
<feColorMatrix type="matrix" values="0 0 0 0 1 0 0 0 0 1 0 0 0 0 1 0 0 0 0.25 0"/>
<feBlend mode="normal" in2="shape" result="effect1_innerShadow"/>
</filter>
<filter id="filter20_i" x="75.2998" y="83.1567" width="5.25854" height="22.0388" filterUnits="userSpaceOnUse" color-interpolation-filters="sRGB">
<feFlood flood-opacity="0" result="BackgroundImageFix"/>
<feBlend mode="normal" in="SourceGraphic" in2="BackgroundImageFix" result="shape"/>
<feColorMatrix in="SourceAlpha" type="matrix" values="0 0 0 0 0 0 0 0 0 0 0 0 0 0 0 0 0 0 127 0" result="hardAlpha"/>
<feOffset dy="-4"/>
<feComposite in2="hardAlpha" operator="arithmetic" k2="-1" k3="1"/>
<feColorMatrix type="matrix" values="0 0 0 0 1 0 0 0 0 1 0 0 0 0 1 0 0 0 0.25 0"/>
<feBlend mode="normal" in2="shape" result="effect1_innerShadow"/>
</filter>
<filter id="filter21_i" x="87.7285" y="83.1567" width="5.25854" height="22.0388" filterUnits="userSpaceOnUse" color-interpolation-filters="sRGB">
<feFlood flood-opacity="0" result="BackgroundImageFix"/>
<feBlend mode="normal" in="SourceGraphic" in2="BackgroundImageFix" result="shape"/>
<feColorMatrix in="SourceAlpha" type="matrix" values="0 0 0 0 0 0 0 0 0 0 0 0 0 0 0 0 0 0 127 0" result="hardAlpha"/>
<feOffset dy="-4"/>
<feComposite in2="hardAlpha" operator="arithmetic" k2="-1" k3="1"/>
<feColorMatrix type="matrix" values="0 0 0 0 1 0 0 0 0 1 0 0 0 0 1 0 0 0 0.25 0"/>
<feBlend mode="normal" in2="shape" result="effect1_innerShadow"/>
</filter>
<filter id="filter22_i" x="94.844" y="83.1567" width="5.25854" height="22.0388" filterUnits="userSpaceOnUse" color-interpolation-filters="sRGB">
<feFlood flood-opacity="0" result="BackgroundImageFix"/>
<feBlend mode="normal" in="SourceGraphic" in2="BackgroundImageFix" result="shape"/>
<feColorMatrix in="SourceAlpha" type="matrix" values="0 0 0 0 0 0 0 0 0 0 0 0 0 0 0 0 0 0 127 0" result="hardAlpha"/>
<feOffset dy="-4"/>
<feComposite in2="hardAlpha" operator="arithmetic" k2="-1" k3="1"/>
<feColorMatrix type="matrix" values="0 0 0 0 1 0 0 0 0 1 0 0 0 0 1 0 0 0 0.25 0"/>
<feBlend mode="normal" in2="shape" result="effect1_innerShadow"/>
</filter>
<filter id="filter23_i" x="102.481" y="83.0201" width="5.25854" height="22.0388" filterUnits="userSpaceOnUse" color-interpolation-filters="sRGB">
<feFlood flood-opacity="0" result="BackgroundImageFix"/>
<feBlend mode="normal" in="SourceGraphic" in2="BackgroundImageFix" result="shape"/>
<feColorMatrix in="SourceAlpha" type="matrix" values="0 0 0 0 0 0 0 0 0 0 0 0 0 0 0 0 0 0 127 0" result="hardAlpha"/>
<feOffset dy="-4"/>
<feComposite in2="hardAlpha" operator="arithmetic" k2="-1" k3="1"/>
<feColorMatrix type="matrix" values="0 0 0 0 1 0 0 0 0 1 0 0 0 0 1 0 0 0 0.25 0"/>
<feBlend mode="normal" in2="shape" result="effect1_innerShadow"/>
</filter>
<filter id="filter24_d" x="14.0149" y="60.5788" width="100.042" height="19.5682" filterUnits="userSpaceOnUse" color-interpolation-filters="sRGB">
<feFlood flood-opacity="0" result="BackgroundImageFix"/>
<feColorMatrix in="SourceAlpha" type="matrix" values="0 0 0 0 0 0 0 0 0 0 0 0 0 0 0 0 0 0 127 0"/>
<feOffset dy="1"/>
<feColorMatrix type="matrix" values="0 0 0 0 0.443137 0 0 0 0 0.439216 0 0 0 0 0.439216 0 0 0 1 0"/>
<feBlend mode="normal" in2="BackgroundImageFix" result="effect1_dropShadow"/>
<feBlend mode="normal" in="SourceGraphic" in2="effect1_dropShadow" result="shape"/>
</filter>
<filter id="filter25_dd" x="69.3594" y="63" width="19.5308" height="21.5308" filterUnits="userSpaceOnUse" color-interpolation-filters="sRGB">
<feFlood flood-opacity="0" result="BackgroundImageFix"/>
<feColorMatrix in="SourceAlpha" type="matrix" values="0 0 0 0 0 0 0 0 0 0 0 0 0 0 0 0 0 0 127 0"/>
<feOffset dy="2"/>
<feGaussianBlur stdDeviation="2"/>
<feColorMatrix type="matrix" values="0 0 0 0 0 0 0 0 0 0 0 0 0 0 0 0 0 0 0.75 0"/>
<feBlend mode="normal" in2="BackgroundImageFix" result="effect1_dropShadow"/>
<feColorMatrix in="SourceAlpha" type="matrix" values="0 0 0 0 0 0 0 0 0 0 0 0 0 0 0 0 0 0 127 0"/>
<feOffset dy="-2"/>
<feGaussianBlur stdDeviation="1"/>
<feColorMatrix type="matrix" values="0 0 0 0 1 0 0 0 0 1 0 0 0 0 1 0 0 0 0.15 0"/>
<feBlend mode="normal" in2="effect1_dropShadow" result="effect2_dropShadow"/>
<feBlend mode="normal" in="SourceGraphic" in2="effect2_dropShadow" result="shape"/>
</filter>
<filter id="filter26_dd" x="89.2678" y="63" width="19.5308" height="21.5308" filterUnits="userSpaceOnUse" color-interpolation-filters="sRGB">
<feFlood flood-opacity="0" result="BackgroundImageFix"/>
<feColorMatrix in="SourceAlpha" type="matrix" values="0 0 0 0 0 0 0 0 0 0 0 0 0 0 0 0 0 0 127 0"/>
<feOffset dy="2"/>
<feGaussianBlur stdDeviation="2"/>
<feColorMatrix type="matrix" values="0 0 0 0 0 0 0 0 0 0 0 0 0 0 0 0 0 0 0.75 0"/>
<feBlend mode="normal" in2="BackgroundImageFix" result="effect1_dropShadow"/>
<feColorMatrix in="SourceAlpha" type="matrix" values="0 0 0 0 0 0 0 0 0 0 0 0 0 0 0 0 0 0 127 0"/>
<feOffset dy="-2"/>
<feGaussianBlur stdDeviation="1"/>
<feColorMatrix type="matrix" values="0 0 0 0 1 0 0 0 0 1 0 0 0 0 1 0 0 0 0.15 0"/>
<feBlend mode="normal" in2="effect1_dropShadow" result="effect2_dropShadow"/>
<feBlend mode="normal" in="SourceGraphic" in2="effect2_dropShadow" result="shape"/>
</filter>
<radialGradient id="paint0_radial" cx="0" cy="0" r="1" gradientUnits="userSpaceOnUse" gradientTransform="translate(64 118) scale(55 6)">
<stop/>
<stop offset="1" stop-opacity="0"/>
</radialGradient>
<radialGradient id="paint1_radial" cx="0" cy="0" r="1" gradientUnits="userSpaceOnUse" gradientTransform="translate(103.77 118.5) scale(14.2374 2.5)">
<stop stop-color="#181818"/>
<stop offset="1" stop-color="#181818" stop-opacity="0"/>
</radialGradient>
<radialGradient id="paint2_radial" cx="0" cy="0" r="1" gradientUnits="userSpaceOnUse" gradientTransform="translate(24.2304 118.5) rotate(180) scale(14.2374 2.5)">
<stop stop-color="#181818"/>
<stop offset="1" stop-color="#181818" stop-opacity="0"/>
</radialGradient>
<linearGradient id="paint3_linear" x1="67.0071" y1="121.02" x2="67.0071" y2="116" gradientUnits="userSpaceOnUse">
<stop stop-color="#181818" stop-opacity="0"/>
<stop offset="0.5" stop-color="#181818"/>
<stop offset="1" stop-color="#181818" stop-opacity="0"/>
</linearGradient>
<linearGradient id="paint4_linear" x1="62.8716" y1="15.9073" x2="62.8716" y2="118.427" gradientUnits="userSpaceOnUse">
<stop stop-color="#4D4D4D"/>
<stop offset="1" stop-color="#1A1A1A"/>
</linearGradient>
<linearGradient id="paint5_linear" x1="64" y1="15.1351" x2="64" y2="118.865" gradientUnits="userSpaceOnUse">
<stop stop-color="white"/>
<stop offset="0.0631645" stop-color="white" stop-opacity="0.235294"/>
<stop offset="0.950563" stop-color="white" stop-opacity="0.156863"/>
<stop offset="1" stop-color="white" stop-opacity="0.392157"/>
</linearGradient>
<radialGradient id="paint6_radial" cx="0" cy="0" r="1" gradientUnits="userSpaceOnUse" gradientTransform="translate(46.5917 35.0629) rotate(90) scale(43.7386)">
<stop stop-color="#828282"/>
<stop offset="1" stop-color="#161616"/>
</radialGradient>
<radialGradient id="paint7_radial" cx="0" cy="0" r="1" gradientUnits="userSpaceOnUse" gradientTransform="translate(46.5917 31.2549) rotate(90) scale(40.4143)">
<stop stop-color="#A62100"/>
<stop offset="1" stop-color="#F37329"/>
</radialGradient>
<linearGradient id="paint8_linear" x1="46.5917" y1="24.9035" x2="46.5917" y2="74.6167" gradientUnits="userSpaceOnUse">
<stop/>
<stop offset="1" stop-color="white"/>
</linearGradient>
<radialGradient id="paint9_radial" cx="0" cy="0" r="1" gradientUnits="userSpaceOnUse" gradientTransform="translate(46.5918 46.0301) rotate(90) scale(10.6778)">
<stop stop-color="#B6B6B6"/>
<stop offset="1"/>
</radialGradient>
<linearGradient id="paint10_linear" x1="46.5918" y1="42.8124" x2="46.5918" y2="56.7079" gradientUnits="userSpaceOnUse">
<stop/>
<stop offset="1" stop-color="#626262"/>
</linearGradient>
<radialGradient id="paint11_radial" cx="0" cy="0" r="1" gradientUnits="userSpaceOnUse" gradientTransform="translate(93.268 27.9666) rotate(90) scale(27.4844)">
<stop stop-color="#828282"/>
<stop offset="1" stop-color="#161616"/>
</radialGradient>
<radialGradient id="paint12_radial" cx="0" cy="0" r="1" gradientUnits="userSpaceOnUse" gradientTransform="translate(93.2678 27.5238) rotate(90) scale(21.1367)">
<stop stop-color="#A62100"/>
<stop offset="1" stop-color="#F37329"/>
</radialGradient>
<linearGradient id="paint13_linear" x1="93.2678" y1="24.2021" x2="93.2678" y2="50.2021" gradientUnits="userSpaceOnUse">
<stop/>
<stop offset="1" stop-color="white"/>
</linearGradient>
<radialGradient id="paint14_radial" cx="0" cy="0" r="1" gradientUnits="userSpaceOnUse" gradientTransform="translate(93.2678 33.472) rotate(90) scale(10.6778)">
<stop stop-color="#B6B6B6"/>
<stop offset="1"/>
</radialGradient>
<linearGradient id="paint15_linear" x1="93.2678" y1="30.2543" x2="93.2678" y2="44.1498" gradientUnits="userSpaceOnUse">
<stop/>
<stop offset="1" stop-color="#626262"/>
</linearGradient>
<linearGradient id="paint16_linear" x1="64.0417" y1="61.0788" x2="64.0417" y2="117.002" gradientUnits="userSpaceOnUse">
<stop stop-color="#4F4C4C"/>
<stop offset="1" stop-color="#262626"/>
</linearGradient>
<radialGradient id="paint17_radial" cx="0" cy="0" r="1" gradientUnits="userSpaceOnUse" gradientTransform="translate(79.1248 69.9794) rotate(90) scale(8.55142)">
<stop stop-color="#2B2B2B"/>
<stop offset="1" stop-color="#4F4F4F"/>
</radialGradient>
<radialGradient id="paint18_radial" cx="0" cy="0" r="1" gradientUnits="userSpaceOnUse" gradientTransform="translate(99.0332 69.9794) rotate(90) scale(8.55142)">
<stop stop-color="#2B2B2B"/>
<stop offset="1" stop-color="#4F4F4F"/>
</radialGradient>
</defs>
</svg>
