<svg width="16" height="16" viewBox="0 0 16 16" fill="none" xmlns="http://www.w3.org/2000/svg">
<path d="M12.5 1.5H3.5C2.39543 1.5 1.5 2.39543 1.5 3.5V12.5C1.5 13.6046 2.39543 14.5 3.5 14.5H12.5C13.6046 14.5 14.5 13.6046 14.5 12.5V3.5C14.5 2.39543 13.6046 1.5 12.5 1.5Z" fill="url(#paint0_linear)"/>
<path opacity="0.3" d="M12.5 2.5H3.5C2.94772 2.5 2.5 2.94772 2.5 3.5V12.5C2.5 13.0523 2.94772 13.5 3.5 13.5H12.5C13.0523 13.5 13.5 13.0523 13.5 12.5V3.5C13.5 2.94772 13.0523 2.5 12.5 2.5Z" stroke="url(#paint1_linear)" stroke-linecap="round" stroke-linejoin="round"/>
<path opacity="0.7" d="M12.5 1.5H3.5C2.39543 1.5 1.5 2.39543 1.5 3.5V12.5C1.5 13.6046 2.39543 14.5 3.5 14.5H12.5C13.6046 14.5 14.5 13.6046 14.5 12.5V3.5C14.5 2.39543 13.6046 1.5 12.5 1.5Z" stroke="black" stroke-linecap="round" stroke-linejoin="round"/>
<circle cx="6.0804" cy="6.01595" r="1.99837" fill="#1B1B1B" stroke="#D25017" stroke-width="1.5"/>
<circle cx="10.823" cy="5.10599" r="1.33842" fill="#1B1B1B" stroke="#D25017"/>
<path d="M13.5061 6.90878V6.91811V6.9284V6.93877V6.94923V6.95977V6.9704V6.98112V6.99192V7.0028V7.01376V7.02481V7.03594V7.04716V7.05845V7.06983V7.08128V7.09282V7.10443V7.11612V7.12789V7.13974V7.15167V7.16367V7.17575V7.18791V7.20014V7.21245V7.22483V7.23728V7.24981V7.26241V7.27508V7.28783V7.30064V7.31353V7.32649V7.33952V7.35261V7.36578V7.37901V7.39232V7.40569V7.41912V7.43263V7.4462V7.45983V7.47353V7.4873V7.50112V7.51502V7.52897V7.54299V7.55707V7.57121V7.58541V7.59968V7.614V7.62838V7.64282V7.65732V7.67188V7.6865V7.70117V7.7159V7.73069V7.74553V7.76043V7.77538V7.79038V7.80544V7.82056V7.83572V7.85094V7.86621V7.88153V7.8969V7.91232V7.92779V7.94331V7.95888V7.9745V7.99016V8.00588V8.02163V8.03744V8.05329V8.06919V8.08513V8.10111V8.11714V8.13322V8.14933V8.16549V8.18169V8.19793V8.21421V8.23054V8.2469V8.2633V8.27974V8.29622V8.31274V8.32929V8.34588V8.36251V8.37917V8.39587V8.4126V8.42937V8.44617V8.46301V8.47988V8.49678V8.51371V8.53068V8.54767V8.5647V8.58176V8.59884V8.61596V8.6331V8.65027V8.66747V8.68469V8.70195V8.71923V8.73653V8.75386V8.77121V8.78859V8.80599V8.82342V8.84086V8.85833V8.87582V8.89334V8.91087V8.92842V8.94599V8.96358V8.98119V8.99882V9.01647V9.03413V9.05181V9.06951V9.08722V9.10495V9.12269V9.14045V9.15822V9.176V9.1938V9.2116V9.22942V9.24725V9.2651V9.28295V9.30081V9.31868V9.33656V9.35445V9.37235V9.39025V9.40816V9.42608V9.444V9.46193V9.47986V9.4978V9.51574V9.53368V9.55163V9.56958V9.58753V9.60549V9.62344V9.6414V9.65935V9.6773V9.69526V9.71321V9.73116V9.7491V9.76705V9.78499V9.80292V9.82086V9.83878V9.8567V9.87462V9.89253V9.91043V9.92832V9.94621V9.96409V9.98196V9.99982V10.0177V10.0355V10.0533V10.0711V10.089V10.1067V10.1245V10.1423V10.16V10.1778V10.1955V10.2132V10.2309V10.2486V10.2662V10.2839V10.3015V10.3191V10.3367V10.3543V10.3718V10.3893V10.4068V10.4243V10.4418V10.4592V10.4767V10.494V10.5114V10.5288V10.5461V10.5634V10.5807V10.5979V10.6151V10.6323V10.6495V10.6666V10.6837V10.7008V10.7178V10.7349V10.7519V10.7688V10.7857V10.8026V10.8195V10.8363V10.8531V10.8699V10.8866V10.9033V10.9199V10.9366V10.9531V10.9697V10.9862V11.0027V11.0191V11.0355V11.0518V11.0681V11.0844V11.1006V11.1168V11.133V11.1491V11.1651V11.1812V11.1971V11.2131V11.2289V11.2448V11.2606V11.2763V11.292V11.3077V11.3233V11.3388V11.3543V11.3698V11.3852V11.4006V11.4159V11.4311V11.4463V11.4615V11.4766V11.4916V11.5066V11.5216V11.5364V11.5513V11.566V11.5808V11.5954V11.61V11.6246V11.639V11.6535V11.6678V11.6821V11.6964V11.7106V11.7247V11.7388V11.7528V11.7667V11.7806V11.7944V11.8081V11.8218V11.8354V11.849V11.8625V11.8759V11.8892V11.9025V11.9157V11.9289V11.942V11.955V11.9679V11.9808V11.9936V12.0063V12.019V12.0315V12.0441V12.0565V12.0689V12.0811V12.0933V12.1055V12.1175V12.1295V12.1414V12.1533V12.165V12.1767V12.1883V12.1998V12.2112V12.2226V12.2339V12.245V12.2562V12.2672V12.2781V12.289V12.2998V12.3105V12.3211V12.3316V12.342V12.3524V12.3626V12.3728V12.3829V12.3929V12.4028V12.4126V12.4224V12.432V12.4415V12.451V12.4604V12.4696V12.4788V12.4879V12.4969V12.5058V12.5146V12.5233V12.5319V12.5405V12.5489V12.5572V12.5654V12.5736V12.5816V12.5895V12.5974V12.6051V12.6127V12.6203V12.6277V12.635V12.6422V12.6494V12.6564V12.6633V12.6701V12.6768V12.6834V12.6899V12.6963V12.7025V12.7087V12.7148V12.7207V12.7266V12.7323V12.7379V12.7435V12.7489V12.7541V12.7593V12.7644V12.7694V12.7742V12.7789V12.7835V12.788V12.7924V12.7967V12.8008V12.8049V12.8088V12.8126V12.8163V12.8198C13.5061 12.9597 13.4364 13.1242 13.2974 13.2617C13.1574 13.4002 12.9923 13.4665 12.8624 13.4665H12.859H12.8554H12.8515H12.8475H12.8433H12.839H12.8344H12.8297H12.8248H12.8197H12.8144H12.809H12.8033H12.7975H12.7915H12.7854H12.779H12.7725H12.7659H12.759H12.752H12.7448H12.7374H12.7299H12.7222H12.7143H12.7063H12.6981H12.6897H12.6812H12.6725H12.6636H12.6546H12.6454H12.636H12.6265H12.6168H12.607H12.597H12.5869H12.5766H12.5661H12.5555H12.5447H12.5338H12.5227H12.5115H12.5001H12.4885H12.4768H12.465H12.453H12.4409H12.4286H12.4162H12.4036H12.3909H12.378H12.365H12.3518H12.3386H12.3251H12.3115H12.2978H12.284H12.27H12.2558H12.2416H12.2272H12.2126H12.1979H12.1831H12.1682H12.1531H12.1379H12.1225H12.1071H12.0914H12.0757H12.0599H12.0439H12.0277H12.0115H11.9951H11.9786H11.962H11.9453H11.9284H11.9114H11.8943H11.8771H11.8597H11.8423H11.8247H11.807H11.7892H11.7712H11.7532H11.735H11.7167H11.6983H11.6798H11.6612H11.6425H11.6237H11.6047H11.5857H11.5665H11.5472H11.5279H11.5084H11.4888H11.4691H11.4493H11.4294H11.4094H11.3893H11.3691H11.3488H11.3284H11.3079H11.2873H11.2666H11.2458H11.2249H11.2039H11.1829H11.1617H11.1404H11.1191H11.0976H11.0761H11.0545H11.0328H11.011H10.9891H10.9671H10.945H10.9229H10.9007H10.8783H10.8559H10.8335H10.8109H10.7883H10.7655H10.7427H10.7199H10.6969H10.6739H10.6508H10.6276H10.6043H10.581H10.5576H10.5341H10.5105H10.4869H10.4632H10.4394H10.4156H10.3917H10.3677H10.3437H10.3196H10.2954H10.2712H10.2469H10.2225H10.1981H10.1736H10.1491H10.1244H10.0998H10.0751H10.0503H10.0254H10.0005H9.97558H9.95057H9.92551H9.90039H9.87522H9.85H9.82473H9.7994H9.77403H9.74861H9.72314H9.69762H9.67205H9.64644H9.62078H9.59508H9.56933H9.54354H9.5177H9.49183H9.46591H9.43996H9.41396H9.38792H9.36185H9.33574H9.30959H9.28341H9.25719H9.23093H9.20465H9.17832H9.15197H9.12559H9.09917H9.07272H9.04625H9.01974H8.99321H8.96665H8.94007H8.91346H8.88682H8.86016H8.83347H8.80677H8.78004H8.75328H8.72651H8.69972H8.67291H8.64608H8.61924H8.59237H8.56549H8.5386H8.51169H8.48476H8.45783H8.43088H8.40391H8.37694H8.34996H8.32296H8.29596H8.26895H8.24193H8.21491H8.18788H8.16085H8.13381H8.10676H8.07972H8.05267H8.02562H7.99857H7.97151H7.94446H7.91741H7.89037H7.86332H7.83628H7.80925H7.78221H7.75519H7.72817H7.70116H7.67416H7.64716H7.62017H7.5932H7.56624H7.53928H7.51234H7.48541H7.4585H7.4316H7.40472H7.37785H7.351H7.32417H7.29735H7.27056H7.24378H7.21703H7.19029H7.16358H7.13689H7.11022H7.08358H7.05696H7.03037H7.00381H6.97727H6.95076H6.92428H6.89782H6.8714H6.84501H6.81865H6.79232H6.76602H6.73976H6.71354H6.68734H6.66119H6.63507H6.60899H6.58294H6.55694H6.53097H6.50505H6.47916H6.45332H6.42752H6.40176H6.37605H6.35038H6.32476H6.29918H6.27365H6.24817H6.22273H6.19735H6.17201H6.14673H6.1215H6.09632H6.07119H6.04611H6.02109H5.99613H5.97122H5.94636H5.92157H5.89683H5.87215H5.84753H5.82297H5.79847H5.77403H5.74965H5.72534H5.70109H5.67691H5.65279H5.62874H5.60475H5.58083H5.55698H5.5332H5.50949H5.48584H5.46227H5.43877H5.41535H5.392H5.36872H5.34551H5.32238H5.29933H5.27636H5.25346H5.23064H5.2079H5.18524H5.16266H5.14016H5.11774H5.09541H5.07316H5.051H5.02892H5.00692H4.98501H4.96319H4.94146H4.91982H4.89826H4.8768H4.85543H4.83414H4.81295H4.79186H4.77086H4.74995H4.72914H4.70842H4.6878H4.66728H4.64685H4.62653H4.6063H4.58618H4.56616H4.54624H4.52642H4.5067H4.48709H4.46758H4.44818H4.42889H4.4097H4.39062H4.37165H4.35279H4.33404H4.3154H4.29687H4.27845H4.26015H4.24196H4.22388H4.20592H4.18807H4.17035H4.15273H4.13524H4.11787H4.10061H4.08348H4.06647H4.04957H4.0328H4.01616H3.99964H3.98324H3.96697H3.95082H3.9348H3.91891H3.90315H3.88752H3.87201H3.85664H3.8414H3.82629H3.81131H3.79646H3.78176H3.76718H3.75274H3.73844H3.72427H3.71025H3.69636H3.68261H3.669H3.65553H3.6422H3.62902H3.61598H3.60308H3.59033H3.57772H3.56526H3.55294H3.54077H3.52875H3.51688H3.50516H3.49359H3.48217H3.4709H3.45979H3.44883H3.43802H3.42737H3.41687H3.40653H3.39634H3.38632H3.37645H3.36674H3.35719H3.3478H3.33857H3.32951H3.32061H3.31187H3.30329H3.29488H3.28664H3.27856H3.27066H3.26291H3.25534H3.24794H3.2407H3.23364H3.22675H3.22003H3.21349H3.20712H3.20092H3.1949H3.18905H3.18339H3.17789H3.17258H3.16745H3.16249H3.15772H3.15313H3.14872H3.14449H3.14045H3.13659H3.13291H3.12942H3.12612H3.123H3.12007H3.11733C3.04413 13.4665 2.88221 13.4155 2.72825 13.2818C2.57764 13.151 2.52197 13.0181 2.52197 12.9293V12.9259V12.9225V12.919V12.9155V12.9119V12.9082V12.9045V12.9007V12.8968V12.8929V12.8888V12.8848V12.8806V12.8764V12.8722V12.8678V12.8635V12.859V12.8545V12.8499V12.8452V12.8405V12.8358V12.8309V12.826V12.8211V12.8161V12.811V12.8059V12.8007V12.7954V12.7901V12.7847V12.7793V12.7738V12.7682V12.7626V12.757V12.7512V12.7455V12.7396V12.7337V12.7278V12.7218V12.7157V12.7096V12.7034V12.6972V12.6909V12.6846V12.6782V12.6717V12.6652V12.6587V12.6521V12.6454V12.6387V12.632V12.6252V12.6183V12.6114V12.6044V12.5974V12.5904V12.5832V12.5761V12.5689V12.5616V12.5543V12.5469V12.5395V12.5321V12.5246V12.517V12.5094V12.5018V12.4941V12.4864V12.4786V12.4708V12.4629V12.455V12.447V12.439V12.431V12.4229V12.4148V12.4066V12.3984V12.3901V12.3818V12.3735V12.3651V12.3566V12.3482V12.3397V12.3311V12.3225V12.3139V12.3052V12.2965V12.2878V12.279V12.2701V12.2613V12.2524V12.2434V12.2345V12.2254V12.2164V12.2073V12.1982V12.189V12.1798V12.1706V12.1613V12.152V12.1427V12.1334V12.124V12.1145V12.1051V12.0956V12.086V12.0765V12.0669V12.0572V12.0476V12.0379V12.0282V12.0184V12.0086V11.9988V11.989V11.9791V11.9692V11.9593V11.9493V11.9394V11.9293V11.9193V11.9092V11.8991V11.889V11.8789V11.8687V11.8585V11.8483V11.838V11.8278V11.8175V11.8071V11.7968V11.7864V11.776V11.7656V11.7552V11.7447V11.7342V11.7237V11.7132V11.7027V11.6921V11.6815V11.6709V11.6602V11.6496V11.6389V11.6282V11.6175V11.6068V11.596V11.5853V11.5745V11.5637V11.5529V11.542V11.5312V11.5203V11.5094V11.4985V11.4876V11.4767V11.4658V11.4548V11.4438V11.4328V11.4218V11.4108V11.3998V11.3887V11.3777V11.3666V11.3555V11.3445V11.3334V11.3222V11.3111V11.3V11.2888V11.2777V11.2665V11.2554V11.2442V11.233V11.2218V11.2106V11.1994V11.1881V11.1769V11.1657V11.1544V11.1432V11.1319V11.1207V11.1094V11.0981V11.0868V11.0755V11.0643V11.053V11.0417V11.0304V11.0191V11.0078V10.9965V10.9852V10.9738V10.9625V10.9512V10.9399V10.9286V10.9173V10.9059V10.8946V10.8833V10.872V10.8607V10.8494V10.838V10.8267V10.8154V10.8041V10.7928V10.7815V10.7702V10.7589V10.7476V10.7363V10.7251V10.7138V10.7025V10.6912V10.68V10.6687V10.6575V10.6462V10.635V10.6238V10.6125V10.6013V10.5901V10.5789V10.5677V10.5565V10.5454V10.5342V10.523V10.5119V10.5008V10.4896V10.4785V10.4674V10.4563V10.4453V10.4342V10.4231V10.4121V10.4011V10.3901V10.3791V10.3681V10.3571V10.3461V10.3352V10.3243V10.3134V10.3025V10.2916V10.2807V10.2699V10.259V10.2482V10.2374V10.2266V10.2159V10.2051V10.1944V10.1837V10.173V10.1623V10.1517V10.141V10.1304V10.1198V10.1093V10.0987V10.0882V10.0777V10.0672V10.0568V10.0463V10.0359V10.0255V10.0151V10.0048V9.99447V9.98417V9.9739V9.96365V9.95343V9.94324V9.93307V9.92292V9.9128V9.90271V9.89265V9.88261V9.8726V9.86262V9.85266V9.84274V9.83284V9.82297V9.81314V9.80333V9.79355V9.7838V9.77408V9.76439V9.75474V9.74511V9.73552V9.72596V9.71643V9.70693V9.69747V9.68804V9.67864V9.66927V9.65994V9.65065V9.64139V9.63216V9.62297V9.61381V9.60469V9.59561V9.58656V9.57755V9.56858V9.55964V9.55074V9.54188V9.53306V9.52427V9.51553V9.50682V9.49815V9.48952V9.48093V9.47238V9.46387V9.45541V9.44698V9.4386V9.43025V9.42195V9.41369V9.40547V9.3973V9.38917V9.38108V9.37303V9.36503V9.35708V9.34917V9.3413V9.33348V9.3257V9.31797V9.31029V9.30842H6.34036C6.48512 9.30842 6.62278 9.24568 6.71774 9.13642L8.65386 6.90878H13.5061Z" fill="url(#paint2_linear)" stroke="#5B5B5B" stroke-linecap="round" stroke-linejoin="round"/>
<path d="M2.02197 10.6819H14.0061V12.666C14.0061 13.384 13.4241 13.966 12.7061 13.966H3.32197C2.604 13.966 2.02197 13.384 2.02197 12.666V10.6819Z" fill="#EEEEEE"/>
<rect x="3.01978" y="10.6819" width="1" height="1.71674" fill="#222222"/>
<rect x="3.26978" y="10.9319" width="0.5" height="1.21674" stroke="black" stroke-opacity="0.75" stroke-width="0.5"/>
<rect x="4.93799" y="10.6819" width="1" height="1.71674" fill="#222222"/>
<rect x="5.18799" y="10.9319" width="0.5" height="1.21674" stroke="black" stroke-opacity="0.75" stroke-width="0.5"/>
<mask id="path-12-inside-1" fill="white">
<path d="M8.2356 10.6885H9.2356V12.4053H8.2356V10.6885Z"/>
</mask>
<path d="M8.2356 10.6885H9.2356V12.4053H8.2356V10.6885Z" fill="#222222"/>
<path d="M8.2356 10.6885V9.68854H7.2356V10.6885H8.2356ZM9.2356 10.6885H10.2356V9.68854H9.2356V10.6885ZM9.2356 12.4053V13.4053H10.2356V12.4053H9.2356ZM8.2356 12.4053H7.2356V13.4053H8.2356V12.4053ZM8.2356 11.6885H9.2356V9.68854H8.2356V11.6885ZM8.2356 10.6885V12.4053H10.2356V10.6885H8.2356ZM9.2356 11.4053H8.2356V13.4053H9.2356V11.4053ZM9.2356 12.4053V10.6885H7.2356V12.4053H9.2356Z" fill="black" fill-opacity="0.75" mask="url(#path-12-inside-1)"/>
<rect x="10.1206" y="10.6997" width="1" height="1.71674" fill="#222222"/>
<rect x="10.3706" y="10.9497" width="0.5" height="1.21674" stroke="black" stroke-opacity="0.75" stroke-width="0.5"/>
<rect x="12.0056" y="10.6997" width="1" height="1.70559" fill="#222222"/>
<rect x="12.2556" y="10.9497" width="0.5" height="1.20559" stroke="black" stroke-opacity="0.75" stroke-width="0.5"/>
<circle cx="9.71769" cy="8.54172" r="0.733069" fill="#C4C4C4"/>
<circle cx="11.8595" cy="8.54172" r="0.733069" fill="#C4C4C4"/>
<defs>
<linearGradient id="paint0_linear" x1="7.85759" y1="1.55141" x2="7.85759" y2="14.4908" gradientUnits="userSpaceOnUse">
<stop stop-color="#252525"/>
<stop offset="1" stop-color="#1A1A1A"/>
</linearGradient>
<linearGradient id="paint1_linear" x1="8" y1="2.35135" x2="8" y2="13.6487" gradientUnits="userSpaceOnUse">
<stop stop-color="white"/>
<stop offset="0.0631645" stop-color="white" stop-opacity="0.235294"/>
<stop offset="0.950563" stop-color="white" stop-opacity="0.156863"/>
<stop offset="1" stop-color="white" stop-opacity="0.392157"/>
</linearGradient>
<linearGradient id="paint2_linear" x1="8.01071" y1="6.40878" x2="8.01071" y2="13.9665" gradientUnits="userSpaceOnUse">
<stop stop-color="#303030"/>
<stop offset="1" stop-color="#0D0D0D"/>
</linearGradient>
</defs>
</svg>
