<svg width="412" height="148" viewBox="0 0 412 148" fill="none" xmlns="http://www.w3.org/2000/svg">
<rect x="20.7036" y="0.164982" width="390.593" height="147.67" fill="#1A1A1A" fill-opacity="0.53"/>
<rect x="21.2036" y="0.664982" width="389.593" height="146.67" stroke="white" stroke-opacity="0.75"/>
<path d="M25.7036 73.5L20.7036 71.1132L20.7036 76.8867L25.7036 74.5L25.7036 73.5ZM406.296 74.5L411.296 76.8867L411.296 71.1132L406.296 73.5L406.296 74.5ZM25.2036 74.5L406.796 74.5L406.796 73.5L25.2036 73.5L25.2036 74.5Z" fill="white" fill-opacity="0.3"/>
<path d="M4.48926 7.55951H3.33691V1.96381H2.65332L0.915039 3.09662L1.2373 3.6142L2.59473 2.76459V7.55951H1.18848V8.16498H4.48926V7.55951ZM5.17285 6.29974V8.16498H8.74707V7.52045H5.93457V6.28021C5.93457 6.11745 5.96387 6.01654 6.02246 5.97748C6.0485 5.96446 6.07454 5.95144 6.10059 5.93842L7.99512 5.00092C8.36621 4.81862 8.59408 4.63633 8.67871 4.45404C8.73079 4.33685 8.75684 4.19037 8.75684 4.01459V3.10638C8.75684 2.31862 8.34668 1.92474 7.52637 1.92474C7.51986 1.92474 7.51335 1.92474 7.50684 1.92474L5.2998 1.96381V2.60834H7.87793C7.94954 2.62136 7.98861 2.66368 7.99512 2.73529V4.13177C7.98861 4.21641 7.94629 4.275 7.86816 4.30756L5.9541 5.25482C5.61556 5.41758 5.40723 5.55756 5.3291 5.67474C5.22493 5.81797 5.17285 6.02631 5.17285 6.29974ZM10.6514 8.18451L12.9072 2.69623C12.8942 2.20795 12.6501 1.96055 12.1748 1.95404L9.34277 1.96381V2.57904H12.0381C12.1097 2.59206 12.1292 2.63112 12.0967 2.69623L9.85059 8.18451H10.6514Z" fill="#9CFFFF"/>
<path d="M3.78613 77.2189C4.58691 77.2189 5.01335 76.8804 5.06543 76.2033C5.07194 76.1447 5.0752 76.0894 5.0752 76.0373V74.5334C5.0752 73.9214 4.80827 73.5601 4.27441 73.4494C4.13118 73.4168 3.96842 73.4006 3.78613 73.4006H2.14551V71.7599C2.15853 71.6883 2.20085 71.6493 2.27246 71.6428H4.80176V70.9885L2.70215 70.9494C1.97949 70.9429 1.5498 71.2228 1.41309 71.7892C1.38704 71.9064 1.37402 72.0301 1.37402 72.1603V76.1056C1.37402 76.6916 1.61816 77.0431 2.10645 77.1603C2.26921 77.1994 2.45801 77.2189 2.67285 77.2189H3.78613ZM2.28223 76.5353C2.19759 76.5223 2.15202 76.4832 2.14551 76.4181V74.0451H4.17676C4.25488 74.0581 4.2972 74.0972 4.30371 74.1623V76.4181C4.29069 76.4898 4.24837 76.5288 4.17676 76.5353H2.28223ZM9.23535 76.0178V74.9142C9.22884 74.4325 9.05306 74.1167 8.70801 73.967C9.02051 73.7977 9.18001 73.5015 9.18652 73.0783V72.1408C9.1735 71.34 8.74382 70.9429 7.89746 70.9494L5.78809 70.9885V71.6232H8.29785C8.36947 71.6362 8.40853 71.6786 8.41504 71.7502V73.5373C8.40202 73.6154 8.36296 73.6577 8.29785 73.6642H6.31543V74.3088H8.34668C8.41829 74.3218 8.45736 74.3641 8.46387 74.4357V76.4181C8.45085 76.4898 8.41178 76.5288 8.34668 76.5353H5.75879V77.1896L7.90723 77.2287C8.65592 77.2352 9.08887 76.939 9.20605 76.34C9.22559 76.2359 9.23535 76.1284 9.23535 76.0178Z" fill="#9CFFFF"/>
<path d="M5.19482 139.617C5.24691 139.63 5.2762 139.659 5.28271 139.705V144.5C5.26969 144.552 5.2404 144.581 5.19482 144.588H3.08545C3.03337 144.575 3.00407 144.545 2.99756 144.5V139.705C3.01058 139.653 3.03988 139.623 3.08545 139.617H5.19482ZM2.22607 144.177C2.22607 144.75 2.45068 145.095 2.8999 145.213C3.04964 145.252 3.22868 145.271 3.43701 145.271H4.84326C5.47477 145.271 5.85889 145.066 5.99561 144.656C6.03467 144.519 6.0542 144.36 6.0542 144.177V140.017C6.0542 139.451 5.82633 139.109 5.37061 138.992C5.22087 138.953 5.04508 138.933 4.84326 138.933H3.43701C2.79899 138.933 2.41488 139.142 2.28467 139.558C2.24561 139.695 2.22607 139.848 2.22607 140.017V144.177Z" fill="#9CFFFF"/>
<path d="M20.7036 7.05791C43.7468 7.05791 45.6983 142.009 70.961 142.009C94.6246 142.009 96.0185 7.05791 118.697 7.05791" stroke="#C2E1FF"/>
<path d="M118.696 7.05791C141.577 7.05791 143.515 142.009 168.6 142.009C192.097 142.009 193.481 7.05791 216 7.05791" stroke="#C2E1FF"/>
<path d="M216 7.05791C239.043 7.05791 240.995 142.009 266.257 142.009C289.921 142.009 291.315 7.05791 313.993 7.05791" stroke="#C2E1FF"/>
<path d="M313.993 7.05791C336.874 7.05791 338.812 142.009 363.897 142.009C387.394 142.009 388.778 7.05791 411.296 7.05791" stroke="#C2E1FF"/>
</svg>
