<svg width="32" height="32" viewBox="0 0 32 32" fill="none" xmlns="http://www.w3.org/2000/svg">
<g opacity="0.4">
<path opacity="0.4" d="M29.9999 28H26.3157V31H29.9999V28Z" fill="url(#paint0_radial)"/>
<path opacity="0.4" d="M2.00012 31H5.68433V28H2.00012V31Z" fill="url(#paint1_radial)"/>
<path opacity="0.4" d="M26.3159 28H5.68433V31H26.3159V28Z" fill="url(#paint2_linear)"/>
</g>
<path d="M27.34 2.5H4.66C3.46706 2.5 2.5 3.46706 2.5 4.66V27.34C2.5 28.5329 3.46706 29.5 4.66 29.5H27.34C28.5329 29.5 29.5 28.5329 29.5 27.34V4.66C29.5 3.46706 28.5329 2.5 27.34 2.5Z" fill="url(#paint3_linear)"/>
<path opacity="0.5" d="M27.413 3.5H4.58696C3.98665 3.5 3.5 3.98665 3.5 4.58696V27.413C3.5 28.0134 3.98665 28.5 4.58696 28.5H27.413C28.0134 28.5 28.5 28.0134 28.5 27.413V4.58696C28.5 3.98665 28.0134 3.5 27.413 3.5Z" stroke="url(#paint4_linear)" stroke-linecap="round" stroke-linejoin="round"/>
<path opacity="0.7" d="M27.34 2.5H4.66C3.46707 2.5 2.5 3.46707 2.5 4.66V27.34C2.5 28.5329 3.46707 29.5 4.66 29.5H27.34C28.5329 29.5 29.5 28.5329 29.5 27.34V4.66C29.5 3.46707 28.5329 2.5 27.34 2.5Z" stroke="black" stroke-linecap="round" stroke-linejoin="round"/>
<circle cx="11.4256" cy="11.6982" r="6.43265" fill="url(#paint5_radial)"/>
<circle cx="11.4256" cy="11.6982" r="6.93265" stroke="black" stroke-opacity="0.75"/>
<g filter="url(#filter0_d)">
<circle cx="11.4256" cy="11.6984" r="5.50572" fill="url(#paint6_radial)"/>
<circle cx="11.4256" cy="11.6984" r="5.00572" stroke="black" stroke-opacity="0.75"/>
</g>
<circle cx="11.426" cy="11.6985" r="1.53925" fill="url(#paint7_radial)"/>
<circle cx="22.9613" cy="9.19561" r="4.04213" fill="url(#paint8_radial)"/>
<circle cx="22.9613" cy="9.19561" r="4.54213" stroke="black" stroke-opacity="0.75"/>
<g filter="url(#filter1_d)">
<circle cx="22.962" cy="9.19649" r="3.26962" fill="url(#paint9_radial)"/>
<circle cx="22.962" cy="9.19649" r="2.76962" stroke="black" stroke-opacity="0.75"/>
</g>
<circle cx="22.9619" cy="9.1956" r="1.25" fill="url(#paint10_radial)"/>
<path d="M27.4681 14.1863V14.188V14.2026V14.2174V14.2324V14.2476V14.263V14.2785V14.2943V14.3102V14.3263V14.3426V14.3591V14.3757V14.3925V14.4095V14.4267V14.444V14.4616V14.4793V14.4971V14.5152V14.5334V14.5518V14.5704V14.5891V14.608V14.627V14.6462V14.6656V14.6852V14.7049V14.7248V14.7448V14.765V14.7853V14.8059V14.8265V14.8473V14.8683V14.8895V14.9107V14.9322V14.9538V14.9755V14.9974V15.0194V15.0416V15.0639V15.0864V15.1091V15.1318V15.1547V15.1778V15.201V15.2243V15.2478V15.2714V15.2951V15.319V15.343V15.3672V15.3915V15.4159V15.4405V15.4651V15.49V15.5149V15.54V15.5652V15.5905V15.6159V15.6415V15.6672V15.693V15.719V15.745V15.7712V15.7975V15.8239V15.8505V15.8771V15.9039V15.9308V15.9578V15.9849V16.0121V16.0394V16.0669V16.0944V16.1221V16.1498V16.1777V16.2057V16.2337V16.2619V16.2902V16.3186V16.3471V16.3756V16.4043V16.4331V16.462V16.4909V16.52V16.5492V16.5784V16.6078V16.6372V16.6667V16.6963V16.726V16.7558V16.7857V16.8157V16.8457V16.8758V16.906V16.9363V16.9667V16.9971V17.0277V17.0583V17.089V17.1197V17.1506V17.1815V17.2125V17.2435V17.2747V17.3059V17.3371V17.3685V17.3999V17.4313V17.4629V17.4945V17.5261V17.5579V17.5897V17.6215V17.6534V17.6854V17.7174V17.7495V17.7817V17.8139V17.8461V17.8784V17.9108V17.9432V17.9757V18.0082V18.0408V18.0734V18.106V18.1387V18.1715V18.2043V18.2371V18.27V18.3029V18.3359V18.3689V18.4019V18.435V18.4681V18.5013V18.5345V18.5677V18.601V18.6343V18.6676V18.7009V18.7343V18.7677V18.8012V18.8346V18.8681V18.9016V18.9352V18.9687V19.0023V19.0359V19.0696V19.1032V19.1369V19.1705V19.2042V19.238V19.2717V19.3054V19.3392V19.3729V19.4067V19.4405V19.4743V19.5081V19.5419V19.5758V19.6096V19.6434V19.6772V19.7111V19.7449V19.7788V19.8126V19.8464V19.8803V19.9141V19.9479V19.9817V20.0156V20.0494V20.0832V20.117V20.1508V20.1845V20.2183V20.2521V20.2858V20.3195V20.3532V20.3869V20.4206V20.4543V20.4879V20.5215V20.5551V20.5887V20.6223V20.6558V20.6893V20.7228V20.7562V20.7897V20.8231V20.8564V20.8898V20.9231V20.9564V20.9896V21.0228V21.056V21.0892V21.1223V21.1554V21.1884V21.2214V21.2543V21.2872V21.3201V21.3529V21.3857V21.4185V21.4512V21.4838V21.5164V21.549V21.5815V21.6139V21.6463V21.6787V21.711V21.7432V21.7754V21.8075V21.8396V21.8716V21.9036V21.9355V21.9673V21.9991V22.0308V22.0624V22.094V22.1255V22.157V22.1884V22.2197V22.251V22.2821V22.3132V22.3443V22.3752V22.4061V22.437V22.4677V22.4984V22.529V22.5595V22.5899V22.6202V22.6505V22.6807V22.7108V22.7408V22.7708V22.8006V22.8304V22.8601V22.8897V22.9192V22.9486V22.9779V23.0071V23.0362V23.0653V23.0942V23.1231V23.1518V23.1805V23.209V23.2375V23.2658V23.2941V23.3222V23.3503V23.3782V23.4061V23.4338V23.4614V23.489V23.5164V23.5437V23.5709V23.5979V23.6249V23.6517V23.6785V23.7051V23.7316V23.758V23.7843V23.8104V23.8364V23.8624V23.8881V23.9138V23.9393V23.9648V23.9901V24.0152V24.0403V24.0652V24.0899V24.1146V24.1391V24.1635V24.1878V24.2119V24.2359V24.2597V24.2834V24.307V24.3304V24.3537V24.3769V24.3999V24.4228V24.4455V24.4681V24.4905V24.5128V24.535V24.5569V24.5788V24.6005V24.622V24.6434V24.6647V24.6858V24.7067V24.7275V24.7481V24.7686V24.7889V24.8091V24.829V24.8489V24.8685V24.8881V24.9074V24.9266V24.9456V24.9644V24.9831V25.0016V25.02V25.0381V25.0561V25.074V25.0916V25.1091V25.1264V25.1435V25.1605V25.1773V25.1939V25.2103V25.2265V25.2426V25.2584V25.2741V25.2896V25.305V25.3201V25.335V25.3498V25.3644V25.3788V25.3929V25.4069V25.4208V25.4344V25.4478V25.461V25.474V25.4869V25.4995V25.5119V25.5242V25.5362V25.548V25.5597V25.5711V25.5823V25.5933V25.6041V25.6147V25.6251V25.6353V25.6453V25.6551V25.6646V25.6739V25.6831V25.692V25.7007V25.7091V25.7174V25.7254V25.7333V25.7409V25.7482V25.7554V25.7623V25.769C27.4681 26.6722 26.7977 27.4302 25.9493 27.4302H25.9423H25.9348H25.927H25.9187H25.9102H25.9012H25.8919H25.8821H25.8721H25.8616H25.8508H25.8396H25.8281H25.8161H25.8039H25.7912H25.7782H25.7649H25.7512H25.7371H25.6774H25.6616H25.6454H25.6289H25.6121H25.5949H25.5774H25.5595H25.5413H25.5228H25.504H25.4848H25.4652H25.4454H25.4252H25.4047H25.3839H25.3627H25.3413H25.3195H25.2974H25.275H25.2522H25.2292H25.2058H25.1821H25.1582H25.1339H25.1093H25.0844H25.0592H25.0337H25.0079H24.9818H24.9554H24.9287H24.9017H24.8744H24.8468H24.819H24.7908H24.7624H24.7337H24.7047H24.6754H24.6458H24.616H24.5859H24.5555H24.5248H24.4938H24.4626H24.4311H24.3994H24.3674H24.3351H24.3025H24.2697H24.2367H24.2033H24.1697H24.1018H24.0674H24.0328H23.998H23.9629H23.9275H23.8919H23.8561H23.82H23.7837H23.7471H23.7103H23.6733H23.636H23.5985H23.5608H23.5228H23.4846H23.4462H23.4075H23.3687H23.3296H23.2902H23.2507H23.2109H23.171H23.1308H23.0904H23.0498H23.0089H22.9679H22.9266H22.8852H22.8435H22.8017H22.7596H22.7173H22.6749H22.6322H22.5894H22.5463H22.5031H22.4596H22.416H22.3722H22.3282H22.284H22.2396H22.1951H22.1504H22.1054H22.0604H22.0151H21.9696H21.924H21.8782H21.8323H21.7862H21.7399H21.6934H21.6468H21.6H21.5531H21.5059H21.4587H21.4113H21.3637H21.316H21.2681H21.22H21.1719H21.1235H21.075H21.0264H20.9777H20.9287H20.8797H20.8305H20.7812H20.7317H20.6821H20.6324H20.5826H20.5326H20.4825H20.4322H20.3818H20.3314H20.2807H20.23H20.1792H20.1282H20.0771H20.0259H19.9746H19.9232H19.8716H19.82H19.7682H19.7164H19.6644H19.6123H19.5602H19.5079H19.4556H19.4031H19.3505H19.2979H19.2452H19.1923H19.1394H19.0864H19.0333H18.9801H18.9269H18.8735H18.8201H18.7666H18.713H18.6594H18.6057H18.5519H18.498H18.444H18.39H18.336H18.2818H18.2276H18.1734H18.119H18.0647H18.0102H17.9557H17.9012H17.8466H17.7919H17.7372H17.6825H17.6277H17.5728H17.5179H17.463H17.408H17.353H17.298H17.2429H17.1877H17.1326H17.0774H17.0222H16.9669H16.9117H16.8564H16.8011H16.7457H16.6903H16.635H16.5796H16.5241H16.4687H16.4132H16.3578H16.3023H16.2468H16.1913H16.1358H16.0803H15.8583H9.30362H8.96759H8.9265H8.88563H8.84496H8.80451H8.76427H8.72424H8.68444H8.64485H8.60548H8.56633H8.5274H8.4887H8.45023H8.41198H8.37396H8.33617H8.29861H8.26129H8.2242H8.18734H8.15073H8.11435H8.07822H8.04232H8.00667H7.97127H7.93611H7.9012H7.86654H7.83214H7.79798H7.76408H7.73043H7.69705H7.66392H7.63105H7.59844H7.5661H7.53402H7.50221H7.47067H7.43939H7.40839H7.37766H7.3472H7.31702H7.28711H7.25749H7.22814H7.19907H7.17029H7.14179H7.11358H7.08566H7.05802H7.03068H7.00362H6.97686H6.9504H6.92423H6.89836H6.87279H6.84752H6.82256H6.79789H6.77354H6.74949H6.72574H6.70231H6.67919H6.65638H6.63389H6.61172H6.58986H6.56832H6.5471H6.5262H6.50563H6.48538H6.46546H6.44586H6.4266H6.40767H6.38907H6.3708H6.35287H6.33528H6.31802H6.30111H6.28454H6.26831H6.25242H6.23689H6.2217H6.20685H6.19236H6.17822H6.16444H6.15101H6.13794H6.12522H6.11287H6.10087H6.08924H6.07798H6.06708H6.05654H6.04638H6.03658H6.02716H6.01811H6.00944H6.00114H5.99322H5.98568H5.97852H5.97174H5.96535H5.95934H5.95371C5.64488 27.4302 5.28312 27.2762 4.99184 26.9928C4.70377 26.7125 4.52734 26.3471 4.52734 25.9753V25.969V25.9626V25.9561V25.9494V25.9426V25.9357V25.9286V25.9214V25.9141V25.9067V25.8992V25.8915V25.8837V25.8758V25.8677V25.8596V25.8513V25.8429V25.8344V25.8257V25.817V25.8081V25.7991V25.79V25.7808V25.7714V25.762V25.7524V25.7427V25.733V25.723V25.713V25.7029V25.6927V25.6823V25.6718V25.6613V25.6506V25.6398V25.6289V25.6179V25.6068V25.5956V25.5843V25.5728V25.5613V25.5497V25.5379V25.5261V25.5142V25.5021V25.49V25.4777V25.4654V25.453V25.4404V25.4278V25.415V25.4022V25.3893V25.3762V25.3631V25.3499V25.3366V25.3232V25.3097V25.2961V25.2824V25.2686V25.2548V25.2408V25.2268V25.2126V25.1984V25.1841V25.1697V25.1552V25.1406V25.126V25.1112V25.0964V25.0815V25.0665V25.0514V25.0362V25.021V25.0057V24.9902V24.9747V24.9592V24.9435V24.9278V24.912V24.8961V24.8801V24.8641V24.848V24.8318V24.8155V24.7992V24.7828V24.7663V24.7497V24.7331V24.7164V24.6996V24.6828V24.6658V24.6489V24.6318V24.6147V24.5975V24.5802V24.5629V24.5455V24.528V24.5105V24.4929V24.4753V24.4576V24.4398V24.422V24.404V24.3861V24.3681V24.35V24.3318V24.3136V24.2954V24.2771V24.2587V24.2402V24.2218V24.2032V24.1846V24.166V24.1472V24.1285V24.1097V24.0908V24.0719V24.0529V24.0339V24.0148V23.9957V23.9765V23.9573V23.938V23.9187V23.8994V23.8799V23.8605V23.841V23.8214V23.8019V23.7822V23.7626V23.7428V23.7231V23.7033V23.6834V23.6636V23.6436V23.6237V23.6037V23.5836V23.5636V23.5434V23.5233V23.5031V23.4829V23.4626V23.4424V23.422V23.4017V23.3813V23.3609V23.3404V23.3199V23.2994V23.2789V23.2583V23.2377V23.2171V23.1964V23.1757V23.155V23.1343V23.1135V23.0928V23.0719V23.0511V23.0303V23.0094V22.9885V22.9676V22.9466V22.9256V22.9047V22.8837V22.8626V22.8416V22.8205V22.7995V22.7784V22.7573V22.7361V22.715V22.6939V22.6727V22.6515V22.6303V22.6091V22.5879V22.5667V22.5454V22.5242V22.5029V22.4817V22.4604V22.4391V22.4178V22.3965V22.3752V22.3539V22.3326V22.3113V22.29V22.2687V22.2473V22.226V22.2047V22.1833V22.162V22.1407V22.1193V22.098V22.0767V22.0554V22.034V22.0127V21.9914V21.9701V21.9488V21.9275V21.9062V21.8849V21.8636V21.8424V21.8211V21.7998V21.7786V21.7574V21.7361V21.7149V21.6937V21.6725V21.6513V21.6302V21.609V21.5879V21.5668V21.5457V21.5246V21.5035V21.4824V21.4614V21.4404V21.4194V21.3984V21.3774V21.3565V21.3356V21.3147V21.2938V21.2729V21.2521V21.2313V21.2105V21.1898V21.169V21.1483V21.1276V21.107V21.0864V21.0658V21.0452V21.0246V21.0041V20.9837V20.9632V20.9428V20.9224V20.902V20.8817V20.8614V20.8412V20.821V20.8008V20.7806V20.7605V20.7405V20.7204V20.7004V20.6805V20.6606V20.6407V20.6208V20.601V20.5813V20.5616V20.5419V20.5223V20.5027V20.4831V20.4636V20.4442V20.4248V20.4054V20.3861V20.3668V20.3476V20.3285V20.3093V20.2903V20.2712V20.2523V20.2334V20.2145V20.1957V20.1769V20.1582V20.1396V20.121V20.1024V20.0839V20.0655V20.0471V20.0288V20.0106V19.9924V19.9742V19.9561V19.9381V19.9202V19.9023V19.8844V19.8667V19.8489V19.8313V19.8137V19.7962V19.7787V19.7613V19.744V19.7268V19.7096V19.6925V19.6754V19.6584V19.6415V19.6247V19.6079V19.5912V19.5746V19.558V19.5415V19.5251V19.5088V19.4925V19.4763V19.4602V19.4442V19.4282V19.4123V19.3965V19.3808V19.3652V19.3496V19.3341V19.3187V19.3034V19.2881V19.273V19.2579V19.2429V19.228V19.2132V19.1984V19.1838V19.1692V19.1547V19.1403V19.126V19.1118V19.0977V19.0836V19.0697V19.0558V19.042V19.0284V19.0148V19.0013V18.9879V18.9746V18.9614V18.9482V18.9352V18.9223V18.9095V18.8967V18.8841V18.8716V18.8591V18.8468V18.8346V18.8224V18.8104V18.7984V18.7866V18.7749V18.7633V18.7517V18.7403V18.729V18.7178V18.7089H12.5669C12.7043 18.7089 12.8357 18.6523 12.9301 18.5525L17.0616 14.1863H27.4681Z" fill="url(#paint11_linear)" stroke="#5B5B5B" stroke-linecap="round" stroke-linejoin="round"/>
<path d="M5.00586 19.3831H4.50586V19.8831V26.9106C4.50586 27.242 4.77449 27.5106 5.10586 27.5106H26.9035C27.2349 27.5106 27.5035 27.242 27.5035 26.9106V19.8831V19.3831H27.0035H5.00586Z" fill="#EEEEEE" stroke="black"/>
<g filter="url(#filter2_d)">
<line x1="7.74487" y1="27.0115" x2="7.74487" y2="21.002" stroke="black" stroke-opacity="0.5"/>
</g>
<g filter="url(#filter3_d)">
<line x1="11.4946" y1="27.0115" x2="11.4946" y2="21.002" stroke="black" stroke-opacity="0.5"/>
</g>
<line x1="14.4783" y1="27.0115" x2="14.4783" y2="19.884" stroke="black" stroke-opacity="0.5"/>
<g filter="url(#filter4_d)">
<line x1="17.3354" y1="27.0115" x2="17.3354" y2="21.002" stroke="black" stroke-opacity="0.5"/>
</g>
<g filter="url(#filter5_d)">
<line y1="-0.5" x2="6.00951" y2="-0.5" transform="matrix(0.00142441 -0.999999 0.999999 0.00142842 21.1106 27.0115)" stroke="black" stroke-opacity="0.5"/>
</g>
<g filter="url(#filter6_d)">
<line x1="24.1909" y1="27.0106" x2="24.191" y2="21.002" stroke="black" stroke-opacity="0.5"/>
</g>
<mask id="path-25-inside-1" fill="white">
<path d="M6.70093 19.8831H8.70369V23.828C8.70369 24.1042 8.47983 24.328 8.20369 24.328H7.20093C6.92479 24.328 6.70093 24.1042 6.70093 23.828V19.8831Z"/>
</mask>
<g filter="url(#filter7_i)">
<path d="M6.70093 19.8831H8.70369V23.828C8.70369 24.1042 8.47983 24.328 8.20369 24.328H7.20093C6.92479 24.328 6.70093 24.1042 6.70093 23.828V19.8831Z" fill="#222222"/>
</g>
<path d="M6.70093 19.8831H8.70369V23.828C8.70369 24.1042 8.47983 24.328 8.20369 24.328H7.20093C6.92479 24.328 6.70093 24.1042 6.70093 23.828V19.8831Z" stroke="black" stroke-opacity="0.75" stroke-width="2" mask="url(#path-25-inside-1)"/>
<mask id="path-26-inside-2" fill="white">
<path d="M10.5186 19.8915H12.5213V23.8363C12.5213 24.1125 12.2975 24.3363 12.0213 24.3363H11.0186C10.7424 24.3363 10.5186 24.1125 10.5186 23.8363V19.8915Z"/>
</mask>
<g filter="url(#filter8_i)">
<path d="M10.5186 19.8915H12.5213V23.8363C12.5213 24.1125 12.2975 24.3363 12.0213 24.3363H11.0186C10.7424 24.3363 10.5186 24.1125 10.5186 23.8363V19.8915Z" fill="#222222"/>
</g>
<path d="M10.5186 19.8915H12.5213V23.8363C12.5213 24.1125 12.2975 24.3363 12.0213 24.3363H11.0186C10.7424 24.3363 10.5186 24.1125 10.5186 23.8363V19.8915Z" stroke="black" stroke-opacity="0.75" stroke-width="2" mask="url(#path-26-inside-2)"/>
<mask id="path-27-inside-3" fill="white">
<path d="M16.3652 19.8915H18.368V23.8363C18.368 24.1125 18.1441 24.3363 17.868 24.3363H16.8652C16.5891 24.3363 16.3652 24.1125 16.3652 23.8363V19.8915Z"/>
</mask>
<g filter="url(#filter9_i)">
<path d="M16.3652 19.8915H18.368V23.8363C18.368 24.1125 18.1441 24.3363 17.868 24.3363H16.8652C16.5891 24.3363 16.3652 24.1125 16.3652 23.8363V19.8915Z" fill="#222222"/>
</g>
<path d="M16.3652 19.8915H18.368V23.8363C18.368 24.1125 18.1441 24.3363 17.868 24.3363H16.8652C16.5891 24.3363 16.3652 24.1125 16.3652 23.8363V19.8915Z" stroke="black" stroke-opacity="0.75" stroke-width="2" mask="url(#path-27-inside-3)"/>
<mask id="path-28-inside-4" fill="white">
<path d="M19.7129 19.8915H21.7156V23.8363C21.7156 24.1125 21.4918 24.3363 21.2156 24.3363H20.2129C19.9367 24.3363 19.7129 24.1125 19.7129 23.8363V19.8915Z"/>
</mask>
<g filter="url(#filter10_i)">
<path d="M19.7129 19.8915H21.7156V23.8363C21.7156 24.1125 21.4918 24.3363 21.2156 24.3363H20.2129C19.9367 24.3363 19.7129 24.1125 19.7129 23.8363V19.8915Z" fill="#222222"/>
</g>
<path d="M19.7129 19.8915H21.7156V23.8363C21.7156 24.1125 21.4918 24.3363 21.2156 24.3363H20.2129C19.9367 24.3363 19.7129 24.1125 19.7129 23.8363V19.8915Z" stroke="black" stroke-opacity="0.75" stroke-width="2" mask="url(#path-28-inside-4)"/>
<mask id="path-29-inside-5" fill="white">
<path d="M23.3059 19.8915H25.3087V23.8075C25.3087 24.0836 25.0848 24.3075 24.8087 24.3075H23.8059C23.5298 24.3075 23.3059 24.0836 23.3059 23.8075V19.8915Z"/>
</mask>
<g filter="url(#filter11_i)">
<path d="M23.3059 19.8915H25.3087V23.8075C25.3087 24.0836 25.0848 24.3075 24.8087 24.3075H23.8059C23.5298 24.3075 23.3059 24.0836 23.3059 23.8075V19.8915Z" fill="#222222"/>
</g>
<path d="M23.3059 19.8915H25.3087V23.8075C25.3087 24.0836 25.0848 24.3075 24.8087 24.3075H23.8059C23.5298 24.3075 23.3059 24.0836 23.3059 23.8075V19.8915Z" stroke="black" stroke-opacity="0.75" stroke-width="2" mask="url(#path-29-inside-5)"/>
<path d="M4.52368 18.0663H12.5876L16.9125 13.5458H27.4946" stroke="black" stroke-opacity="0.5" stroke-linecap="square" stroke-linejoin="round"/>
<g filter="url(#filter12_dd)">
<ellipse cx="19.7389" cy="16.6883" rx="1.37584" ry="1.378" fill="url(#paint12_radial)"/>
<path d="M20.6147 16.6883C20.6147 17.174 20.2218 17.5663 19.7389 17.5663C19.2559 17.5663 18.863 17.174 18.863 16.6883C18.863 16.2027 19.2559 15.8103 19.7389 15.8103C20.2218 15.8103 20.6147 16.2027 20.6147 16.6883Z" stroke="black" stroke-opacity="0.15"/>
</g>
<line y1="-0.5" x2="0.467727" y2="-0.5" transform="matrix(0.746707 0.665153 -0.663988 0.747743 19.739 16.2414)" stroke="white" stroke-opacity="0.15"/>
<g filter="url(#filter13_dd)">
<ellipse cx="24.505" cy="16.6883" rx="1.37584" ry="1.378" fill="url(#paint13_radial)"/>
<path d="M25.3808 16.6883C25.3808 17.174 24.988 17.5663 24.505 17.5663C24.022 17.5663 23.6292 17.174 23.6292 16.6883C23.6292 16.2027 24.022 15.8103 24.505 15.8103C24.988 15.8103 25.3808 16.2027 25.3808 16.6883Z" stroke="black" stroke-opacity="0.15"/>
</g>
<line y1="-0.5" x2="0.512041" y2="-0.5" transform="matrix(0.723383 0.690447 -0.689312 0.724464 24.5051 16.3337)" stroke="white" stroke-opacity="0.15"/>
<path d="M27.4289 4H4.58225C4.26765 4 4 4.26843 4 4.60006V7.94559H28V4.62329C28 4.28906 27.7695 4 27.4289 4Z" fill="white" fill-opacity="0.15"/>
<g filter="url(#filter14_ii)">
<rect x="9.17285" y="18.3716" width="19.3272" height="10.1506" rx="1.5" fill="#0062BC"/>
</g>
<rect x="9.67285" y="18.8716" width="18.3272" height="9.15062" rx="1" stroke="black" stroke-opacity="0.75"/>
<g filter="url(#filter15_d)">
<path d="M12.1851 25.6322V21.3666H13.5796C14.0425 21.3666 14.3901 21.4623 14.6226 21.6537C14.8569 21.8451 14.9741 22.1283 14.9741 22.5033C14.9741 22.7026 14.9175 22.8793 14.8042 23.0336C14.6909 23.186 14.5366 23.3041 14.3413 23.3881C14.5718 23.4526 14.7534 23.5756 14.8862 23.7572C15.021 23.9369 15.0884 24.1518 15.0884 24.4018C15.0884 24.7846 14.9644 25.0854 14.7163 25.3041C14.4683 25.5229 14.1177 25.6322 13.6646 25.6322H12.1851ZM12.7476 23.6371V25.1723H13.6763C13.938 25.1723 14.144 25.1049 14.2944 24.9701C14.4468 24.8334 14.5229 24.6459 14.5229 24.4076C14.5229 23.894 14.2437 23.6371 13.6851 23.6371H12.7476ZM12.7476 23.186H13.5972C13.8433 23.186 14.0396 23.1244 14.186 23.0014C14.3345 22.8783 14.4087 22.7113 14.4087 22.5004C14.4087 22.266 14.3403 22.0961 14.2036 21.9906C14.0669 21.8832 13.8589 21.8295 13.5796 21.8295H12.7476V23.186ZM18.3345 23.6606H16.4858V25.1723H18.6333V25.6322H15.9233V21.3666H18.604V21.8295H16.4858V23.2006H18.3345V23.6606ZM22.3394 21.8295H20.9683V25.6322H20.4087V21.8295H19.0405V21.3666H22.3394V21.8295ZM25.0933 24.519H23.3062L22.9048 25.6322H22.3247L23.9536 21.3666H24.4458L26.0776 25.6322H25.5005L25.0933 24.519ZM23.4761 24.0561H24.9263L24.1997 22.061L23.4761 24.0561Z" fill="white"/>
</g>
<defs>
<filter id="filter0_d" x="4.91992" y="5.19272" width="13.0114" height="13.0114" filterUnits="userSpaceOnUse" color-interpolation-filters="sRGB">
<feFlood flood-opacity="0" result="BackgroundImageFix"/>
<feColorMatrix in="SourceAlpha" type="matrix" values="0 0 0 0 0 0 0 0 0 0 0 0 0 0 0 0 0 0 127 0"/>
<feMorphology radius="1" operator="dilate" in="SourceAlpha" result="effect1_dropShadow"/>
<feOffset/>
<feColorMatrix type="matrix" values="0 0 0 0 0 0 0 0 0 0 0 0 0 0 0 0 0 0 0.15 0"/>
<feBlend mode="normal" in2="BackgroundImageFix" result="effect1_dropShadow"/>
<feBlend mode="normal" in="SourceGraphic" in2="effect1_dropShadow" result="shape"/>
</filter>
<filter id="filter1_d" x="18.6924" y="4.92686" width="8.53924" height="8.53924" filterUnits="userSpaceOnUse" color-interpolation-filters="sRGB">
<feFlood flood-opacity="0" result="BackgroundImageFix"/>
<feColorMatrix in="SourceAlpha" type="matrix" values="0 0 0 0 0 0 0 0 0 0 0 0 0 0 0 0 0 0 127 0"/>
<feMorphology radius="1" operator="dilate" in="SourceAlpha" result="effect1_dropShadow"/>
<feOffset/>
<feColorMatrix type="matrix" values="0 0 0 0 0 0 0 0 0 0 0 0 0 0 0 0 0 0 0.15 0"/>
<feBlend mode="normal" in2="BackgroundImageFix" result="effect1_dropShadow"/>
<feBlend mode="normal" in="SourceGraphic" in2="effect1_dropShadow" result="shape"/>
</filter>
<filter id="filter2_d" x="7.24487" y="20.002" width="2" height="7.00949" filterUnits="userSpaceOnUse" color-interpolation-filters="sRGB">
<feFlood flood-opacity="0" result="BackgroundImageFix"/>
<feColorMatrix in="SourceAlpha" type="matrix" values="0 0 0 0 0 0 0 0 0 0 0 0 0 0 0 0 0 0 127 0"/>
<feOffset dx="1" dy="-1"/>
<feColorMatrix type="matrix" values="0 0 0 0 1 0 0 0 0 1 0 0 0 0 1 0 0 0 1 0"/>
<feBlend mode="normal" in2="BackgroundImageFix" result="effect1_dropShadow"/>
<feBlend mode="normal" in="SourceGraphic" in2="effect1_dropShadow" result="shape"/>
</filter>
<filter id="filter3_d" x="10.9946" y="20.002" width="2" height="7.00949" filterUnits="userSpaceOnUse" color-interpolation-filters="sRGB">
<feFlood flood-opacity="0" result="BackgroundImageFix"/>
<feColorMatrix in="SourceAlpha" type="matrix" values="0 0 0 0 0 0 0 0 0 0 0 0 0 0 0 0 0 0 127 0"/>
<feOffset dx="1" dy="-1"/>
<feColorMatrix type="matrix" values="0 0 0 0 1 0 0 0 0 1 0 0 0 0 1 0 0 0 1 0"/>
<feBlend mode="normal" in2="BackgroundImageFix" result="effect1_dropShadow"/>
<feBlend mode="normal" in="SourceGraphic" in2="effect1_dropShadow" result="shape"/>
</filter>
<filter id="filter4_d" x="16.8354" y="20.002" width="2" height="7.00949" filterUnits="userSpaceOnUse" color-interpolation-filters="sRGB">
<feFlood flood-opacity="0" result="BackgroundImageFix"/>
<feColorMatrix in="SourceAlpha" type="matrix" values="0 0 0 0 0 0 0 0 0 0 0 0 0 0 0 0 0 0 127 0"/>
<feOffset dx="1" dy="-1"/>
<feColorMatrix type="matrix" values="0 0 0 0 1 0 0 0 0 1 0 0 0 0 1 0 0 0 1 0"/>
<feBlend mode="normal" in2="BackgroundImageFix" result="effect1_dropShadow"/>
<feBlend mode="normal" in="SourceGraphic" in2="effect1_dropShadow" result="shape"/>
</filter>
<filter id="filter5_d" x="20.1106" y="20.0006" width="2.00856" height="7.01093" filterUnits="userSpaceOnUse" color-interpolation-filters="sRGB">
<feFlood flood-opacity="0" result="BackgroundImageFix"/>
<feColorMatrix in="SourceAlpha" type="matrix" values="0 0 0 0 0 0 0 0 0 0 0 0 0 0 0 0 0 0 127 0"/>
<feOffset dx="1" dy="-1"/>
<feColorMatrix type="matrix" values="0 0 0 0 1 0 0 0 0 1 0 0 0 0 1 0 0 0 1 0"/>
<feBlend mode="normal" in2="BackgroundImageFix" result="effect1_dropShadow"/>
<feBlend mode="normal" in="SourceGraphic" in2="effect1_dropShadow" result="shape"/>
</filter>
<filter id="filter6_d" x="23.6909" y="20.002" width="2.00007" height="7.00865" filterUnits="userSpaceOnUse" color-interpolation-filters="sRGB">
<feFlood flood-opacity="0" result="BackgroundImageFix"/>
<feColorMatrix in="SourceAlpha" type="matrix" values="0 0 0 0 0 0 0 0 0 0 0 0 0 0 0 0 0 0 127 0"/>
<feOffset dx="1" dy="-1"/>
<feColorMatrix type="matrix" values="0 0 0 0 1 0 0 0 0 1 0 0 0 0 1 0 0 0 1 0"/>
<feBlend mode="normal" in2="BackgroundImageFix" result="effect1_dropShadow"/>
<feBlend mode="normal" in="SourceGraphic" in2="effect1_dropShadow" result="shape"/>
</filter>
<filter id="filter7_i" x="6.70093" y="19.8831" width="2.00276" height="4.44488" filterUnits="userSpaceOnUse" color-interpolation-filters="sRGB">
<feFlood flood-opacity="0" result="BackgroundImageFix"/>
<feBlend mode="normal" in="SourceGraphic" in2="BackgroundImageFix" result="shape"/>
<feColorMatrix in="SourceAlpha" type="matrix" values="0 0 0 0 0 0 0 0 0 0 0 0 0 0 0 0 0 0 127 0" result="hardAlpha"/>
<feOffset dy="-2"/>
<feComposite in2="hardAlpha" operator="arithmetic" k2="-1" k3="1"/>
<feColorMatrix type="matrix" values="0 0 0 0 1 0 0 0 0 1 0 0 0 0 1 0 0 0 0.25 0"/>
<feBlend mode="normal" in2="shape" result="effect1_innerShadow"/>
</filter>
<filter id="filter8_i" x="10.5186" y="19.8915" width="2.00276" height="4.44488" filterUnits="userSpaceOnUse" color-interpolation-filters="sRGB">
<feFlood flood-opacity="0" result="BackgroundImageFix"/>
<feBlend mode="normal" in="SourceGraphic" in2="BackgroundImageFix" result="shape"/>
<feColorMatrix in="SourceAlpha" type="matrix" values="0 0 0 0 0 0 0 0 0 0 0 0 0 0 0 0 0 0 127 0" result="hardAlpha"/>
<feOffset dy="-2"/>
<feComposite in2="hardAlpha" operator="arithmetic" k2="-1" k3="1"/>
<feColorMatrix type="matrix" values="0 0 0 0 1 0 0 0 0 1 0 0 0 0 1 0 0 0 0.25 0"/>
<feBlend mode="normal" in2="shape" result="effect1_innerShadow"/>
</filter>
<filter id="filter9_i" x="16.3652" y="19.8915" width="2.00276" height="4.44488" filterUnits="userSpaceOnUse" color-interpolation-filters="sRGB">
<feFlood flood-opacity="0" result="BackgroundImageFix"/>
<feBlend mode="normal" in="SourceGraphic" in2="BackgroundImageFix" result="shape"/>
<feColorMatrix in="SourceAlpha" type="matrix" values="0 0 0 0 0 0 0 0 0 0 0 0 0 0 0 0 0 0 127 0" result="hardAlpha"/>
<feOffset dy="-2"/>
<feComposite in2="hardAlpha" operator="arithmetic" k2="-1" k3="1"/>
<feColorMatrix type="matrix" values="0 0 0 0 1 0 0 0 0 1 0 0 0 0 1 0 0 0 0.25 0"/>
<feBlend mode="normal" in2="shape" result="effect1_innerShadow"/>
</filter>
<filter id="filter10_i" x="19.7129" y="19.8915" width="2.00276" height="4.44488" filterUnits="userSpaceOnUse" color-interpolation-filters="sRGB">
<feFlood flood-opacity="0" result="BackgroundImageFix"/>
<feBlend mode="normal" in="SourceGraphic" in2="BackgroundImageFix" result="shape"/>
<feColorMatrix in="SourceAlpha" type="matrix" values="0 0 0 0 0 0 0 0 0 0 0 0 0 0 0 0 0 0 127 0" result="hardAlpha"/>
<feOffset dy="-2"/>
<feComposite in2="hardAlpha" operator="arithmetic" k2="-1" k3="1"/>
<feColorMatrix type="matrix" values="0 0 0 0 1 0 0 0 0 1 0 0 0 0 1 0 0 0 0.25 0"/>
<feBlend mode="normal" in2="shape" result="effect1_innerShadow"/>
</filter>
<filter id="filter11_i" x="23.3059" y="19.8915" width="2.00276" height="4.41602" filterUnits="userSpaceOnUse" color-interpolation-filters="sRGB">
<feFlood flood-opacity="0" result="BackgroundImageFix"/>
<feBlend mode="normal" in="SourceGraphic" in2="BackgroundImageFix" result="shape"/>
<feColorMatrix in="SourceAlpha" type="matrix" values="0 0 0 0 0 0 0 0 0 0 0 0 0 0 0 0 0 0 127 0" result="hardAlpha"/>
<feOffset dy="-2"/>
<feComposite in2="hardAlpha" operator="arithmetic" k2="-1" k3="1"/>
<feColorMatrix type="matrix" values="0 0 0 0 1 0 0 0 0 1 0 0 0 0 1 0 0 0 0.25 0"/>
<feBlend mode="normal" in2="shape" result="effect1_innerShadow"/>
</filter>
<filter id="filter12_dd" x="16.363" y="13.3103" width="6.75168" height="7.756" filterUnits="userSpaceOnUse" color-interpolation-filters="sRGB">
<feFlood flood-opacity="0" result="BackgroundImageFix"/>
<feColorMatrix in="SourceAlpha" type="matrix" values="0 0 0 0 0 0 0 0 0 0 0 0 0 0 0 0 0 0 127 0"/>
<feOffset dy="1"/>
<feGaussianBlur stdDeviation="1"/>
<feColorMatrix type="matrix" values="0 0 0 0 0 0 0 0 0 0 0 0 0 0 0 0 0 0 0.75 0"/>
<feBlend mode="normal" in2="BackgroundImageFix" result="effect1_dropShadow"/>
<feColorMatrix in="SourceAlpha" type="matrix" values="0 0 0 0 0 0 0 0 0 0 0 0 0 0 0 0 0 0 127 0"/>
<feOffset dy="-1"/>
<feGaussianBlur stdDeviation="0.5"/>
<feColorMatrix type="matrix" values="0 0 0 0 1 0 0 0 0 1 0 0 0 0 1 0 0 0 0.15 0"/>
<feBlend mode="normal" in2="effect1_dropShadow" result="effect2_dropShadow"/>
<feBlend mode="normal" in="SourceGraphic" in2="effect2_dropShadow" result="shape"/>
</filter>
<filter id="filter13_dd" x="21.1292" y="13.3103" width="6.75168" height="7.756" filterUnits="userSpaceOnUse" color-interpolation-filters="sRGB">
<feFlood flood-opacity="0" result="BackgroundImageFix"/>
<feColorMatrix in="SourceAlpha" type="matrix" values="0 0 0 0 0 0 0 0 0 0 0 0 0 0 0 0 0 0 127 0"/>
<feOffset dy="1"/>
<feGaussianBlur stdDeviation="1"/>
<feColorMatrix type="matrix" values="0 0 0 0 0 0 0 0 0 0 0 0 0 0 0 0 0 0 0.75 0"/>
<feBlend mode="normal" in2="BackgroundImageFix" result="effect1_dropShadow"/>
<feColorMatrix in="SourceAlpha" type="matrix" values="0 0 0 0 0 0 0 0 0 0 0 0 0 0 0 0 0 0 127 0"/>
<feOffset dy="-1"/>
<feGaussianBlur stdDeviation="0.5"/>
<feColorMatrix type="matrix" values="0 0 0 0 1 0 0 0 0 1 0 0 0 0 1 0 0 0 0.15 0"/>
<feBlend mode="normal" in2="effect1_dropShadow" result="effect2_dropShadow"/>
<feBlend mode="normal" in="SourceGraphic" in2="effect2_dropShadow" result="shape"/>
</filter>
<filter id="filter14_ii" x="9.17285" y="18.3716" width="19.3272" height="10.1506" filterUnits="userSpaceOnUse" color-interpolation-filters="sRGB">
<feFlood flood-opacity="0" result="BackgroundImageFix"/>
<feBlend mode="normal" in="SourceGraphic" in2="BackgroundImageFix" result="shape"/>
<feColorMatrix in="SourceAlpha" type="matrix" values="0 0 0 0 0 0 0 0 0 0 0 0 0 0 0 0 0 0 127 0" result="hardAlpha"/>
<feOffset dy="2"/>
<feComposite in2="hardAlpha" operator="arithmetic" k2="-1" k3="1"/>
<feColorMatrix type="matrix" values="0 0 0 0 1 0 0 0 0 1 0 0 0 0 1 0 0 0 0.25 0"/>
<feBlend mode="normal" in2="shape" result="effect1_innerShadow"/>
<feColorMatrix in="SourceAlpha" type="matrix" values="0 0 0 0 0 0 0 0 0 0 0 0 0 0 0 0 0 0 127 0" result="hardAlpha"/>
<feOffset dy="-2"/>
<feComposite in2="hardAlpha" operator="arithmetic" k2="-1" k3="1"/>
<feColorMatrix type="matrix" values="0 0 0 0 0 0 0 0 0 0 0 0 0 0 0 0 0 0 0.25 0"/>
<feBlend mode="normal" in2="effect1_innerShadow" result="effect2_innerShadow"/>
</filter>
<filter id="filter15_d" x="12.1851" y="21.3666" width="13.8926" height="4.76562" filterUnits="userSpaceOnUse" color-interpolation-filters="sRGB">
<feFlood flood-opacity="0" result="BackgroundImageFix"/>
<feColorMatrix in="SourceAlpha" type="matrix" values="0 0 0 0 0 0 0 0 0 0 0 0 0 0 0 0 0 0 127 0"/>
<feOffset dy="0.5"/>
<feColorMatrix type="matrix" values="0 0 0 0 0 0 0 0 0 0 0 0 0 0 0 0 0 0 0.3 0"/>
<feBlend mode="normal" in2="BackgroundImageFix" result="effect1_dropShadow"/>
<feBlend mode="normal" in="SourceGraphic" in2="effect1_dropShadow" result="shape"/>
</filter>
<radialGradient id="paint0_radial" cx="0" cy="0" r="1" gradientUnits="userSpaceOnUse" gradientTransform="translate(26.3105 29.5) scale(3.69118 1.5)">
<stop stop-color="#181818"/>
<stop offset="1" stop-color="#181818" stop-opacity="0"/>
</radialGradient>
<radialGradient id="paint1_radial" cx="0" cy="0" r="1" gradientUnits="userSpaceOnUse" gradientTransform="translate(5.6895 29.5) rotate(180) scale(3.69118 1.5)">
<stop stop-color="#181818"/>
<stop offset="1" stop-color="#181818" stop-opacity="0"/>
</radialGradient>
<linearGradient id="paint2_linear" x1="16.7798" y1="31.0119" x2="16.7798" y2="27.9998" gradientUnits="userSpaceOnUse">
<stop stop-color="#181818" stop-opacity="0"/>
<stop offset="0.5" stop-color="#181818"/>
<stop offset="1" stop-color="#181818" stop-opacity="0"/>
</linearGradient>
<linearGradient id="paint3_linear" x1="15.7042" y1="2.60677" x2="15.7042" y2="29.4809" gradientUnits="userSpaceOnUse">
<stop stop-color="#4D4D4D"/>
<stop offset="1" stop-color="#1A1A1A"/>
</linearGradient>
<linearGradient id="paint4_linear" x1="16" y1="3.16216" x2="16" y2="28.8378" gradientUnits="userSpaceOnUse">
<stop stop-color="white"/>
<stop offset="0.0631645" stop-color="white" stop-opacity="0.12"/>
<stop offset="0.950563" stop-color="white" stop-opacity="0.12"/>
<stop offset="1" stop-color="white" stop-opacity="0.5"/>
</linearGradient>
<radialGradient id="paint5_radial" cx="0" cy="0" r="1" gradientUnits="userSpaceOnUse" gradientTransform="translate(11.4256 8.44279) rotate(90) scale(9.68808)">
<stop stop-color="#828282"/>
<stop offset="1" stop-color="#161616"/>
</radialGradient>
<radialGradient id="paint6_radial" cx="0" cy="0" r="1" gradientUnits="userSpaceOnUse" gradientTransform="translate(11.4256 7.59954) rotate(90) scale(8.95173)">
<stop stop-color="#A62100"/>
<stop offset="1" stop-color="#F37329"/>
</radialGradient>
<radialGradient id="paint7_radial" cx="0" cy="0" r="1" gradientUnits="userSpaceOnUse" gradientTransform="translate(11.426 10.8721) rotate(90) scale(2.36563)">
<stop stop-color="#B6B6B6"/>
<stop offset="1"/>
</radialGradient>
<radialGradient id="paint8_radial" cx="0" cy="0" r="1" gradientUnits="userSpaceOnUse" gradientTransform="translate(22.9613 7.14996) rotate(90) scale(6.08778)">
<stop stop-color="#828282"/>
<stop offset="1" stop-color="#161616"/>
</radialGradient>
<radialGradient id="paint9_radial" cx="0" cy="0" r="1" gradientUnits="userSpaceOnUse" gradientTransform="translate(22.962 6.76232) rotate(90) scale(5.31607)">
<stop stop-color="#A62100"/>
<stop offset="1" stop-color="#F37329"/>
</radialGradient>
<radialGradient id="paint10_radial" cx="0" cy="0" r="1" gradientUnits="userSpaceOnUse" gradientTransform="translate(22.9619 8.52452) rotate(90) scale(1.92109)">
<stop stop-color="#B6B6B6"/>
<stop offset="1"/>
</radialGradient>
<linearGradient id="paint11_linear" x1="15.9943" y1="13.6863" x2="15.9943" y2="27.9302" gradientUnits="userSpaceOnUse">
<stop stop-color="#4F4C4C"/>
<stop offset="1" stop-color="#262626"/>
</linearGradient>
<radialGradient id="paint12_radial" cx="0" cy="0" r="1" gradientUnits="userSpaceOnUse" gradientTransform="translate(19.7389 16.0224) rotate(90) scale(2.0439 2.04069)">
<stop stop-color="#2B2B2B"/>
<stop offset="1" stop-color="#4F4F4F"/>
</radialGradient>
<radialGradient id="paint13_radial" cx="0" cy="0" r="1" gradientUnits="userSpaceOnUse" gradientTransform="translate(24.505 16.0224) rotate(90) scale(2.0439 2.04069)">
<stop stop-color="#2B2B2B"/>
<stop offset="1" stop-color="#4F4F4F"/>
</radialGradient>
</defs>
</svg>
