<svg width="64" height="64" viewBox="0 0 64 64" fill="none" xmlns="http://www.w3.org/2000/svg">
<path opacity="0.6" d="M60 56.5H54V61.5H60V56.5Z" fill="url(#paint0_radial)"/>
<path opacity="0.6" d="M4 61.5H10V56.5H4V61.5Z" fill="url(#paint1_radial)"/>
<path opacity="0.6" d="M54 56.5H10V61.5H54V56.5Z" fill="url(#paint2_linear)"/>
<path d="M53.5 4.5H10.5C7.18629 4.5 4.5 7.18629 4.5 10.5V53.5C4.5 56.8137 7.18629 59.5 10.5 59.5H53.5C56.8137 59.5 59.5 56.8137 59.5 53.5V10.5C59.5 7.18629 56.8137 4.5 53.5 4.5Z" fill="url(#paint3_linear)"/>
<path opacity="0.5" d="M53.5 5.42877H10.5C7.73858 5.42877 5.5 7.66735 5.5 10.4288V53.5713C5.5 56.3327 7.73858 58.5713 10.5 58.5713H53.5C56.2614 58.5713 58.5 56.3327 58.5 53.5713V10.4288C58.5 7.66735 56.2614 5.42877 53.5 5.42877Z" stroke="url(#paint4_linear)" stroke-linecap="round" stroke-linejoin="round"/>
<path opacity="0.5" d="M53.5 4.5H10.5C7.18629 4.5 4.5 7.18629 4.5 10.5V53.5C4.5 56.8137 7.18629 59.5 10.5 59.5H53.5C56.8137 59.5 59.5 56.8137 59.5 53.5V10.5C59.5 7.18629 56.8137 4.5 53.5 4.5Z" stroke="#273445"/>
<circle cx="22.3811" cy="22.8045" r="14.184" fill="url(#paint5_radial)"/>
<circle cx="22.3811" cy="22.8045" r="14.684" stroke="black" stroke-opacity="0.75"/>
<g filter="url(#filter0_d)">
<circle cx="22.3811" cy="22.8045" r="12.1402" fill="url(#paint6_radial)"/>
<circle cx="22.3811" cy="22.8045" r="11.6402" stroke="black" stroke-opacity="0.75"/>
</g>
<g filter="url(#filter1_d)">
<circle cx="22.3811" cy="22.8045" r="3.39333" fill="url(#paint7_radial)"/>
<circle cx="22.3811" cy="22.8045" r="2.89333" stroke="url(#paint8_linear)" stroke-opacity="0.75"/>
</g>
<circle cx="46.7772" cy="16.5822" r="8.91294" fill="url(#paint9_radial)"/>
<circle cx="46.7772" cy="16.5822" r="9.41294" stroke="black" stroke-opacity="0.75"/>
<g filter="url(#filter2_d)">
<circle cx="46.777" cy="16.5822" r="6.3493" fill="url(#paint10_radial)"/>
<circle cx="46.777" cy="16.5822" r="5.8493" stroke="black" stroke-opacity="0.75"/>
</g>
<g filter="url(#filter3_d)">
<circle cx="46.7769" cy="16.5822" r="3.39333" fill="url(#paint11_radial)"/>
<circle cx="46.7769" cy="16.5822" r="2.89333" stroke="url(#paint12_linear)" stroke-opacity="0.75"/>
</g>
<path d="M57.4499 27.4832V27.5052V27.528V27.5512V27.5748V27.5989V27.6235V27.6485V27.6739V27.6998V27.7261V27.7529V27.78V27.8077V27.8357V27.8642V27.8931V27.9224V27.9522V27.9823V28.0129V28.0439V28.0754V28.1072V28.1394V28.1721V28.2051V28.2386V28.2725V28.3067V28.3414V28.3765V28.4119V28.4478V28.484V28.5206V28.5576V28.595V28.6328V28.671V28.7095V28.7484V28.7877V28.8273V28.8674V28.9078V28.9485V28.9897V29.0311V29.073V29.1152V29.1578V29.2007V29.2439V29.2875V29.3315V29.3758V29.4205V29.4655V29.5108V29.5565V29.6025V29.6488V29.6955V29.7425V29.7898V29.8375V29.8855V29.9337V29.9824V30.0313V30.0806V30.1301V30.18V30.2302V30.2807V30.3315V30.3826V30.434V30.4857V30.5377V30.59V30.6425V30.6954V30.7486V30.802V30.8558V30.9098V30.9641V31.0187V31.0735V31.1287V31.1841V31.2398V31.2957V31.3519V31.4084V31.4651V31.5221V31.5794V31.6369V31.6947V31.7527V31.811V31.8695V31.9283V31.9873V32.0465V32.106V32.1658V32.2257V32.2859V32.3464V32.4071V32.4679V32.5291V32.5904V32.652V32.7138V32.7758V32.838V32.9004V32.9631V33.026V33.089V33.1523V33.2158V33.2795V33.3433V33.4074V33.4717V33.5362V33.6008V33.6657V33.7307V33.7959V33.8613V33.9269V33.9927V34.0587V34.1248V34.1911V34.2575V34.3242V34.391V34.458V34.5251V34.5924V34.6598V34.7275V34.7952V34.8632V34.9312V34.9995V35.0678V35.1363V35.205V35.2738V35.3427V35.4118V35.481V35.5504V35.6199V35.6895V35.7592V35.8291V35.899V35.9691V36.0394V36.1097V36.1802V36.2507V36.3214V36.3922V36.4631V36.5341V36.6052V36.6764V36.7477V36.8191V36.8906V36.9622V37.0339V37.1056V37.1775V37.2494V37.3214V37.3935V37.4657V37.538V37.6103V37.6827V37.7552V37.8277V37.9003V37.973V38.0457V38.1185V38.1914V38.2643V38.3373V38.4103V38.4833V38.5565V38.6296V38.7028V38.7761V38.8494V38.9227V38.9961V39.0695V39.1429V39.2163V39.2898V39.3634V39.4369V39.5104V39.584V39.6576V39.7312V39.8049V39.8785V39.9522V40.0258V40.0995V40.1731V40.2468V40.3205V40.3941V40.4678V40.5415V40.6151V40.6887V40.7624V40.836V40.9096V40.9831V41.0567V41.1302V41.2037V41.2772V41.3507V41.4241V41.4975V41.5708V41.6442V41.7174V41.7907V41.8639V41.937V42.0101V42.0832V42.1562V42.2291V42.302V42.3749V42.4476V42.5204V42.593V42.6656V42.7381V42.8106V42.883V42.9553V43.0275V43.0997V43.1718V43.2438V43.3157V43.3875V43.4593V43.5309V43.6025V43.6739V43.7453V43.8166V43.8878V43.9588V44.0298V44.1007V44.1714V44.2421V44.3126V44.383V44.4534V44.5235V44.5936V44.6636V44.7334V44.8031V44.8727V44.9421V45.0114V45.0806V45.1496V45.2185V45.2873V45.3559V45.4244V45.4927V45.5609V45.629V45.6968V45.7646V45.8321V45.8996V45.9668V46.0339V46.1008V46.1676V46.2342V46.3006V46.3669V46.4329V46.4988V46.5646V46.6301V46.6955V46.7606V46.8256V46.8904V46.955V47.0195V47.0837V47.1477V47.2115V47.2752V47.3386V47.4018V47.4648V47.5276V47.5902V47.6526V47.7148V47.7767V47.8384V47.9V47.9612V48.0223V48.0831V48.1437V48.2041V48.2643V48.3242V48.3838V48.4433V48.5025V48.5614V48.6201V48.6786V48.7368V48.7947V48.8524V48.9099V48.9671V49.024V49.0807V49.1371V49.1932V49.2491V49.3047V49.36V49.4151V49.4699V49.5244V49.5786V49.6326V49.6862V49.7396V49.7927V49.8455V49.898V49.9502V50.0021V50.0538V50.1051V50.1561V50.2068V50.2572V50.3073V50.3571V50.4066V50.4558V50.5046V50.5532V50.6014V50.6493V50.6968V50.7441V50.791V50.8376V50.8838V50.9297V50.9753V51.0206V51.0655V51.11V51.1543V51.1981V51.2416V51.2848V51.3276V51.3701V51.4122V51.454V51.4954V51.5364V51.5771V51.6173V51.6573V51.6968V51.736V51.7748V51.8133V51.8513V51.889V51.9263V51.9632V51.9997V52.0359V52.0716V52.1069V52.1419V52.1765V52.2106V52.2444V52.2777V52.3107V52.3432V52.3754V52.4071V52.4384V52.4693V52.4998V52.5298V52.5595V52.5887V52.6175V52.6458V52.6738V52.7013V52.7283V52.755V52.7812V52.8069V52.8323V52.8571V52.8816V52.9055V52.9291V52.9521V52.9748V52.9969V53.0187V53.0399V53.0607V53.081V53.1009V53.1203V53.1392V53.1577V53.1757V53.1932V53.2102V53.2267V53.2428V53.2584V53.2735V53.2881C57.4499 55.5397 55.9088 57.4931 53.6941 57.4931H53.6787H53.6624H53.6453H53.6274H53.6087H53.5892H53.5688H53.5476H53.5256H53.5029H53.4793H53.4549H53.4297H53.4037H53.377H53.3494H53.3211H53.292H53.2621H53.2315H53.2H53.1679H53.1349H53.1012H53.0667H53.0315H52.9956H52.9589H52.9214H52.8832H52.8443H52.8046H52.7642H52.7231H52.6813H52.6387H52.5955H52.5515H52.5068H52.4614H52.4153H52.3685H52.321H52.2728H52.2239H52.1743H52.1241H52.0731H52.0215H51.9692H51.9163H51.8627H51.8084H51.7534H51.6978H51.6416H51.5847H51.5271H51.4689H51.4101H51.3506H51.2905H51.2298H51.1684H51.1064H51.0438H50.9806H50.9167H50.8523H50.7872H50.7215H50.6553H50.5884H50.521H50.4529H50.3843H50.315H50.2452H50.1749H50.1039H50.0324H49.9603H49.8876H49.8144H49.7406H49.6663H49.5914H49.5159H49.4399H49.3634H49.2863H49.2087H49.1306H49.0519H48.9728H48.893H48.8128H48.7321H48.6508H48.569H48.4868H48.404H48.3207H48.2369H48.1527H48.0679H47.9827H47.897H47.8108H47.7241H47.6369H47.5493H47.4612H47.3727H47.2836H47.1942H47.1043H47.0139H46.9231H46.8318H46.7401H46.6479H46.5554H46.4624H46.3689H46.2751H46.1808H46.0861H45.991H45.8955H45.7996H45.7032H45.6065H45.5094H45.4118H45.3139H45.2156H45.1169H45.0179H44.9184H44.8186H44.7184H44.6179H44.5169H44.4156H44.314H44.212H44.1096H44.0069H43.9039H43.8005H43.6968H43.5927H43.4883H43.3836H43.2786H43.1732H43.0675H42.9615H42.8552H42.7486H42.6416H42.5344H42.4269H42.3191H42.2109H42.1025H41.9938H41.8849H41.7756H41.6661H41.5563H41.4462H41.3358H41.2252H41.1144H41.0032H40.8919H40.7802H40.6684H40.5563H40.4439H40.3313H40.2185H40.1054H39.9922H39.8787H39.7649H39.651H39.5368H39.4225H39.3079H39.1931H39.0781H38.963H38.8476H38.732H38.6163H38.5003H38.3842H38.2679H38.1515H38.0348H37.918H37.8011H37.6839H37.5666H37.4492H37.3316H37.2139H37.096H36.9779H36.8598H36.7415H36.623H36.5045H36.3858H36.267H36.1481H36.029H35.9099H35.7906H35.6712H35.5518H35.4322H35.3125H35.1928H35.0729H34.953H34.833H34.7129H34.5927H34.4725H34.3521H34.2318H34.1113H33.9908H33.8703H33.7497H33.629H33.5083H33.3876H33.2668H33.1459H33.0251H32.9042H32.7833H32.6623H32.5414H32.4204H32.2994H32.1784H32.0574H31.9364H31.8154H31.6944H31.5734H31.4524H31.3314H31.2105H31.0895H30.9686H30.8477H30.7268H30.606H30.4852H30.3645H30.2437H30.1231H30.0025H29.8819H29.7614H29.6409H29.5205H29.4002H29.2799H29.1597H29.0396H28.9196H28.7997H28.6798H28.56H28.4403H28.3207H28.2012H28.0818H27.9626H27.8434H27.7243H27.6054H27.4865H27.3678H27.2492H27.1308H27.0124H26.8942H26.7762H26.6582H26.5405H26.4228H26.3054H26.188H26.0709H25.9539H25.837H25.7204H25.6039H25.4875H25.3714H25.2554H25.1396H25.024H24.9086H24.7934H24.6783H24.5635H24.4489H24.3345H24.2203H24.1063H23.9925H23.879H23.7656H23.6525H23.5397H23.427H23.3146H23.2024H23.0905H22.9788H22.8674H22.7562H22.6453H22.5346H22.4242H22.3141H22.2042H22.0946H21.9853H21.8763H21.7675H21.659H21.5509H21.443H21.3354H21.2281H21.1211H21.0144H20.908H20.8019H20.6962H20.5907H20.4856H20.3808H20.2764H20.1722H20.0684H19.965H19.8618H19.7591H19.6566H19.5546H19.4528H19.3515H19.2505H19.1498H19.0495H18.9496H18.8501H18.751H18.6522H18.5538H18.4558H18.3582H18.261H18.1641H18.0677H17.9717H17.8761H17.7809H17.6861H17.5917H17.4978H17.4043H17.3112H17.2185H17.1263H17.0345H16.9431H16.8522H16.7617H16.6717H16.5821H16.493H16.4043H16.3161H16.2284H16.1412H16.0544H15.9681H15.8822H15.7969H15.712H15.6276H15.5438H15.4604H15.3775H15.2951H15.2132H15.1318H15.051H14.9706H14.8908H14.8115H14.7327H14.6545H14.5768H14.4996H14.4229H14.3468H14.2713H14.1962H14.1218H14.0479H13.9745H13.9017H13.8295H13.7578H13.6868H13.6163H13.5463H13.477H13.4082H13.34H13.2724H13.2054H13.139H13.0732H13.008H12.9434H12.8794H12.8161H12.7533H12.6912H12.6297H12.5688H12.5086H12.449H12.39H12.3316H12.2739H12.2169H12.1605H12.1047H12.0497H11.9952H11.9415H11.8884H11.8359H11.7842H11.7331H11.6827H11.633H11.5839H11.5356H11.4879H11.441H11.3947H11.3491H11.3043H11.2601H11.2167H11.174H11.132H11.0907H11.0502H11.0103H10.9713H10.9329H10.8953H10.8584H10.8223H10.7869H10.7523H10.7184H10.6853H10.6529H10.6213H10.5905H10.5604H10.5312H10.5027H10.4749H10.448H10.4219H10.3965H10.3719H10.3482H10.3252H10.3031H10.2817H10.2612H10.2414H10.2225H10.2044H10.1872H10.1707H10.1551H10.1403H10.1264H10.1133H10.101C9.24852 57.4931 8.35389 57.079 7.66517 56.3812C6.9793 55.6862 6.53223 54.7441 6.53223 53.7371V53.7235V53.7095V53.6952V53.6807V53.6659V53.6508V53.6355V53.6198V53.6039V53.5878V53.5713V53.5546V53.5377V53.5204V53.5029V53.4852V53.4671V53.4488V53.4303V53.4115V53.3924V53.3731V53.3535V53.3337V53.3136V53.2933V53.2727V53.2519V53.2308V53.2095V53.1879V53.1661V53.1441V53.1218V53.0992V53.0765V53.0535V53.0302V53.0067V52.983V52.9591V52.9349V52.9105V52.8858V52.8609V52.8358V52.8105V52.785V52.7592V52.7332V52.707V52.6805V52.6539V52.627V52.5999V52.5726V52.5451V52.5174V52.4894V52.4613V52.4329V52.4044V52.3756V52.3466V52.3174V52.288V52.2584V52.2287V52.1987V52.1685V52.1381V52.1075V52.0767V52.0458V52.0146V51.9833V51.9517V51.92V51.8881V51.856V51.8237V51.7912V51.7585V51.7257V51.6927V51.6595V51.6261V51.5926V51.5588V51.5249V51.4909V51.4566V51.4222V51.3876V51.3529V51.318V51.2829V51.2476V51.2122V51.1766V51.1409V51.105V51.0689V51.0327V50.9964V50.9598V50.9232V50.8863V50.8494V50.8122V50.7749V50.7375V50.6999V50.6622V50.6244V50.5863V50.5482V50.5099V50.4715V50.4329V50.3942V50.3554V50.3164V50.2773V50.2381V50.1987V50.1592V50.1196V50.0798V50.0399V49.9999V49.9598V49.9195V49.8792V49.8387V49.798V49.7573V49.7165V49.6755V49.6344V49.5932V49.5519V49.5105V49.469V49.4274V49.3856V49.3438V49.3018V49.2598V49.2176V49.1754V49.133V49.0906V49.048V49.0054V48.9626V48.9198V48.8769V48.8339V48.7908V48.7476V48.7043V48.6609V48.6175V48.5739V48.5303V48.4866V48.4428V48.3989V48.355V48.311V48.2669V48.2227V48.1785V48.1342V48.0898V48.0453V48.0008V47.9562V47.9116V47.8668V47.822V47.7772V47.7323V47.6873V47.6423V47.5972V47.5521V47.5069V47.4616V47.4163V47.371V47.3256V47.2801V47.2346V47.189V47.1435V47.0978V47.0521V47.0064V46.9606V46.9148V46.869V46.8231V46.7772V46.7312V46.6853V46.6392V46.5932V46.5471V46.501V46.4549V46.4087V46.3625V46.3163V46.2701V46.2238V46.1775V46.1312V46.0849V46.0386V45.9923V45.9459V45.8995V45.8531V45.8067V45.7603V45.7139V45.6675V45.6211V45.5746V45.5282V45.4818V45.4353V45.3889V45.3425V45.296V45.2496V45.2032V45.1567V45.1103V45.0639V45.0175V44.9711V44.9248V44.8784V44.8321V44.7857V44.7394V44.6931V44.6469V44.6006V44.5544V44.5082V44.462V44.4158V44.3697V44.3236V44.2775V44.2314V44.1854V44.1394V44.0935V44.0476V44.0017V43.9559V43.9101V43.8643V43.8186V43.7729V43.7272V43.6817V43.6361V43.5906V43.5452V43.4998V43.4544V43.4091V43.3639V43.3187V43.2735V43.2284V43.1834V43.1384V43.0935V43.0487V43.0039V42.9592V42.9145V42.87V42.8254V42.781V42.7366V42.6923V42.6481V42.6039V42.5598V42.5158V42.4719V42.428V42.3842V42.3405V42.2969V42.2534V42.2099V42.1665V42.1233V42.0801V42.037V41.994V41.951V41.9082V41.8655V41.8228V41.7803V41.7379V41.6955V41.6533V41.6111V41.5691V41.5271V41.4853V41.4436V41.4019V41.3604V41.319V41.2777V41.2365V41.1955V41.1545V41.1137V41.0729V41.0323V40.9918V40.9515V40.9112V40.8711V40.8311V40.7912V40.7515V40.7119V40.6724V40.633V40.5938V40.5547V40.5157V40.4769V40.4382V40.3996V40.3612V40.3229V40.2848V40.2468V40.2089V40.1712V40.1336V40.0962V40.059V40.0218V39.9849V39.948V39.9114V39.8749V39.8385V39.8023V39.7662V39.7304V39.6946V39.6591V39.6237V39.5884V39.5533V39.5184V39.4837V39.4491V39.4147V39.3805V39.3464V39.3125V39.2788V39.2453V39.2119V39.1787V39.1457V39.1129V39.0802V39.0478V39.0155V38.9834V38.9515V38.9198V38.8882V38.8569V38.8258V38.7948V38.764V38.7335V38.7031V38.6729V38.6429V38.6132V38.5836V38.5542V38.525V38.4961V38.4673V38.4387V38.4104V38.3823V38.3543V38.3266V38.2991V38.2718V38.2447V38.2179V38.1912V38.1648V38.1386V38.1126V38.0869V38.0613V38.036V38.0109V37.9861V37.9614V37.937V37.9129V37.8889V37.8652V37.8418V37.8185V37.7955V37.7728V37.7502V37.728V37.7059V37.6841V37.6626V37.6413V37.6202V37.5994V37.5788V37.5585V37.5384V37.5186V37.4991V37.4798V37.4607V37.4419V37.4234V37.4051V37.3871V37.3694V37.3519V37.3347V37.3291H24.5187C24.656 37.3291 24.7872 37.2726 24.8816 37.173L34.0634 27.4832H57.4499Z" fill="url(#paint13_linear)" stroke="#5B5B5B" stroke-linecap="round" stroke-linejoin="round"/>
<path d="M8.0354 39.9756H7.5354V40.4756V53.5927C7.5354 55.1943 8.83378 56.4927 10.4354 56.4927H53.5932C55.1948 56.4927 56.4932 55.1943 56.4932 53.5927V40.4756V39.9756H55.9932H8.0354Z" fill="#EEEEEE" stroke="black"/>
<g filter="url(#filter4_d)">
<line x1="14.5984" y1="55.9936" x2="14.5984" y2="43.8531" stroke="black" stroke-opacity="0.75"/>
</g>
<g filter="url(#filter5_d)">
<line x1="21.907" y1="55.9936" x2="21.907" y2="42.0481" stroke="black" stroke-opacity="0.75"/>
</g>
<line x1="28.8767" y1="55.9936" x2="28.8767" y2="40.4765" stroke="black" stroke-opacity="0.75"/>
<g filter="url(#filter6_d)">
<line x1="35.5061" y1="55.9936" x2="35.5061" y2="50.6844" stroke="black" stroke-opacity="0.75"/>
</g>
<g filter="url(#filter7_d)">
<line x1="42.6458" y1="55.9936" x2="42.6458" y2="48.8854" stroke="black" stroke-opacity="0.75"/>
</g>
<g filter="url(#filter8_d)">
<line x1="49.6145" y1="55.9936" x2="49.6145" y2="42.4793" stroke="black" stroke-opacity="0.75"/>
</g>
<g filter="url(#filter9_i)">
<path d="M11.7305 40.2187H16.0989V49.151C16.0989 49.7033 15.6512 50.151 15.0989 50.151H12.7305C12.1782 50.151 11.7305 49.7033 11.7305 49.151V40.2187Z" fill="#222222"/>
</g>
<path d="M11.7305 40.2187H16.0989V49.151C16.0989 49.7033 15.6512 50.151 15.0989 50.151H12.7305C12.1782 50.151 11.7305 49.7033 11.7305 49.151V40.2187Z" stroke="black" stroke-opacity="0.75"/>
<g filter="url(#filter10_i)">
<path d="M20.053 40.2373H24.4214V49.1696C24.4214 49.7219 23.9737 50.1696 23.4214 50.1696H21.053C20.5007 50.1696 20.053 49.7219 20.053 49.1696V40.2373Z" fill="#222222"/>
</g>
<path d="M20.053 40.2373H24.4214V49.1696C24.4214 49.7219 23.9737 50.1696 23.4214 50.1696H21.053C20.5007 50.1696 20.053 49.7219 20.053 49.1696V40.2373Z" stroke="black" stroke-opacity="0.75"/>
<g filter="url(#filter11_i)">
<path d="M32.8 40.2373H37.1685V49.1696C37.1685 49.7219 36.7207 50.1696 36.1685 50.1696H33.8C33.2478 50.1696 32.8 49.7219 32.8 49.1696V40.2373Z" fill="#222222"/>
</g>
<path d="M32.8 40.2373H37.1685V49.1696C37.1685 49.7219 36.7207 50.1696 36.1685 50.1696H33.8C33.2478 50.1696 32.8 49.7219 32.8 49.1696V40.2373Z" stroke="black" stroke-opacity="0.75"/>
<g filter="url(#filter12_i)">
<path d="M40.0979 40.2373H44.4663V49.1696C44.4663 49.7219 44.0186 50.1696 43.4663 50.1696H41.0979C40.5456 50.1696 40.0979 49.7219 40.0979 49.1696V40.2373Z" fill="#222222"/>
</g>
<path d="M40.0979 40.2373H44.4663V49.1696C44.4663 49.7219 44.0186 50.1696 43.4663 50.1696H41.0979C40.5456 50.1696 40.0979 49.7219 40.0979 49.1696V40.2373Z" stroke="black" stroke-opacity="0.75"/>
<g filter="url(#filter13_i)">
<path d="M47.9314 40.2373H52.2998V49.1051C52.2998 49.6574 51.8521 50.1051 51.2998 50.1051H48.9314C48.3791 50.1051 47.9314 49.6574 47.9314 49.1051V40.2373Z" fill="#222222"/>
</g>
<path d="M47.9314 40.2373H52.2998V49.1051C52.2998 49.6574 51.8521 50.1051 51.2998 50.1051H48.9314C48.3791 50.1051 47.9314 49.6574 47.9314 49.1051V40.2373Z" stroke="black" stroke-opacity="0.75"/>
<g filter="url(#filter14_d)">
<path d="M6.52783 36.5193H24.5649L33.9937 26.6778H57.5008" stroke="black" stroke-opacity="0.5" stroke-linecap="square" stroke-linejoin="round"/>
</g>
<g filter="url(#filter15_dd)">
<circle cx="40.155" cy="33.5193" r="3" fill="url(#paint14_radial)"/>
<circle cx="40.155" cy="33.5193" r="2.5" stroke="black" stroke-opacity="0.15"/>
</g>
<line x1="42.3261" y1="32.3265" x2="41.2397" y2="33.0376" stroke="white" stroke-opacity="0.15"/>
<g filter="url(#filter16_dd)">
<circle cx="50.5461" cy="33.5193" r="3" fill="url(#paint15_radial)"/>
<circle cx="50.5461" cy="33.5193" r="2.5" stroke="black" stroke-opacity="0.15"/>
</g>
<line x1="52.7165" y1="32.3265" x2="51.6301" y2="33.0376" stroke="white" stroke-opacity="0.15"/>
<path d="M53.4825 5.96286H10.4279C7.7061 5.96286 6.05548 8.22647 6.05542 10.2678V13.1889H57.9732V10.3912C57.9732 8.1721 56.3845 5.96286 53.4825 5.96286Z" fill="white" fill-opacity="0.15"/>
<defs>
<filter id="filter0_d" x="9.24097" y="9.66434" width="26.2803" height="26.2803" filterUnits="userSpaceOnUse" color-interpolation-filters="sRGB">
<feFlood flood-opacity="0" result="BackgroundImageFix"/>
<feColorMatrix in="SourceAlpha" type="matrix" values="0 0 0 0 0 0 0 0 0 0 0 0 0 0 0 0 0 0 127 0"/>
<feMorphology radius="1" operator="dilate" in="SourceAlpha" result="effect1_dropShadow"/>
<feOffset/>
<feColorMatrix type="matrix" values="0 0 0 0 0 0 0 0 0 0 0 0 0 0 0 0 0 0 0.15 0"/>
<feBlend mode="normal" in2="BackgroundImageFix" result="effect1_dropShadow"/>
<feBlend mode="normal" in="SourceGraphic" in2="effect1_dropShadow" result="shape"/>
</filter>
<filter id="filter1_d" x="17.9878" y="18.4112" width="8.78666" height="8.78666" filterUnits="userSpaceOnUse" color-interpolation-filters="sRGB">
<feFlood flood-opacity="0" result="BackgroundImageFix"/>
<feColorMatrix in="SourceAlpha" type="matrix" values="0 0 0 0 0 0 0 0 0 0 0 0 0 0 0 0 0 0 127 0"/>
<feMorphology radius="1" operator="dilate" in="SourceAlpha" result="effect1_dropShadow"/>
<feOffset/>
<feColorMatrix type="matrix" values="0 0 0 0 0 0 0 0 0 0 0 0 0 0 0 0 0 0 0.25 0"/>
<feBlend mode="normal" in2="BackgroundImageFix" result="effect1_dropShadow"/>
<feBlend mode="normal" in="SourceGraphic" in2="effect1_dropShadow" result="shape"/>
</filter>
<filter id="filter2_d" x="39.4277" y="9.23288" width="14.6986" height="14.6986" filterUnits="userSpaceOnUse" color-interpolation-filters="sRGB">
<feFlood flood-opacity="0" result="BackgroundImageFix"/>
<feColorMatrix in="SourceAlpha" type="matrix" values="0 0 0 0 0 0 0 0 0 0 0 0 0 0 0 0 0 0 127 0"/>
<feMorphology radius="1" operator="dilate" in="SourceAlpha" result="effect1_dropShadow"/>
<feOffset/>
<feColorMatrix type="matrix" values="0 0 0 0 0 0 0 0 0 0 0 0 0 0 0 0 0 0 0.15 0"/>
<feBlend mode="normal" in2="BackgroundImageFix" result="effect1_dropShadow"/>
<feBlend mode="normal" in="SourceGraphic" in2="effect1_dropShadow" result="shape"/>
</filter>
<filter id="filter3_d" x="42.3835" y="12.1889" width="8.78666" height="8.78666" filterUnits="userSpaceOnUse" color-interpolation-filters="sRGB">
<feFlood flood-opacity="0" result="BackgroundImageFix"/>
<feColorMatrix in="SourceAlpha" type="matrix" values="0 0 0 0 0 0 0 0 0 0 0 0 0 0 0 0 0 0 127 0"/>
<feMorphology radius="1" operator="dilate" in="SourceAlpha" result="effect1_dropShadow"/>
<feOffset/>
<feColorMatrix type="matrix" values="0 0 0 0 0 0 0 0 0 0 0 0 0 0 0 0 0 0 0.25 0"/>
<feBlend mode="normal" in2="BackgroundImageFix" result="effect1_dropShadow"/>
<feBlend mode="normal" in="SourceGraphic" in2="effect1_dropShadow" result="shape"/>
</filter>
<filter id="filter4_d" x="14.0984" y="42.8531" width="2" height="13.1405" filterUnits="userSpaceOnUse" color-interpolation-filters="sRGB">
<feFlood flood-opacity="0" result="BackgroundImageFix"/>
<feColorMatrix in="SourceAlpha" type="matrix" values="0 0 0 0 0 0 0 0 0 0 0 0 0 0 0 0 0 0 127 0"/>
<feOffset dx="1" dy="-1"/>
<feColorMatrix type="matrix" values="0 0 0 0 1 0 0 0 0 1 0 0 0 0 1 0 0 0 1 0"/>
<feBlend mode="normal" in2="BackgroundImageFix" result="effect1_dropShadow"/>
<feBlend mode="normal" in="SourceGraphic" in2="effect1_dropShadow" result="shape"/>
</filter>
<filter id="filter5_d" x="21.407" y="41.0481" width="2" height="14.9455" filterUnits="userSpaceOnUse" color-interpolation-filters="sRGB">
<feFlood flood-opacity="0" result="BackgroundImageFix"/>
<feColorMatrix in="SourceAlpha" type="matrix" values="0 0 0 0 0 0 0 0 0 0 0 0 0 0 0 0 0 0 127 0"/>
<feOffset dx="1" dy="-1"/>
<feColorMatrix type="matrix" values="0 0 0 0 1 0 0 0 0 1 0 0 0 0 1 0 0 0 1 0"/>
<feBlend mode="normal" in2="BackgroundImageFix" result="effect1_dropShadow"/>
<feBlend mode="normal" in="SourceGraphic" in2="effect1_dropShadow" result="shape"/>
</filter>
<filter id="filter6_d" x="35.0061" y="49.6844" width="2" height="6.3092" filterUnits="userSpaceOnUse" color-interpolation-filters="sRGB">
<feFlood flood-opacity="0" result="BackgroundImageFix"/>
<feColorMatrix in="SourceAlpha" type="matrix" values="0 0 0 0 0 0 0 0 0 0 0 0 0 0 0 0 0 0 127 0"/>
<feOffset dx="1" dy="-1"/>
<feColorMatrix type="matrix" values="0 0 0 0 1 0 0 0 0 1 0 0 0 0 1 0 0 0 1 0"/>
<feBlend mode="normal" in2="BackgroundImageFix" result="effect1_dropShadow"/>
<feBlend mode="normal" in="SourceGraphic" in2="effect1_dropShadow" result="shape"/>
</filter>
<filter id="filter7_d" x="42.1458" y="47.8854" width="2" height="8.10819" filterUnits="userSpaceOnUse" color-interpolation-filters="sRGB">
<feFlood flood-opacity="0" result="BackgroundImageFix"/>
<feColorMatrix in="SourceAlpha" type="matrix" values="0 0 0 0 0 0 0 0 0 0 0 0 0 0 0 0 0 0 127 0"/>
<feOffset dx="1" dy="-1"/>
<feColorMatrix type="matrix" values="0 0 0 0 1 0 0 0 0 1 0 0 0 0 1 0 0 0 1 0"/>
<feBlend mode="normal" in2="BackgroundImageFix" result="effect1_dropShadow"/>
<feBlend mode="normal" in="SourceGraphic" in2="effect1_dropShadow" result="shape"/>
</filter>
<filter id="filter8_d" x="49.1145" y="41.4792" width="2" height="14.5143" filterUnits="userSpaceOnUse" color-interpolation-filters="sRGB">
<feFlood flood-opacity="0" result="BackgroundImageFix"/>
<feColorMatrix in="SourceAlpha" type="matrix" values="0 0 0 0 0 0 0 0 0 0 0 0 0 0 0 0 0 0 127 0"/>
<feOffset dx="1" dy="-1"/>
<feColorMatrix type="matrix" values="0 0 0 0 1 0 0 0 0 1 0 0 0 0 1 0 0 0 1 0"/>
<feBlend mode="normal" in2="BackgroundImageFix" result="effect1_dropShadow"/>
<feBlend mode="normal" in="SourceGraphic" in2="effect1_dropShadow" result="shape"/>
</filter>
<filter id="filter9_i" x="11.2305" y="39.7187" width="5.36842" height="10.9323" filterUnits="userSpaceOnUse" color-interpolation-filters="sRGB">
<feFlood flood-opacity="0" result="BackgroundImageFix"/>
<feBlend mode="normal" in="SourceGraphic" in2="BackgroundImageFix" result="shape"/>
<feColorMatrix in="SourceAlpha" type="matrix" values="0 0 0 0 0 0 0 0 0 0 0 0 0 0 0 0 0 0 127 0" result="hardAlpha"/>
<feOffset dy="-4"/>
<feComposite in2="hardAlpha" operator="arithmetic" k2="-1" k3="1"/>
<feColorMatrix type="matrix" values="0 0 0 0 1 0 0 0 0 1 0 0 0 0 1 0 0 0 0.25 0"/>
<feBlend mode="normal" in2="shape" result="effect1_innerShadow"/>
</filter>
<filter id="filter10_i" x="19.553" y="39.7373" width="5.36842" height="10.9323" filterUnits="userSpaceOnUse" color-interpolation-filters="sRGB">
<feFlood flood-opacity="0" result="BackgroundImageFix"/>
<feBlend mode="normal" in="SourceGraphic" in2="BackgroundImageFix" result="shape"/>
<feColorMatrix in="SourceAlpha" type="matrix" values="0 0 0 0 0 0 0 0 0 0 0 0 0 0 0 0 0 0 127 0" result="hardAlpha"/>
<feOffset dy="-4"/>
<feComposite in2="hardAlpha" operator="arithmetic" k2="-1" k3="1"/>
<feColorMatrix type="matrix" values="0 0 0 0 1 0 0 0 0 1 0 0 0 0 1 0 0 0 0.25 0"/>
<feBlend mode="normal" in2="shape" result="effect1_innerShadow"/>
</filter>
<filter id="filter11_i" x="32.3" y="39.7373" width="5.36842" height="10.9323" filterUnits="userSpaceOnUse" color-interpolation-filters="sRGB">
<feFlood flood-opacity="0" result="BackgroundImageFix"/>
<feBlend mode="normal" in="SourceGraphic" in2="BackgroundImageFix" result="shape"/>
<feColorMatrix in="SourceAlpha" type="matrix" values="0 0 0 0 0 0 0 0 0 0 0 0 0 0 0 0 0 0 127 0" result="hardAlpha"/>
<feOffset dy="-4"/>
<feComposite in2="hardAlpha" operator="arithmetic" k2="-1" k3="1"/>
<feColorMatrix type="matrix" values="0 0 0 0 1 0 0 0 0 1 0 0 0 0 1 0 0 0 0.25 0"/>
<feBlend mode="normal" in2="shape" result="effect1_innerShadow"/>
</filter>
<filter id="filter12_i" x="39.5979" y="39.7373" width="5.36842" height="10.9323" filterUnits="userSpaceOnUse" color-interpolation-filters="sRGB">
<feFlood flood-opacity="0" result="BackgroundImageFix"/>
<feBlend mode="normal" in="SourceGraphic" in2="BackgroundImageFix" result="shape"/>
<feColorMatrix in="SourceAlpha" type="matrix" values="0 0 0 0 0 0 0 0 0 0 0 0 0 0 0 0 0 0 127 0" result="hardAlpha"/>
<feOffset dy="-4"/>
<feComposite in2="hardAlpha" operator="arithmetic" k2="-1" k3="1"/>
<feColorMatrix type="matrix" values="0 0 0 0 1 0 0 0 0 1 0 0 0 0 1 0 0 0 0.25 0"/>
<feBlend mode="normal" in2="shape" result="effect1_innerShadow"/>
</filter>
<filter id="filter13_i" x="47.4314" y="39.7373" width="5.36842" height="10.8678" filterUnits="userSpaceOnUse" color-interpolation-filters="sRGB">
<feFlood flood-opacity="0" result="BackgroundImageFix"/>
<feBlend mode="normal" in="SourceGraphic" in2="BackgroundImageFix" result="shape"/>
<feColorMatrix in="SourceAlpha" type="matrix" values="0 0 0 0 0 0 0 0 0 0 0 0 0 0 0 0 0 0 127 0" result="hardAlpha"/>
<feOffset dy="-4"/>
<feComposite in2="hardAlpha" operator="arithmetic" k2="-1" k3="1"/>
<feColorMatrix type="matrix" values="0 0 0 0 1 0 0 0 0 1 0 0 0 0 1 0 0 0 0.25 0"/>
<feBlend mode="normal" in2="shape" result="effect1_innerShadow"/>
</filter>
<filter id="filter14_d" x="6.02783" y="26.1778" width="51.973" height="11.8415" filterUnits="userSpaceOnUse" color-interpolation-filters="sRGB">
<feFlood flood-opacity="0" result="BackgroundImageFix"/>
<feColorMatrix in="SourceAlpha" type="matrix" values="0 0 0 0 0 0 0 0 0 0 0 0 0 0 0 0 0 0 127 0"/>
<feOffset dy="1"/>
<feColorMatrix type="matrix" values="0 0 0 0 0.443137 0 0 0 0 0.439216 0 0 0 0 0.439216 0 0 0 1 0"/>
<feBlend mode="normal" in2="BackgroundImageFix" result="effect1_dropShadow"/>
<feBlend mode="normal" in="SourceGraphic" in2="effect1_dropShadow" result="shape"/>
</filter>
<filter id="filter15_dd" x="35.155" y="28.5193" width="10" height="11" filterUnits="userSpaceOnUse" color-interpolation-filters="sRGB">
<feFlood flood-opacity="0" result="BackgroundImageFix"/>
<feColorMatrix in="SourceAlpha" type="matrix" values="0 0 0 0 0 0 0 0 0 0 0 0 0 0 0 0 0 0 127 0"/>
<feOffset dy="1"/>
<feGaussianBlur stdDeviation="1"/>
<feColorMatrix type="matrix" values="0 0 0 0 0 0 0 0 0 0 0 0 0 0 0 0 0 0 0.75 0"/>
<feBlend mode="normal" in2="BackgroundImageFix" result="effect1_dropShadow"/>
<feColorMatrix in="SourceAlpha" type="matrix" values="0 0 0 0 0 0 0 0 0 0 0 0 0 0 0 0 0 0 127 0"/>
<feOffset dy="-1"/>
<feGaussianBlur stdDeviation="0.5"/>
<feColorMatrix type="matrix" values="0 0 0 0 1 0 0 0 0 1 0 0 0 0 1 0 0 0 0.15 0"/>
<feBlend mode="normal" in2="effect1_dropShadow" result="effect2_dropShadow"/>
<feBlend mode="normal" in="SourceGraphic" in2="effect2_dropShadow" result="shape"/>
</filter>
<filter id="filter16_dd" x="45.5461" y="28.5193" width="10" height="11" filterUnits="userSpaceOnUse" color-interpolation-filters="sRGB">
<feFlood flood-opacity="0" result="BackgroundImageFix"/>
<feColorMatrix in="SourceAlpha" type="matrix" values="0 0 0 0 0 0 0 0 0 0 0 0 0 0 0 0 0 0 127 0"/>
<feOffset dy="1"/>
<feGaussianBlur stdDeviation="1"/>
<feColorMatrix type="matrix" values="0 0 0 0 0 0 0 0 0 0 0 0 0 0 0 0 0 0 0.75 0"/>
<feBlend mode="normal" in2="BackgroundImageFix" result="effect1_dropShadow"/>
<feColorMatrix in="SourceAlpha" type="matrix" values="0 0 0 0 0 0 0 0 0 0 0 0 0 0 0 0 0 0 127 0"/>
<feOffset dy="-1"/>
<feGaussianBlur stdDeviation="0.5"/>
<feColorMatrix type="matrix" values="0 0 0 0 1 0 0 0 0 1 0 0 0 0 1 0 0 0 0.15 0"/>
<feBlend mode="normal" in2="effect1_dropShadow" result="effect2_dropShadow"/>
<feBlend mode="normal" in="SourceGraphic" in2="effect2_dropShadow" result="shape"/>
</filter>
<radialGradient id="paint0_radial" cx="0" cy="0" r="1" gradientUnits="userSpaceOnUse" gradientTransform="translate(53.9916 59) scale(6.01135 2.5)">
<stop stop-color="#181818"/>
<stop offset="1" stop-color="#181818" stop-opacity="0"/>
</radialGradient>
<radialGradient id="paint1_radial" cx="0" cy="0" r="1" gradientUnits="userSpaceOnUse" gradientTransform="translate(10.0084 59) rotate(180) scale(6.01135 2.5)">
<stop stop-color="#181818"/>
<stop offset="1" stop-color="#181818" stop-opacity="0"/>
</radialGradient>
<linearGradient id="paint2_linear" x1="33.6627" y1="61.5198" x2="33.6627" y2="56.4996" gradientUnits="userSpaceOnUse">
<stop stop-color="#181818" stop-opacity="0"/>
<stop offset="0.5" stop-color="#181818"/>
<stop offset="1" stop-color="#181818" stop-opacity="0"/>
</linearGradient>
<linearGradient id="paint3_linear" x1="31.3975" y1="4.7175" x2="31.3975" y2="59.461" gradientUnits="userSpaceOnUse">
<stop stop-color="#4D4D4D"/>
<stop offset="1" stop-color="#1A1A1A"/>
</linearGradient>
<linearGradient id="paint4_linear" x1="32" y1="4.71062" x2="32" y2="59.2894" gradientUnits="userSpaceOnUse">
<stop stop-color="white"/>
<stop offset="0.0631645" stop-color="white" stop-opacity="0.235294"/>
<stop offset="0.950563" stop-color="white" stop-opacity="0.156863"/>
<stop offset="1" stop-color="white" stop-opacity="0.392157"/>
</linearGradient>
<radialGradient id="paint5_radial" cx="0" cy="0" r="1" gradientUnits="userSpaceOnUse" gradientTransform="translate(22.3811 15.6262) rotate(90) scale(21.3623)">
<stop stop-color="#828282"/>
<stop offset="1" stop-color="#161616"/>
</radialGradient>
<radialGradient id="paint6_radial" cx="0" cy="0" r="1" gradientUnits="userSpaceOnUse" gradientTransform="translate(22.3811 13.7664) rotate(90) scale(19.7386)">
<stop stop-color="#A62100"/>
<stop offset="1" stop-color="#F37329"/>
</radialGradient>
<radialGradient id="paint7_radial" cx="0" cy="0" r="1" gradientUnits="userSpaceOnUse" gradientTransform="translate(22.3811 20.9827) rotate(90) scale(5.21511)">
<stop stop-color="#B6B6B6"/>
<stop offset="1"/>
</radialGradient>
<linearGradient id="paint8_linear" x1="22.3811" y1="19.4112" x2="22.3811" y2="26.1978" gradientUnits="userSpaceOnUse">
<stop/>
<stop offset="1" stop-color="#626262"/>
</linearGradient>
<radialGradient id="paint9_radial" cx="0" cy="0" r="1" gradientUnits="userSpaceOnUse" gradientTransform="translate(46.7772 12.0715) rotate(90) scale(13.4236)">
<stop stop-color="#828282"/>
<stop offset="1" stop-color="#161616"/>
</radialGradient>
<radialGradient id="paint10_radial" cx="0" cy="0" r="1" gradientUnits="userSpaceOnUse" gradientTransform="translate(46.777 11.8553) rotate(90) scale(10.3233)">
<stop stop-color="#A62100"/>
<stop offset="1" stop-color="#F37329"/>
</radialGradient>
<radialGradient id="paint11_radial" cx="0" cy="0" r="1" gradientUnits="userSpaceOnUse" gradientTransform="translate(46.7769 14.7604) rotate(90) scale(5.21511)">
<stop stop-color="#B6B6B6"/>
<stop offset="1"/>
</radialGradient>
<linearGradient id="paint12_linear" x1="46.7769" y1="13.1889" x2="46.7769" y2="19.9755" gradientUnits="userSpaceOnUse">
<stop/>
<stop offset="1" stop-color="#626262"/>
</linearGradient>
<linearGradient id="paint13_linear" x1="31.9911" y1="26.9832" x2="31.9911" y2="57.9931" gradientUnits="userSpaceOnUse">
<stop stop-color="#4F4C4C"/>
<stop offset="1" stop-color="#262626"/>
</linearGradient>
<radialGradient id="paint14_radial" cx="0" cy="0" r="1" gradientUnits="userSpaceOnUse" gradientTransform="translate(40.155 32.0696) rotate(90) scale(4.4497)">
<stop stop-color="#2B2B2B"/>
<stop offset="1" stop-color="#4F4F4F"/>
</radialGradient>
<radialGradient id="paint15_radial" cx="0" cy="0" r="1" gradientUnits="userSpaceOnUse" gradientTransform="translate(50.5461 32.0696) rotate(90) scale(4.4497)">
<stop stop-color="#2B2B2B"/>
<stop offset="1" stop-color="#4F4F4F"/>
</radialGradient>
</defs>
</svg>
