<svg width="64" height="64" viewBox="0 0 64 64" fill="none" xmlns="http://www.w3.org/2000/svg">
<g opacity="0.6">
<path opacity="0.6" d="M62.0002 56.5H54.1055V61.5H62.0002V56.5Z" fill="url(#paint0_radial)"/>
<path opacity="0.6" d="M2.00002 61.5H9.89478V56.5H2.00002V61.5Z" fill="url(#paint1_radial)"/>
<path opacity="0.6" d="M54.1054 56.5H9.89478V61.5H54.1054V56.5Z" fill="url(#paint2_linear)"/>
</g>
<path d="M56.5 4.5H7.5C5.84315 4.5 4.5 5.84315 4.5 7.5V56.5C4.5 58.1569 5.84315 59.5 7.5 59.5H56.5C58.1569 59.5 59.5 58.1569 59.5 56.5V7.5C59.5 5.84315 58.1569 4.5 56.5 4.5Z" fill="url(#paint3_linear)"/>
<path opacity="0.5" d="M56.5 5.42877H7.5C6.39543 5.42877 5.5 6.3242 5.5 7.42877V56.5713C5.5 57.6758 6.39543 58.5713 7.5 58.5713H56.5C57.6046 58.5713 58.5 57.6758 58.5 56.5713V7.42877C58.5 6.3242 57.6046 5.42877 56.5 5.42877Z" stroke="url(#paint4_linear)" stroke-linecap="round" stroke-linejoin="round"/>
<path opacity="0.7" d="M56.5 4.5H7.5C5.84315 4.5 4.5 5.84315 4.5 7.5V56.5C4.5 58.1569 5.84315 59.5 7.5 59.5H56.5C58.1569 59.5 59.5 58.1569 59.5 56.5V7.5C59.5 5.84315 58.1569 4.5 56.5 4.5Z" stroke="black" stroke-linecap="round" stroke-linejoin="round"/>
<circle cx="22.1345" cy="22.4891" r="14.184" fill="url(#paint5_radial)"/>
<circle cx="22.1345" cy="22.4891" r="14.684" stroke="black" stroke-opacity="0.75"/>
<g filter="url(#filter0_d)">
<circle cx="22.1345" cy="22.4891" r="12.1402" fill="url(#paint6_radial)"/>
<circle cx="22.1345" cy="22.4891" r="11.6402" stroke="black" stroke-opacity="0.75"/>
</g>
<g filter="url(#filter1_d)">
<circle cx="22.1345" cy="22.4891" r="3.39333" fill="url(#paint7_radial)"/>
<circle cx="22.1345" cy="22.4891" r="2.89333" stroke="url(#paint8_linear)" stroke-opacity="0.75"/>
</g>
<circle cx="46.5306" cy="16.2668" r="8.91294" fill="url(#paint9_radial)"/>
<circle cx="46.5306" cy="16.2668" r="9.41294" stroke="black" stroke-opacity="0.75"/>
<g filter="url(#filter2_d)">
<circle cx="46.5305" cy="16.2668" r="6.3493" fill="url(#paint10_radial)"/>
<circle cx="46.5305" cy="16.2668" r="5.8493" stroke="black" stroke-opacity="0.75"/>
</g>
<g filter="url(#filter3_d)">
<circle cx="46.5303" cy="16.2668" r="3.39333" fill="url(#paint11_radial)"/>
<circle cx="46.5303" cy="16.2668" r="2.89333" stroke="url(#paint12_linear)" stroke-opacity="0.75"/>
</g>
<path d="M6.50003 37.7289L6.50003 37.4083H24.4865C24.6238 37.4083 24.755 37.3519 24.8494 37.2522L34.0312 27.5624H57.4192L57.4214 28.3144L57.4312 31.6161L57.4609 41.6758C57.4825 49.0201 57.5041 56.4369 57.5041 56.7351C57.5041 56.8558 57.4185 57.071 57.2153 57.2769C57.0134 57.4814 56.7983 57.5723 56.6621 57.5723H56.6579H56.6525H56.6461H56.6387H56.6301H56.6205H56.6099H56.5982H56.5855H56.5717H56.5569H56.5411H56.5242H56.5063H56.4874H56.4675H56.4465H56.4246H56.4016H56.3777H56.3528H56.3268H56.2999H56.272H56.2431H56.2133H56.1825H56.1507H56.118H56.0843H56.0496H56.014H55.9775H55.94H55.9016H55.8622H55.8219H55.7808H55.7386H55.6956H55.6517H55.6068H55.5611H55.5144H55.4669H55.4185H55.3692H55.319H55.2679H55.216H55.1631H55.1095H55.0549H54.9995H54.9433H54.8862H54.8283H54.7695H54.7099H54.6495H54.5882H54.5261H54.4632H54.3995H54.335H54.2697H54.2036H54.1366H54.0689H54.0004H53.9311H53.8611H53.7902H53.7186H53.6462H53.5731H53.4992H53.4245H53.3491H53.2729H53.196H53.1184H53.04H52.9609H52.8811H52.8006H52.7193H52.6373H52.5546H52.4713H52.3872H52.3024H52.2169H52.1308H52.0439H51.9564H51.8682H51.7793H51.6898H51.5996H51.5087H51.4172H51.3251H51.2323H51.1388H51.0447H50.95H50.8547H50.7587H50.6621H50.5649H50.4671H50.3687H50.2697H50.17H50.0698H49.969H49.8676H49.7656H49.6631H49.5599H49.4562H49.352H49.2471H49.1417H49.0358H48.9293H48.8223H48.7147H48.6066H48.498H48.3888H48.2791H48.1689H48.0582H47.9469H47.8352H47.723H47.6102H47.497H47.3832H47.269H47.1543H47.0392H46.9235H46.8074H46.6908H46.5738H46.4563H46.3384H46.22H46.1011H45.9818H45.8621H45.742H45.6214H45.5004H45.379H45.2572H45.1349H45.0123H44.8893H44.7658H44.642H44.5178H44.3932H44.2682H44.1428H44.0171H43.891H43.7645H43.6377H43.5105H43.3829H43.2551H43.1268H42.9983H42.8694H42.7402H42.6106H42.4807H42.3505H42.22H42.0892H41.9581H41.8267H41.695H41.563H41.4307H41.2981H41.1652H41.0321H40.8987H40.765H40.6311H40.4969H40.3624H40.2277H40.0928H39.9576H39.8221H39.6865H39.5506H39.4145H39.2781H39.1416H39.0048H38.8678H38.7307H38.5933H38.4557H38.318H38.18H38.0419H37.9036H37.7651H37.6264H37.4876H37.3486H37.2094H37.0702H36.9307H36.7911H36.6514H36.5115H36.3715H36.2314H36.0911H35.9507H35.8102H35.6696H35.5289H35.3881H35.2472H35.1062H34.9651H34.8239H34.6826H34.5413H34.3999H34.2584H34.1168H33.9752H33.8335H33.6918H33.55H33.4082H33.2664H33.1245H32.9825H32.8406H32.6986H32.5566H32.4146H32.2726H32.1306H31.9885H31.8465H31.7045H31.5625H31.4205H31.2785H31.1365H30.9946H30.8527H30.7108H30.569H30.4272H30.2855H30.1438H30.0022H29.8606H29.7192H29.5777H29.4364H29.2951H29.1539H29.0128H28.8718H28.7308H28.59H28.4493H28.3087H28.1682H28.0278H27.8875H27.7474H27.6073H27.4675H27.3277H27.1881H27.0486H26.9093H26.7702H26.6312H26.4923H26.3536H26.2151H26.0768H25.9386H25.8007H25.6629H25.5253H25.3879H25.2507H25.1137H24.9769H24.8403H24.704H24.5678H24.4319H24.2962H24.1608H24.0255H23.8906H23.7558H23.6213H23.4871H23.3532H23.2194H23.086H22.9528H22.8199H22.6873H22.555H22.423H22.2912H22.1597H22.0286H21.8977H21.7672H21.637H21.5071H21.3775H21.2482H21.1193H20.9907H20.8624H20.7345H20.6069H20.4797H20.3528H20.2263H20.1002H19.9744H19.849H19.7239H19.5993H19.475H19.3511H19.2277H19.1046H18.9819H18.8596H18.7377H18.6163H18.4952H18.3746H18.2544H18.1346H18.0153H17.8964H17.778H17.66H17.5424H17.4253H17.3087H17.1925H17.0768H16.9616H16.8469H16.7326H16.6188H16.5055H16.3927H16.2804H16.1686H16.0573H15.9465H15.8363H15.7265H15.6173H15.5086H15.4004H15.2928H15.1857H15.0791H14.9731H14.8677H14.7628H14.6585H14.5547H14.4515H14.3489H14.2468H14.1453H14.0445H13.9442H13.8445H13.7454H13.6469H13.549H13.4517H13.3551H13.259H13.1636H13.0688H12.9747H12.8812H12.7883H12.696H12.6045H12.5135H12.4233H12.3336H12.2447H12.1564H12.0688H11.9819H11.8957H11.8101H11.7252H11.6411H11.5576H11.4748H11.3928H11.3114H11.2308H11.1509H11.0717H10.9933H10.9155H10.8386H10.7623H10.6868H10.6121H10.5381H10.4648H10.3924H10.3207H10.2497H10.1796H10.1102H10.0416H9.97379H9.90677H9.84055H9.77513H9.71052H9.64671H9.58372H9.52154H9.46019H9.39966H9.33996H9.28109H9.22306H9.16588H9.10954H9.05405H8.99942H8.94565H8.89274H8.84069H8.78952H8.73923H8.68981H8.64128H8.59364H8.54689H8.50104H8.45609H8.41204H8.36891H8.32669H8.28538H8.245H8.20555H8.16702H8.12943H8.09278H8.05707H8.02232H7.98851H7.95565H7.92376H7.89283H7.86287H7.83389H7.80588H7.77885H7.7528H7.72775H7.70369H7.68063H7.65857H7.63751H7.61747H7.59844H7.58043H7.56344H7.54748H7.53255H7.51866H7.50581H7.494H7.48324H7.47353H7.46488H7.45729H7.45076H7.44531C6.90387 57.5723 6.5 57.0846 6.5 56.656L6.50002 46.5263L6.50003 39.898L6.50003 37.7289Z" fill="url(#paint13_linear)" stroke="#5B5B5B" stroke-linecap="round" stroke-linejoin="round"/>
<path d="M8.00317 40.0549H7.50317V40.5549V55.9719C7.50317 56.3033 7.7718 56.5719 8.10317 56.5719H55.861C56.1924 56.5719 56.461 56.3033 56.461 55.9719V40.5549V40.0549H55.961H8.00317Z" fill="#EEEEEE" stroke="black"/>
<g filter="url(#filter4_d)">
<line x1="14.5662" y1="56.0728" x2="14.5662" y2="43.9323" stroke="black" stroke-opacity="0.75"/>
</g>
<g filter="url(#filter5_d)">
<line x1="21.8748" y1="56.0728" x2="21.8748" y2="42.1273" stroke="black" stroke-opacity="0.75"/>
</g>
<line x1="28.8445" y1="56.0728" x2="28.8445" y2="40.5558" stroke="black" stroke-opacity="0.75"/>
<g filter="url(#filter6_d)">
<line x1="35.4739" y1="56.0728" x2="35.4739" y2="50.7636" stroke="black" stroke-opacity="0.75"/>
</g>
<g filter="url(#filter7_d)">
<line x1="42.6135" y1="56.0728" x2="42.6135" y2="48.9646" stroke="black" stroke-opacity="0.75"/>
</g>
<g filter="url(#filter8_d)">
<line x1="49.5823" y1="56.0728" x2="49.5823" y2="42.5585" stroke="black" stroke-opacity="0.75"/>
</g>
<g filter="url(#filter9_i)">
<path d="M11.6982 40.2979H16.0667V50.1302C16.0667 50.1854 16.0219 50.2302 15.9667 50.2302H11.7982C11.743 50.2302 11.6982 50.1854 11.6982 50.1302V40.2979Z" fill="#222222"/>
</g>
<path d="M11.6982 40.2979H16.0667V50.1302C16.0667 50.1854 16.0219 50.2302 15.9667 50.2302H11.7982C11.743 50.2302 11.6982 50.1854 11.6982 50.1302V40.2979Z" stroke="black" stroke-opacity="0.75"/>
<g filter="url(#filter10_i)">
<path d="M20.0208 40.3165H24.3892V50.1489C24.3892 50.2041 24.3444 50.2489 24.2892 50.2489H20.1208C20.0655 50.2489 20.0208 50.2041 20.0208 50.1489V40.3165Z" fill="#222222"/>
</g>
<path d="M20.0208 40.3165H24.3892V50.1489C24.3892 50.2041 24.3444 50.2489 24.2892 50.2489H20.1208C20.0655 50.2489 20.0208 50.2041 20.0208 50.1489V40.3165Z" stroke="black" stroke-opacity="0.75"/>
<g filter="url(#filter11_i)">
<path d="M32.7678 40.3165H37.1362V50.1489C37.1362 50.2041 37.0915 50.2489 37.0362 50.2489H32.8678C32.8126 50.2489 32.7678 50.2041 32.7678 50.1489V40.3165Z" fill="#222222"/>
</g>
<path d="M32.7678 40.3165H37.1362V50.1489C37.1362 50.2041 37.0915 50.2489 37.0362 50.2489H32.8678C32.8126 50.2489 32.7678 50.2041 32.7678 50.1489V40.3165Z" stroke="black" stroke-opacity="0.75"/>
<g filter="url(#filter12_i)">
<path d="M40.0657 40.3165H44.4341V50.1489C44.4341 50.2041 44.3893 50.2489 44.3341 50.2489H40.1657C40.1104 50.2489 40.0657 50.2041 40.0657 50.1489V40.3165Z" fill="#222222"/>
</g>
<path d="M40.0657 40.3165H44.4341V50.1489C44.4341 50.2041 44.3893 50.2489 44.3341 50.2489H40.1657C40.1104 50.2489 40.0657 50.2041 40.0657 50.1489V40.3165Z" stroke="black" stroke-opacity="0.75"/>
<g filter="url(#filter13_i)">
<path d="M47.8992 40.3165H52.2676V50.0844C52.2676 50.1396 52.2228 50.1844 52.1676 50.1844H47.9992C47.9439 50.1844 47.8992 50.1396 47.8992 50.0844V40.3165Z" fill="#222222"/>
</g>
<path d="M47.8992 40.3165H52.2676V50.0844C52.2676 50.1396 52.2228 50.1844 52.1676 50.1844H47.9992C47.9439 50.1844 47.8992 50.1396 47.8992 50.0844V40.3165Z" stroke="black" stroke-opacity="0.75"/>
<g filter="url(#filter14_d)">
<path d="M6.49561 36.5985H24.5327L33.9615 26.757H57.4686" stroke="black" stroke-opacity="0.5" stroke-linecap="square" stroke-linejoin="round"/>
</g>
<g filter="url(#filter15_dd)">
<circle cx="40.1228" cy="33.5985" r="3" fill="url(#paint14_radial)"/>
<circle cx="40.1228" cy="33.5985" r="2.5" stroke="black" stroke-opacity="0.15"/>
</g>
<line x1="42.2939" y1="32.4058" x2="41.2075" y2="33.1169" stroke="white" stroke-opacity="0.15"/>
<g filter="url(#filter16_dd)">
<circle cx="50.5139" cy="33.5985" r="3" fill="url(#paint15_radial)"/>
<circle cx="50.5139" cy="33.5985" r="2.5" stroke="black" stroke-opacity="0.15"/>
</g>
<line x1="52.6842" y1="32.4058" x2="51.5979" y2="33.1169" stroke="white" stroke-opacity="0.15"/>
<path d="M56.5151 5.92082H7.45148C6.82658 5.92082 6.01978 6.46289 6.01978 7.3318V13.1664H57.992V7.42578C57.992 6.35547 57.0703 5.92082 56.5151 5.92082Z" fill="white" fill-opacity="0.15"/>
<g filter="url(#filter17_ii)">
<rect x="18.7412" y="43.6529" width="39.3117" height="14.4195" rx="1.5" fill="#0062BC"/>
</g>
<rect x="19.2412" y="44.1529" width="38.3117" height="13.4195" rx="1" stroke="black" stroke-opacity="0.75"/>
<g filter="url(#filter18_d)">
<path d="M28.4706 52.7738H25.79L25.1879 54.4437H24.3178L26.7612 48.0453H27.4994L29.9472 54.4437H29.0815L28.4706 52.7738ZM26.0448 52.0794H28.2201L27.1303 49.0868L26.0448 52.0794ZM31.6567 53.7538H34.6889V54.4437H30.8085V48.0453H31.6567V53.7538ZM36.495 51.9388V54.4437H35.6513V48.0453H38.0112C38.7114 48.0453 39.2592 48.224 39.6547 48.5814C40.0531 48.9388 40.2524 49.412 40.2524 50.0008C40.2524 50.6219 40.0575 51.1009 39.6679 51.4378C39.2812 51.7718 38.726 51.9388 38.0024 51.9388H36.495ZM36.495 51.2489H38.0112C38.4623 51.2489 38.808 51.1434 39.0483 50.9325C39.2885 50.7186 39.4086 50.411 39.4086 50.0096C39.4086 49.6288 39.2885 49.3241 39.0483 49.0956C38.808 48.867 38.4784 48.7484 38.0595 48.7396H36.495V51.2489ZM46.2465 54.4437H45.3984V51.4862H42.1728V54.4437H41.329V48.0453H42.1728V50.7962H45.3984V48.0453H46.2465V54.4437ZM51.3573 52.7738H48.6767L48.0746 54.4437H47.2045L49.6479 48.0453H50.3862L52.8339 54.4437H51.9682L51.3573 52.7738ZM48.9316 52.0794H51.1069L50.017 49.0868L48.9316 52.0794Z" fill="white"/>
</g>
<defs>
<filter id="filter0_d" x="8.99438" y="9.34897" width="26.2803" height="26.2803" filterUnits="userSpaceOnUse" color-interpolation-filters="sRGB">
<feFlood flood-opacity="0" result="BackgroundImageFix"/>
<feColorMatrix in="SourceAlpha" type="matrix" values="0 0 0 0 0 0 0 0 0 0 0 0 0 0 0 0 0 0 127 0"/>
<feMorphology radius="1" operator="dilate" in="SourceAlpha" result="effect1_dropShadow"/>
<feOffset/>
<feColorMatrix type="matrix" values="0 0 0 0 0 0 0 0 0 0 0 0 0 0 0 0 0 0 0.15 0"/>
<feBlend mode="normal" in2="BackgroundImageFix" result="effect1_dropShadow"/>
<feBlend mode="normal" in="SourceGraphic" in2="effect1_dropShadow" result="shape"/>
</filter>
<filter id="filter1_d" x="17.7412" y="18.0958" width="8.78666" height="8.78666" filterUnits="userSpaceOnUse" color-interpolation-filters="sRGB">
<feFlood flood-opacity="0" result="BackgroundImageFix"/>
<feColorMatrix in="SourceAlpha" type="matrix" values="0 0 0 0 0 0 0 0 0 0 0 0 0 0 0 0 0 0 127 0"/>
<feMorphology radius="1" operator="dilate" in="SourceAlpha" result="effect1_dropShadow"/>
<feOffset/>
<feColorMatrix type="matrix" values="0 0 0 0 0 0 0 0 0 0 0 0 0 0 0 0 0 0 0.25 0"/>
<feBlend mode="normal" in2="BackgroundImageFix" result="effect1_dropShadow"/>
<feBlend mode="normal" in="SourceGraphic" in2="effect1_dropShadow" result="shape"/>
</filter>
<filter id="filter2_d" x="39.1812" y="8.91751" width="14.6986" height="14.6986" filterUnits="userSpaceOnUse" color-interpolation-filters="sRGB">
<feFlood flood-opacity="0" result="BackgroundImageFix"/>
<feColorMatrix in="SourceAlpha" type="matrix" values="0 0 0 0 0 0 0 0 0 0 0 0 0 0 0 0 0 0 127 0"/>
<feMorphology radius="1" operator="dilate" in="SourceAlpha" result="effect1_dropShadow"/>
<feOffset/>
<feColorMatrix type="matrix" values="0 0 0 0 0 0 0 0 0 0 0 0 0 0 0 0 0 0 0.15 0"/>
<feBlend mode="normal" in2="BackgroundImageFix" result="effect1_dropShadow"/>
<feBlend mode="normal" in="SourceGraphic" in2="effect1_dropShadow" result="shape"/>
</filter>
<filter id="filter3_d" x="42.137" y="11.8735" width="8.78666" height="8.78666" filterUnits="userSpaceOnUse" color-interpolation-filters="sRGB">
<feFlood flood-opacity="0" result="BackgroundImageFix"/>
<feColorMatrix in="SourceAlpha" type="matrix" values="0 0 0 0 0 0 0 0 0 0 0 0 0 0 0 0 0 0 127 0"/>
<feMorphology radius="1" operator="dilate" in="SourceAlpha" result="effect1_dropShadow"/>
<feOffset/>
<feColorMatrix type="matrix" values="0 0 0 0 0 0 0 0 0 0 0 0 0 0 0 0 0 0 0.25 0"/>
<feBlend mode="normal" in2="BackgroundImageFix" result="effect1_dropShadow"/>
<feBlend mode="normal" in="SourceGraphic" in2="effect1_dropShadow" result="shape"/>
</filter>
<filter id="filter4_d" x="14.0662" y="42.9323" width="2" height="13.1405" filterUnits="userSpaceOnUse" color-interpolation-filters="sRGB">
<feFlood flood-opacity="0" result="BackgroundImageFix"/>
<feColorMatrix in="SourceAlpha" type="matrix" values="0 0 0 0 0 0 0 0 0 0 0 0 0 0 0 0 0 0 127 0"/>
<feOffset dx="1" dy="-1"/>
<feColorMatrix type="matrix" values="0 0 0 0 1 0 0 0 0 1 0 0 0 0 1 0 0 0 1 0"/>
<feBlend mode="normal" in2="BackgroundImageFix" result="effect1_dropShadow"/>
<feBlend mode="normal" in="SourceGraphic" in2="effect1_dropShadow" result="shape"/>
</filter>
<filter id="filter5_d" x="21.3748" y="41.1273" width="2" height="14.9455" filterUnits="userSpaceOnUse" color-interpolation-filters="sRGB">
<feFlood flood-opacity="0" result="BackgroundImageFix"/>
<feColorMatrix in="SourceAlpha" type="matrix" values="0 0 0 0 0 0 0 0 0 0 0 0 0 0 0 0 0 0 127 0"/>
<feOffset dx="1" dy="-1"/>
<feColorMatrix type="matrix" values="0 0 0 0 1 0 0 0 0 1 0 0 0 0 1 0 0 0 1 0"/>
<feBlend mode="normal" in2="BackgroundImageFix" result="effect1_dropShadow"/>
<feBlend mode="normal" in="SourceGraphic" in2="effect1_dropShadow" result="shape"/>
</filter>
<filter id="filter6_d" x="34.9739" y="49.7636" width="2" height="6.3092" filterUnits="userSpaceOnUse" color-interpolation-filters="sRGB">
<feFlood flood-opacity="0" result="BackgroundImageFix"/>
<feColorMatrix in="SourceAlpha" type="matrix" values="0 0 0 0 0 0 0 0 0 0 0 0 0 0 0 0 0 0 127 0"/>
<feOffset dx="1" dy="-1"/>
<feColorMatrix type="matrix" values="0 0 0 0 1 0 0 0 0 1 0 0 0 0 1 0 0 0 1 0"/>
<feBlend mode="normal" in2="BackgroundImageFix" result="effect1_dropShadow"/>
<feBlend mode="normal" in="SourceGraphic" in2="effect1_dropShadow" result="shape"/>
</filter>
<filter id="filter7_d" x="42.1135" y="47.9646" width="2" height="8.10819" filterUnits="userSpaceOnUse" color-interpolation-filters="sRGB">
<feFlood flood-opacity="0" result="BackgroundImageFix"/>
<feColorMatrix in="SourceAlpha" type="matrix" values="0 0 0 0 0 0 0 0 0 0 0 0 0 0 0 0 0 0 127 0"/>
<feOffset dx="1" dy="-1"/>
<feColorMatrix type="matrix" values="0 0 0 0 1 0 0 0 0 1 0 0 0 0 1 0 0 0 1 0"/>
<feBlend mode="normal" in2="BackgroundImageFix" result="effect1_dropShadow"/>
<feBlend mode="normal" in="SourceGraphic" in2="effect1_dropShadow" result="shape"/>
</filter>
<filter id="filter8_d" x="49.0823" y="41.5585" width="2" height="14.5143" filterUnits="userSpaceOnUse" color-interpolation-filters="sRGB">
<feFlood flood-opacity="0" result="BackgroundImageFix"/>
<feColorMatrix in="SourceAlpha" type="matrix" values="0 0 0 0 0 0 0 0 0 0 0 0 0 0 0 0 0 0 127 0"/>
<feOffset dx="1" dy="-1"/>
<feColorMatrix type="matrix" values="0 0 0 0 1 0 0 0 0 1 0 0 0 0 1 0 0 0 1 0"/>
<feBlend mode="normal" in2="BackgroundImageFix" result="effect1_dropShadow"/>
<feBlend mode="normal" in="SourceGraphic" in2="effect1_dropShadow" result="shape"/>
</filter>
<filter id="filter9_i" x="11.1982" y="39.7979" width="5.36842" height="10.9323" filterUnits="userSpaceOnUse" color-interpolation-filters="sRGB">
<feFlood flood-opacity="0" result="BackgroundImageFix"/>
<feBlend mode="normal" in="SourceGraphic" in2="BackgroundImageFix" result="shape"/>
<feColorMatrix in="SourceAlpha" type="matrix" values="0 0 0 0 0 0 0 0 0 0 0 0 0 0 0 0 0 0 127 0" result="hardAlpha"/>
<feOffset dy="-4"/>
<feComposite in2="hardAlpha" operator="arithmetic" k2="-1" k3="1"/>
<feColorMatrix type="matrix" values="0 0 0 0 1 0 0 0 0 1 0 0 0 0 1 0 0 0 0.25 0"/>
<feBlend mode="normal" in2="shape" result="effect1_innerShadow"/>
</filter>
<filter id="filter10_i" x="19.5208" y="39.8165" width="5.36842" height="10.9323" filterUnits="userSpaceOnUse" color-interpolation-filters="sRGB">
<feFlood flood-opacity="0" result="BackgroundImageFix"/>
<feBlend mode="normal" in="SourceGraphic" in2="BackgroundImageFix" result="shape"/>
<feColorMatrix in="SourceAlpha" type="matrix" values="0 0 0 0 0 0 0 0 0 0 0 0 0 0 0 0 0 0 127 0" result="hardAlpha"/>
<feOffset dy="-4"/>
<feComposite in2="hardAlpha" operator="arithmetic" k2="-1" k3="1"/>
<feColorMatrix type="matrix" values="0 0 0 0 1 0 0 0 0 1 0 0 0 0 1 0 0 0 0.25 0"/>
<feBlend mode="normal" in2="shape" result="effect1_innerShadow"/>
</filter>
<filter id="filter11_i" x="32.2678" y="39.8165" width="5.36842" height="10.9323" filterUnits="userSpaceOnUse" color-interpolation-filters="sRGB">
<feFlood flood-opacity="0" result="BackgroundImageFix"/>
<feBlend mode="normal" in="SourceGraphic" in2="BackgroundImageFix" result="shape"/>
<feColorMatrix in="SourceAlpha" type="matrix" values="0 0 0 0 0 0 0 0 0 0 0 0 0 0 0 0 0 0 127 0" result="hardAlpha"/>
<feOffset dy="-4"/>
<feComposite in2="hardAlpha" operator="arithmetic" k2="-1" k3="1"/>
<feColorMatrix type="matrix" values="0 0 0 0 1 0 0 0 0 1 0 0 0 0 1 0 0 0 0.25 0"/>
<feBlend mode="normal" in2="shape" result="effect1_innerShadow"/>
</filter>
<filter id="filter12_i" x="39.5657" y="39.8165" width="5.36842" height="10.9323" filterUnits="userSpaceOnUse" color-interpolation-filters="sRGB">
<feFlood flood-opacity="0" result="BackgroundImageFix"/>
<feBlend mode="normal" in="SourceGraphic" in2="BackgroundImageFix" result="shape"/>
<feColorMatrix in="SourceAlpha" type="matrix" values="0 0 0 0 0 0 0 0 0 0 0 0 0 0 0 0 0 0 127 0" result="hardAlpha"/>
<feOffset dy="-4"/>
<feComposite in2="hardAlpha" operator="arithmetic" k2="-1" k3="1"/>
<feColorMatrix type="matrix" values="0 0 0 0 1 0 0 0 0 1 0 0 0 0 1 0 0 0 0.25 0"/>
<feBlend mode="normal" in2="shape" result="effect1_innerShadow"/>
</filter>
<filter id="filter13_i" x="47.3992" y="39.8165" width="5.36842" height="10.8678" filterUnits="userSpaceOnUse" color-interpolation-filters="sRGB">
<feFlood flood-opacity="0" result="BackgroundImageFix"/>
<feBlend mode="normal" in="SourceGraphic" in2="BackgroundImageFix" result="shape"/>
<feColorMatrix in="SourceAlpha" type="matrix" values="0 0 0 0 0 0 0 0 0 0 0 0 0 0 0 0 0 0 127 0" result="hardAlpha"/>
<feOffset dy="-4"/>
<feComposite in2="hardAlpha" operator="arithmetic" k2="-1" k3="1"/>
<feColorMatrix type="matrix" values="0 0 0 0 1 0 0 0 0 1 0 0 0 0 1 0 0 0 0.25 0"/>
<feBlend mode="normal" in2="shape" result="effect1_innerShadow"/>
</filter>
<filter id="filter14_d" x="5.99561" y="26.257" width="51.973" height="11.8415" filterUnits="userSpaceOnUse" color-interpolation-filters="sRGB">
<feFlood flood-opacity="0" result="BackgroundImageFix"/>
<feColorMatrix in="SourceAlpha" type="matrix" values="0 0 0 0 0 0 0 0 0 0 0 0 0 0 0 0 0 0 127 0"/>
<feOffset dy="1"/>
<feColorMatrix type="matrix" values="0 0 0 0 0.443137 0 0 0 0 0.439216 0 0 0 0 0.439216 0 0 0 1 0"/>
<feBlend mode="normal" in2="BackgroundImageFix" result="effect1_dropShadow"/>
<feBlend mode="normal" in="SourceGraphic" in2="effect1_dropShadow" result="shape"/>
</filter>
<filter id="filter15_dd" x="35.1228" y="28.5985" width="10" height="11" filterUnits="userSpaceOnUse" color-interpolation-filters="sRGB">
<feFlood flood-opacity="0" result="BackgroundImageFix"/>
<feColorMatrix in="SourceAlpha" type="matrix" values="0 0 0 0 0 0 0 0 0 0 0 0 0 0 0 0 0 0 127 0"/>
<feOffset dy="1"/>
<feGaussianBlur stdDeviation="1"/>
<feColorMatrix type="matrix" values="0 0 0 0 0 0 0 0 0 0 0 0 0 0 0 0 0 0 0.75 0"/>
<feBlend mode="normal" in2="BackgroundImageFix" result="effect1_dropShadow"/>
<feColorMatrix in="SourceAlpha" type="matrix" values="0 0 0 0 0 0 0 0 0 0 0 0 0 0 0 0 0 0 127 0"/>
<feOffset dy="-1"/>
<feGaussianBlur stdDeviation="0.5"/>
<feColorMatrix type="matrix" values="0 0 0 0 1 0 0 0 0 1 0 0 0 0 1 0 0 0 0.15 0"/>
<feBlend mode="normal" in2="effect1_dropShadow" result="effect2_dropShadow"/>
<feBlend mode="normal" in="SourceGraphic" in2="effect2_dropShadow" result="shape"/>
</filter>
<filter id="filter16_dd" x="45.5139" y="28.5985" width="10" height="11" filterUnits="userSpaceOnUse" color-interpolation-filters="sRGB">
<feFlood flood-opacity="0" result="BackgroundImageFix"/>
<feColorMatrix in="SourceAlpha" type="matrix" values="0 0 0 0 0 0 0 0 0 0 0 0 0 0 0 0 0 0 127 0"/>
<feOffset dy="1"/>
<feGaussianBlur stdDeviation="1"/>
<feColorMatrix type="matrix" values="0 0 0 0 0 0 0 0 0 0 0 0 0 0 0 0 0 0 0.75 0"/>
<feBlend mode="normal" in2="BackgroundImageFix" result="effect1_dropShadow"/>
<feColorMatrix in="SourceAlpha" type="matrix" values="0 0 0 0 0 0 0 0 0 0 0 0 0 0 0 0 0 0 127 0"/>
<feOffset dy="-1"/>
<feGaussianBlur stdDeviation="0.5"/>
<feColorMatrix type="matrix" values="0 0 0 0 1 0 0 0 0 1 0 0 0 0 1 0 0 0 0.15 0"/>
<feBlend mode="normal" in2="effect1_dropShadow" result="effect2_dropShadow"/>
<feBlend mode="normal" in="SourceGraphic" in2="effect2_dropShadow" result="shape"/>
</filter>
<filter id="filter17_ii" x="18.7412" y="43.6529" width="39.3117" height="14.4195" filterUnits="userSpaceOnUse" color-interpolation-filters="sRGB">
<feFlood flood-opacity="0" result="BackgroundImageFix"/>
<feBlend mode="normal" in="SourceGraphic" in2="BackgroundImageFix" result="shape"/>
<feColorMatrix in="SourceAlpha" type="matrix" values="0 0 0 0 0 0 0 0 0 0 0 0 0 0 0 0 0 0 127 0" result="hardAlpha"/>
<feOffset dy="2"/>
<feComposite in2="hardAlpha" operator="arithmetic" k2="-1" k3="1"/>
<feColorMatrix type="matrix" values="0 0 0 0 1 0 0 0 0 1 0 0 0 0 1 0 0 0 0.25 0"/>
<feBlend mode="normal" in2="shape" result="effect1_innerShadow"/>
<feColorMatrix in="SourceAlpha" type="matrix" values="0 0 0 0 0 0 0 0 0 0 0 0 0 0 0 0 0 0 127 0" result="hardAlpha"/>
<feOffset dy="-2"/>
<feComposite in2="hardAlpha" operator="arithmetic" k2="-1" k3="1"/>
<feColorMatrix type="matrix" values="0 0 0 0 0 0 0 0 0 0 0 0 0 0 0 0 0 0 0.25 0"/>
<feBlend mode="normal" in2="effect1_innerShadow" result="effect2_innerShadow"/>
</filter>
<filter id="filter18_d" x="24.3179" y="48.0453" width="28.5161" height="7.09844" filterUnits="userSpaceOnUse" color-interpolation-filters="sRGB">
<feFlood flood-opacity="0" result="BackgroundImageFix"/>
<feColorMatrix in="SourceAlpha" type="matrix" values="0 0 0 0 0 0 0 0 0 0 0 0 0 0 0 0 0 0 127 0"/>
<feOffset dy="0.7"/>
<feColorMatrix type="matrix" values="0 0 0 0 0 0 0 0 0 0 0 0 0 0 0 0 0 0 0.3 0"/>
<feBlend mode="normal" in2="BackgroundImageFix" result="effect1_dropShadow"/>
<feBlend mode="normal" in="SourceGraphic" in2="effect1_dropShadow" result="shape"/>
</filter>
<radialGradient id="paint0_radial" cx="0" cy="0" r="1" gradientUnits="userSpaceOnUse" gradientTransform="translate(54.0944 59) scale(7.90969 2.5)">
<stop stop-color="#181818"/>
<stop offset="1" stop-color="#181818" stop-opacity="0"/>
</radialGradient>
<radialGradient id="paint1_radial" cx="0" cy="0" r="1" gradientUnits="userSpaceOnUse" gradientTransform="translate(9.90586 59) rotate(180) scale(7.90969 2.5)">
<stop stop-color="#181818"/>
<stop offset="1" stop-color="#181818" stop-opacity="0"/>
</radialGradient>
<linearGradient id="paint2_linear" x1="33.6708" y1="61.5198" x2="33.6708" y2="56.4996" gradientUnits="userSpaceOnUse">
<stop stop-color="#181818" stop-opacity="0"/>
<stop offset="0.5" stop-color="#181818"/>
<stop offset="1" stop-color="#181818" stop-opacity="0"/>
</linearGradient>
<linearGradient id="paint3_linear" x1="31.3975" y1="4.7175" x2="31.3975" y2="59.461" gradientUnits="userSpaceOnUse">
<stop stop-color="#4D4D4D"/>
<stop offset="1" stop-color="#1A1A1A"/>
</linearGradient>
<linearGradient id="paint4_linear" x1="32" y1="4.71062" x2="32" y2="59.2894" gradientUnits="userSpaceOnUse">
<stop stop-color="white"/>
<stop offset="0.0631645" stop-color="white" stop-opacity="0.12"/>
<stop offset="0.950563" stop-color="white" stop-opacity="0.12"/>
<stop offset="1" stop-color="white" stop-opacity="0.5"/>
</linearGradient>
<radialGradient id="paint5_radial" cx="0" cy="0" r="1" gradientUnits="userSpaceOnUse" gradientTransform="translate(22.1345 15.3109) rotate(90) scale(21.3623)">
<stop stop-color="#828282"/>
<stop offset="1" stop-color="#161616"/>
</radialGradient>
<radialGradient id="paint6_radial" cx="0" cy="0" r="1" gradientUnits="userSpaceOnUse" gradientTransform="translate(22.1345 13.451) rotate(90) scale(19.7386)">
<stop stop-color="#A62100"/>
<stop offset="1" stop-color="#F37329"/>
</radialGradient>
<radialGradient id="paint7_radial" cx="0" cy="0" r="1" gradientUnits="userSpaceOnUse" gradientTransform="translate(22.1345 20.6674) rotate(90) scale(5.21511)">
<stop stop-color="#B6B6B6"/>
<stop offset="1"/>
</radialGradient>
<linearGradient id="paint8_linear" x1="22.1345" y1="19.0958" x2="22.1345" y2="25.8825" gradientUnits="userSpaceOnUse">
<stop/>
<stop offset="1" stop-color="#626262"/>
</linearGradient>
<radialGradient id="paint9_radial" cx="0" cy="0" r="1" gradientUnits="userSpaceOnUse" gradientTransform="translate(46.5306 11.7562) rotate(90) scale(13.4236)">
<stop stop-color="#828282"/>
<stop offset="1" stop-color="#161616"/>
</radialGradient>
<radialGradient id="paint10_radial" cx="0" cy="0" r="1" gradientUnits="userSpaceOnUse" gradientTransform="translate(46.5305 11.5399) rotate(90) scale(10.3233)">
<stop stop-color="#A62100"/>
<stop offset="1" stop-color="#F37329"/>
</radialGradient>
<radialGradient id="paint11_radial" cx="0" cy="0" r="1" gradientUnits="userSpaceOnUse" gradientTransform="translate(46.5303 14.4451) rotate(90) scale(5.21511)">
<stop stop-color="#B6B6B6"/>
<stop offset="1"/>
</radialGradient>
<linearGradient id="paint12_linear" x1="46.5303" y1="12.8735" x2="46.5303" y2="19.6602" gradientUnits="userSpaceOnUse">
<stop/>
<stop offset="1" stop-color="#626262"/>
</linearGradient>
<linearGradient id="paint13_linear" x1="31.9588" y1="27.0624" x2="31.9588" y2="58.0724" gradientUnits="userSpaceOnUse">
<stop stop-color="#4F4C4C"/>
<stop offset="1" stop-color="#262626"/>
</linearGradient>
<radialGradient id="paint14_radial" cx="0" cy="0" r="1" gradientUnits="userSpaceOnUse" gradientTransform="translate(40.1228 32.1488) rotate(90) scale(4.4497)">
<stop stop-color="#2B2B2B"/>
<stop offset="1" stop-color="#4F4F4F"/>
</radialGradient>
<radialGradient id="paint15_radial" cx="0" cy="0" r="1" gradientUnits="userSpaceOnUse" gradientTransform="translate(50.5139 32.1488) rotate(90) scale(4.4497)">
<stop stop-color="#2B2B2B"/>
<stop offset="1" stop-color="#4F4F4F"/>
</radialGradient>
</defs>
</svg>
