<svg width="16" height="16" viewBox="0 0 16 16" fill="none" xmlns="http://www.w3.org/2000/svg">
<g clip-path="url(#clip0_1157_2)">
<path fill-rule="evenodd" clip-rule="evenodd" d="M14 10H12V12H10V14H12V16H14V14H16V12H14V10Z" fill="#555761"/>
<path d="M15 9.22343V9.23813C15 9.23568 15 9.23323 15 9.23078C15 9.22833 15 9.22588 15 9.22343Z" fill="#555761"/>
<path d="M8.07693 2.30769C8.07693 2.72803 7.96455 3.12211 7.7682 3.46154H10.5385C11.0907 3.46154 11.5385 3.90926 11.5385 4.46154V7.23182C11.8779 7.03547 12.272 6.92309 12.6923 6.92309C13.8889 6.92309 14.8728 7.83385 14.9886 9H12C11.5 9 11 9.5 11 10V11C11 11 11 11 10 11C9.37004 11 9 11.5 9 12C9 12.5 9 14 9 15C8.5 15 8 15 8 15C7.5 15 8.07694 14.2665 8.07694 13.8461C8.07694 12.5716 7.04375 11.5384 5.76925 11.5384C4.49474 11.5384 3.46155 12.5716 3.46155 13.8461C3.46155 14.2665 4 15 3.5 15L1 15C0.447716 15 0 14.5523 0 14V11.5385C0 11 0.733508 11.5385 1.15383 11.5385C2.42834 11.5385 3.46153 10.5053 3.46153 9.23078C3.46153 7.95627 2.42834 6.92308 1.15383 6.92308C0.733508 6.92308 0 7.5 0 7V4.46154C0 3.90926 0.447715 3.46154 1 3.46154H3.77027C3.57392 3.12211 3.46154 2.72803 3.46154 2.30769C3.46154 1.03319 4.49473 0 5.76924 0C7.04374 0 8.07693 1.03319 8.07693 2.30769Z" fill="#555761"/>
</g>
<defs>
<clipPath id="clip0_1157_2">
<rect width="16" height="16" fill="white"/>
</clipPath>
</defs>
</svg>
