<?xml version="1.0" encoding="UTF-8" standalone="no"?>
<!-- Created with Inkscape (http://www.inkscape.org/) -->

<svg
   width="16.0px"
   height="16.0px"
   viewBox="0 0 16.0 16.0"
   version="1.1"
   id="SVGRoot"
   sodipodi:docname="com.github.subhadeepjasu.ensembles.sync-start-symbolic.svg"
   inkscape:version="1.2.2 (b0a8486541, 2022-12-01)"
   xmlns:inkscape="http://www.inkscape.org/namespaces/inkscape"
   xmlns:sodipodi="http://sodipodi.sourceforge.net/DTD/sodipodi-0.dtd"
   xmlns="http://www.w3.org/2000/svg"
   xmlns:svg="http://www.w3.org/2000/svg">
  <sodipodi:namedview
     id="namedview438"
     pagecolor="#ffffff"
     bordercolor="#000000"
     borderopacity="0.25"
     inkscape:showpageshadow="2"
     inkscape:pageopacity="0.0"
     inkscape:pagecheckerboard="0"
     inkscape:deskcolor="#d1d1d1"
     inkscape:document-units="px"
     showgrid="true"
     inkscape:zoom="35.568938"
     inkscape:cx="8.4343255"
     inkscape:cy="5.5666548"
     inkscape:window-width="1920"
     inkscape:window-height="1019"
     inkscape:window-x="0"
     inkscape:window-y="30"
     inkscape:window-maximized="1"
     inkscape:current-layer="layer1">
    <inkscape:grid
       type="xygrid"
       id="grid444" />
  </sodipodi:namedview>
  <defs
     id="defs433" />
  <g
     inkscape:label="Layer 1"
     inkscape:groupmode="layer"
     id="layer1">
    <path
       fill-rule="evenodd"
       clip-rule="evenodd"
       d="M 9.0250415,11.373486 V 8.7927861 7.2875862 4.7068562 c 0,-0.36819 0.31339,-0.66667 0.69997,-0.66667 0.1179,0 0.22379,0.03429 0.3212295,0.08333 l 5.5974,3.33203 c 0.2236,0.11131 0.3814,0.32771 0.3814,0.58464 0,0.2569299 -0.1578,0.4733299 -0.3814,0.5846399 l -5.5974,3.3320599 c -0.09744,0.049 -0.2033295,0.0833 -0.3212295,0.0833 -0.38658,0 -0.69997,-0.2985 -0.69997,-0.6667 z"
       style="fill:#555761;fill-opacity:0.96470588"
       id="path2" />
    <path
       d="m 0.02505103,5.0401462 c 4.5e-6,-1.36176 2.00000047,-1.36176 2.00000047,0 0,1.70059 -2e-5,4.5000699 -1e-5,6.0000398 1e-5,1.2894 -1.99998897,1.2894 -1.99999727,0 -8.4e-6,-1.2894299 2.2e-6,-4.6382698 6.8e-6,-6.0000398 z"
       style="fill:#555761;fill-opacity:0.96470588"
       id="path4" />
    <path
       opacity="0.3"
       d="m 3.0250515,5.0615162 c 0,-1.36177 2,-1.36177 2,0 0,1.70058 -2e-5,4.5000599 -10e-6,6.0000698 10e-6,1.2894 -1.99999,1.2894 -2,0 -1e-5,-1.2894699 0,-4.6382998 1e-5,-6.0000698 z"
       style="fill:#555761;fill-opacity:0.96470588"
       fill-opacity="0.9318"
       id="path6" />
    <path
       opacity="0.3"
       d="m 6.0250515,5.0615162 c 0,-1.36177 2,-1.36177 2,0 0,1.70058 -2e-5,4.5000599 -10e-6,6.0000698 10e-6,1.2894 -1.99999,1.2894 -2,0 -1e-5,-1.2894699 0,-4.6382998 10e-6,-6.0000698 z"
       style="fill:#555761;fill-opacity:0.96470588"
       fill-opacity="0.9318"
       id="path8" />
  </g>
</svg>
